<?xml version="1.0" encoding="UTF-8"?><svg id="Layer_2" xmlns="http://www.w3.org/2000/svg" viewBox="0 0 240 240"><defs><style>.cls-1{fill:#fff;}.cls-2{fill:#4cc764;}.cls-3{fill:#ffe7b1;opacity:.85;}</style></defs><g id="Layer_1-2"><g><circle class="cls-3" cx="120" cy="120" r="118.5"/><path class="cls-1" d="M120,3c31.25,0,60.63,12.17,82.73,34.27,22.1,22.1,34.27,51.48,34.27,82.73s-12.17,60.63-34.27,82.73-51.48,34.27-82.73,34.27-60.63-12.17-82.73-34.27S3,151.25,3,120,15.17,59.37,37.27,37.27C59.37,15.17,88.75,3,120,3m0-3C53.73,0,0,53.73,0,120s53.73,120,120,120,120-53.73,120-120S186.27,0,120,0h0Z"/></g><g><circle class="cls-2" cx="29.96" cy="29.96" r="29.96"/><g><path class="cls-1" d="M49.94,28.22c0-8.95-8.97-16.23-20-16.23S9.94,19.27,9.94,28.22c0,8.02,7.12,14.74,16.73,16.01,.65,.14,1.54,.43,1.76,.99,.2,.51,.13,1.3,.06,1.81,0,0-.23,1.41-.29,1.71-.09,.51-.4,1.98,1.73,1.08,2.13-.9,11.52-6.78,15.72-11.61h0c2.9-3.18,4.29-6.4,4.29-9.99Z"/><g><path class="cls-2" d="M43.29,33.38c.21,0,.38-.17,.38-.38v-1.42c0-.21-.17-.38-.38-.38h-3.82v-1.47h3.82c.21,0,.38-.17,.38-.38v-1.42c0-.21-.17-.38-.38-.38h-3.82v-1.47h3.82c.21,0,.38-.17,.38-.38v-1.42c0-.21-.17-.38-.38-.38h-5.62c-.21,0-.38,.17-.38,.38h0v8.72h0c0,.22,.17,.39,.38,.39h5.62Z"/><path class="cls-2" d="M22.5,33.38c.21,0,.38-.17,.38-.38v-1.42c0-.21-.17-.38-.38-.38h-3.82v-6.93c0-.21-.17-.38-.38-.38h-1.42c-.21,0-.38,.17-.38,.38v8.72h0c0,.22,.17,.39,.38,.39h5.62Z"/><rect class="cls-2" x="24.08" y="23.89" width="2.18" height="9.49" rx=".38" ry=".38"/><path class="cls-2" d="M35.54,23.89h-1.42c-.21,0-.38,.17-.38,.38v5.18l-3.99-5.39s-.02-.03-.03-.04c0,0,0,0,0,0,0,0-.01-.02-.02-.02,0,0,0,0,0,0,0,0-.01-.01-.02-.02,0,0,0,0-.01,0,0,0-.01,0-.02-.01,0,0,0,0-.01,0,0,0-.01,0-.02-.01,0,0,0,0-.01,0,0,0-.01,0-.02,0,0,0,0,0-.01,0,0,0-.02,0-.02,0,0,0,0,0-.01,0,0,0-.02,0-.02,0,0,0-.01,0-.02,0,0,0-.01,0-.02,0,0,0-.01,0-.02,0,0,0,0,0-.01,0h-1.41c-.21,0-.38,.17-.38,.38v8.73c0,.21,.17,.38,.38,.38h1.42c.21,0,.38-.17,.38-.38v-5.18l4,5.4s.06,.07,.1,.1c0,0,0,0,0,0,0,0,.02,.01,.02,.01,0,0,0,0,.01,0,0,0,.01,0,.02,0,0,0,.01,0,.02,0,0,0,0,0,.01,0,0,0,.02,0,.03,0,0,0,0,0,0,0,.03,0,.07,.01,.1,.01h1.41c.21,0,.38-.17,.38-.38v-8.73c0-.21-.17-.38-.38-.38Z"/></g></g></g><g><path d="M63.53,72.11c0,.51,.02,1.08,.02,1.68h2.92c.77,0,1.87-.09,2.43-.19v3.11c-.75-.02-1.64-.07-2.27-.07h-3.02c.07,3.42,.16,7.32,.21,10.48,.02,1.5-.84,2.36-2.62,2.36-1.43,0-2.74-.05-4.07-.14l-.26-3.04c1.05,.19,2.32,.28,3.11,.28,.58,0,.82-.3,.82-.98,0-1.57,0-3.91-.05-6.32-2.06,2.69-5.85,5.94-9.54,7.91l-2.15-2.43c4.56-2.15,8.42-5.45,10.29-8.12h-6.39c-.84,0-1.85,.05-2.67,.09v-3.11c.68,.09,1.8,.16,2.6,.16h7.74c-.02-.61-.05-1.17-.07-1.68-.07-1.01-.14-1.75-.23-2.36h3.32c-.09,.73-.14,1.64-.14,2.36Z"/><path d="M84.04,83.22c4-2.36,7.04-5.94,8.51-9.1l1.82,3.3c-1.78,3.16-4.89,6.39-8.66,8.66-2.36,1.43-5.38,2.74-8.68,3.3l-1.96-3.09c3.65-.51,6.69-1.71,8.96-3.06Zm0-7.56l-2.39,2.43c-1.22-1.31-4.14-3.86-5.85-5.05l2.2-2.34c1.64,1.1,4.68,3.53,6.04,4.96Z"/><path d="M117.36,78.3c-.7,2.27-1.71,4.54-3.46,6.48-2.36,2.62-5.36,4.21-8.35,5.05l-2.32-2.64c3.51-.73,6.32-2.27,8.09-4.09,1.26-1.29,1.99-2.74,2.41-4.05h-11.3c-.56,0-1.73,.02-2.71,.12v-3.04c.98,.07,1.99,.14,2.71,.14h11.58c.75,0,1.38-.09,1.71-.23l2.08,1.29c-.16,.3-.35,.73-.44,.98Zm-13.05-7.65h9.01c.73,0,1.87-.02,2.53-.12v3.02c-.63-.05-1.73-.07-2.57-.07h-8.96c-.75,0-1.75,.02-2.43,.07v-3.02c.65,.09,1.64,.12,2.43,.12Z"/><path d="M133.71,75.19c2.41-1.5,5.08-3.84,6.6-5.68l2.53,2.41c-1.78,1.75-4.02,3.58-6.29,5.08v9.45c0,1.03,.05,2.48,.21,3.06h-3.7c.09-.56,.16-2.04,.16-3.06v-7.49c-2.41,1.26-5.38,2.53-8.26,3.37l-1.47-2.95c4.19-1.08,7.63-2.6,10.22-4.19Z"/><path d="M157.54,83.22c4-2.36,7.04-5.94,8.51-9.1l1.82,3.3c-1.78,3.16-4.89,6.39-8.66,8.66-2.36,1.43-5.38,2.74-8.68,3.3l-1.96-3.09c3.65-.51,6.69-1.71,8.96-3.06Zm0-7.56l-2.39,2.43c-1.22-1.31-4.14-3.86-5.85-5.05l2.2-2.34c1.64,1.1,4.68,3.53,6.04,4.96Z"/><path d="M174.43,72.32c1.96-.16,5.82-.51,10.11-.87,2.41-.21,4.96-.35,6.62-.42l.02,2.99c-1.26,.02-3.27,.02-4.51,.33-2.83,.75-4.96,3.77-4.96,6.55,0,3.86,3.6,5.24,7.58,5.45l-1.1,3.2c-4.91-.33-9.54-2.95-9.54-8.02,0-3.37,1.9-6.04,3.49-7.23-2.2,.23-6.97,.75-9.68,1.33l-.3-3.2c.94-.02,1.85-.07,2.29-.12Zm15.27,7.18l-1.78,.8c-.58-1.29-1.08-2.2-1.82-3.25l1.73-.73c.58,.84,1.43,2.27,1.87,3.18Zm2.71-1.15l-1.75,.84c-.63-1.26-1.17-2.13-1.92-3.16l1.71-.8c.58,.82,1.47,2.2,1.96,3.11Z"/><path d="M60.12,127.45h8.65v2.5h-19.91v-2.5h8.35v-2.78h-6.48v-2.43h6.48v-2.69h-5.29v-1.85c-.84,.58-1.71,1.12-2.6,1.61-.35-.66-1.12-1.66-1.75-2.25,4-2.01,7.77-5.61,9.5-8.47h2.88c2.5,3.56,6.32,6.62,10.01,8.19-.73,.75-1.33,1.64-1.85,2.5-.84-.47-1.68-.98-2.53-1.57v1.82h-5.47v2.69h6.55v2.43h-6.55v2.78Zm4.56-10.36c-2.43-1.78-4.68-3.91-6.03-5.8-1.33,1.89-3.42,4-5.85,5.8h11.88Z"/><path d="M95.2,109.58v20.94h-2.97v-1.17h-13.85v1.17h-2.83v-20.94h19.65Zm-2.97,17.19v-14.64h-13.85v14.64h13.85Zm-.82-3.63v2.27h-12.12v-2.27h4.7v-2.76h-3.86v-2.34h3.86v-2.2h-4.44v-2.43h11.49v2.43h-4.47v2.2h3.95v2.34h-1.29c.63,.66,1.38,1.52,1.75,2.08l-1.22,.68h1.64Zm-4.84,0h2.34c-.4-.63-1.05-1.43-1.59-2.03l1.43-.73h-2.18v2.76Z"/><path d="M109.45,116.67c1.71-1.01,3.37-1.85,4.47-2.48,.87-.49,1.54-.91,2.18-1.4l1.47,2.76c-.75,.42-1.5,.82-2.34,1.24-1.47,.73-3.65,1.75-5.8,3.13-1.94,1.29-3.25,2.62-3.25,4.26s1.64,2.57,4.89,2.57c2.39,0,5.54-.37,7.63-.84l-.05,3.35c-1.99,.35-4.47,.61-7.51,.61-4.65,0-8.19-1.31-8.19-5.36,0-2.57,1.64-4.49,3.88-6.15-1.08-1.99-2.2-4.51-3.25-6.97l2.95-1.19c.89,2.43,1.96,4.68,2.92,6.48Zm10.25-3.63l-1.89,.8c-.47-.96-1.19-2.34-1.82-3.25l1.85-.75c.58,.84,1.43,2.34,1.87,3.2Zm2.81-1.08l-1.87,.8c-.49-.98-1.24-2.34-1.87-3.23l1.85-.77c.61,.89,1.47,2.39,1.9,3.2Z"/><path d="M128.81,123.75c0,1.5,1.43,2.57,4.8,2.57,3.16,0,6.15-.35,8.21-.94l.02,3.3c-2.04,.49-4.84,.8-8.12,.8-5.36,0-8.05-1.8-8.05-5.01,0-1.36,.28-2.5,.47-3.37l3.06,.28c-.23,.84-.4,1.57-.4,2.36Zm4.8-12c2.32,0,4.98-.14,6.78-.33v3.11c-1.64,.14-4.54,.28-6.76,.28-2.46,0-4.49-.09-6.39-.26v-3.09c1.73,.19,3.91,.28,6.36,.28Z"/><path d="M149.62,112.32c1.96-.16,5.82-.51,10.11-.87,2.41-.21,4.96-.35,6.62-.42l.02,2.99c-1.26,.02-3.27,.02-4.51,.33-2.83,.75-4.96,3.77-4.96,6.55,0,3.86,3.6,5.24,7.58,5.45l-1.1,3.2c-4.91-.33-9.54-2.95-9.54-8.02,0-3.37,1.9-6.04,3.49-7.23-2.2,.23-6.97,.75-9.68,1.33l-.3-3.2c.94-.02,1.85-.07,2.29-.12Zm15.27,7.18l-1.78,.8c-.58-1.29-1.08-2.2-1.82-3.25l1.73-.73c.58,.84,1.43,2.27,1.87,3.18Zm2.71-1.15l-1.75,.84c-.63-1.26-1.17-2.13-1.92-3.16l1.71-.8c.58,.82,1.47,2.2,1.96,3.11Z"/><path d="M181.64,111.82c-.07,.4-.16,1.03-.26,1.8,1.68-.02,3.18-.16,4.28-.33l-.09,2.78c-1.4,.14-2.69,.23-4.56,.23-.14,1.03-.28,2.13-.4,3.18h.16c1.45,0,3.18-.09,4.7-.28l-.07,2.78c-1.31,.12-2.67,.21-4.14,.21h-.94c-.05,.7-.09,1.29-.09,1.71,0,1.94,1.19,2.97,3.49,2.97,3.27,0,5.05-1.5,5.05-3.42,0-1.59-.87-3.09-2.41-4.54l3.3-.7c1.54,1.96,2.27,3.63,2.27,5.61,0,3.53-3.18,6.06-8.3,6.06-3.67,0-6.27-1.59-6.27-5.5,0-.56,.07-1.4,.16-2.36-1.71-.16-3.25-.42-4.49-.77l.16-2.83c1.52,.51,3.09,.77,4.61,.94,.14-1.05,.28-2.15,.4-3.2-1.61-.16-3.27-.44-4.65-.84l.16-2.69c1.36,.44,3.11,.75,4.82,.89,.07-.73,.14-1.36,.19-1.9,.07-1.1,.07-1.57,.02-2.08l3.3,.19c-.21,.84-.3,1.47-.4,2.08Z"/><path d="M105.83,155.66c-.44,2.53-1.08,4.79-1.92,6.81,1.03,1.36,1.87,2.67,2.41,3.79l-2.22,1.9c-.37-.84-.91-1.83-1.59-2.88-1.24,2.06-2.83,3.74-4.79,5.05-.33-.56-1.29-1.66-1.87-2.17,2.18-1.26,3.79-3.06,4.98-5.31-1.24-1.66-2.62-3.32-3.91-4.75l1.99-1.57c1.01,1.08,2.06,2.27,3.09,3.51,.49-1.45,.87-3.02,1.12-4.73l2.71,.35Zm12.07,.87h-2.5v10.53c0,1.57-.28,2.39-1.17,2.83-.89,.49-2.27,.61-4.21,.61-.09-.82-.49-2.15-.89-2.99,1.31,.07,2.57,.05,2.97,.05,.42,0,.56-.12,.56-.49v-10.53h-5.87v-1.68h-10.29v-2.57h4.07v-3.58h2.67v3.58h4.33v1.59h5.1v-5.19h2.74v5.19h2.5v2.67Zm-9.12,1.85c1.1,1.54,2.22,3.56,2.6,4.94l-2.41,1.24c-.35-1.38-1.36-3.51-2.41-5.1l2.22-1.08Z"/><path d="M127.44,157.27c0,3.77-.35,9.54-2.46,13.19-.51-.47-1.75-1.26-2.41-1.57,1.92-3.34,2.08-8.26,2.08-11.63v-5.89h8.33v-2.69h2.9v2.69h8.44v2.64h-16.89v3.25Zm-.42,10.11c.98-1.78,1.47-4.49,1.71-7.09l2.5,.54c-.26,2.69-.68,5.78-1.73,7.65l-2.48-1.1Zm10.43,.21c.7,0,.84-.54,.94-3.77,.58,.49,1.73,.94,2.46,1.12-.26,4-.96,5.12-3.13,5.12h-2.6c-2.48,0-3.06-.82-3.06-3.42v-8.16h2.76v8.14c0,.84,.09,.96,.75,.96h1.89Zm.26-8.02c-1.12-1.1-3.58-2.67-5.5-3.65l1.85-1.82c1.87,.89,4.4,2.29,5.66,3.39l-2.01,2.08Zm4.09,.12c1.38,2.43,2.74,5.52,3.11,7.65l-2.74,1.12c-.3-2.08-1.52-5.33-2.85-7.81l2.48-.96Z"/></g></g></svg>