<?xml version="1.0" encoding="UTF-8"?><svg id="Layer_2" xmlns="http://www.w3.org/2000/svg" viewBox="0 0 240 240"><defs><style>.cls-1{fill:#fff;}.cls-2{fill:#ffe7b1;opacity:.85;}</style></defs><g id="Layer_1-2"><g><circle class="cls-2" cx="120" cy="120" r="118.5"/><path class="cls-1" d="M120,3c31.25,0,60.63,12.17,82.73,34.27,22.1,22.1,34.27,51.48,34.27,82.73s-12.17,60.63-34.27,82.73-51.48,34.27-82.73,34.27-60.63-12.17-82.73-34.27S3,151.25,3,120,15.17,59.37,37.27,37.27C59.37,15.17,88.75,3,120,3m0-3C53.73,0,0,53.73,0,120s53.73,120,120,120,120-53.73,120-120S186.27,0,120,0h0Z"/></g><g><path d="M64.61,71.06c-.61,1.99-1.38,4.54-2.04,6.36,1.4,1.78,1.71,3.35,1.71,4.7,0,1.5-.3,2.48-1.03,2.99-.37,.26-.82,.4-1.36,.49-.4,.05-.96,.07-1.5,.05-.02-.65-.23-1.71-.61-2.36,.42,.02,.73,.02,1.03,.02,.26-.02,.47-.07,.65-.21,.26-.19,.35-.65,.35-1.31,0-1.08-.3-2.53-1.61-4.09,.47-1.47,.96-3.51,1.33-5.1h-1.82v18.36h-2.41v-20.84h5.08l.4-.12,1.82,1.05Zm13.54,16.58h-5.85v3.32h-2.69v-3.32h-5.8v-2.2h5.8v-1.19h-4.35v-6.92h11.58v6.92h-4.54v1.19h5.85v2.2Zm-11.16-13.45c-.09-.47-.26-1.01-.47-1.45h-1.73v-2.18h4.82v-1.45h2.69v1.45h5.29v2.18h-1.94c-.28,.56-.54,1.05-.77,1.45h3.16v2.18h-14.04v-2.18h2.99Zm.75,5.8h6.53v-.98h-6.53v.98Zm0,2.57h6.53v-.98h-6.53v.98Zm4.56-8.37c.19-.42,.42-.96,.61-1.45h-3.86c.21,.51,.37,1.05,.44,1.45h2.81Z"/><path d="M104.39,81.01v2.25h-20.82v-2.25h8.89v-1.03h-6.64v-2.06h6.64v-.96h-5.66v-1.05h-2.69v-4.8h8.33v-1.99h2.85v1.99h8.56v4.8h-2.64v1.05h-5.96v.96h7.06v2.06h-7.06v1.03h9.15Zm-17.61,3.18h14.62v6.76h-2.83v-.63h-9.1v.66h-2.69v-6.78Zm5.68-9.33v-1.22h2.78v1.22h5.75v-1.31h-14.18v1.31h5.64Zm-2.99,11.51v1.78h9.1v-1.78h-9.1Z"/><path d="M131.31,85.99h-8v5.01h-2.88v-5.01h-10.53v-2.67h3.7v-6.15h6.83v-2.78h-5.01c-.96,1.66-2.08,3.16-3.18,4.26-.54-.47-1.73-1.4-2.41-1.8,2.11-1.78,3.91-4.77,4.91-7.79l2.83,.73c-.21,.65-.47,1.29-.77,1.92h13.22v2.69h-6.71v2.78h6.17v2.6h-6.17v3.56h8v2.67Zm-10.88-2.67v-3.56h-4.05v3.56h4.05Z"/><path d="M154.51,84.21c-.89,1.29-1.8,2.71-2.62,3.7h5.29v2.39h-19.79v-2.39h4.56c-.35-1.05-1.12-2.62-1.94-3.77l2.13-.91h-3.58v-2.39h7.11v-2.32h-4.3v-1.15c-1.1,.8-2.29,1.54-3.49,2.18-.35-.66-1.12-1.66-1.73-2.25,3.98-1.94,7.72-5.45,9.45-8.26h2.88c2.53,3.53,6.29,6.48,9.99,7.98-.7,.7-1.33,1.64-1.85,2.5-1.17-.61-2.39-1.38-3.56-2.22v1.22h-4.47v2.32h7.2v2.39h-7.2v4.68h2.55l-1.52-.63c.77-1.1,1.71-2.81,2.22-4.05l2.67,.98Zm-12.23-.98c.89,1.19,1.8,2.78,2.15,3.86l-1.92,.82h3.16v-4.68h-3.39Zm9.19-7.13c-1.73-1.4-3.28-2.92-4.3-4.33-1.01,1.4-2.46,2.92-4.14,4.33h8.45Z"/><path d="M168.42,73.1c-.3,1.57-1.12,6.25-1.12,8.58,0,.44,.02,1.05,.09,1.52,.35-.8,.73-1.61,1.05-2.39l1.45,1.15c-.65,1.94-1.43,4.49-1.68,5.73-.07,.35-.12,.87-.12,1.1,0,.26,.02,.63,.05,.96l-2.71,.19c-.47-1.61-.91-4.47-.91-7.65,0-3.51,.73-7.46,.98-9.26,.07-.66,.21-1.54,.23-2.29l3.28,.28c-.19,.49-.49,1.66-.58,2.08Zm5.78,11.44c0,1.03,.89,1.66,3.27,1.66,2.08,0,3.81-.19,5.87-.61l.05,3.16c-1.52,.28-3.39,.44-6.04,.44-4.02,0-5.96-1.43-5.96-3.84,0-.91,.14-1.85,.4-3.04l2.69,.26c-.19,.77-.28,1.33-.28,1.97Zm8.47-11.98v3.02c-2.88,.26-7.11,.28-10.06,0v-2.99c2.88,.4,7.53,.28,10.06-.02Z"/><path d="M44.97,115.18h-9.15v-2.2h9.15v2.2Zm-.87,14.55h-4.89v.91h-2.36v-7.98h7.25v7.06Zm-7.18-13.5h7.2v2.13h-7.2v-2.13Zm0,3.2h7.2v2.08h-7.2v-2.08Zm7.16-7.49h-7.06v-2.1h7.06v2.1Zm-4.87,12.91v2.69h2.48v-2.69h-2.48Zm18.5,.75h-5.1v5.36h-2.74v-5.36h-5.22v-2.53h5.22v-2.36h-4v-2.46h4v-2.22h-4.47v-2.53h2.13c-.28-1.05-.84-2.41-1.43-3.46l2.25-.84c.75,1.22,1.43,2.78,1.68,3.86l-1.12,.44h4.56l-1.05-.35c.56-1.12,1.26-2.85,1.61-4.09l2.71,.77c-.65,1.33-1.36,2.69-1.94,3.67h2.53v2.53h-4.73v2.22h4.23v2.46h-4.23v2.36h5.1v2.53Z"/><path d="M68.66,113.5c-.09,2.53-.28,7.77-.28,10.67,0,2.36,1.4,3.13,3.23,3.13,3.86,0,6.32-2.22,8-4.77l2.13,2.57c-1.5,2.25-4.82,5.38-10.15,5.38-3.84,0-6.32-1.68-6.32-5.68,0-3.13,.23-9.29,.23-11.3,0-1.1-.09-2.22-.3-3.16l3.77,.05c-.14,.98-.26,2.18-.3,3.11Z"/><path d="M91.21,115.06c-.02,1.52,0,3.27,.14,4.96,.33,3.37,1.03,5.68,2.5,5.68,1.1,0,2.04-2.74,2.48-4.61l2.34,2.85c-1.54,4.07-3.02,5.5-4.89,5.5-2.57,0-4.79-2.32-5.45-8.58-.23-2.15-.26-4.89-.26-6.32,0-.66-.05-1.66-.19-2.39l3.6,.05c-.16,.84-.28,2.2-.28,2.85Zm16.23,9.8l-3.06,1.19c-.37-3.77-1.61-9.45-4.16-12.35l2.97-.96c2.22,2.69,4,8.54,4.26,12.12Z"/><path d="M129.57,114.53c-.79,1.82-2.11,4.33-3.67,6.43,2.32,2.01,5.15,5.01,6.53,6.69l-2.67,2.32c-1.52-2.11-3.7-4.49-5.89-6.62-2.48,2.62-5.59,5.05-8.8,6.57l-2.41-2.53c3.77-1.4,7.39-4.26,9.59-6.71,1.54-1.75,2.97-4.07,3.49-5.73h-7.93c-.98,0-2.27,.14-2.76,.16v-3.32c.63,.09,2.06,.16,2.76,.16h8.26c1.01,0,1.94-.14,2.41-.3l1.92,1.43c-.19,.26-.61,.98-.82,1.45Z"/><path d="M148.39,112.8h4.75c.73,0,1.52-.09,2.04-.26l2.39,1.47c-.26,.44-.56,1.08-.77,1.66-.63,1.9-1.8,4.4-3.46,6.74,1.01,.73,1.92,1.4,2.6,1.96l-2.22,2.64c-.63-.58-1.5-1.31-2.46-2.08-2.06,2.18-4.72,4.16-8.37,5.54l-2.71-2.36c4.05-1.24,6.64-3.13,8.59-5.08-1.52-1.12-3.06-2.18-4.26-2.92l2.08-2.13c1.24,.7,2.71,1.66,4.19,2.64,1.22-1.68,2.22-3.72,2.57-5.17h-6.69c-1.64,2.18-3.81,4.42-6.18,6.06l-2.53-1.94c4.09-2.55,6.27-5.75,7.44-7.79,.38-.56,.87-1.64,1.08-2.43l3.39,1.05c-.59,.82-1.17,1.87-1.45,2.39Z"/><path d="M168.3,121.61l-2.85,1.08c-.4-1.26-1.57-4.37-2.13-5.4l2.81-1.01c.59,1.19,1.71,4.02,2.18,5.33Zm11.32-3.16c-.61,2.36-1.59,4.8-3.18,6.85-2.18,2.81-5.1,4.77-7.84,5.8l-2.46-2.5c2.57-.68,5.83-2.46,7.77-4.89,1.59-1.99,2.71-5.1,2.99-8.02l3.27,1.05c-.28,.75-.42,1.24-.56,1.71Zm-6.15,1.71l-2.81,.98c-.28-1.15-1.31-3.98-1.89-5.19l2.78-.91c.44,1.01,1.59,4.05,1.92,5.12Z"/><path d="M203.66,114.99c-.54,2.29-1.57,5.92-3.51,8.51-2.13,2.81-5.24,5.12-9.4,6.46l-2.55-2.78c4.63-1.1,7.28-3.13,9.17-5.5,1.54-1.94,2.43-4.61,2.74-6.6h-10.9c-1.05,0-2.18,.05-2.78,.09v-3.3c.7,.07,2.04,.19,2.81,.19h10.81c.47,0,1.22-.02,1.85-.19l2.29,1.47c-.21,.47-.4,1.15-.51,1.64Z"/><path d="M92.18,152.56c-.14,.7-.33,1.57-.49,2.41,.8-.05,1.47-.09,1.96-.09,2.48,0,4.23,1.1,4.23,4.47,0,2.76-.33,6.55-1.33,8.58-.77,1.64-2.06,2.15-3.84,2.15-.89,0-2.01-.16-2.81-.33l-.49-3.09c.89,.26,2.25,.49,2.85,.49,.79,0,1.38-.23,1.75-1.01,.63-1.33,.96-4.16,.96-6.48,0-1.87-.82-2.13-2.27-2.13-.37,0-.96,.05-1.64,.09-.89,3.56-2.62,9.1-4.77,12.54l-3.04-1.22c2.27-3.06,3.88-7.79,4.75-10.99-.84,.09-1.59,.19-2.01,.23-.68,.12-1.9,.28-2.62,.4l-.28-3.18c.87,.07,1.64,.02,2.5,0,.73-.02,1.82-.09,3.02-.21,.33-1.75,.54-3.46,.49-4.94l3.49,.35c-.14,.61-.3,1.36-.42,1.94Zm9.92,.37l-1.15,.49c1.4,2.17,3.16,6.08,3.81,8.16l-2.97,1.36c-.61-2.6-2.27-6.71-3.93-8.77l2.11-.91c-.47-.89-1.05-2.01-1.59-2.76l1.85-.77c.58,.87,1.43,2.34,1.87,3.21Zm2.78-1.08l-1.85,.79c-.49-.96-1.24-2.34-1.9-3.23l1.87-.75c.61,.89,1.47,2.36,1.87,3.18Z"/><path d="M118.96,156.12c-.44,2.53-1.08,4.79-1.92,6.81,1.03,1.36,1.87,2.67,2.41,3.79l-2.22,1.9c-.37-.84-.91-1.83-1.59-2.88-1.24,2.06-2.83,3.74-4.79,5.05-.33-.56-1.29-1.66-1.87-2.17,2.18-1.26,3.79-3.06,4.98-5.31-1.24-1.66-2.62-3.32-3.91-4.75l1.99-1.57c1.01,1.08,2.06,2.27,3.09,3.51,.49-1.45,.87-3.02,1.12-4.73l2.71,.35Zm12.07,.87h-2.5v10.53c0,1.57-.28,2.39-1.17,2.83-.89,.49-2.27,.61-4.21,.61-.09-.82-.49-2.15-.89-2.99,1.31,.07,2.57,.05,2.97,.05,.42,0,.56-.12,.56-.49v-10.53h-5.87v-1.68h-10.29v-2.57h4.07v-3.58h2.67v3.58h4.33v1.59h5.1v-5.19h2.74v5.19h2.5v2.67Zm-9.12,1.85c1.1,1.54,2.22,3.56,2.6,4.94l-2.41,1.24c-.35-1.38-1.36-3.51-2.41-5.1l2.22-1.08Z"/><path d="M140.57,157.73c0,3.77-.35,9.54-2.46,13.19-.51-.47-1.75-1.26-2.41-1.57,1.92-3.34,2.08-8.26,2.08-11.63v-5.89h8.33v-2.69h2.9v2.69h8.44v2.64h-16.89v3.25Zm-.42,10.11c.98-1.78,1.47-4.49,1.71-7.09l2.5,.54c-.26,2.69-.68,5.78-1.73,7.65l-2.48-1.1Zm10.43,.21c.7,0,.84-.54,.94-3.77,.58,.49,1.73,.94,2.46,1.12-.26,4-.96,5.12-3.13,5.12h-2.6c-2.48,0-3.06-.82-3.06-3.42v-8.16h2.76v8.14c0,.84,.09,.96,.75,.96h1.89Zm.26-8.02c-1.12-1.1-3.58-2.67-5.5-3.65l1.85-1.82c1.87,.89,4.4,2.29,5.66,3.39l-2.01,2.08Zm4.09,.12c1.38,2.43,2.74,5.52,3.11,7.65l-2.74,1.12c-.3-2.08-1.52-5.33-2.85-7.81l2.48-.96Z"/></g></g></svg>