<?xml version="1.0" encoding="UTF-8"?><svg id="Layer_2" xmlns="http://www.w3.org/2000/svg" viewBox="0 0 240 240"><defs><style>.cls-1{fill:#fff;}.cls-2{fill:#ffe7b1;opacity:.85;}</style></defs><g id="Layer_1-2"><g><circle class="cls-2" cx="120" cy="120" r="118.5"/><path class="cls-1" d="M120,3c31.25,0,60.63,12.17,82.73,34.27,22.1,22.1,34.27,51.48,34.27,82.73s-12.17,60.63-34.27,82.73-51.48,34.27-82.73,34.27-60.63-12.17-82.73-34.27S3,151.25,3,120,15.17,59.37,37.27,37.27C59.37,15.17,88.75,3,120,3m0-3C53.73,0,0,53.73,0,120s53.73,120,120,120,120-53.73,120-120S186.27,0,120,0h0Z"/></g><g><path d="M91.91,74.16c-1.1,1.82-3.32,4.77-5.61,6.41l-2.43-1.94c1.87-1.15,3.7-3.2,4.3-4.35h-12.19c-.98,0-1.75,.07-2.85,.16v-3.25c.89,.14,1.87,.23,2.85,.23h12.61c.65,0,1.94-.07,2.39-.21l1.85,1.73c-.26,.3-.7,.87-.91,1.22Zm-15.11,15.93l-2.74-2.22c.75-.26,1.59-.66,2.46-1.29,2.97-2.06,3.53-4.54,3.53-8.37,0-.73-.05-1.36-.16-2.1h3.39c0,5.8-.12,10.57-6.48,13.99Z"/><path d="M115.21,74.84c-.54,2.29-1.57,5.92-3.51,8.51-2.13,2.81-5.24,5.12-9.4,6.46l-2.55-2.78c4.63-1.1,7.27-3.13,9.17-5.5,1.54-1.94,2.43-4.61,2.74-6.6h-10.9c-1.05,0-2.18,.05-2.78,.09v-3.3c.7,.07,2.04,.19,2.81,.19h10.81c.47,0,1.22-.02,1.85-.19l2.29,1.47c-.21,.47-.4,1.15-.52,1.64Z"/><path d="M131.41,72.64h4.75c.72,0,1.52-.09,2.04-.26l2.39,1.47c-.26,.44-.56,1.08-.77,1.66-.63,1.9-1.8,4.4-3.46,6.74,1.01,.73,1.92,1.4,2.6,1.96l-2.22,2.64c-.63-.58-1.5-1.31-2.46-2.08-2.06,2.18-4.73,4.16-8.38,5.54l-2.71-2.36c4.05-1.24,6.64-3.13,8.58-5.08-1.52-1.12-3.06-2.18-4.26-2.92l2.08-2.13c1.24,.7,2.71,1.66,4.19,2.64,1.22-1.68,2.22-3.72,2.57-5.17h-6.69c-1.64,2.18-3.81,4.42-6.17,6.06l-2.53-1.94c4.09-2.55,6.27-5.75,7.44-7.79,.37-.56,.87-1.64,1.08-2.43l3.39,1.05c-.58,.82-1.17,1.87-1.45,2.39Z"/><path d="M150.38,78.09h12.56c1.1,0,2.13-.09,2.74-.14v3.67c-.56-.02-1.75-.12-2.74-.12h-12.56c-1.33,0-2.9,.05-3.77,.12v-3.67c.84,.07,2.55,.14,3.77,.14Z"/><path d="M65.64,114.84c-.54,2.29-1.57,5.92-3.51,8.51-2.13,2.81-5.24,5.12-9.4,6.46l-2.55-2.78c4.63-1.1,7.27-3.13,9.17-5.5,1.54-1.94,2.43-4.61,2.74-6.6h-10.9c-1.05,0-2.18,.05-2.78,.09v-3.3c.7,.07,2.04,.19,2.81,.19h10.81c.47,0,1.22-.02,1.85-.19l2.29,1.47c-.21,.47-.4,1.15-.52,1.64Z"/><path d="M84.46,116.18c0,.42,.02,.91,.02,1.43h2.76c.61,0,1.5-.09,1.92-.14v2.83c-.56-.02-1.29-.05-1.8-.05h-2.81c.07,2.78,.14,5.96,.16,8.35,.02,1.22-.89,2.06-2.27,2.06-1.12,0-2.57-.05-3.62-.12l-.19-2.67c.96,.14,2.08,.21,2.69,.21,.45,0,.61-.26,.61-.73,0-1.15-.02-2.85-.05-4.63-1.64,2.08-4.8,4.7-7.56,6.15l-2.04-2.34c3.32-1.52,6.57-4.12,8.19-6.29h-5.01c-.68,0-1.52,.05-2.2,.09v-2.88c.56,.07,1.52,.14,2.13,.14h6.36c0-.51-.02-.98-.05-1.43-.02-.56-.09-1.31-.19-1.94h3.02c-.07,.56-.09,1.31-.09,1.94Z"/><path d="M99.01,112.25h12.87c.58,0,1.47,0,2.32-.05-.05,.7-.05,1.57-.05,2.27v11.46c0,.91,.05,3.16,.05,3.25h-3.23s.02-.58,.02-1.26h-11.27c.02,.66,.02,1.19,.02,1.26h-3.23c0-.12,.07-2.15,.07-3.27v-11.44c0-.65,0-1.61-.05-2.27,.96,.02,1.85,.05,2.48,.05Zm.7,12.68h11.3v-9.71h-11.3v9.71Z"/><path d="M126.09,118.09h12.56c1.1,0,2.13-.09,2.74-.14v3.67c-.56-.02-1.75-.12-2.74-.12h-12.56c-1.33,0-2.9,.05-3.77,.12v-3.67c.84,.07,2.55,.14,3.77,.14Z"/><path d="M159.12,111.52c-.02,.23-.02,.58-.02,.96,1.92-.09,3.86-.28,5.92-.63l-.02,2.69c-1.54,.19-3.67,.4-5.94,.51v2.41c2.36-.12,4.35-.3,6.25-.56l-.02,2.76c-2.11,.23-3.93,.4-6.17,.47,.05,.89,.09,1.85,.16,2.78,2.95,.84,5.19,2.41,6.55,3.53l-1.68,2.62c-1.26-1.17-2.85-2.41-4.73-3.25,.02,.33,.02,.61,.02,.87,0,1.99-1.52,3.53-4.61,3.53-3.74,0-5.71-1.43-5.71-3.91s2.17-4.02,5.78-4.02c.49,0,.98,.02,1.45,.07-.05-.73-.07-1.47-.09-2.18h-1.22c-1.36,0-4.02-.12-5.57-.3l-.02-2.76c1.52,.28,4.4,.44,5.64,.44h1.12c0-.77,0-1.61,.02-2.41h-.87c-1.47,0-4.19-.21-5.73-.42l-.07-2.67c1.68,.28,4.35,.51,5.78,.51h.91v-1.1c0-.44-.05-1.17-.14-1.61h3.16c-.07,.47-.12,1.05-.14,1.66Zm-4.73,16.05c1.24,0,2.06-.35,2.06-1.71,0-.26,0-.58-.02-1.01-.63-.09-1.26-.16-1.92-.16-1.66,0-2.57,.66-2.57,1.45,0,.89,.84,1.43,2.46,1.43Z"/><path d="M173.61,112.62c1.96-.16,5.82-.51,10.11-.87,2.41-.21,4.96-.35,6.62-.42l.02,2.99c-1.26,.02-3.28,.02-4.51,.33-2.83,.75-4.96,3.77-4.96,6.55,0,3.86,3.6,5.24,7.58,5.45l-1.1,3.2c-4.91-.33-9.54-2.95-9.54-8.02,0-3.37,1.9-6.04,3.49-7.23-2.2,.23-6.97,.75-9.68,1.33l-.3-3.2c.94-.02,1.85-.07,2.29-.12Zm15.27,7.18l-1.78,.8c-.58-1.29-1.08-2.2-1.82-3.25l1.73-.73c.58,.84,1.43,2.27,1.87,3.18Zm2.71-1.15l-1.75,.84c-.63-1.26-1.17-2.13-1.92-3.16l1.71-.8c.58,.82,1.47,2.2,1.96,3.11Z"/><path d="M54.14,153.34c-.09,2.53-.28,7.77-.28,10.67,0,2.36,1.4,3.13,3.23,3.13,3.86,0,6.32-2.22,8-4.77l2.13,2.57c-1.5,2.25-4.82,5.38-10.15,5.38-3.84,0-6.32-1.68-6.32-5.68,0-3.13,.23-9.29,.23-11.3,0-1.1-.09-2.22-.3-3.16l3.77,.05c-.14,.98-.26,2.18-.3,3.11Z"/><path d="M74.42,158.26c1.59-.49,5.57-1.82,8.4-1.82,3.7,0,6.18,2.2,6.18,5.73,0,4.23-3.72,7.11-11.16,7.58l-1.24-2.88c5.36-.14,9.29-1.57,9.29-4.75,0-1.75-1.31-2.97-3.35-2.97-2.71,0-7.39,1.94-9.38,2.78l-1.22-3.04c.7-.14,1.78-.42,2.48-.63Z"/><path d="M103.79,152.25c-.16,.7-.33,1.57-.49,2.41,.77-.05,1.47-.09,1.96-.09,2.48,0,4.23,1.1,4.23,4.47,0,2.76-.33,6.55-1.33,8.58-.77,1.64-2.08,2.15-3.84,2.15-.91,0-2.01-.16-2.81-.33l-.51-3.09c.91,.26,2.25,.49,2.88,.49,.77,0,1.38-.23,1.75-1.01,.63-1.33,.94-4.16,.94-6.48,0-1.87-.79-2.13-2.27-2.13-.37,0-.96,.05-1.61,.09-.89,3.56-2.62,9.1-4.77,12.54l-3.04-1.22c2.27-3.06,3.88-7.79,4.72-10.99-.84,.09-1.57,.19-2.01,.23-.65,.12-1.89,.28-2.6,.4l-.28-3.18c.84,.07,1.64,.02,2.5,0,.73-.02,1.82-.09,3.02-.19,.33-1.78,.51-3.49,.49-4.96l3.49,.35c-.14,.61-.3,1.36-.42,1.94Zm12.58,8.96l-2.97,1.38c-.61-2.6-2.27-6.83-3.93-8.89l2.78-1.19c1.45,2.01,3.42,6.48,4.12,8.7Z"/><path d="M125.12,154.87c1.12-1.82,3.16-3.79,5.8-3.79,3.25,0,5.78,3.18,5.78,8.33,0,6.62-4.05,9.78-10.25,10.9l-1.78-2.71c5.19-.79,8.87-2.5,8.87-8.16,0-3.6-1.22-5.61-3.18-5.61-2.76,0-5.17,4.14-5.29,7.23-.05,.63-.02,1.38,.12,2.48l-2.88,.19c-.14-.91-.3-2.34-.3-3.91,0-2.18,.33-5.08,.66-7.49,.12-.89,.19-1.83,.19-2.46l3.2,.14c-.33,1.15-.8,3.55-.94,4.87Z"/><path d="M152.02,155.97c-.44,2.53-1.08,4.79-1.92,6.81,1.03,1.36,1.87,2.67,2.41,3.79l-2.22,1.9c-.38-.84-.91-1.83-1.59-2.88-1.24,2.06-2.83,3.74-4.79,5.05-.33-.56-1.29-1.66-1.87-2.17,2.18-1.26,3.79-3.06,4.98-5.31-1.24-1.66-2.62-3.32-3.91-4.75l1.99-1.57c1.01,1.08,2.06,2.27,3.09,3.51,.49-1.45,.87-3.02,1.12-4.73l2.71,.35Zm12.07,.87h-2.5v10.53c0,1.57-.28,2.39-1.17,2.83-.89,.49-2.27,.61-4.21,.61-.09-.82-.49-2.15-.89-2.99,1.31,.07,2.57,.05,2.97,.05,.42,0,.56-.12,.56-.49v-10.53h-5.87v-1.68h-10.29v-2.57h4.07v-3.58h2.67v3.58h4.33v1.59h5.1v-5.19h2.74v5.19h2.5v2.67Zm-9.12,1.85c1.1,1.54,2.22,3.56,2.6,4.94l-2.41,1.24c-.35-1.38-1.36-3.51-2.41-5.1l2.22-1.08Z"/><path d="M173.63,157.58c0,3.77-.35,9.54-2.46,13.19-.51-.47-1.75-1.26-2.41-1.57,1.92-3.34,2.08-8.26,2.08-11.63v-5.89h8.33v-2.69h2.9v2.69h8.44v2.64h-16.89v3.25Zm-.42,10.11c.98-1.78,1.47-4.49,1.71-7.09l2.5,.54c-.26,2.69-.68,5.78-1.73,7.65l-2.48-1.1Zm10.43,.21c.7,0,.84-.54,.94-3.77,.58,.49,1.73,.94,2.46,1.12-.26,4-.96,5.12-3.13,5.12h-2.6c-2.48,0-3.06-.82-3.06-3.42v-8.16h2.76v8.14c0,.84,.09,.96,.75,.96h1.89Zm.26-8.02c-1.12-1.1-3.58-2.67-5.5-3.65l1.85-1.82c1.87,.89,4.4,2.29,5.66,3.39l-2.01,2.08Zm4.09,.12c1.38,2.43,2.74,5.52,3.11,7.65l-2.74,1.12c-.3-2.08-1.52-5.33-2.85-7.81l2.48-.96Z"/></g></g></svg>