<svg xmlns="http://www.w3.org/2000/svg" width="47.278" height="46.829" viewBox="0 0 47.278 46.829">
  <path id="Path_8595" data-name="Path 8595" d="M42.8,2a2.342,2.342,0,0,1,2.341,2.341v8.8l-4.683,4.683V6.683H7.683V44.146h32.78V37.688l4.683-4.683V46.487A2.342,2.342,0,0,1,42.8,48.829H5.341A2.342,2.342,0,0,1,3,46.487V4.341A2.342,2.342,0,0,1,5.341,2Zm4.163,15.941,3.311,3.311L32.067,39.463l-3.315,0,0-3.306ZM26.414,25.414V30.1H14.707V25.414Zm7.024-9.366v4.683H14.707V16.049Z" transform="translate(-3 -2)" fill="#fff"/>
</svg>
