<svg xmlns="http://www.w3.org/2000/svg" width="73.649" height="70.174" viewBox="0 0 73.649 70.174">
  <g id="icon" transform="translate(-1237.463 -11403.826)">
    <path id="Path_8792" data-name="Path 8792" d="M454.684,291.532c0-16.478-16.519-29.884-36.825-29.884s-36.824,13.406-36.824,29.884c0,14.772,13.1,27.144,30.8,29.483,1.2.258,2.832.791,3.244,1.816a7.564,7.564,0,0,1,.119,3.33s-.432,2.6-.525,3.152c-.161.931-.74,3.641,3.189,1.986s21.207-12.488,28.934-21.38h0c5.337-5.853,7.893-11.792,7.893-18.387" transform="translate(856.428 11142.178)" fill="#fff"/>
    <path id="Union_1" data-name="Union 1" d="M21336.193,2975.542a.667.667,0,0,1-.455-.177l-.01-.011v-.011a.613.613,0,0,1-.184-.443v-14.2a.658.658,0,0,1,.17-.432l.014-.011.01-.011a.64.64,0,0,1,.455-.177h9.391a.646.646,0,0,1,.645.632v2.293a.646.646,0,0,1-.645.632h-6.393v2.4h6.393a.638.638,0,0,1,.645.631v2.293a.646.646,0,0,1-.645.632h-6.393v2.4h6.393a.638.638,0,0,1,.645.631v2.282a.648.648,0,0,1-.645.643Zm-5.895,0a.714.714,0,0,1-.17-.022h-.014c-.006-.011-.033-.011-.043-.022h-.023l-.033-.022-.023-.011-.02-.01c-.014,0-.023-.011-.047-.022a1.173,1.173,0,0,1-.172-.155l-6.686-8.807v8.43a.651.651,0,0,1-.66.643h-2.352a.647.647,0,0,1-.645-.643v-14.2a.645.645,0,0,1,.645-.632h2.408a.038.038,0,0,1,.033.011h.033l.033.011h.025c.014,0,.023.011.033.011l.027.011c.006,0,.02.011.033.011l.02.011a.211.211,0,0,0,.047.022l.01.011c.014.011.023.011.033.022l.023.011a.268.268,0,0,1,.033.034l.014.01a.266.266,0,0,0,.033.033l.016.011c0,.011.033.033.043.055l6.686,8.8V2960.7a.652.652,0,0,1,.658-.632h2.344a.652.652,0,0,1,.658.632v14.2a.653.653,0,0,1-.658.643Zm-16.146,0a.642.642,0,0,1-.645-.643v-14.2a.64.64,0,0,1,.645-.632h2.348a.644.644,0,0,1,.654.632v14.2a.646.646,0,0,1-.654.643Zm-12.67,0a.626.626,0,0,1-.441-.177l-.014-.011-.014-.011a.623.623,0,0,1-.176-.443v-14.2a.645.645,0,0,1,.645-.632h2.352a.652.652,0,0,1,.66.632v11.288h6.377a.634.634,0,0,1,.65.631v2.282a.643.643,0,0,1-.65.643Z" transform="translate(-20048.875 8468.373)" fill="#00b900" stroke="rgba(0,0,0,0)" stroke-miterlimit="10" stroke-width="1"/>
  </g>
</svg>
