<?xml version="1.0" encoding="UTF-8"?>
<svg id="_レイヤー_2" data-name="レイヤー 2" xmlns="http://www.w3.org/2000/svg" viewBox="0 0 89.79 17.62">
  <defs>
    <style>
      .cls-1 {
        fill: #003e75;
      }

      .cls-2 {
        fill: #6a6969;
      }
    </style>
  </defs>
  <g id="_レイヤー_1-2" data-name="レイヤー 1">
    <path class="cls-1" d="M26.16,9.22c0,.22-.17,.4-.37,.4s-.25-.08-.54-.58c-.56-.98-1.26-1.58-1.42-1.58-.06,0-.08,.01-.25,.21l-.05,.05c-.31,.33-1.12,1.19-2.14,1.7-.2,.1-.44,.19-.52,.19-.09,0-.1-.07-.1-.09,0-.07,.39-.33,.39-.33,2.06-1.49,3.05-3.57,3.05-3.73,0-.01-.01-.03-.06-.03-.07,0-1.7,.38-1.79,.41-.02,0-.08,.03-.13,.06-.13,.06-.21,.1-.25,.1-.14,0-.53-.25-.58-.3-.07-.07-.21-.44-.21-.5,0-.07,.03-.1,.09-.1,.02,0,.22,.06,.22,.06,.25,.07,.34,.08,.42,.08,.29,0,1.81-.13,2.21-.3,.02,0,.08-.05,.14-.08,.16-.1,.27-.17,.32-.17,.21,0,.73,.43,.73,.66,0,.06-.08,.14-.26,.29-.04,.04-.09,.07-.1,.09-.12,.15-.53,.75-.78,1.11-.07,.1-.12,.18-.15,.22-.03,.03-.06,.08-.06,.14,0,.05,0,.06,.34,.24l.03,.02c.45,.26,1.81,1.04,1.81,1.79Zm2.32-3.06c-.23-.06-.24-.07-.24-.22,0-.21,.03-.92,.07-1.12h0c.07-.21,.1-.31,.1-.35,0-.29-.62-.56-.92-.56-.1,0-.26,.01-.27,.11,0,0,0,.02,0,.02l.02,.03s0,0,0,.01c.13,.12,.2,.2,.27,.36,.09,.25,.09,.55,.09,2.83,0,.98-.02,1.2-.07,1.88,0,.01,0,.07-.02,.11-.01,.06-.02,.11-.02,.12,0,.23,.22,.8,.49,.8s.28-.55,.28-.78c0-.12,0-.33-.02-.42-.03-.71-.04-1.15-.04-2.02,0-.56,.03-.56,.07-.56,.22,0,.59,.35,.83,.67h0c.54,.71,.57,.75,.8,.75,.12,0,.33-.07,.33-.32,0-.62-1.25-1.23-1.79-1.35Zm3.98-1.03c.06,0,1.8-.15,1.94-.17,.48-.04,.79-.07,.79-.36,0-.26-.37-.35-.54-.35-.08,0-.34,.06-.62,.12-.08,.02-.15,.03-.18,.04-.4,.08-.98,.09-1.29,.09-.11,0-.3,0-.42-.03,0,0,0,0,0,0-.02,0-.07-.02-.11-.04-.09-.03-.15-.05-.19-.05-.03,0-.09,0-.09,.1s.27,.65,.71,.65Zm2.9,.67s-.09,.02-.21,.07c-.02,0-.03,.01-.04,.02-.02,0-.06,0-.2,.02-.14,.01-.34,.03-.35,.03-.05,0-.15,.02-.27,.03-.57,.07-1.76,.21-2.31,.21-.32,0-.63-.07-.79-.14,0,0-.02-.01-.04-.02-.06-.03-.09-.05-.11-.05-.05,0-.09,.04-.09,.08,0,.26,.6,.97,.97,.97,.04,0,.13-.04,.27-.09,.05-.02,.1-.04,.12-.05,.37-.11,2.4-.46,2.66-.46,.12,0,.13,.07,.13,.11,0,.02-.49,1.81-3.18,3.26-.01,0-.04,.02-.07,.03-.18,.09-.22,.11-.23,.12-.02,.02-.03,.05-.03,.08,0,.05,.04,.1,.11,.1,.08,0,.73-.17,1.46-.53,1.11-.57,1.63-1.16,2.31-2.18,.22-.34,.3-.46,.43-.57,.19-.16,.23-.2,.23-.34,0-.21-.61-.71-.75-.71Zm7.34,.8s-.05,0-.08,0c-.04,0-.07,0-.1,0-1.18,.06-4.02,.17-4.29,.17-.46,0-.83-.03-.98-.07-.01,0-.06-.02-.1-.04-.09-.04-.15-.06-.18-.06-.06,0-.1,.06-.1,.14,0,.29,.38,.82,.76,.82,.06,0,.22-.04,.42-.09,.09-.02,.18-.05,.22-.05,.19-.04,2.07-.15,3.17-.15,.08,0,.31,0,.55,0,.26,0,.52,0,.62,0,.35,0,.71-.02,.71-.29,0-.1-.11-.4-.61-.4Zm5.93-1.58c.33,.35,.37,.4,.37,.49,0,.16-.09,.2-.23,.26-.12,.05-.14,.08-.39,.48h0c-.04,.07-.12,.19-.22,.34-.18,.26-.52,.74-.52,.82,0,.06,0,.07,.15,.25l.02,.03c.18,.24,.33,.43,.33,.71,0,.34-.24,.43-.39,.43-.19,0-.23-.07-.54-.58h0c-.04-.08-.11-.18-.15-.18-.05,0-.09,.04-.22,.18l-.03,.04c-1.37,1.47-2.93,1.97-3.03,1.97-.04,0-.08-.01-.1-.04-.01-.02-.02-.04-.02-.08,.01-.04,.03-.05,.11-.1,.02-.01,.05-.03,.09-.05h0c1.64-.93,2.76-2.25,2.76-2.48,0-.09-.19-.29-.49-.5-.3-.21-.56-.33-.64-.33-.07,0-.35,.25-.58,.45-.42,.37-.71,.61-.86,.61-.06,0-.08-.04-.08-.08,0-.06,.3-.37,.3-.38,1-1.09,1.62-2.21,1.62-2.63,0-.03-.04-.12-.07-.19-.04-.1-.06-.16-.06-.2,0-.09,.13-.09,.19-.09,.45,0,.77,.34,.77,.52,0,.03-.02,.08-.05,.17-.02,.05-.04,.13-.04,.15,0,.09,.15,.1,.24,.1,.17,0,.96-.07,1.13-.21,.14-.11,.18-.13,.25-.13,.17,0,.32,.16,.39,.25Zm-.78,.43c-.06,0-.26,.02-.45,.05-.22,.03-.46,.06-.54,.06-.12,0-.18-.02-.25-.03-.1-.03-.12-.03-.19-.03-.02,0-.05,0-.07,.02-.07,.08-.66,.79-.68,.88,0,.08,.04,.1,.23,.17h.02c.25,.11,.32,.14,.86,.41l.04,.02c.07,.03,.14,.06,.16,.05,.14-.03,.96-1.24,.96-1.52,0-.07-.07-.07-.1-.07Zm1.43-2.03c-.14,0-.34,.05-.34,.15,0,.04,.05,.08,.13,.12,.27,.1,.58,.32,.69,.45,.15,.18,.26,.31,.45,.31,.17,0,.24-.16,.24-.28,0-.36-.45-.75-1.18-.75Zm-.64,.68c-.06,0-.19,.02-.19,.1,0,.06,.12,.16,.12,.16,.32,.29,.38,.35,.5,.54,.2,.31,.29,.42,.44,.42,.18,0,.29-.22,.29-.34,0-.48-.72-.88-1.17-.88Zm5.03,3.61c.07,.31,.15,.48,.32,.48,.18,0,.33-.22,.33-.47,0-.07-.02-.65-.88-1.05-.16-.08-.17-.09-.17-.54,0-.25,.04-.25,.22-.25h.4c.29,0,.47,0,.47-.16,0-.15-.36-.55-.5-.55-.09,0-.14,.06-.29,.28-.06,.09-.1,.11-.16,.11-.08,0-.12-.06-.13-.12,0-.05,0-.66,0-.93,0-.09,.04-.17,.52-.18,.29,0,.48-.01,.48-.22,0-.19-.47-.59-.61-.59,0,0-.02,0-.02,0-.22,.1-.44,.19-.57,.24-.45,.16-.72,.24-1.14,.34l-.29,.08c-.15,.04-.21,.05-.21,.11,0,.11,.52,.13,.82,.13,.04,0,.11,0,.17,0,.05,0,.09,0,.11,0,.15,0,.16,.06,.16,.47,0,.67,0,.67-.19,.67-.07,0-.29-.01-.5-.02-.2-.01-.39-.02-.46-.02-.08,0-.09,.05-.09,.07,0,.03,0,.05,.04,.09l.15,.17s.05,.07,.11,.07c.04,0,.16,0,.3-.02,.14,0,.29-.02,.34-.02,.11,0,.11,.02,.11,.07,0,0-.09,.67-.76,2.13-.02,.04-.06,.13-.11,.24-.18,.37-.22,.45-.22,.49s.03,.07,.09,.07c.13,0,.72-.84,1.14-1.64,0,0,.01-.02,.02-.04,0,.22-.02,1.6-.03,1.84,0,.14-.04,.74-.06,1.02,0,.11-.01,.18-.01,.18,0,.15,.03,.32,.28,.32,.45,0,.45-.45,.45-.69,0-.16,0-.73-.01-1.33,0-.67-.01-1.38-.01-1.61,0-.01,0-.02,0-.02,.08,.05,.31,.35,.4,.8Zm.98-3.85s.03,.03,.04,.04c.24,.19,.59,.85,.64,.96l.05,.1c.13,.27,.18,.38,.38,.38s.29-.22,.29-.38c0-.21-.1-.63-.73-1.02-.02-.01-.48-.29-.7-.29-.04,0-.09,.03-.09,.08,0,.03,.02,.05,.12,.14Zm3.86,5.73c.07,.12,.1,.18,.1,.21,0,.38-.39,.58-1.16,.58-.82,0-1.11-.1-1.14-.65-.02-.32-.02-.72-.02-2.04,0-.09,0-.18-.19-.18h-.58c-.13,0-.15,.03-.17,.15-.03,.26-.17,.39-.41,.39-.18,0-.29-.11-.29-.29,0-.02,0-.13,.01-.27,.02-.27,.04-.68,.04-.79,0-.73,0-1.2-.01-1.26,0,0-.01-.04-.02-.07-.03-.09-.05-.16-.05-.2,0-.06,0-.12,.11-.12,.07,0,.11,.02,.49,.24l.03,.02c.24,.14,.34,.14,.5,.14h1.05s0-.04,.32-.61l.03-.06c.31-.57,.44-.84,.44-1.02,0-.01,0-.05,0-.08,0-.04,0-.08,0-.09,0-.07,.04-.11,.11-.11,.08,0,.19,.06,.33,.14l.07,.04c.18,.11,.33,.2,.33,.33,0,.1-.04,.12-.17,.18-.08,.04-.28,.3-.4,.45-.06,.07-.11,.14-.13,.16,0,0-.46,.47-.7,.67h.08c.18,0,.33,0,.42-.1l.03-.03c.11-.13,.13-.16,.21-.16,.15,0,.6,.31,.6,.47,0,.04-.02,.09-.05,.12-.01,.01-.04,.03-.06,.05-.03,.02-.06,.05-.08,.07-.01,.03-.04,.19-.04,.9,0,.05,.01,.21,.02,.36,.01,.15,.02,.27,.02,.31,0,.39-.27,.53-.45,.53-.09,0-.2-.03-.24-.29-.02-.14-.02-.18-.18-.18h-.25c-.07,0-.14,0-.16,.06,0,.01-.02,.1-.02,.66,0,1.07,.04,1.32,.06,1.38,.06,.15,.29,.15,.43,.15,.36,0,.44-.03,.55-.41,.02-.05,.05-.21,.09-.37q.1-.44,.15-.44c.07,0,.08,.07,.1,.2,.09,.54,.1,.59,.18,.76,0,.01,.02,.04,.04,.07Zm-1.01-3c0-.63-.02-.74-.03-.76-.02-.05-.06-.06-.16-.06h-1.8q-.18,0-.18,.61c0,.21,0,.7,.02,.76,.02,.05,.06,.06,.16,.06h1.8q.18,0,.18-.61Zm-1.68,1.18c-.17-.06-.24-.08-.3-.08-.13,0-.13,.07-.15,.32v.03c-.11,1.3-.85,1.81-1.54,2.19-.21,.11-.21,.13-.21,.16,0,.04,.02,.07,.07,.07,.06,0,.21-.04,.22-.04,.63-.17,1.41-.49,1.84-1.54,.01-.03,.04-.11,.07-.19,.05-.14,.15-.41,.18-.44l.03-.02c.09-.06,.13-.08,.13-.18,0-.13-.08-.18-.34-.27Zm6.39,.31s-.03-.07-.08-.07-.17,.05-.47,.16c-.23,.09-.54,.2-.61,.2,0,0,0-.02,0-.02,0-.08,0-.39,0-.62,0-.14,0-.26,0-.28q0-.8,.18-.8h.61c.22,0,.4,0,.4-.17,0-.13-.59-.56-.66-.56-.06,0-.12,.07-.27,.26-.03,.04-.05,.07-.07,.08-.03,.03-.08,.07-.14,.07-.04,0-.05-.01-.05-.08v-.82c0-.8,.02-.9,.02-.91,.02-.07,.08-.07,.15-.07h.62c.25,0,.42,0,.42-.16,0-.13-.62-.56-.7-.56s-.17,.1-.34,.32c-.02,.03-.04,.05-.05,.06-.04,.04-.06,.04-.35,.04h-.15c-.29,0-.58-.01-.88-.03h-.06s-.08,0-.14-.01c-.07,0-.14-.01-.17-.01-.07,0-.08,.05-.08,.07,0,.03,.01,.04,.02,.06,0,0,0,.01,.02,.03l.13,.17c.03,.05,.06,.07,.12,.07h0s.51-.04,.6-.04c.13,0,.16,.03,.18,.09,.01,.07,.02,.57,.02,1.34,0,.44,0,.46-.19,.46-.08,0-.36-.02-.55-.04-.11,0-.2-.02-.22-.02-.05,0-.08,.04-.08,.07,0,.03,0,.05,.03,.09l.13,.18s.05,.08,.11,.08c.01,0,.05,0,.09-.01,.04,0,.09-.01,.11-.01,.05,0,.2-.01,.38-.01s.18,.05,.18,.21v1.46c0,.23,0,.29-.68,.33h-.03c-.31,.02-.38,.03-.38,.15,0,.06,.2,.75,.36,.75,.04,0,.08-.04,.18-.15,.02-.02,.03-.03,.03-.04,.03-.03,.28-.14,.54-.27,1.36-.65,1.75-.88,1.75-1.01Zm4.34,1.87c0,.14-.08,.14-.41,.14h-3.62c-.19,0-.54,0-.81,.02-.05,.01-.2,.02-.22,.02-.05,0-.09-.04-.11-.07l-.13-.18s-.04-.05-.04-.09c0-.03,.03-.07,.08-.07,.02,0,.1,0,.17,.01,.06,0,.12,.01,.14,.01,.52,.03,.76,.03,.95,.03h1.11c.17,0,.18-.03,.18-.49q0-.67-.19-.67h-.18c-.37,0-.7,0-.87,.02-.02,0-.04,0-.07,0-.03,0-.07,0-.08,0-.05,0-.09-.04-.11-.07l-.14-.18s-.02-.03-.02-.03c0-.01-.02-.03-.02-.06,0-.04,.04-.07,.09-.07,.02,0,.09,0,.16,.01,.06,0,.13,.01,.15,.01,.46,.02,.71,.03,.95,.03h.15c.18,0,.18,0,.18-.57,0-.45,0-.53-.02-.58-.03-.05-.1-.05-.18-.05h-.5c-.17,0-.18,0-.21,.12-.04,.24-.08,.51-.48,.51-.18,0-.2-.13-.2-.26,0-.04,0-.15,.02-.26,0-.1,.01-.19,.01-.23,0-.22,.04-1.61,.04-1.7,0-.55-.03-.96-.05-1.2,0,0-.04-.24-.04-.29,0-.09,.05-.1,.09-.1,.03,0,.08,.02,.28,.11,.07,.04,.15,.07,.18,.08,.13,.05,.23,.07,.45,.07h1.87c.14,0,.21-.01,.3-.09l.04-.04c.13-.11,.17-.15,.22-.15,.07,0,.65,.24,.65,.45,0,.09-.06,.13-.18,.2-.1,.06-.1,.12-.11,.2,0,.09-.02,.79-.02,1.15,0,.11,0,.41,.01,.71,0,.28,.01,.55,.01,.65,0,.27-.15,.42-.42,.42-.16,0-.19-.05-.28-.27-.04-.08-.09-.09-.18-.09h-.5c-.17,0-.18,0-.18,.53s.02,.63,.02,.64c.01,.03,.04,.03,.22,.03,.21,0,.25-.01,.27-.04,.01-.01,.04-.05,.07-.09,.17-.21,.25-.29,.31-.29,.08,0,.71,.43,.71,.56,0,.16-.18,.16-.43,.16h-.99c-.17,0-.18,.02-.18,.45,0,.5,0,.58,0,.62,0,.02,.02,.09,.17,.09h.51q.33,0,.46-.19c.16-.25,.2-.3,.29-.3,.15,0,.66,.55,.66,.66Zm-1.18-5.16q0-.52-.2-.52h-.53q-.2,0-.2,.6c0,.44,0,.44,.2,.44h.53c.19,0,.2,0,.2-.53Zm-.93,1.33q0,.67,.2,.67h.49c.19,0,.21,0,.21-.73,0-.42,0-.44-.2-.44h-.51c-.19,0-.2,0-.2,.49Zm-.61-1.41c0-.44,0-.44-.18-.44h-.55c-.16,0-.17,0-.17,.44q0,.6,.17,.6h.55c.17,0,.18,0,.18-.61Zm-.91,1.63c0,.44,0,.46,.18,.46h.55c.17,0,.18,0,.18-.72,0-.43,0-.44-.18-.44h-.55q-.18,0-.18,.7Zm10.66-.56c-.1,0-.14,.05-.35,.3-.1,.11-.1,.11-.45,.11h-1.5c-.18,0-.18-.04-.18-.28,0-1.09,.02-1.53,.04-1.59,0-.02,.06-.06,.1-.1,.11-.1,.17-.16,.17-.22,0-.11-.14-.15-.36-.21-.12-.04-.67-.17-.7-.17-.07,0-.12,.04-.12,.1,0,.03,.02,.14,.05,.3,.02,.12,.05,.26,.06,.31,.04,.59,.06,1.17,.06,1.7,0,.15-.08,.16-.18,.16h-1.54c-.34,0-.66,0-1.04-.02-.05,0-.29-.03-.35-.03-.05,0-.09,.03-.09,.08,0,.03,.02,.05,.05,.08l.15,.18s.05,.07,.11,.07c.03,0,.14-.02,.16-.02,.02,0,.05,0,.09,0,.12,0,.37-.01,.88-.01h1.58c.16,0,.17,.04,.17,.33,0,1.38-.02,2.53-.02,2.85h0c-.01,.17-.09,.17-.18,.17h-1.07c-.32,0-.6-.01-.92-.03h-.13s-.09-.01-.15-.02c-.08,0-.16-.01-.18-.01-.07,0-.08,.05-.08,.07,0,.04,0,.05,.04,.09l.14,.17s.05,.07,.11,.07c.01,0,.05,0,.09,0,.03,0,.06,0,.08,0,.08,0,.32-.02,.96-.02h4.33c.28,0,.47,0,.47-.16s-.73-.56-.78-.56c-.09,0-.12,.04-.33,.28l-.02,.03c-.09,.11-.1,.11-.45,.11h-1.03c-.17,0-.18-.07-.18-.15v-3c0-.18,.07-.19,.19-.19h2.6c.28,0,.47,0,.47-.16,0-.15-.72-.56-.78-.56Zm2.69-1.08c.1,.18,.16,.29,.32,.29,.2,0,.31-.2,.31-.4,0-.28-.21-.53-.54-.67-.14-.06-.55-.13-.64-.13-.1,0-.12,.05-.12,.09,0,.02,.01,.05,.04,.07,.09,.07,.37,.3,.62,.75Zm5.19,1.94c-.06,0-.13,.07-.26,.23-.04,.05-.08,.1-.11,.12-.04,.04-.06,.05-.38,.05h-.72c-.13,0-.17-.02-.19-.1,0-.04,0-.53,0-1.25,0-.14,.08-.15,.19-.15h1.34c.28,0,.47,0,.47-.16,0-.11-.56-.54-.65-.54-.06,0-.12,.07-.24,.23-.03,.05-.07,.1-.09,.11-.05,.05-.07,.05-.39,.05h-.43s-.11,0-.15-.04c-.02-.02-.03-.06-.03-.12,0-.02,.02-.58,.02-.69s0-.16,.03-.24c0-.01,.04-.05,.06-.08,.06-.07,.09-.11,.09-.15,0-.2-.81-.3-.82-.3-.06,0-.09,.04-.09,.11,0,.01,0,.04,.03,.21,.01,.07,.02,.14,.02,.17,.02,.25,.02,.7,.02,.96,0,.15-.08,.17-.17,.17h-.17c-.37,0-.71-.02-1.05-.03-.03,0-.1,0-.17-.01-.07,0-.15-.01-.18-.01-.07,0-.08,.05-.08,.07,0,.04,0,.05,.04,.09l.15,.17s.05,.07,.11,.07c.01,0,.04,0,.08,0,.04,0,.07,0,.09,0,.27-.02,.79-.02,.96-.02h.22c.11,0,.16,.05,.16,.17,0,.7,0,1.15-.01,1.21-.02,.09-.05,.11-.18,.11h-.57c-.36,0-.71-.02-1.05-.03-.03,0-.1,0-.17-.01-.07,0-.15-.01-.18-.01-.07,0-.08,.05-.08,.07,0,.03,0,.05,.04,.09l.15,.18s.06,.06,.11,.06c.01,0,.05,0,.09,0,.03,0,.06,0,.08,0,.27-.02,.8-.02,.97-.02h.41c.14,0,.17,.02,.17,.07,0,.09-.29,.74-.62,1.36-.31,.6-.34,.63-.48,.63-.18,0-.33,0-.51-.03-.01,0-.04,0-.07-.01-.13-.02-.26-.04-.3-.04-.06,0-.09,.04-.09,.08,0,0,.2,.86,.39,.86,.03,0,.08-.03,.16-.08,.02-.01,.04-.02,.05-.03,.09-.06,.29-.12,.37-.14,.17-.04,.8-.14,1.31-.21,.27-.04,.5-.07,.61-.09,.08-.01,.3-.06,.53-.1,.28-.06,.65-.13,.7-.13,.11,0,.14,.06,.19,.28,.13,.6,.15,.69,.36,.69,.17,0,.43-.13,.43-.5,0-.8-1.16-1.91-1.36-1.91-.02,0-.04,.01-.05,.03v.02s-.01,.02-.01,.03c0,.04,.06,.15,.15,.37,.11,.24,.29,.65,.29,.73,0,.03,0,.06-.21,.07-.12,0-.43,.02-.79,.04-.64,.03-1.42,.08-1.61,.08,.01-.02,.04-.05,.07-.08l.02-.02c.23-.27,.58-.71,.81-1.08,.19-.31,.21-.32,.26-.34,.15-.03,.25-.05,.25-.16,0-.06-.08-.17-.24-.36,0,0,0-.01-.01-.02h2.12c.28,0,.47,0,.47-.16,0-.13-.55-.55-.64-.55Zm-5.86-.23c.11,.22,.17,.35,.32,.35,.19,0,.36-.19,.36-.41,0-.47-.6-.82-1.13-.82-.06,0-.16,.01-.18,.08,0,.02,0,.04,.01,.05,0,0,.1,.09,.14,.11,.29,.26,.43,.52,.48,.63Zm.68,2.31c0-.23,.02-.28,.24-.85,0-.02,.84-2.26,.84-2.35,0-.06-.04-.1-.1-.1-.08,0-.09,.04-.13,.12l-.02,.04c-.03,.08-.08,.18-.13,.28-.05,.1-.1,.21-.14,.29-.58,1.29-1,2.23-1.26,2.36l.03,.05-.03-.05s-.05,.01-.08,.02c-.14,.03-.25,.06-.25,.14,0,.05,.05,.09,.18,.17,.03,.02,.06,.04,.07,.04,.27,.31,.27,.52,.27,.99,0,.28,.11,.58,.42,.58,.2,0,.39-.21,.39-.42,0-.08-.03-.2-.07-.32-.21-.58-.23-.65-.23-.98Zm13.39,.99c-1.03-.27-1.84-1.41-2.15-1.89-.99-1.62-1.1-3.43-1.11-3.49,0-.04,0-.05,.01-.06,0-.01,.03-.02,.09-.03,.05-.01,.17-.04,.17-.18,0-.19-.2-.24-.57-.34-.03,0-.09-.02-.16-.05-.19-.06-.27-.08-.3-.08-.06,0-.12,.05-.12,.12,0,.03,.03,.15,.03,.16,.03,.16,.03,.24,.03,.46,0,.23-.02,2.31-.87,3.92-.53,1.03-1.44,1.71-1.8,1.95-.08,.05-.13,.09-.13,.14,0,.06,.04,.09,.1,.09,.09,0,1.45-.47,2.28-1.85,.78-1.29,.97-3.11,.99-3.31v-.05s.01-.04,.01-.06c.12,1.52,.57,2.52,.72,2.86v.03c.77,1.66,1.75,2.27,1.81,2.27,.04,0,.06-.01,.14-.08l.08-.06c.08-.06,.26-.16,.51-.22l.08-.02c.19-.04,.24-.05,.24-.13,0-.07-.08-.09-.12-.11Z"/>
    <path class="cls-2" d="M21,16.71c-.03-.08-.23-.59-.23-.62,0-.07,.06-.09,.1-.09,.05,0,.06,.02,.17,.19,.2,.31,.6,.62,1.06,.62,.3,0,.67-.2,.67-.68,0-.41-.27-.55-.84-.75-.63-.22-1.04-.46-1.04-.99,0-.47,.32-.87,.9-.87,.09,0,.2,.01,.32,.04,.05,0,.24,.05,.27,.05,.04,0,.07,0,.1-.03,.06-.05,.07-.06,.1-.06,.05,0,.07,.04,.11,.16,.03,.07,.24,.6,.24,.63,0,.06-.05,.07-.08,.07-.04,0-.04-.01-.12-.13-.12-.19-.37-.58-.92-.58-.51,0-.61,.41-.61,.59,0,.37,.27,.51,.86,.72,.91,.32,1.03,.68,1.03,1.02,0,.61-.48,.97-.98,.97-.16,0-.32-.03-.49-.09-.12-.04-.15-.04-.18-.04-.07,0-.13,.02-.17,.06-.08,.07-.09,.08-.13,.08-.06,0-.07-.03-.15-.25Zm2.34-1.82s-.12,0-.12-.07c0-.06,.02-.06,.15-.08,.07,0,.45-.1,.45-.68,0-.04,0-.1,.06-.1,.07,0,.07,.07,.07,.09v.58s.01,.11,.11,.11h.48s.13,0,.13,.07c0,.03-.03,.07-.12,.07h-.48s-.08,0-.1,.06c-.02,.05-.02,.55-.02,.64,0,.14,0,.86,.01,.92,.06,.25,.27,.25,.31,.25,.09,0,.2-.04,.3-.11,.03-.02,.13-.12,.16-.12,.02,0,.03,.02,.03,.04,0,.08-.28,.39-.66,.39-.47,0-.47-.36-.47-.81,0-.01,0-.99,0-1.14,0-.02,0-.11-.11-.11h-.18Zm1.7,1.98s-.12,0-.12-.07,.05-.07,.17-.07c.05,0,.15,0,.21-.1,.04-.06,.05-.12,.05-.75,0-.14,0-.8-.03-.88-.01-.05-.07-.09-.14-.09-.03,0-.18,.04-.22,.04-.03,0-.05-.02-.05-.05,0-.04,.02-.04,.22-.1,.06-.02,.47-.15,.5-.15,.01,0,.02,0,.02,.01v.2c0,.24,0,.27,.05,.27,.02,0,.03,0,.09-.09,.04-.05,.31-.39,.64-.39,.17,0,.27,.1,.27,.26s-.12,.24-.23,.24c-.09,0-.14-.05-.18-.09-.03-.03-.07-.08-.13-.08-.11,0-.3,.14-.38,.29-.11,.19-.13,.3-.13,.96,0,.41,.01,.49,.33,.49,.04,0,.09,.01,.09,.07,0,.07-.08,.07-.12,.07h-.93Zm3.54-1.6c0,.15,0,.89,0,1.05,0,.21,0,.4,.18,.4,.04,0,.12-.03,.14-.05,0,0,.03-.03,.04-.03,0,0,.02,0,.02,.03,0,.08-.18,.28-.38,.28-.14,0-.26-.11-.3-.2,0-.03-.02-.07-.06-.07-.03,0-.07,.03-.11,.06-.18,.14-.4,.21-.59,.21-.27,0-.57-.14-.57-.48,0-.54,.76-.77,1.02-.84,.27-.08,.3-.09,.3-.32,0-.39-.22-.53-.42-.53-.3,0-.35,.21-.36,.28-.03,.14-.06,.3-.24,.3-.12,0-.21-.09-.21-.22,0-.27,.44-.47,.82-.47,.36,0,.73,.16,.74,.61Zm-.35,1.21c.02-.05,.03-.07,.03-.6,0-.09,0-.17-.09-.17-.16,0-.84,.3-.84,.73,0,.12,.08,.33,.39,.33,.15,0,.45-.14,.51-.28Zm2.49,.39s-.08-.01-.09-.06c0-.06-.01-.09-.04-.09s-.13,.1-.15,.11c-.17,.11-.34,.12-.44,.12-.65,0-.88-.61-.88-1.15,0-.86,.56-1.14,.94-1.14,.05,0,.13,0,.24,.04,.04,.01,.23,.13,.27,.13,.05,0,.06-.07,.06-.11,0-.05,0-.34,0-.4,0-.2,0-.53-.28-.53-.02,0-.12,.01-.13,.01-.02,0-.05-.01-.05-.04,0-.04,.02-.05,.21-.1,.06-.02,.5-.16,.53-.16,0,0,.02,0,.04,.02,.01,.02,.01,.3,.01,.35,0,.33,0,1.97,0,2.34,0,.24,0,.51,.26,.52,.08,0,.16,0,.16,.08,0,.01-.01,.06-.07,.06h-.57Zm-.11-.5c.02-.1,.02-.57,.02-.86,0-.25,0-.36-.1-.49-.07-.09-.18-.18-.36-.18-.35,0-.67,.37-.67,1,0,.47,.19,.92,.6,.92,.15,0,.46-.08,.51-.39Zm2.61-1.1c0,.15,0,.89,0,1.05,0,.21,0,.4,.18,.4,.05,0,.12-.03,.14-.05,0,0,.03-.03,.04-.03,0,0,.02,0,.02,.03,0,.08-.18,.28-.38,.28-.14,0-.26-.11-.3-.2,0-.03-.02-.07-.06-.07-.03,0-.07,.03-.11,.06-.18,.14-.4,.21-.59,.21-.27,0-.57-.14-.57-.48,0-.54,.76-.77,1.02-.84,.27-.08,.3-.09,.3-.32,0-.39-.22-.53-.42-.53-.3,0-.35,.21-.36,.28-.03,.14-.06,.3-.24,.3-.12,0-.21-.09-.21-.22,0-.27,.44-.47,.82-.47,.36,0,.73,.16,.74,.61Zm-.35,1.21c.02-.05,.03-.07,.03-.6,0-.09,0-.17-.09-.17-.16,0-.84,.3-.84,.73,0,.12,.08,.33,.39,.33,.15,0,.45-.14,.51-.28Zm4.52-2.89c.24,0,.3,0,.37,.2,.04,.1,.23,.61,.23,.65,0,.05-.04,.07-.07,.07-.04,0-.05-.02-.15-.19-.24-.39-.51-.59-.81-.59-.18,0-.28,.07-.31,.23-.01,.08-.01,1.1-.01,1.29,0,.13,0,1.17,.01,1.24,.04,.23,.25,.23,.37,.23,.17,0,.2,0,.2,.07s-.06,.07-.14,.07h-1.26c-.06,0-.13,0-.13-.07s.07-.07,.1-.07c.27,0,.43,0,.48-.23,.01-.07,.01-.08,.01-1.28,0-1.11,0-1.24-.03-1.32-.05-.12-.17-.16-.29-.16-.36,0-.63,.28-.81,.58-.11,.18-.12,.19-.16,.19-.03,0-.07-.03-.07-.07,0-.04,.2-.58,.24-.67,.07-.19,.14-.19,.37-.19h1.86Zm2.26,1.69c0,.15,0,.89,0,1.05,0,.21,0,.4,.18,.4,.04,0,.12-.03,.14-.05,0,0,.03-.03,.04-.03,0,0,.02,0,.02,.03,0,.08-.18,.28-.38,.28-.14,0-.26-.11-.3-.2,0-.03-.02-.07-.06-.07-.03,0-.07,.03-.11,.06-.18,.14-.4,.21-.59,.21-.27,0-.57-.14-.57-.48,0-.54,.76-.77,1.02-.84,.27-.08,.3-.09,.3-.32,0-.39-.22-.53-.42-.53-.3,0-.35,.21-.36,.28-.03,.14-.06,.3-.24,.3-.12,0-.21-.09-.21-.22,0-.27,.44-.47,.82-.47,.36,0,.73,.16,.74,.61Zm-.35,1.21c.02-.05,.03-.07,.03-.6,0-.09,0-.17-.09-.17-.16,0-.84,.3-.84,.73,0,.12,.08,.33,.39,.33,.15,0,.45-.14,.51-.28Zm.95,.39s-.11,0-.11-.07,.06-.07,.1-.07c.26,0,.41-.21,.68-.56,.19-.25,.21-.28,.21-.33s-.01-.07-.14-.26c-.38-.57-.46-.69-.67-.69-.05,0-.11,0-.11-.07s.07-.07,.1-.07h.87s.11,0,.11,.07-.07,.07-.13,.07c-.1,0-.14,.08-.14,.12,0,0,0,.03,0,.05,0,.01,.24,.37,.28,.42,0,0,.03,.04,.06,.04,.03,0,.04-.02,.18-.19,.18-.23,.19-.26,.19-.31,0-.13-.11-.13-.2-.13-.03,0-.1,0-.1-.07s.07-.07,.1-.07h.78s.1,0,.1,.07c0,.07-.06,.07-.1,.07-.27,0-.38,.17-.71,.6-.11,.15-.12,.17-.12,.21,0,.08,.35,.58,.42,.69,.04,.05,.24,.34,.51,.35,.05,0,.11,0,.11,.07s-.07,.07-.11,.07h-.98s-.1,0-.1-.07,.06-.07,.1-.07c.15,0,.18-.12,.18-.16,0-.04,0-.07-.02-.09-.02-.04-.17-.26-.21-.31-.09-.14-.1-.15-.14-.15-.03,0-.04,.02-.15,.16-.23,.32-.26,.35-.26,.41,0,.13,.12,.15,.23,.15,.03,0,.1,0,.1,.07s-.07,.07-.11,.07h-.81Zm6.03,0s-.11-.01-.11-.07c0-.07,.07-.07,.18-.07,.09,0,.18-.08,.18-.2,0-.1-.12-.41-.17-.53-.1-.25-.11-.28-.26-.28h-.98c-.17,0-.18,.04-.26,.25-.04,.12-.16,.48-.16,.59,0,.18,.14,.18,.25,.18,.05,0,.1,0,.1,.07,0,.07-.07,.07-.1,.07h-.87s-.09,0-.09-.07c0-.08,.05-.08,.15-.08,.12,0,.23-.03,.34-.18,.1-.14,.44-1.2,.54-1.52,.06-.18,.35-1.06,.41-1.27,.04-.16,.07-.26,.39-.26,.05,0,.08,.03,.1,.07,.04,.07,.12,.3,.15,.41,.32,.98,.34,1.09,.63,1.92,.26,.77,.29,.83,.55,.83,.06,0,.1,.03,.1,.08,0,.07-.07,.07-.1,.07h-.97Zm-.21-1.3s.11-.02,.11-.07c0-.09-.43-1.35-.51-1.59-.03-.08-.04-.12-.07-.12-.03,0-.03,.01-.08,.16-.13,.37-.48,1.51-.48,1.55,0,.07,.07,.07,.13,.07h.9Zm2.47,1.39c-.42,0-.94-.27-.94-1.1,0-.69,.39-1.2,1.04-1.2,.36,0,.7,.18,.7,.43,0,.15-.12,.23-.24,.23-.18,0-.2-.16-.21-.27-.03-.27-.28-.27-.31-.27-.32,0-.6,.41-.6,1.01s.31,.98,.69,.98c.22,0,.45-.12,.6-.31,.04-.05,.06-.08,.09-.08,.02,0,.05,.01,.05,.05,0,.07-.31,.52-.87,.52Zm2.13,0c-.42,0-.94-.27-.94-1.1,0-.69,.39-1.2,1.04-1.2,.36,0,.7,.18,.7,.43,0,.15-.12,.23-.24,.23-.18,0-.2-.16-.21-.27-.03-.27-.28-.27-.31-.27-.32,0-.6,.41-.6,1.01s.31,.98,.69,.98c.22,0,.46-.12,.6-.31,.04-.05,.06-.08,.09-.08,.02,0,.04,.01,.04,.05,0,.07-.31,.52-.87,.52Zm2.13-2.3c.58,0,1,.5,1,1.15s-.42,1.15-1,1.15-1-.5-1-1.15,.41-1.15,1-1.15Zm0,2.18c.38,0,.61-.49,.61-1.03s-.24-1.03-.61-1.03c-.34,0-.61,.42-.61,1.03,0,.53,.23,1.03,.61,1.03Zm2.9,.04s-.09-.04-.09-.09c0-.1,0-.14-.04-.14-.03,0-.12,.09-.14,.1-.06,.04-.28,.21-.55,.21-.13,0-.61-.04-.64-.7,0-.09,0-.55,0-.66s0-.59-.02-.65c-.02-.05-.07-.06-.11-.06-.02,0-.11,0-.14,0-.03,0-.05-.02-.05-.04,0-.04,.02-.04,.18-.09,.14-.04,.4-.11,.41-.11,.01,0,.04,0,.04,.04,0,0,0,1.17,0,1.3,0,.27,0,.38,.04,.5,.07,.18,.23,.27,.39,.27,.19,0,.48-.16,.56-.33,.06-.11,.06-.8,.06-.96,0-.45,0-.59-.17-.59-.02,0-.13,.01-.15,.01-.05,0-.05-.03-.05-.04,0-.05,.03-.06,.33-.13,.08-.02,.3-.08,.32-.08s.04,.02,.04,.04c0,.04,0,.77,0,.91,0,.12,0,.69,0,.82,0,.09,0,.29,.23,.29,.05,0,.12,0,.12,.08,0,.03-.02,.07-.08,.07h-.51Zm2.2,0c-.08,0-.08-.06-.08-.07,0-.06,.06-.07,.08-.07,.12-.01,.16-.02,.22-.09,.05-.07,.05-.15,.05-.87,0-.43,0-.59-.09-.74-.1-.15-.24-.17-.3-.17-.14,0-.33,.08-.46,.2-.14,.14-.14,.21-.14,.73,0,.12,0,.67,.01,.75,.03,.14,.1,.19,.22,.2,.05,0,.12,0,.12,.07,0,0,0,.07-.09,.07h-.84c-.09,0-.09-.06-.09-.07,0-.08,.05-.08,.12-.08,.11,0,.18-.07,.2-.14,.04-.1,.04-.7,.04-.86,0-.73,0-.84-.2-.84-.02,0-.11,.02-.13,.02s-.04,0-.04-.04,.02-.04,.18-.08c.07-.02,.45-.13,.46-.13,.04,0,.04,.02,.04,.2,0,.06,0,.1,.03,.1s.16-.12,.18-.14c.18-.12,.34-.16,.5-.16,.32,0,.46,.18,.51,.3,.06,.18,.06,.25,.06,.95,0,.14,0,.6,.03,.68,0,.03,.05,.13,.2,.14,.07,0,.13,0,.13,.08,0,.07-.05,.07-.09,.07h-.84Zm1.07-1.98s-.12,0-.12-.07c0-.06,.02-.06,.15-.08,.07,0,.45-.1,.45-.68,0-.04,0-.1,.06-.1,.07,0,.07,.07,.07,.09v.58s.01,.11,.11,.11h.48s.13,0,.13,.07c0,.03-.03,.07-.12,.07h-.48s-.08,0-.1,.06c-.02,.05-.02,.55-.02,.64,0,.14,0,.86,.01,.92,.06,.25,.27,.25,.31,.25,.09,0,.2-.04,.3-.11,.03-.02,.13-.12,.16-.12,.02,0,.03,.02,.03,.04,0,.08-.28,.39-.66,.39-.47,0-.47-.36-.47-.81,0-.01,0-.99,0-1.14,0-.02,0-.11-.11-.11h-.18Zm3.29,.38c0,.15,0,.89,0,1.05,0,.21,0,.4,.18,.4,.04,0,.12-.03,.14-.05,0,0,.03-.03,.04-.03,0,0,.02,0,.02,.03,0,.08-.18,.28-.38,.28-.14,0-.26-.11-.3-.2,0-.03-.02-.07-.06-.07-.03,0-.07,.03-.11,.06-.18,.14-.4,.21-.59,.21-.27,0-.57-.14-.57-.48,0-.54,.76-.77,1.02-.84,.27-.08,.3-.09,.3-.32,0-.39-.22-.53-.42-.53-.3,0-.35,.21-.36,.28-.03,.14-.06,.3-.24,.3-.12,0-.21-.09-.21-.22,0-.27,.44-.47,.82-.47,.36,0,.73,.16,.74,.61Zm-.35,1.21c.02-.05,.03-.07,.03-.6,0-.09,0-.17-.09-.17-.16,0-.84,.3-.84,.73,0,.12,.08,.33,.39,.33,.15,0,.45-.14,.51-.28Zm2.33,.39c-.08,0-.08-.06-.08-.07,0-.06,.06-.07,.08-.07,.12-.01,.16-.02,.22-.09,.04-.07,.04-.15,.04-.87,0-.43,0-.59-.09-.74-.1-.15-.24-.17-.3-.17-.14,0-.33,.08-.46,.2-.14,.14-.14,.21-.14,.73,0,.12,0,.67,.01,.75,.03,.14,.1,.19,.22,.2,.05,0,.12,0,.12,.07,0,0,0,.07-.09,.07h-.84c-.09,0-.09-.06-.09-.07,0-.08,.05-.08,.12-.08,.11,0,.18-.07,.2-.14,.04-.1,.04-.7,.04-.86,0-.73,0-.84-.2-.84-.02,0-.11,.02-.13,.02s-.04,0-.04-.04,.02-.04,.18-.08c.07-.02,.45-.13,.46-.13,.04,0,.04,.02,.04,.2,0,.06,0,.1,.03,.1s.16-.12,.18-.14c.18-.12,.34-.16,.51-.16,.32,0,.46,.18,.5,.3,.06,.18,.06,.25,.06,.95,0,.14,0,.6,.03,.68,0,.03,.05,.13,.2,.14,.07,0,.13,0,.13,.08,0,.07-.05,.07-.09,.07h-.84Zm1.07-1.98s-.12,0-.12-.07c0-.06,.02-.06,.15-.08,.07,0,.45-.1,.45-.68,0-.04,0-.1,.06-.1,.07,0,.07,.07,.07,.09v.58s.01,.11,.11,.11h.48s.13,0,.13,.07c0,.03-.03,.07-.12,.07h-.48s-.08,0-.1,.06c-.02,.05-.02,.55-.02,.64,0,.14,0,.86,.01,.92,.06,.25,.27,.25,.31,.25,.09,0,.2-.04,.3-.11,.03-.02,.13-.12,.16-.12,.02,0,.03,.02,.03,.04,0,.08-.28,.39-.66,.39-.47,0-.47-.36-.47-.81,0-.01,0-.99,0-1.14,0-.02,0-.11-.11-.11h-.18Zm5.35-1.33s.29,.71,.29,.76-.04,.08-.09,.08-.05-.01-.14-.14c-.38-.54-.78-.6-.97-.6-.71,0-1.07,.87-1.07,1.65,0,1.05,.61,1.46,1.15,1.46,.32,0,.68-.14,.97-.64,.1-.18,.1-.18,.14-.18s.07,.03,.07,.07-.11,.28-.26,.46c-.38,.47-.86,.5-1.06,.5-.95,0-1.42-.77-1.42-1.65,0-1.05,.65-1.8,1.42-1.8,.11,0,.24,.02,.38,.05,.03,.01,.24,.07,.27,.07,.04,0,.09-.01,.12-.04,.07-.07,.08-.08,.12-.08,.03,0,.06,.03,.08,.05Zm1.57,1.1c.58,0,1,.5,1,1.15s-.42,1.15-1,1.15-1-.5-1-1.15,.41-1.15,1-1.15Zm0,2.18c.38,0,.61-.49,.61-1.03s-.24-1.03-.61-1.03c-.34,0-.61,.42-.61,1.03,0,.53,.23,1.03,.61,1.03Zm1.29,.04s-.12,0-.12-.07,.05-.07,.17-.07c.05,0,.15,0,.21-.1,.04-.06,.05-.12,.05-.75,0-.14,0-.8-.03-.88-.01-.05-.07-.09-.14-.09-.03,0-.18,.04-.22,.04-.03,0-.05-.02-.05-.05,0-.04,.02-.04,.22-.1,.06-.02,.47-.15,.5-.15,.01,0,.02,0,.02,.01v.2c0,.24,0,.27,.05,.27,.02,0,.03,0,.09-.09,.04-.05,.31-.39,.64-.39,.17,0,.27,.1,.27,.26s-.12,.24-.23,.24c-.09,0-.14-.05-.18-.09-.03-.03-.07-.08-.13-.08-.11,0-.3,.14-.38,.29-.11,.19-.13,.3-.13,.96,0,.41,.01,.49,.33,.49,.04,0,.09,.01,.09,.07,0,.07-.08,.07-.12,.07h-.93Zm1.96,.74s-.12,0-.12-.07c0-.07,.09-.07,.16-.08,.11,0,.19-.05,.22-.19,.01-.09,.01-1.56,.01-1.83,0-.4,0-.52-.16-.52-.03,0-.16,.03-.19,.03-.02,0-.04-.02-.04-.04,0-.03,.02-.04,.1-.07,.05-.01,.56-.18,.57-.18,.03,0,.03,.04,.03,.13,0,.07,0,.1,.04,.1,0,0,.14-.08,.16-.09,.09-.05,.27-.14,.47-.14,.47,0,.9,.41,.9,1.11,0,.59-.34,1.19-.9,1.19-.2,0-.37-.06-.44-.09-.03-.01-.14-.07-.17-.07-.06,0-.06,.01-.06,.37,0,.08,0,.28,.23,.29,.13,0,.18,0,.18,.08s-.09,.07-.13,.07h-.87Zm.7-2.59c-.11,.11-.12,.18-.12,.84s.02,.68,.11,.77c.14,.13,.36,.14,.43,.14,.5,0,.65-.55,.65-.95,0-.53-.23-.96-.64-.96-.14,0-.32,.07-.43,.17Zm1.67,1.64c0-.16,.13-.3,.29-.3s.3,.13,.3,.3-.14,.3-.3,.3-.29-.13-.29-.3Z"/>
    <path class="cls-1" d="M16.19,8.09c0-2.21-1.7-4.04-3.86-4.23-.19-2.16-2.02-3.87-4.23-3.87S4.06,1.7,3.87,3.87c-2.16,.19-3.87,2.02-3.87,4.23s1.7,4.04,3.87,4.23c.19,2.16,2.02,3.86,4.23,3.86s4.04-1.7,4.23-3.86c2.16-.19,3.86-2.02,3.86-4.23Zm-8.46-.53c-1.16-.39-2-1.5-2-2.77,0-1.61,1.31-2.92,2.92-2.92,1.27,0,2.38,.84,2.77,2-1.92,.24-3.45,1.77-3.69,3.69Zm-3.85-2.79c.24,1.92,1.77,3.45,3.69,3.69-.39,1.16-1.5,2-2.77,2-1.61,0-2.92-1.31-2.92-2.92,0-1.27,.84-2.38,2-2.77Zm4.58,3.85c1.16,.39,2,1.5,2,2.77,0,1.61-1.31,2.92-2.92,2.92-1.27,0-2.38-.84-2.77-2,1.92-.24,3.45-1.77,3.69-3.69Zm3.85,2.79c-.24-1.92-1.77-3.45-3.69-3.69,.39-1.16,1.5-2,2.77-2,1.61,0,2.92,1.31,2.92,2.92,0,1.27-.84,2.38-2,2.77Z"/>
  </g>
</svg>