<?xml version="1.0" encoding="UTF-8"?>
<svg id="_レイヤー_2" data-name="レイヤー 2" xmlns="http://www.w3.org/2000/svg" viewBox="0 0 127.56 17.68">
  <defs>
    <style>
      .cls-1 {
        fill: #00a159;
      }

      .cls-2 {
        fill: #6a6969;
      }
    </style>
  </defs>
  <g id="_レイヤー_1-2" data-name="レイヤー 1">
    <path class="cls-1" d="M26.16,9.28c0,.22-.17,.4-.37,.4s-.25-.08-.54-.58c-.56-.98-1.26-1.58-1.42-1.58-.06,0-.08,.01-.25,.21l-.05,.05c-.31,.33-1.12,1.19-2.14,1.7-.2,.1-.44,.19-.52,.19-.09,0-.1-.07-.1-.09,0-.07,.39-.33,.39-.33,2.06-1.49,3.05-3.57,3.05-3.73,0-.01-.01-.03-.06-.03-.07,0-1.7,.38-1.79,.41-.02,0-.08,.03-.13,.06-.13,.06-.21,.1-.25,.1-.14,0-.53-.25-.58-.3-.07-.07-.21-.44-.21-.5,0-.07,.03-.1,.09-.1,.02,0,.22,.06,.22,.06,.25,.07,.34,.08,.42,.08,.29,0,1.81-.13,2.21-.3,.02,0,.08-.05,.14-.08,.16-.1,.27-.17,.32-.17,.21,0,.73,.43,.73,.66,0,.06-.08,.14-.26,.29-.04,.04-.09,.07-.1,.09-.12,.15-.53,.75-.78,1.11-.07,.1-.12,.18-.15,.22-.03,.03-.06,.08-.06,.14,0,.05,0,.06,.34,.24l.03,.02c.45,.26,1.81,1.04,1.81,1.79Zm2.32-3.06c-.23-.06-.24-.07-.24-.22,0-.21,.03-.92,.07-1.12h0c.07-.21,.1-.31,.1-.35,0-.29-.62-.56-.92-.56-.1,0-.26,.01-.27,.11,0,0,0,.02,0,.02l.02,.03s0,0,0,.01c.13,.12,.2,.2,.27,.36,.09,.25,.09,.55,.09,2.83,0,.98-.02,1.2-.07,1.88,0,.01,0,.07-.02,.11-.01,.06-.02,.11-.02,.12,0,.23,.22,.8,.49,.8s.28-.55,.28-.78c0-.12,0-.33-.02-.42-.03-.71-.04-1.15-.04-2.02,0-.56,.03-.56,.07-.56,.22,0,.59,.35,.83,.67h0c.54,.71,.57,.75,.8,.75,.12,0,.33-.07,.33-.32,0-.62-1.25-1.23-1.79-1.35Zm6.88-.37s-.09,.02-.21,.07c-.02,0-.03,.01-.04,.02-.02,0-.06,0-.2,.02-.14,.01-.34,.03-.35,.03-.05,0-.15,.02-.27,.03-.57,.07-1.76,.21-2.31,.21-.32,0-.63-.07-.79-.14,0,0-.02-.01-.04-.02-.06-.03-.09-.05-.11-.05-.05,0-.09,.04-.09,.08,0,.26,.6,.97,.97,.97,.04,0,.13-.04,.27-.09,.05-.02,.1-.04,.12-.05,.37-.11,2.4-.46,2.66-.46,.12,0,.13,.07,.13,.11,0,.02-.49,1.81-3.18,3.26-.01,0-.04,.02-.07,.03-.18,.09-.22,.11-.23,.12-.02,.02-.03,.05-.03,.08,0,.05,.04,.1,.11,.1,.08,0,.73-.17,1.46-.53,1.11-.57,1.63-1.16,2.31-2.18,.22-.34,.3-.46,.43-.57,.19-.16,.23-.2,.23-.34,0-.21-.61-.71-.75-.71Zm-2.9-.67c.06,0,1.8-.15,1.94-.17,.48-.04,.79-.07,.79-.36,0-.26-.37-.35-.54-.35-.08,0-.34,.06-.62,.12-.08,.02-.15,.03-.18,.04-.4,.08-.98,.09-1.29,.09-.11,0-.3,0-.42-.03,0,0,0,0,0,0-.02,0-.07-.02-.11-.04-.09-.03-.15-.05-.19-.05-.03,0-.09,0-.09,.1s.27,.65,.71,.65Zm10.24,1.46s-.05,0-.08,0c-.04,0-.07,0-.1,0-1.18,.06-4.02,.17-4.29,.17-.46,0-.83-.03-.98-.07-.01,0-.06-.02-.1-.04-.09-.04-.15-.06-.18-.06-.06,0-.1,.06-.1,.14,0,.29,.38,.82,.76,.82,.06,0,.22-.04,.42-.09,.09-.02,.18-.05,.22-.05,.19-.04,2.07-.15,3.17-.15,.08,0,.31,0,.55,0,.26,0,.52,0,.62,0,.35,0,.71-.02,.71-.29,0-.1-.11-.4-.61-.4Zm5.93-1.58c.33,.35,.37,.4,.37,.49,0,.16-.09,.2-.23,.26-.12,.05-.14,.08-.39,.48h0c-.04,.07-.12,.19-.22,.34-.18,.26-.52,.74-.52,.82,0,.06,0,.07,.15,.25l.02,.03c.18,.24,.33,.43,.33,.71,0,.34-.24,.43-.39,.43-.19,0-.23-.07-.54-.58h0c-.04-.08-.11-.18-.15-.18-.05,0-.09,.04-.22,.18l-.03,.04c-1.37,1.47-2.93,1.97-3.03,1.97-.04,0-.08-.01-.1-.04-.01-.02-.02-.04-.02-.08,.01-.04,.03-.05,.11-.1,.02-.01,.05-.03,.09-.05h0c1.64-.93,2.76-2.25,2.76-2.48,0-.09-.19-.29-.49-.5-.3-.21-.56-.33-.64-.33-.07,0-.35,.25-.58,.45-.42,.37-.71,.61-.86,.61-.06,0-.08-.04-.08-.08,0-.06,.3-.37,.3-.38,1-1.09,1.62-2.21,1.62-2.63,0-.03-.04-.12-.07-.19-.04-.1-.06-.16-.06-.2,0-.09,.13-.09,.19-.09,.45,0,.77,.34,.77,.52,0,.03-.02,.08-.05,.17-.02,.05-.04,.13-.04,.15,0,.09,.15,.1,.24,.1,.17,0,.96-.07,1.13-.21,.14-.11,.18-.13,.25-.13,.17,0,.32,.16,.39,.25Zm-.78,.43c-.06,0-.26,.02-.45,.05-.22,.03-.46,.06-.54,.06-.12,0-.18-.02-.25-.03-.1-.03-.12-.03-.19-.03-.02,0-.05,0-.07,.02-.07,.08-.66,.79-.68,.88,0,.08,.04,.1,.23,.17h.02c.25,.11,.32,.14,.86,.41l.04,.02c.07,.03,.14,.06,.16,.05,.14-.03,.96-1.24,.96-1.52,0-.07-.07-.07-.1-.07Zm1.43-2.03c-.14,0-.34,.05-.34,.15,0,.04,.05,.08,.13,.12,.27,.1,.58,.32,.69,.45,.15,.18,.26,.31,.45,.31,.17,0,.24-.16,.24-.28,0-.36-.45-.75-1.18-.75Zm-.64,.68c-.06,0-.19,.02-.19,.1,0,.06,.12,.16,.12,.16,.32,.29,.38,.35,.5,.54,.2,.31,.29,.42,.44,.42,.18,0,.29-.22,.29-.34,0-.48-.72-.88-1.17-.88Zm6.01,4.51c-.11,0-.48,.08-.57,.1-.55,.12-.87,.15-1.18,.15-1.01,0-1.18-.17-1.18-1.24,0-.32,0-.33,.08-.38,.02-.01,.3-.11,.57-.21,.36-.13,.77-.28,.9-.34,.05-.02,.14-.06,.26-.12,.27-.13,.68-.32,.81-.35,.23-.05,.39-.08,.39-.3s-.3-.72-.88-.72c-.06,0-.15,0-.15,.07,0,.01,0,.04,.02,.12,.01,.06,.03,.16,.03,.18,0,.41-1.78,1.26-1.89,1.26-.08,0-.11-.04-.11-.11,0-.33,.02-1.06,.05-1.34,0-.03,.03-.12,.06-.19,.05-.14,.08-.23,.08-.27,0-.09-.09-.2-.15-.24-.36-.29-.48-.35-.72-.35-.06,0-.23,.02-.23,.11,0,.02,0,.03,.06,.14l.08,.15c.09,.17,.21,.47,.21,1.12,0,.13,0,.5-.01,.88,0,.4-.01,.8-.01,.95,0,1.22,.08,1.92,1.76,1.92,.52,0,2.1,0,2.1-.65,0-.17-.17-.32-.36-.32Zm.04-4.27c-.09,0-.19,.03-.19,.1,0,.01,0,.06,.13,.15,.36,.29,.43,.39,.52,.51h.01c.22,.33,.3,.41,.45,.41,.18,0,.28-.23,.28-.35,0-.37-.55-.83-1.2-.83Zm1.88,0c0-.2-.22-.71-1.2-.71-.06,0-.34,.03-.34,.15,0,.04,.04,.1,.13,.13,.21,.07,.57,.27,.7,.42,.15,.18,.27,.31,.46,.31,.15,0,.24-.14,.24-.28Zm5.28,1.58s-.04,0-.55,.52l-.06,.06c-1.44,1.33-3.63,2.52-4.05,2.52-.05,0-.23-.06-.33-.09-.11-.03-.12-.04-.14-.04-.06,0-.1,.04-.1,.1,0,.03,0,.1,.04,.16,0,.02,.04,.07,.09,.15,.03,.05,.07,.1,.08,.12,.17,.36,.27,.56,.47,.56,.1,0,.14-.03,.45-.27,.06-.05,.1-.07,.59-.38,3.23-2.03,3.61-3.31,3.61-3.32,0-.06-.05-.09-.09-.09Zm-4.66,1.16c.12,.2,.17,.27,.32,.27,.22,0,.35-.26,.35-.45,0-.44-.53-.75-.88-.75-.4,0-.61,.05-.61,.16,0,.05,.06,.09,.09,.11,0,0,0,0,0,0,.25,.14,.57,.39,.72,.65Zm.19-2.2h.03c.33,.12,.49,.21,.69,.44l.02,.02c.28,.32,.31,.37,.42,.37,.16,0,.31-.2,.31-.42,0-.31-.27-.53-.5-.63-.18-.08-.36-.08-.43-.08-.19,0-.66,.06-.66,.21,0,.06,.03,.07,.12,.1Zm2.94-.58h0c.3,.28,.37,.34,.51,.54,.2,.31,.29,.42,.43,.42,.18,0,.3-.23,.3-.35,0-.45-.66-.87-1.18-.87-.12,0-.19,.03-.19,.1,0,.07,.12,.16,.12,.16Zm.76-.53c.26,.13,.54,.36,.64,.51,.13,.21,.24,.38,.43,.38,.17,0,.26-.15,.26-.3,0-.58-.84-.84-1.1-.84-.17,0-.35,0-.35,.11,0,.02,0,.08,.11,.13Zm3.09-.06c.48,.32,.62,.45,.73,.62l.02,.04c.21,.32,.31,.48,.51,.48,.16,0,.35-.16,.35-.36,0-.54-.82-.97-1.49-.97-.06,0-.19,0-.19,.08,0,.04,.03,.07,.06,.09h.02Zm2.4,3.41c-.09,0-.1,.04-.1,.06,0,.04,.04,.1,.15,.24v.02c.48,.53,.52,.59,.64,.8,.14,.27,.25,.4,.43,.4,.23,0,.35-.25,.35-.38,0-.49-.72-1.14-1.46-1.14Zm-.96-1.84c-.08,0-.11,.02-.34,.16h-.02c-.19,.14-1.31,.36-1.75,.36-.15,0-.34-.02-.46-.03h-.04c-.11-.03-.22-.06-.26-.06-.06,0-.11,.05-.11,.1,0,.04,.07,.25,.14,.34,.15,.17,.48,.36,.65,.36,.05,0,.36-.1,.85-.26,.28-.09,.61-.2,.64-.2,.03,0,.03,.02,.03,.03,0,.04-.1,.22-.24,.43-.52,.81-1.05,1.35-1.71,1.9-.05,.04-.18,.15-.33,.27-.72,.57-.72,.58-.72,.62,0,.04,.03,.06,.07,.06,.06,0,.26-.08,.31-.11,1.13-.52,1.76-1.17,2.44-1.86l.03-.03s.07-.05,.09-.05c0,0,.09,0,.12,.07,.06,.12,.08,.48,.08,.77,0,.39-.03,.6-.13,1.22,0,.01,0,.05-.02,.09-.03,.14-.05,.25-.05,.3,0,.18,.22,.77,.51,.77,.17,0,.25-.16,.25-.49,0-.04,0-.16-.01-.28,0-.12-.01-.25-.01-.3-.02-.33-.02-.99-.02-1.2,0-.3,0-.34,.04-.59,0-.02,.01-.07,.03-.13,.03-.13,.05-.22,.05-.25,0-.23-.31-.36-.39-.38h-.01c-.07-.02-.07-.03-.07-.05,0-.03,.12-.18,.16-.24l.13-.18c.29-.39,.33-.44,.44-.52,.15-.1,.19-.12,.19-.2,0-.13-.33-.44-.55-.44Zm6.15,2.18l-.03-.02c-.34-.18-.34-.19-.34-.24,0-.06,.03-.11,.06-.14,.03-.04,.08-.11,.14-.21,.23-.34,.66-.97,.79-1.12,.01-.02,.06-.05,.1-.09,.18-.15,.26-.23,.26-.29,0-.23-.52-.66-.73-.66-.05,0-.16,.07-.32,.17-.06,.04-.12,.07-.14,.08-.41,.16-1.92,.3-2.21,.3-.07,0-.17,0-.42-.08,0,0-.2-.06-.22-.06-.06,0-.09,.04-.09,.1,0,.06,.14,.43,.21,.5,.05,.05,.44,.3,.58,.3,.04,0,.12-.04,.25-.1,.05-.03,.11-.05,.13-.06,.09-.03,1.72-.41,1.79-.41,.04,0,.05,.02,.06,.03,0,.17-.98,2.24-3.05,3.73,0,0-.39,.27-.39,.33,0,.02,0,.09,.1,.09,.08,0,.32-.1,.52-.19,1.01-.51,1.83-1.37,2.14-1.7l.04-.05c.18-.2,.19-.21,.25-.21,.16,0,.86,.6,1.42,1.58,.29,.51,.33,.58,.54,.58s.37-.18,.37-.4c0-.74-1.36-1.53-1.81-1.79Zm7.54-1.74c-.12,0-.15,0-.42,.11-.19,.06-.5,.09-.54,.09-.15,0-.16-.03-.16-.3,0-.21,0-.71,.08-.9,0-.01,.02-.04,.04-.07,.06-.11,.1-.19,.1-.24,0-.12-.13-.18-.21-.23h-.01c-.24-.13-.5-.25-.67-.25-.1,0-.23,.05-.23,.12,0,.02,0,.02,.09,.15,.06,.09,.15,.23,.16,.27,.04,.13,.06,.57,.06,1.31,0,.1-.01,.18-.14,.2-.2,.02-.71,.05-.92,.05-.16,0-.16-.1-.16-.13v-.04c0-.08,0-.17,.03-.24,0,0,0,0,0,0,0-.02,.03-.08,.06-.13,.06-.11,.09-.18,.09-.22,0-.19-.56-.58-.77-.58,0,0-.32,0-.32,.12,0,.03,.03,.08,.13,.18,.02,.02,.03,.04,.04,.04,.13,.2,.17,.64,.17,.88,0,.16-.06,.18-.2,.19-.07,0-.27,.01-.49,.02-.22,.01-.45,.03-.53,.03-.1,0-.58-.06-.69-.07-.02,0-.2-.05-.25-.05s-.1,.04-.1,.11c0,.34,.72,.71,.84,.71,.04,0,.14-.03,.24-.07,.02,0,.04-.02,.05-.02,.48-.13,.94-.19,1.03-.19,.09,0,.15,0,.15,.4,0,.04-.02,.26-.04,.47-.02,.22-.04,.43-.04,.47,0,.15,.24,.69,.47,.69,.16,0,.19-.21,.19-.58,0-.08-.01-.29-.02-.53-.01-.25-.03-.5-.03-.59,0-.35,0-.36,.08-.4,.06-.03,.61-.08,.95-.08,.11,0,.2,0,.2,.22,0,.9-.09,1.87-.78,2.89-.04,.06-.21,.28-.33,.45q-.15,.19-.15,.21c0,.05,.04,.09,.09,.09,.09,0,.52-.31,.88-.75,.74-.91,.84-1.84,.87-2.64v-.02c.02-.46,.03-.47,.23-.47,0,0,.82,.02,1.1,.06,.02,0,.07,.01,.13,.03,.22,.04,.44,.09,.51,.09,.14,0,.3-.09,.3-.28,0-.42-.71-.58-1.16-.58Zm5.96,1.49c-.09,0-.1,.06-.1,.08,0,.04,.07,.12,.32,.35l.02,.02c.29,.25,.53,.69,.65,.98h0s0,.02,0,.02c.14,.34,.23,.55,.49,.54,.1,0,.18-.03,.25-.1,.11-.1,.15-.27,.15-.39,0-.71-1.35-1.51-1.78-1.51Zm2.02-2.63c0,.45-.37,.84-.81,.84-.4,0-.83-.32-.83-.83,0-.4,.31-.82,.83-.82,.6,0,.81,.49,.81,.81Zm-1.3,.02c0,.33,.3,.46,.49,.46,.32,0,.46-.27,.46-.46,0-.29-.28-.48-.48-.48-.16,0-.47,.15-.47,.48Zm-3.67,2.91c-.05,0-.14,.08-.19,.13l-.02,.02c-.32,.28-.58,.49-.77,.6-.23,.14-.33,.23-.33,.42s.14,.3,.26,.34c.04,.02,.1,.04,.17,.04,.55,0,.96-.99,.96-1.4,0-.05-.02-.14-.08-.14Zm3.74-1.13c.2,.03,.54,.09,.64,.09,.12,0,.25-.05,.25-.2s-.12-.23-.21-.29h-.01c-.33-.2-.59-.29-.81-.29-.06,0-.21,.03-.41,.08-.09,.02-.18,.04-.22,.04-.03,0-.07,0-.13,.02-.18,.03-.46,.06-.66,.06s-.28-.04-.28-.25c0-.3,.03-.52,.07-.61,0-.01,.03-.05,.05-.08,.06-.1,.1-.17,.1-.2,0-.08-.21-.46-.8-.46-.18,0-.32,.05-.32,.12,0,.03,.03,.07,.1,.15,.02,.03,.05,.06,.06,.08,.11,.22,.17,.74,.17,1.02,0,.24-.06,.29-.35,.3-.09,0-.28,.01-.49,.02-.33,.02-.71,.03-.82,.03-.35,0-.59-.03-.71-.08l-.04-.02c-.07-.03-.09-.04-.13-.04-.04,0-.1,.02-.1,.11,0,.18,.41,.75,.62,.75,.06,0,.33-.09,.33-.09,.47-.12,1.44-.26,1.49-.26,.17,0,.2,.07,.2,.5s0,1.25-.04,1.63c-.02,.16-.07,.18-.12,.18-.02,0-.11-.03-.18-.05-.1-.03-.17-.05-.2-.05-.04,0-.07,.03-.07,.07,0,.03,.01,.05,.03,.08,0,.01,.01,.02,.02,.04,.16,.24,.2,.31,.3,.57h0c.17,.47,.19,.55,.4,.55,.18,0,.47-.09,.47-.7,0-.17,0-.66-.02-1.18-.01-.54-.02-1.09-.02-1.29,0-.42,.03-.42,.73-.42,.07,0,.66,0,.96,.04,.03,0,.07,.01,.13,.02Zm7.46,.23s-.05,0-.08,0c-.03,0-.07,0-.09,0h0c-1.18,.06-4.02,.17-4.29,.17-.46,0-.83-.03-.98-.07-.01,0-.06-.02-.1-.04-.1-.04-.15-.06-.18-.06-.06,0-.1,.06-.1,.14,0,.29,.38,.82,.76,.82,.06,0,.22-.04,.42-.09,.09-.02,.18-.05,.22-.05,.19-.04,2.07-.15,3.17-.15,.08,0,.31,0,.55,0,.26,0,.52,0,.62,0,.35,0,.71-.02,.71-.29,0-.1-.11-.4-.61-.4Zm2.35-.43c-.23-.06-.24-.07-.24-.22,0-.21,.03-.92,.07-1.12v-.02c.07-.19,.1-.29,.1-.33,0-.29-.62-.56-.92-.56-.1,0-.26,.01-.27,.11,0,0,0,.02,0,.02l.02,.03s0,0,0,.01c.13,.12,.2,.2,.27,.36,.1,.25,.1,.55,.1,2.83,0,1.01-.02,1.21-.07,1.88,0,.01,0,.07-.02,.11-.01,.06-.02,.11-.02,.12,0,.23,.22,.8,.49,.8s.28-.55,.28-.78c0-.12,0-.33-.02-.42-.03-.72-.04-1.15-.04-2.02,0-.56,.03-.56,.07-.56,.22,0,.59,.35,.83,.67,.54,.71,.58,.75,.8,.75,.12,0,.33-.07,.33-.32,0-.62-1.25-1.23-1.79-1.35Zm9.12,3.06l-.04-.03c-1.28-.76-1.79-1.95-1.79-2.1,0-.05,.03-.07,.15-.07h1.31c.26,0,.45,0,.45-.15,0-.14-.66-.53-.72-.53-.06,0-.13,.07-.28,.25-.04,.05-.08,.09-.1,.11-.04,.04-.07,.04-.38,.04h-.34c-.21,0-.21-.05-.21-.34,0-.85,.02-.97,.03-.99,.03-.06,.08-.08,.19-.08h1.08c.27,0,.45,0,.45-.15,0-.1-.59-.55-.68-.55-.06,0-.15,.08-.31,.27-.04,.04-.07,.08-.09,.1-.04,.04-.09,.04-.26,.04h-.18c-.16,0-.21-.03-.21-.2,0-.19,.02-.81,.04-.89,0,0,.03-.04,.05-.06,.06-.07,.09-.11,.09-.14,0-.13-.75-.28-.75-.28-.04,0-.07,.03-.07,.07s.02,.18,.04,.39c.02,.14,.03,.28,.04,.34,0,.06,.02,.51,.02,.61,0,.15-.09,.17-.18,.17h-.59c-.06,0-.06-.02-.06-.02,0-.01,.03-.08,.06-.15,.03-.06,.06-.14,.08-.19l.02-.06c.09-.2,.09-.21,.14-.22h.02c.13-.05,.2-.07,.2-.15,0-.15-.77-.35-.78-.35-.1,0-.1,.07-.12,.21-.02,.17-.13,.78-.44,1.55-.01,.03-.05,.11-.09,.2-.17,.39-.17,.4-.17,.41,0,.03,.02,.06,.06,.06,.11,0,.51-.5,.71-.84,.1-.17,.1-.17,.24-.17h.69c.16,0,.17,.05,.18,.13,0,.04,.02,.24,.02,1.06,0,.18-.03,.21-.23,.21h-.24c-.25,0-.6-.02-.81-.02-.09,0-.15,0-.16,0-.02,0-.09,0-.15-.01-.08,0-.15-.01-.18-.01-.06,0-.07,.03-.07,.05,0,.03,.01,.04,.02,.05,0,0,.01,.01,.02,.03l.15,.18s.05,.06,.1,.06c.01,0,.05,0,.08,0,.03,0,.07,0,.08,0,.18-.02,.59-.02,.76-.02,.19,0,.25,0,.25,.12,0,.08-.5,1.29-1.63,2.35,0,0-.27,.24-.27,.31,0,.05,.04,.07,.09,.07,.05,0,.13-.04,.23-.1,.02-.01,.05-.03,.06-.03,.87-.54,1.35-1.23,1.83-2.02,.05-.08,.06-.1,.07-.1,0,0,0,.05,0,.11,0,.02-.02,1.22-.03,1.6,0,.12-.02,.27-.03,.43-.02,.2-.03,.4-.03,.55,0,.13,.07,.2,.2,.2,.07,0,.23-.02,.34-.11,.08-.06,.09-.15,.09-.27,0-.18,0-.71,0-1.26,0-.57,0-1.15,0-1.37,.01,.04,.03,.09,.05,.14,.03,.08,.06,.16,.07,.19,.39,1.04,1.13,1.97,1.24,1.97,.05,0,.13-.05,.29-.16,.03-.02,.06-.04,.07-.05,.12-.05,.25-.08,.38-.08,.1,0,.12-.04,.12-.08,0-.05-.06-.09-.27-.22Zm-4.55-1.65c.19,0,.24-.22,.24-.35,0-.42-.43-.59-.63-.68h-.02c-.32-.12-.34-.15-.34-.28,0-.45,0-.45,.23-.45h.51c.19,0,.38,0,.38-.13,0-.11-.55-.48-.62-.48-.08,0-.12,.06-.2,.21-.02,.04-.07,.11-.16,.11-.11,0-.12-.05-.12-.11,0-.04,.01-.27,.02-.51,.01-.3,.03-.61,.03-.68,0-.13,.01-.16,.08-.21h.01c.07-.07,.1-.09,.1-.16,0-.11-.09-.14-.24-.18,0,0-.06-.02-.11-.04-.18-.06-.34-.11-.39-.11-.04,0-.06,.03-.06,.07,0,.02,0,.08,.02,.2,.02,.18,.04,.42,.04,.49q0,1.23-.17,1.23c-.08,0-.33-.02-.55-.03-.2-.01-.38-.02-.44-.02-.04,0-.06,.03-.06,.06,0,.02,0,.03,.02,.05l.13,.19s.04,.08,.09,.08c.03,0,.11-.01,.14-.02,.15,0,.46-.02,.52-.02,.12,0,.2,.02,.2,.14,0,.07-.22,1.11-.72,2.29l-.02,.05c-.27,.58-.27,.59-.27,.6,0,.03,.03,.06,.06,.06,.17,0,.49-.52,.95-1.37,.03-.05,.06-.1,.08-.14,0,.22-.02,1.97-.03,2.16,0,.08-.02,.63-.02,.7,0,.13,.08,.2,.21,.2,.04,0,.39-.01,.39-.4,0-.09,0-.31,0-.56,0-.43-.02-.96-.01-1.13,0-.11,0-.44,0-.77,0-.35,0-.71,0-.84,0-.11,.03-.14,.04-.14,.03,0,.15,.1,.35,.48l.02,.03c.15,.3,.2,.39,.35,.39Zm10.01-3.85c.13,.08,.45,.48,.58,.67h0c.16,.24,.18,.27,.29,.27,.23,0,.35-.13,.35-.35,0-.48-1.09-.75-1.21-.75-.03,0-.08,.01-.08,.05-.01,.05,.05,.1,.06,.1Zm1.38,.95c-.1,0-.12,.04-.37,.37-.09,.12-.11,.12-.46,.12h-.89c-.16,0-.21,0-.22-.77,0-.36,0-.38,.08-.46,.07-.07,.08-.09,.08-.15,0-.14-.16-.18-.33-.21-.24-.05-.46-.09-.55-.09-.06,0-.09,.02-.09,.06,0,.06,.04,.24,.08,.44,.01,.06,.02,.11,.03,.13,.02,.13,.15,.93,.15,.99,0,.04,0,.05-.12,.05h-2.03c-.36,0-.69,0-1.05-.02-.05,0-.29-.03-.34-.03-.05,0-.07,.03-.07,.06,0,.02,0,.04,.04,.07l.16,.18s.05,.06,.09,.06c.03,0,.14-.02,.17-.02,.27-.02,.79-.02,.97-.02h2.07c.16,0,.17,.01,.21,.3,.5,2.98,2.12,4.61,2.81,4.61,.15,0,.24-.08,.24-.23,0-.07-.02-.11-.08-.23-.06-.11-.08-.17-.08-.3,0-.11,.05-.58,.08-.84,.02-.14,.02-.17,.02-.18,0-.08-.04-.09-.06-.09-.04,0-.07,.04-.21,.32-.02,.05-.04,.08-.05,.1-.05,.1-.21,.39-.3,.39-.21,0-1.04-.97-1.51-2.42-.15-.49-.31-1.27-.31-1.35,0-.07,0-.08,.14-.08h2.03c.28,0,.45,0,.45-.15s-.65-.62-.78-.62Zm-1.92,4.14s0,0-.33,.07c-.47,.1-1.46,.32-1.54,.32-.09,0-.09-.03-.09-.51s.03-1.27,.05-1.34c.02-.07,.08-.1,.18-.1h.81c.28,0,.45,0,.45-.14,0-.13-.47-.57-.6-.57-.06,0-.12,.07-.24,.23-.06,.07-.13,.17-.16,.18-.05,.02-.15,.02-.35,.02h-.61c-.35,0-.69,0-1.05-.02-.04,0-.29-.03-.34-.03-.03,0-.07,.02-.07,.06,0,.03,.02,.05,.05,.08l.15,.18s.05,.06,.1,.06c0,0,.03,0,.06,0,.02,0,.04,0,.05,0,.15-.02,.43-.02,.69-.02,.1,0,.18,.01,.18,.14,0,.01,0,.13,0,.27,0,.2,0,.44,0,.47,0,.11,0,1.04-.01,1.09,0,.03-.02,.06-.05,.08-.03,.02-.22,.05-.97,.14h-.08c-.23,.03-.3,.04-.3,.11,0,0,.2,.87,.34,.87,.04,0,.09-.04,.18-.14,.03-.03,.08-.08,.09-.09,.09-.06,.3-.12,1.39-.47,.57-.18,2.09-.73,2.09-.87,0-.03-.02-.06-.08-.06Zm10.16-2.35c-1.83-.52-3.15-2.24-3.15-2.42,0-.02,0-.03,.04-.04h.02c.07-.06,.09-.08,.09-.13,0-.17-.75-.51-.76-.51-.12,0-.13,.05-.18,.25v.05c-.04,.13-.48,1.02-1.84,2.18-.43,.36-.96,.75-1.17,.9h-.01c-.1,.07-.13,.1-.13,.15,0,.02,0,.04,.03,.06,.03,.02,.08,.01,.09,0,.37-.07,2.08-.84,3.39-2.49,.04-.05,.16-.2,.18-.21,.01,0,.06,.09,.1,.16,.86,1.57,2.51,2.73,2.71,2.73,.07,0,.1-.05,.13-.1,.07-.12,.24-.23,.47-.3,.2-.06,.24-.08,.24-.15,0-.07-.01-.07-.24-.14Zm-5.27,.32s.05,0,.09,0c.03,0,.07,0,.08,0,.28-.02,.5-.02,.97-.02h1.77c.39,0,.45,0,.45-.12,0-.1-.52-.62-.62-.62-.05,0-.11,.07-.25,.23l-.04,.04c-.15,.18-.15,.19-.51,.19h-.76c-.25,0-.63,0-1.05-.03-.02,0-.09,0-.15-.01-.08,0-.15-.01-.18-.01-.04,0-.06,.03-.06,.05,0,.03,0,.05,.04,.08l.15,.18s.06,.06,.1,.06Zm3.77,2.43s0,0,0,0l-.05-.03c-.57-.31-.86-.45-.94-.45-.06,0-.09,.03-.09,.09s.07,.13,.22,.3c.09,.1,.23,.26,.23,.3,0,.04-.12,.05-.58,.1-.86,.09-1.58,.13-1.67,.13-.03,0-.1,0-.1-.04,0-.04,.05-.1,.08-.14,0,0,.01-.02,.02-.02,.05-.05,.37-.43,.53-.64l.03-.03c.17-.22,.18-.24,.22-.25,.23-.06,.26-.07,.26-.17,0-.08-.19-.26-.32-.38h2.38c.37,0,.44,0,.44-.14,0-.09,0-.1-.41-.43-.18-.15-.21-.17-.29-.17-.09,0-.13,.05-.24,.21h0c-.17,.25-.24,.25-.56,.25h-2.53c-.27,0-.68-.02-1.05-.03-.02,0-.09,0-.16-.01-.08,0-.15-.01-.18-.01-.06,0-.07,.03-.07,.05,0,.02,.01,.03,.03,.05,0,0,.01,.02,.02,.03l.15,.18h.01s.04,.06,.08,.06c.01,0,.05,0,.08,0,.03,0,.07,0,.08,0,.21-.02,.41-.02,.96-.02h.48c.15,0,.19,0,.19,.09,0,.07-.2,.6-.4,1-.3,.61-.34,.61-.76,.61-.13,0-.35-.02-.45-.03h-.05c-.12-.03-.25-.05-.29-.05-.08,0-.1,.05-.1,.09s.05,.18,.43,.83c.02,.05,.07,.08,.11,.08,.03,0,.08-.03,.17-.08,.03-.02,.06-.04,.07-.04,.27-.12,3.22-.7,3.55-.7,.08,0,.14,0,.29,.26,.14,.25,.3,.56,.56,.56,.16,0,.34-.18,.34-.45,0-.5-.49-.79-.69-.91Zm4.71-.91c.15,0,.31-.12,.31-.39,0-.57-.63-.8-1.01-.89-.19-.04-.22-.05-.22-.18s.01-.14,.23-.36c.04-.04,.12-.13,.21-.23,.16-.19,.43-.5,.49-.52,.01,0,.04-.01,.07-.02,.03,0,.07-.02,.08-.02,.07-.03,.11-.08,.11-.14,0-.06-.02-.09-.2-.26-.01,0-.06-.06-.1-.11-.06-.06-.12-.14-.16-.18-.02-.04-.08-.07-.14-.07s-.14,.07-.27,.19c-.04,.04-.08,.07-.1,.08-.05,.04-.1,.05-.16,.05s-.08,0-.08-.08v-.65c0-.32,0-.35,.03-.41,0,0,.04-.04,.06-.06,.07-.07,.1-.1,.1-.14,0-.08-.07-.12-.11-.14-.06-.03-.64-.21-.71-.21-.07,0-.07,.05-.07,.06,0,.03,0,.08,.02,.15,0,.04,.02,.1,.02,.12,.02,.29,.03,.74,.03,.86,0,.53,0,.53-.18,.53-.08,0-.31-.01-.53-.02-.21-.01-.41-.02-.49-.02-.07,0-.07,.05-.07,.06,0,.02,0,.03,.03,.06l.02,.02s0,0,0,0l.15,.18s.05,.06,.1,.06c.01,0,.05,0,.08,0,.03,0,.07,0,.08,0,.26-.01,.58-.02,.89-.02h.54c.08,0,.08,.01,.08,.04,0,.2-1.05,1.52-1.38,1.85-.03,.03-.1,.1-.19,.18-.39,.37-.49,.48-.49,.53,0,.02,0,.06,.08,.06,.13,0,.47-.26,.9-.59,.16-.12,.34-.27,.37-.28,.04,0,.04,.13,.04,.18,0,.73-.02,1.39-.04,1.92v.35s-.02,.15-.03,.26c0,.11-.02,.21-.02,.25,0,.15,.09,.22,.27,.22,.26,0,.45-.16,.45-.39,0-.06-.01-.21-.02-.36,0-.14-.02-.28-.02-.33,0-.16,0-.61,0-1.05,0-.42,0-.84,0-.98,0-.06,0-.16,.03-.16,.11,0,.34,.32,.41,.45,.2,.41,.29,.58,.5,.58Zm3.49,1.13c-.11,0-.14,.04-.35,.31-.16,.22-.29,.22-.42,.22h-.28c-.15,0-.16-.08-.16-.38,0-.26,0-.99-.01-1.69,0-.66-.01-1.31-.01-1.54,0-.13,.01-.21,.18-.21h1.07c.27,0,.45,0,.45-.14,0-.16-.56-.68-.68-.68-.09,0-.11,.03-.35,.35-.15,.2-.17,.2-.53,.2-.13,0-.14-.08-.14-.2,0-.27,.03-1.48,.07-1.57,0-.01,.04-.05,.07-.07,.08-.08,.11-.11,.11-.15,0-.15-.16-.2-.24-.22h-.02s-.05-.02-.11-.04c-.37-.11-.44-.13-.46-.13-.07,0-.1,.03-.1,.09,0,.03,.01,.11,.02,.2,.01,.08,.02,.16,.02,.19,.04,.57,.05,.92,.05,1.62,0,.23-.02,.28-.16,.28-.17,0-.48-.01-.71-.02-.12,0-.22,0-.25,0-.02,0-.17-.01-.25-.02-.04,0-.07,0-.07,0-.06,0-.06,.05-.06,.05,0,.03,0,.04,.04,.08l.15,.18s.06,.06,.1,.06c.02,0,.06,0,.09,0,.03,0,.06,0,.07,0,.27-.02,.71-.02,.9-.02,.13,0,.14,.1,.14,.2,0,.43-.02,3.36-.03,3.49-.01,.12-.09,.13-.18,.13h-.3c-.39,0-.77-.01-.99-.02h-.06s-.11-.01-.18-.02c-.07,0-.14-.01-.16-.01-.03,0-.06,.03-.06,.06,0,.02,0,.03,.04,.07h0s.15,.18,.15,.18c.03,.04,.06,.07,.1,.07,.01,0,.04,0,.09-.01,.03,0,.06-.01,.08-.01,.22-.02,.61-.02,.85-.02h2.84c.27,0,.45,0,.45-.15,0-.16-.7-.67-.78-.67Z"/>
    <path class="cls-2" d="M21,16.78c-.03-.08-.23-.59-.23-.62,0-.07,.06-.09,.1-.09,.05,0,.06,.02,.17,.19,.2,.31,.6,.62,1.06,.62,.3,0,.67-.2,.67-.68,0-.41-.27-.55-.84-.75-.63-.22-1.04-.46-1.04-.99,0-.47,.32-.87,.9-.87,.09,0,.2,.01,.32,.04,.05,0,.24,.05,.27,.05,.04,0,.07,0,.1-.03,.06-.05,.07-.06,.1-.06,.05,0,.07,.04,.11,.16,.03,.07,.24,.6,.24,.63,0,.06-.05,.07-.08,.07-.04,0-.04-.01-.12-.13-.12-.19-.37-.58-.92-.58-.51,0-.61,.41-.61,.59,0,.37,.27,.51,.86,.72,.91,.32,1.03,.68,1.03,1.02,0,.61-.48,.97-.98,.97-.16,0-.32-.03-.49-.09-.12-.04-.15-.04-.18-.04-.07,0-.13,.02-.17,.06-.08,.07-.09,.08-.13,.08-.06,0-.07-.03-.15-.25Zm2.34-1.82s-.12,0-.12-.07c0-.06,.02-.06,.15-.08,.07,0,.45-.1,.45-.68,0-.04,0-.1,.06-.1,.07,0,.07,.07,.07,.09v.58s.01,.11,.11,.11h.48s.13,0,.13,.07c0,.03-.03,.07-.12,.07h-.48s-.08,0-.1,.06c-.02,.05-.02,.55-.02,.64,0,.14,0,.86,.01,.92,.06,.25,.27,.25,.31,.25,.09,0,.2-.04,.3-.11,.03-.02,.13-.12,.16-.12,.02,0,.03,.02,.03,.04,0,.08-.28,.39-.66,.39-.47,0-.47-.36-.47-.81,0-.01,0-.99,0-1.14,0-.02,0-.11-.11-.11h-.18Zm1.7,1.98s-.12,0-.12-.07,.05-.07,.17-.07c.05,0,.15,0,.21-.1,.04-.06,.05-.12,.05-.75,0-.14,0-.8-.03-.88-.01-.05-.07-.09-.14-.09-.03,0-.18,.04-.22,.04-.03,0-.05-.02-.05-.05,0-.04,.02-.04,.22-.1,.06-.02,.47-.15,.5-.15,.01,0,.02,0,.02,.01v.2c0,.24,0,.27,.05,.27,.02,0,.03,0,.09-.09,.04-.05,.31-.39,.64-.39,.17,0,.27,.1,.27,.26s-.12,.24-.23,.24c-.09,0-.14-.05-.18-.09-.03-.03-.07-.08-.13-.08-.11,0-.3,.14-.38,.29-.11,.19-.13,.3-.13,.96,0,.41,.01,.49,.33,.49,.04,0,.09,.01,.09,.07,0,.07-.08,.07-.12,.07h-.93Zm3.54-1.6c0,.15,0,.89,0,1.05,0,.21,0,.4,.18,.4,.04,0,.12-.03,.14-.05,0,0,.03-.03,.04-.03,0,0,.02,0,.02,.03,0,.08-.18,.28-.38,.28-.14,0-.26-.11-.3-.2,0-.03-.02-.07-.06-.07-.03,0-.07,.03-.11,.06-.18,.14-.4,.21-.59,.21-.27,0-.57-.14-.57-.48,0-.54,.76-.77,1.02-.84,.27-.08,.3-.09,.3-.32,0-.39-.22-.53-.42-.53-.3,0-.35,.21-.36,.28-.03,.14-.06,.3-.24,.3-.12,0-.21-.09-.21-.22,0-.27,.44-.47,.82-.47,.36,0,.73,.16,.74,.61Zm-.35,1.21c.02-.05,.03-.07,.03-.6,0-.09,0-.17-.09-.17-.16,0-.84,.3-.84,.73,0,.12,.08,.33,.39,.33,.15,0,.45-.14,.51-.28Zm2.49,.39s-.08-.01-.09-.06c0-.06-.01-.09-.04-.09s-.13,.1-.15,.11c-.17,.11-.34,.12-.44,.12-.65,0-.88-.61-.88-1.15,0-.86,.56-1.14,.94-1.14,.05,0,.13,0,.24,.04,.04,.01,.23,.13,.27,.13,.05,0,.06-.07,.06-.11,0-.05,0-.34,0-.4,0-.2,0-.53-.28-.53-.02,0-.12,.01-.13,.01-.02,0-.05-.01-.05-.04,0-.04,.02-.05,.21-.1,.06-.02,.5-.16,.53-.16,0,0,.02,0,.04,.02,.01,.02,.01,.3,.01,.35,0,.33,0,1.97,0,2.34,0,.24,0,.51,.26,.52,.08,0,.16,0,.16,.08,0,.01-.01,.06-.07,.06h-.57Zm-.11-.5c.02-.1,.02-.57,.02-.86,0-.25,0-.36-.1-.49-.07-.09-.18-.18-.36-.18-.35,0-.67,.37-.67,1,0,.47,.19,.92,.6,.92,.15,0,.46-.08,.51-.39Zm2.61-1.1c0,.15,0,.89,0,1.05,0,.21,0,.4,.18,.4,.05,0,.12-.03,.14-.05,0,0,.03-.03,.04-.03,0,0,.02,0,.02,.03,0,.08-.18,.28-.38,.28-.14,0-.26-.11-.3-.2,0-.03-.02-.07-.06-.07-.03,0-.07,.03-.11,.06-.18,.14-.4,.21-.59,.21-.27,0-.57-.14-.57-.48,0-.54,.76-.77,1.02-.84,.27-.08,.3-.09,.3-.32,0-.39-.22-.53-.42-.53-.3,0-.35,.21-.36,.28-.03,.14-.06,.3-.24,.3-.12,0-.21-.09-.21-.22,0-.27,.44-.47,.82-.47,.36,0,.73,.16,.74,.61Zm-.35,1.21c.02-.05,.03-.07,.03-.6,0-.09,0-.17-.09-.17-.16,0-.84,.3-.84,.73,0,.12,.08,.33,.39,.33,.15,0,.45-.14,.51-.28Zm3.47-2.89c.5,0,1.14,.17,1.14,.73,0,.35-.26,.62-.55,.73-.03,0-.11,.04-.11,.06s.19,.06,.23,.08c.39,.15,.62,.47,.62,.78,0,.43-.38,.91-1.23,.91h-1.51c-.07,0-.14,0-.14-.07s.07-.07,.14-.07c.15,0,.35,0,.39-.23,.02-.09,.03-1.36,.03-1.54,0-.2,0-.93-.04-1.05-.06-.17-.27-.17-.32-.17-.15,0-.2,0-.2-.08,0-.07,.04-.07,.18-.07h1.36Zm-.53,1.62s-.09,.02-.1,.06c-.02,.04-.02,.68-.02,.78,0,.49,0,.68,.33,.68h.39c.49,0,.83-.28,.83-.75,0-.4-.27-.78-.82-.78h-.61Zm.49-.14c.42,0,.77-.23,.77-.69s-.3-.64-.73-.64h-.32c-.32,0-.32,.2-.32,.6,0,.23,0,.63,.01,.67,.02,.04,.08,.06,.1,.06h.49Zm3.3,1.81s-.09-.04-.09-.09c0-.1,0-.14-.04-.14-.03,0-.12,.09-.14,.1-.06,.04-.28,.21-.55,.21-.13,0-.61-.04-.64-.7,0-.09,0-.55,0-.66s0-.59-.02-.65c-.02-.05-.07-.06-.11-.06-.02,0-.11,0-.14,0-.03,0-.05-.02-.05-.04,0-.04,.02-.04,.18-.09,.14-.04,.4-.11,.41-.11,.01,0,.04,0,.04,.04,0,0,0,1.17,0,1.3,0,.27,0,.38,.04,.5,.07,.18,.23,.27,.39,.27,.19,0,.48-.16,.56-.33,.06-.11,.06-.8,.06-.96,0-.45,0-.59-.17-.59-.02,0-.13,.01-.15,.01-.04,0-.05-.03-.05-.04,0-.05,.03-.06,.33-.13,.08-.02,.3-.08,.32-.08s.04,.02,.04,.04c0,.04,0,.77,0,.91,0,.12,0,.69,0,.82,0,.09,0,.29,.23,.29,.05,0,.12,0,.12,.08,0,.03-.02,.07-.08,.07h-.51Zm1.78-2.13s.05,.02,.09,.02c.06,0,.1-.03,.13-.06,.03-.03,.04-.05,.06-.05,.03,0,.04,.02,.05,.06,.04,.1,.24,.59,.24,.64,0,.02,0,.04-.04,.04-.05,0-.05-.02-.16-.18-.05-.09-.38-.45-.67-.45-.17,0-.39,.12-.39,.37,0,.18,.12,.29,.58,.45,.52,.18,.79,.35,.79,.71,0,.3-.21,.65-.69,.65-.12,0-.17-.01-.37-.07-.03,0-.06-.01-.09-.01-.06,0-.11,.02-.14,.03-.09,.04-.14,.06-.16,.06-.04,0-.05-.04-.08-.09-.04-.1-.22-.55-.22-.61,0-.03,0-.08,.05-.08,.05,0,.09,.05,.16,.18,.2,.34,.62,.48,.83,.48,.22,0,.39-.19,.39-.41,0-.21-.13-.31-.65-.49-.47-.17-.71-.32-.71-.67s.25-.6,.59-.6c.15,0,.22,.02,.39,.09Zm.91,2.13s-.1,0-.1-.07c0-.07,.05-.07,.14-.08,.06,0,.14-.03,.18-.13,.04-.08,.04-.73,.04-.9,0-.13,0-.65-.03-.71-.02-.05-.07-.08-.13-.08-.02,0-.14,.01-.14,.01-.02,0-.04,0-.04-.04s.02-.04,.23-.1c.06-.02,.34-.12,.37-.12,.04,0,.04,.04,.04,.09,0,.2,0,1.22,0,1.45,0,.33,0,.52,.21,.53,.09,0,.14,0,.14,.08,0,.07-.08,.07-.11,.07h-.8Zm.14-3.11c0-.14,.12-.26,.26-.26,.14,0,.26,.11,.26,.26s-.12,.26-.26,.26-.26-.12-.26-.26Zm2.25,3.11c-.08,0-.08-.06-.08-.07,0-.06,.06-.07,.08-.07,.12-.01,.16-.02,.22-.09,.04-.07,.04-.15,.04-.87,0-.43,0-.59-.09-.74-.1-.15-.24-.17-.3-.17-.14,0-.33,.08-.46,.2-.14,.14-.14,.21-.14,.73,0,.12,0,.67,.01,.75,.03,.14,.1,.19,.22,.2,.05,0,.12,0,.12,.07,0,0,0,.07-.09,.07h-.84c-.09,0-.09-.06-.09-.07,0-.08,.05-.08,.12-.08,.11,0,.18-.07,.2-.14,.04-.1,.04-.7,.04-.86,0-.73,0-.84-.2-.84-.02,0-.11,.02-.13,.02s-.04,0-.04-.04,.02-.04,.18-.08c.07-.02,.45-.13,.46-.13,.04,0,.04,.02,.04,.2,0,.06,0,.1,.03,.1s.16-.12,.18-.14c.18-.12,.34-.16,.51-.16,.32,0,.46,.18,.5,.3,.06,.18,.06,.25,.06,.95,0,.14,0,.6,.03,.68,0,.03,.05,.13,.2,.14,.07,0,.13,0,.13,.08,0,.07-.05,.07-.09,.07h-.84Zm1.67-1.18c-.06,0-.14,0-.14,.14,0,.55,.37,.93,.75,.93,.21,0,.41-.12,.55-.25,.03-.02,.13-.18,.17-.18,.02,0,.05,.02,.05,.06,0,.1-.32,.56-.91,.56-.63,0-.99-.5-.99-1.15,0-.75,.46-1.14,.96-1.14,.7,0,.9,.74,.9,.93,0,.08-.04,.1-.14,.1h-1.19Zm.83-.15c.1,0,.15-.02,.15-.13,0-.17-.16-.63-.54-.63-.42,0-.55,.56-.55,.66s.08,.1,.12,.1h.82Zm1.82-.8s.05,.02,.09,.02c.06,0,.1-.03,.13-.06,.03-.03,.04-.05,.06-.05,.03,0,.04,.02,.05,.06,.04,.1,.24,.59,.24,.64,0,.02,0,.04-.04,.04-.05,0-.05-.02-.16-.18-.05-.09-.38-.45-.67-.45-.17,0-.39,.12-.39,.37,0,.18,.12,.29,.58,.45,.52,.18,.79,.35,.79,.71,0,.3-.21,.65-.69,.65-.12,0-.17-.01-.37-.07-.03,0-.06-.01-.09-.01-.06,0-.11,.02-.14,.03-.09,.04-.14,.06-.16,.06-.04,0-.05-.04-.08-.09-.04-.1-.22-.55-.22-.61,0-.03,0-.08,.05-.08,.05,0,.09,.05,.16,.18,.2,.34,.62,.48,.83,.48,.22,0,.39-.19,.39-.41,0-.21-.13-.31-.65-.49-.47-.17-.71-.32-.71-.67s.25-.6,.59-.6c.15,0,.22,.02,.39,.09Zm1.92,0s.05,.02,.09,.02c.06,0,.1-.03,.13-.06,.03-.03,.05-.05,.06-.05,.03,0,.04,.02,.05,.06,.04,.1,.24,.59,.24,.64,0,.02,0,.04-.04,.04-.04,0-.05-.02-.16-.18-.05-.09-.38-.45-.67-.45-.17,0-.39,.12-.39,.37,0,.18,.12,.29,.58,.45,.52,.18,.79,.35,.79,.71,0,.3-.21,.65-.69,.65-.12,0-.17-.01-.37-.07-.03,0-.06-.01-.09-.01-.06,0-.11,.02-.14,.03-.09,.04-.14,.06-.16,.06-.04,0-.05-.04-.08-.09-.04-.1-.22-.55-.22-.61,0-.03,0-.08,.05-.08,.05,0,.09,.05,.16,.18,.2,.34,.62,.48,.83,.48,.22,0,.39-.19,.39-.41,0-.21-.13-.31-.65-.49-.47-.17-.71-.32-.71-.67s.25-.6,.6-.6c.15,0,.22,.02,.39,.09Zm2.47,1.96c-.03-.08-.23-.59-.23-.62,0-.07,.06-.09,.1-.09,.05,0,.06,.02,.17,.19,.2,.31,.6,.62,1.06,.62,.3,0,.67-.2,.67-.68,0-.41-.27-.55-.84-.75-.63-.22-1.04-.46-1.04-.99,0-.47,.32-.87,.9-.87,.09,0,.2,.01,.32,.04,.05,0,.24,.05,.27,.05,.04,0,.07,0,.1-.03,.06-.05,.07-.06,.1-.06,.05,0,.07,.04,.11,.16,.03,.07,.24,.6,.24,.63,0,.06-.05,.07-.08,.07-.04,0-.04-.01-.12-.13-.12-.19-.37-.58-.92-.58-.5,0-.61,.41-.61,.59,0,.37,.27,.51,.86,.72,.91,.32,1.03,.68,1.03,1.02,0,.61-.48,.97-.98,.97-.16,0-.32-.03-.49-.09-.12-.04-.15-.04-.18-.04-.07,0-.13,.02-.17,.06-.08,.07-.09,.08-.13,.08-.06,0-.07-.03-.15-.25Zm3.96,.17s-.09-.04-.09-.09c0-.1,0-.14-.04-.14-.03,0-.12,.09-.14,.1-.06,.04-.28,.21-.55,.21-.13,0-.61-.04-.64-.7,0-.09,0-.55,0-.66s0-.59-.02-.65c-.02-.05-.07-.06-.11-.06-.02,0-.11,0-.14,0-.03,0-.05-.02-.05-.04,0-.04,.02-.04,.18-.09,.14-.04,.4-.11,.41-.11,.01,0,.04,0,.04,.04,0,0,0,1.17,0,1.3,0,.27,0,.38,.04,.5,.07,.18,.23,.27,.39,.27,.19,0,.48-.16,.56-.33,.06-.11,.06-.8,.06-.96,0-.45,0-.59-.17-.59-.02,0-.13,.01-.15,.01-.05,0-.05-.03-.05-.04,0-.05,.03-.06,.33-.13,.08-.02,.3-.08,.32-.08s.04,.02,.04,.04c0,.04,0,.77,0,.91,0,.12,0,.69,0,.82,0,.09,0,.29,.23,.29,.05,0,.12,0,.12,.08,0,.03-.02,.07-.08,.07h-.51Zm.76,.74s-.12,0-.12-.07c0-.07,.09-.07,.16-.08,.11,0,.19-.05,.22-.19,.01-.09,.01-1.56,.01-1.83,0-.4,0-.52-.16-.52-.03,0-.16,.03-.19,.03-.02,0-.04-.02-.04-.04,0-.03,.02-.04,.1-.07,.05-.01,.56-.18,.57-.18,.03,0,.03,.04,.03,.13,0,.07,0,.1,.04,.1,0,0,.14-.08,.16-.09,.09-.05,.27-.14,.47-.14,.47,0,.9,.41,.9,1.11,0,.59-.34,1.19-.9,1.19-.2,0-.37-.06-.44-.09-.03-.01-.14-.07-.17-.07-.06,0-.06,.01-.06,.37,0,.08,0,.28,.23,.29,.13,0,.18,0,.18,.08s-.09,.07-.13,.07h-.87Zm.7-2.59c-.11,.11-.12,.18-.12,.84s.02,.68,.11,.77c.14,.13,.36,.14,.43,.14,.51,0,.65-.55,.65-.95,0-.53-.23-.96-.64-.96-.14,0-.32,.07-.43,.17Zm1.73,2.59s-.12,0-.12-.07c0-.07,.09-.07,.16-.08,.11,0,.19-.05,.22-.19,.01-.09,.01-1.56,.01-1.83,0-.4,0-.52-.16-.52-.03,0-.16,.03-.19,.03-.02,0-.04-.02-.04-.04,0-.03,.02-.04,.1-.07,.05-.01,.56-.18,.57-.18,.03,0,.03,.04,.03,.13,0,.07,0,.1,.04,.1,0,0,.14-.08,.16-.09,.09-.05,.27-.14,.47-.14,.47,0,.9,.41,.9,1.11,0,.59-.34,1.19-.9,1.19-.2,0-.37-.06-.44-.09-.03-.01-.14-.07-.17-.07-.06,0-.06,.01-.06,.37,0,.08,0,.28,.23,.29,.13,0,.18,0,.18,.08s-.09,.07-.13,.07h-.87Zm.7-2.59c-.11,.11-.12,.18-.12,.84s.02,.68,.11,.77c.14,.13,.36,.14,.43,.14,.5,0,.65-.55,.65-.95,0-.53-.23-.96-.64-.96-.14,0-.32,.07-.43,.17Zm2.67-.37c.58,0,1,.5,1,1.15s-.42,1.15-1,1.15-1-.5-1-1.15,.41-1.15,1-1.15Zm0,2.18c.38,0,.61-.49,.61-1.03s-.24-1.03-.61-1.03c-.34,0-.61,.42-.61,1.03,0,.53,.23,1.03,.61,1.03Zm1.29,.04s-.12,0-.12-.07,.05-.07,.17-.07c.05,0,.15,0,.21-.1,.04-.06,.05-.12,.05-.75,0-.14,0-.8-.03-.88-.01-.05-.07-.09-.14-.09-.03,0-.18,.04-.22,.04-.03,0-.05-.02-.05-.05,0-.04,.02-.04,.22-.1,.06-.02,.47-.15,.5-.15,.01,0,.02,0,.02,.01v.2c0,.24,0,.27,.05,.27,.02,0,.03,0,.09-.09,.04-.05,.31-.39,.64-.39,.17,0,.27,.1,.27,.26s-.12,.24-.23,.24c-.09,0-.14-.05-.18-.09-.03-.03-.07-.08-.13-.08-.11,0-.3,.14-.38,.29-.11,.19-.13,.3-.13,.96,0,.41,.01,.49,.33,.49,.04,0,.09,.01,.09,.07,0,.07-.08,.07-.12,.07h-.93Zm1.92-1.98s-.12,0-.12-.07c0-.06,.02-.06,.15-.08,.07,0,.45-.1,.45-.68,0-.04,0-.1,.06-.1,.07,0,.07,.07,.07,.09v.58s.01,.11,.11,.11h.48s.13,0,.13,.07c0,.03-.03,.07-.12,.07h-.48s-.08,0-.1,.06c-.02,.05-.02,.55-.02,.64,0,.14,0,.86,.01,.92,.06,.25,.27,.25,.31,.25,.09,0,.2-.04,.3-.11,.03-.02,.13-.12,.16-.12,.02,0,.03,.02,.03,.04,0,.08-.28,.39-.66,.39-.47,0-.47-.36-.47-.81,0-.01,0-.99,0-1.14,0-.02,0-.11-.11-.11h-.18Zm2.75,1.98c-.06,0-.13,0-.13-.07s.04-.07,.21-.07c.13,0,.35,0,.39-.23,.01-.08,.01-1.11,.01-1.24,0-.18,0-1.2-.01-1.28-.04-.23-.21-.23-.5-.23-.03,0-.1,0-.1-.07,0-.08,.07-.08,.13-.08h1.32c.05,0,.12,0,.12,.08,0,.07-.04,.07-.21,.07-.14,0-.33,0-.39,.21-.02,.06-.02,1.08-.02,1.28,0,1.19,0,1.2,.01,1.27,.04,.23,.2,.23,.51,.23,.02,0,.09,0,.09,.07s-.07,.07-.12,.07h-1.33Zm2.9,0c-.08,0-.08-.06-.08-.07,0-.06,.06-.07,.08-.07,.12-.01,.16-.02,.22-.09,.04-.07,.04-.15,.04-.87,0-.43,0-.59-.09-.74-.1-.15-.24-.17-.3-.17-.14,0-.33,.08-.46,.2-.14,.14-.14,.21-.14,.73,0,.12,0,.67,.01,.75,.03,.14,.1,.19,.22,.2,.04,0,.12,0,.12,.07,0,0,0,.07-.09,.07h-.84c-.09,0-.09-.06-.09-.07,0-.08,.05-.08,.12-.08,.11,0,.18-.07,.2-.14,.04-.1,.04-.7,.04-.86,0-.73,0-.84-.2-.84-.02,0-.11,.02-.13,.02s-.05,0-.05-.04,.02-.04,.18-.08c.07-.02,.45-.13,.46-.13,.05,0,.05,.02,.05,.2,0,.06,0,.1,.03,.1s.16-.12,.18-.14c.18-.12,.34-.16,.51-.16,.32,0,.46,.18,.5,.3,.06,.18,.06,.25,.06,.95,0,.14,0,.6,.03,.68,0,.03,.05,.13,.2,.14,.07,0,.13,0,.13,.08,0,.07-.05,.07-.09,.07h-.84Zm2.1,.09c-.42,0-.94-.27-.94-1.1,0-.69,.39-1.2,1.04-1.2,.36,0,.7,.18,.7,.43,0,.15-.12,.23-.24,.23-.18,0-.2-.16-.21-.27-.03-.27-.28-.27-.31-.27-.32,0-.6,.41-.6,1.01s.31,.98,.69,.98c.22,0,.46-.12,.6-.31,.04-.05,.06-.08,.09-.08,.02,0,.04,.01,.04,.05,0,.07-.31,.52-.87,.52Zm1.14-.3c0-.16,.13-.3,.29-.3s.3,.13,.3,.3-.14,.3-.3,.3-.29-.13-.29-.3Z"/>
    <path class="cls-1" d="M16.19,8.09c0-2.21-1.7-4.04-3.86-4.23-.19-2.16-2.02-3.87-4.23-3.87S4.06,1.7,3.87,3.87c-2.16,.19-3.87,2.02-3.87,4.23s1.7,4.04,3.87,4.23c.19,2.16,2.02,3.86,4.23,3.86s4.04-1.7,4.23-3.86c2.16-.19,3.86-2.02,3.86-4.23Zm-8.46-.53c-1.16-.39-2-1.5-2-2.77,0-1.61,1.31-2.92,2.92-2.92,1.27,0,2.38,.84,2.77,2-1.92,.24-3.45,1.77-3.69,3.69Zm-3.85-2.79c.24,1.92,1.77,3.45,3.69,3.69-.39,1.16-1.5,2-2.77,2-1.61,0-2.92-1.31-2.92-2.92,0-1.27,.84-2.38,2-2.77Zm4.58,3.85c1.16,.39,2,1.5,2,2.77,0,1.61-1.31,2.92-2.92,2.92-1.27,0-2.38-.84-2.77-2,1.92-.24,3.45-1.77,3.69-3.69Zm3.85,2.79c-.24-1.92-1.77-3.45-3.69-3.69,.39-1.16,1.5-2,2.77-2,1.61,0,2.92,1.31,2.92,2.92,0,1.27-.84,2.38-2,2.77Z"/>
  </g>
</svg>