<?xml version="1.0" encoding="UTF-8"?>
<svg id="_レイヤー_2" data-name="レイヤー 2" xmlns="http://www.w3.org/2000/svg" viewBox="0 0 110.02 16.96">
  <defs>
    <style>
      .cls-1 {
        fill: #6a6969;
      }

      .cls-2 {
        fill: #6f4aa5;
      }
    </style>
  </defs>
  <g id="_レイヤー_1-2" data-name="レイヤー 1">
    <path class="cls-2" d="M26.16,9.22c0,.22-.17,.4-.37,.4s-.25-.08-.54-.58c-.56-.98-1.26-1.58-1.42-1.58-.06,0-.08,.01-.25,.21l-.05,.05c-.31,.33-1.12,1.19-2.14,1.7-.2,.1-.44,.19-.52,.19-.09,0-.1-.07-.1-.09,0-.07,.39-.33,.39-.33,2.06-1.49,3.05-3.57,3.04-3.73,0-.01-.01-.03-.06-.03-.07,0-1.7,.38-1.79,.41-.02,0-.08,.03-.13,.06-.13,.06-.21,.1-.25,.1-.14,0-.53-.25-.58-.3-.07-.07-.21-.44-.21-.5,0-.07,.03-.1,.09-.1,.02,0,.22,.06,.22,.06,.25,.07,.34,.08,.42,.08,.29,0,1.81-.13,2.21-.3,.02,0,.08-.05,.14-.08,.16-.1,.27-.17,.32-.17,.21,0,.73,.43,.73,.66,0,.06-.08,.14-.26,.29-.04,.04-.09,.07-.1,.09-.13,.15-.56,.78-.79,1.12-.07,.1-.12,.17-.15,.21-.03,.03-.06,.08-.06,.14,0,.05,0,.06,.34,.24l.03,.02c.45,.26,1.81,1.04,1.81,1.79Zm2.32-3.06c-.23-.06-.24-.07-.24-.22,0-.21,.03-.92,.07-1.12,.09-.26,.1-.32,.1-.35,0-.29-.62-.56-.92-.56-.1,0-.26,.01-.27,.11,0,0,0,.02,0,.02l.02,.03s0,0,0,.01c.13,.12,.2,.2,.27,.36,.09,.25,.09,.55,.09,2.83,0,.98-.02,1.2-.07,1.89,0,.01,0,.07-.02,.11-.01,.06-.02,.11-.02,.12,0,.23,.22,.8,.49,.8s.28-.55,.28-.78c0-.12,0-.32-.02-.42-.03-.71-.04-1.15-.04-2.02,0-.56,.03-.56,.07-.56,.22,0,.59,.35,.83,.67h0c.54,.71,.57,.75,.79,.75,.12,0,.33-.07,.33-.32,0-.62-1.25-1.23-1.79-1.35Zm6.88-.37s-.09,.02-.21,.07c-.02,0-.03,.01-.04,.02-.02,0-.06,0-.2,.02-.14,.01-.34,.03-.35,.03-.05,0-.15,.02-.28,.03-.57,.07-1.76,.21-2.3,.21-.32,0-.63-.07-.79-.14,0,0-.02-.01-.04-.02-.06-.03-.09-.05-.11-.05-.05,0-.09,.04-.09,.08,0,.26,.6,.97,.97,.97,.04,0,.13-.04,.27-.09,.05-.02,.1-.04,.12-.05,.36-.11,2.4-.46,2.66-.46,.12,0,.13,.07,.13,.11,0,.02-.49,1.81-3.18,3.26-.01,0-.04,.02-.06,.03-.19,.09-.23,.11-.24,.12-.02,.02-.03,.05-.03,.08,0,.05,.04,.1,.11,.1,.08,0,.73-.17,1.46-.53,1.11-.57,1.63-1.16,2.31-2.18,.22-.34,.3-.46,.43-.57,.19-.16,.23-.2,.23-.34,0-.21-.61-.71-.75-.71Zm-2.9-.67c.06,0,1.8-.15,1.94-.17,.48-.04,.79-.07,.79-.36,0-.26-.37-.35-.54-.35-.08,0-.34,.06-.62,.12-.08,.02-.15,.03-.18,.04-.4,.08-.98,.09-1.29,.09-.11,0-.3,0-.42-.03,0,0,0,0,0,0-.02,0-.07-.02-.11-.04-.09-.03-.15-.05-.19-.05-.03,0-.09,0-.09,.1s.27,.65,.71,.65Zm10.24,1.46s-.05,0-.08,0c-.04,0-.07,0-.1,0-1.18,.06-4.02,.17-4.29,.17-.46,0-.83-.03-.98-.07-.01,0-.06-.02-.1-.04-.09-.04-.15-.06-.18-.06-.06,0-.1,.06-.1,.14,0,.29,.38,.82,.76,.82,.06,0,.22-.04,.42-.09,.09-.02,.18-.05,.22-.05,.2-.04,2.04-.15,3.17-.15,.08,0,.31,0,.55,0,.26,0,.52,0,.62,0,.35,0,.71-.02,.71-.29,0-.1-.11-.4-.61-.4Zm6.58-3.18c-.14,0-.34,.04-.34,.15,0,.02,.02,.07,.13,.12,.27,.1,.58,.32,.69,.45,.15,.18,.26,.31,.45,.31,.17,0,.24-.16,.24-.28,0-.36-.45-.75-1.18-.75Zm-.65,1.6c.33,.35,.37,.4,.37,.49,0,.16-.09,.2-.23,.26-.12,.05-.14,.08-.39,.48h0c-.04,.07-.12,.2-.22,.34-.18,.26-.53,.74-.53,.82,0,.06,0,.07,.15,.25l.02,.02c.18,.24,.33,.43,.33,.72,0,.34-.24,.43-.39,.43-.19,0-.23-.07-.54-.58h0c-.04-.08-.11-.18-.15-.18-.05,0-.09,.04-.22,.18l-.03,.04c-1.37,1.47-2.93,1.97-3.03,1.97-.04,0-.08-.01-.1-.04-.01-.02-.02-.04-.02-.08,.01-.04,.03-.05,.11-.1,.02-.01,.05-.03,.09-.05h0c1.64-.93,2.76-2.25,2.76-2.48,0-.09-.19-.29-.49-.5-.3-.21-.56-.33-.64-.33-.07,0-.35,.25-.58,.45-.42,.37-.71,.61-.86,.61-.06,0-.08-.04-.08-.08,0-.06,.3-.37,.3-.38,1-1.09,1.62-2.21,1.62-2.63,0-.03-.04-.12-.07-.19-.04-.1-.06-.16-.06-.19,0-.09,.13-.09,.19-.09,.45,0,.77,.34,.77,.52,0,.03-.02,.08-.05,.17-.02,.05-.04,.13-.04,.15,0,.09,.15,.1,.24,.1,.17,0,.96-.07,1.13-.21,.14-.11,.18-.13,.25-.13,.17,0,.32,.16,.39,.25Zm-.78,.43c-.06,0-.26,.02-.45,.05-.22,.03-.46,.06-.54,.06-.12,0-.18-.02-.25-.03-.1-.03-.12-.03-.19-.03-.02,0-.05,0-.07,.02-.07,.08-.66,.79-.68,.88,0,.08,.04,.1,.23,.17h.03c.25,.11,.32,.14,.88,.42h.02c.07,.04,.14,.07,.16,.06,.14-.03,.96-1.24,.96-1.52,0-.07-.07-.07-.1-.07Zm.79-1.35c-.06,0-.19,.02-.19,.1,0,.06,.12,.16,.12,.16,.32,.29,.38,.35,.5,.54,.2,.31,.29,.42,.44,.42,.18,0,.29-.22,.29-.34,0-.48-.72-.88-1.17-.88Zm4.38,.74c.13-.22,.19-.32,.22-.32,.23-.03,.31-.04,.31-.16,0-.11-.23-.32-.7-.63,0,0,0,0-.01,0,0,0-.01,0-.02,0-.02-.01-.05-.02-.07-.02-.09,0-.13,.06-.17,.26-.06,.24-.58,1.72-1.7,2.94-.02,.02-.07,.08-.14,.14-.25,.25-.25,.26-.25,.29,0,.04,.03,.09,.1,.09,.09,0,.32-.13,.54-.3,.85-.63,1.49-1.6,1.9-2.27Zm1.94,3.08s-.08,.04-.08,.08c0,.05,.06,.14,.29,.47,.16,.22,.42,.59,.42,.67-.02,.02-.17,.03-.4,.05h-.08s-.11,.02-.24,.03c-.52,.04-1.75,.14-1.96,.14-.03,0-.09,0-.09-.04,.01-.05,.2-.42,.33-.69,.1-.2,.19-.39,.22-.46,.53-1.14,.55-1.14,.67-1.17,.13-.03,.24-.06,.24-.19,0-.21-.78-.52-.86-.52-.09,0-.14,.06-.14,.19,0,.18-.05,.38-.09,.54t-.03,.11c-.5,1.76-.69,2.14-.76,2.2-.11,.11-.96,.11-1.28,.11-.1,0-.15,.04-.15,.11,0,.06,.23,.59,.23,.6,.07,.17,.11,.26,.22,.26,.04,0,.08-.03,.2-.13,.03-.03,.06-.05,.06-.05,.11-.04,1.61-.32,2.12-.41,.13-.02,.47-.1,.82-.17,.45-.1,1.01-.22,1.06-.22,.03,0,.06,.01,.1,.09,.03,.07,.16,.41,.21,.54l.02,.04c.09,.27,.14,.45,.35,.45,.01,0,.02,0,.04,0,.21-.03,.39-.28,.39-.55,0-.68-1.52-2.08-1.82-2.08Zm2.4-1.07c-1.54-.83-2.19-2.15-2.19-2.54,0-.05,.02-.07,.12-.07,.22,0,.34,0,.34-.15s-.5-.59-.62-.59c-.07,0-.11,.04-.34,.3-.11,.12-.12,.14-.25,.14-.05,0-.21-.02-.34-.04-.14-.02-.22-.03-.25-.03-.04,0-.07,.03-.07,.07,0,.03,.02,.07,.03,.09l.13,.18s.01,.01,.01,.02c0,.01,.02,.02,.03,.04,.01,.01,.02,.02,.04,.02,.02,0,.06,0,.11-.01,.03,0,.06,0,.07,0,.14-.02,.19-.02,.52-.02,.1,0,.1,0,.13,.24,.16,1.24,1.55,2.98,1.85,2.98,.05,0,.09-.05,.16-.14,.02-.03,.05-.06,.06-.07,.14-.09,.31-.11,.48-.11,.06,0,.19,0,.19-.11,0-.07-.05-.1-.22-.19Zm3.21,1.6h-.01q-.07,.05-.07,.22c0,.21,0,.65,0,.84,0,.03,0,.12,.01,.21,0,.11,.02,.22,.02,.26,0,.24-.17,.4-.43,.4-.18,0-.19-.1-.19-.29,0-.1-.01-.16-.18-.16h-.45c-.13,0-.18,0-.18,.18,0,.09,0,.38-.39,.38-.27,0-.27-.16-.27-.23,0,0,0-.05,0-.13,.01-.24,.05-.79,.05-.92,0-.24-.02-.62-.05-.87,0-.04-.02-.22-.02-.27,0-.1,.05-.15,.14-.15,.01,0,.02,0,.19,.06,.05,.01,.08,.03,.09,.03,.14,.05,.21,.07,.35,.07h.56c.09,0,.14,0,.16-.03,0,0,.02-.02,.03-.04,.1-.13,.15-.18,.2-.16,.23,.08,.6,.24,.6,.38,0,.1-.1,.17-.15,.2Zm-.67,0s-.12-.06-.16-.06h-.5c-.15,0-.19,.04-.19,.2,0,.3,.01,.91,.04,.97,.02,.06,.1,.06,.17,.06h.48q.18,0,.18-.47c0-.47-.01-.67-.02-.7Zm1.25-.26c-.05,.01-.07,.07-.07,.25s-.05,.38-.13,.56c-.01,.02-.04,.08-.07,.14-.13,.25-.23,.46-.23,.55,0,.15,.11,.26,.29,.26,.45,0,.48-.79,.48-.95,0-.4-.11-.72-.19-.79-.03-.02-.05-.02-.07-.02Zm-1.81-2.97h1.11c.38,0,.46,0,.46-.14,0-.1-.42-.42-.55-.42-.08,0-.14,.07-.2,.14-.08,.11-.09,.11-.45,.11h-.34c-.31,0-.59-.01-.91-.03h-.15s-.09-.01-.15-.02c-.08,0-.16-.01-.18-.01-.07,0-.08,.05-.08,.07,0,.03,0,.05,.04,.09l.15,.18h.01s.05,.06,.11,.06c.02,0,.06,0,.11-.01,.05,0,.1-.01,.12-.01,.31-.01,.68-.01,.9-.01Zm-.75,1.06s.04,.05,.09,.05c.02,0,.06,0,.1,0,.04,0,.08,0,.09,0,.2-.02,.33-.02,.5-.02h.84c.17,0,.31,0,.31-.15,0-.12-.34-.37-.44-.37-.09,0-.14,.07-.18,.13-.07,.08-.08,.08-.24,.08h-.31c-.16,0-.27,0-.62-.02-.03,0-.18-.03-.22-.03-.06,0-.09,.04-.09,.09,0,.04,.02,.06,.03,.07l.12,.18s.01,.01,.01,.01Zm.04,.95s.07,.07,.11,.07c.03,0,.17-.02,.19-.02,.18,0,.35,0,.5,0h.85c.15,0,.31,0,.31-.15,0-.13-.43-.43-.51-.43-.05,0-.09,.04-.23,.2l-.02,.02s-.04,.04-.2,.04h-.22c-.15,0-.24,0-.63-.02-.01,0-.06,0-.1-.01-.05,0-.09-.01-.11-.01-.09,0-.09,.06-.09,.08,0,.03,.01,.05,.03,.07l.13,.17Zm4.05,.15s-.1,.02-.12,.06c0,.01,0,.04,0,.06,.01,.03,.06,.07,.09,.09,.08,.07,.22,.26,.28,.44,.12,.36,.15,.44,.3,.44,.18,0,.28-.24,.28-.4,0-.37-.55-.68-.83-.68Zm-4.16-3.24s.01,.01,.01,.02c.02,.02,.04,.05,.09,.05,.02,0,.07,0,.11-.01,.03,0,.06,0,.07,0,.2,0,.35,0,.5,0h.88c.17,0,.31,0,.31-.13,0-.1-.37-.45-.51-.45-.08,0-.13,.06-.26,.24,0,.01-.02,.02-.22,.02h-.22c-.14,0-.23,0-.63-.02-.01,0-.05,0-.09-.01-.05,0-.1-.01-.12-.01-.06,0-.09,.04-.09,.08,0,.03,.01,.06,.03,.07l.13,.18Zm2.44,.08s.06,.06,.11,.06c0,0,.04,0,.09,0,.06,0,.13,0,.15,0,.3-.02,.67-.02,1-.02,.05,0,.11,.01,.11,.11,0,.05-.04,.32-.07,.48-.03,.19-.07,.2-.13,.2-.02,0-.14-.02-.24-.04-.23-.05-.41-.08-.48-.08-.09,0-.14,.03-.14,.08,0,.08,.6,.44,.6,.44,.1,.06,.14,.12,.14,.19,0,.14-.19,.45-.24,.52-.31,.49-.64,.76-1,1.06h0s-.06,.07-.05,.11c0,.02,.03,.05,.07,.05,.05,0,.22-.05,.38-.13,.44-.2,.82-.54,1.11-.98,.09-.14,.14-.21,.16-.22,.01,0,.04,.02,.05,.03l.02,.02c.14,.19,.2,.29,.37,.29,.12,0,.29-.15,.29-.39,0-.22-.18-.43-.29-.54h-.01c-.07-.09-.11-.12-.11-.19,0-.03,0-.05,.01-.08l.05-.19c.05-.18,.07-.25,.09-.4v-.03q.07-.33,.23-.33h.74c.11,0,.19,.01,.19,.18,0,.62-.03,1.08-.08,1.47-.11,.73-.21,.8-.42,.8-.07,0-.16-.02-.34-.07-.13-.04-.29-.1-.32-.1-.04,0-.07,.03-.07,.07,0,.04,.02,.09,.07,.14,.08,.1,.21,.27,.32,.52,.07,.15,.11,.17,.24,.17,1,0,1.08-1.01,1.15-1.91,0-.06,.01-.19,.02-.35,.01-.27,.04-.73,.05-.78,0-.01,.05-.05,.08-.08,.12-.11,.17-.17,.17-.23,0-.16-.54-.39-.64-.39s-.12,.04-.19,.15c-.06,.08-.1,.08-.22,.08h-1.73c-.39,0-.7,0-1.05-.03-.02,0-.09,0-.15-.01-.08,0-.16-.01-.18-.01-.05,0-.08,.04-.08,.07s.01,.06,.04,.09l.15,.18Zm3.06,5.26c-.05-.07-.07-.08-.09-.11-.01-.02-.03-.1-.06-.17-.09-.28-.11-.35-.18-.35-.03,0-.08,0-.12,.28-.09,.47-.12,.61-.74,.61-.56,0-.58-.07-.58-.67,0-.19,.02-.82,.05-.9,0,0,.03-.04,.04-.06,.06-.08,.09-.12,.09-.16,0-.17-.56-.27-.62-.27-.03,0-.11,0-.14,.06-.01,.02-.02,.04-.02,.07s.01,.06,.05,.14c.01,.04,.03,.07,.03,.08,0,.09,0,.44,0,.69,0,.13,0,.24,0,.29,0,.87,.05,.98,.18,1.07,.23,.16,.73,.22,1.08,.22,1.16,0,1.17-.56,1.17-.59,0-.03,0-.1-.04-.14l-.09-.11Zm-.04-1.39s-.04,0-.06,.02h0s0,.13,.02,.18c.11,.16,.23,.38,.38,.85,.15,.48,.19,.61,.44,.61,.21,0,.35-.18,.35-.45,0-.73-1.02-1.18-1.13-1.21Zm7.09,1.12l-.05-.03c-.74-.4-.9-.46-.95-.46-.07,0-.11,.04-.11,.1s.06,.14,.22,.31c.08,.09,.23,.25,.23,.29-.03,.03-.24,.05-.57,.08-.86,.09-1.58,.13-1.67,.13-.04,0-.08-.01-.08-.02,0-.04,.05-.1,.08-.13v-.02c.06-.05,.38-.43,.54-.64l.03-.04c.16-.21,.17-.22,.21-.24,.24-.06,.27-.07,.27-.18,0-.08-.15-.23-.29-.36h2.34c.37,0,.45,0,.45-.16,0-.1-.02-.12-.41-.44-.18-.15-.21-.17-.3-.17-.1,0-.14,.06-.25,.21v.02c-.18,.23-.24,.23-.56,.23h-2.53c-.28,0-.71-.02-1.05-.03-.02,0-.09,0-.15-.01-.08,0-.16-.01-.18-.01-.08,0-.09,.05-.09,.07,0,.02,.01,.04,.03,.06,0,0,.01,.02,.02,.03l.15,.18h.01s.05,.06,.1,.06c.01,0,.05,0,.09,0,.03,0,.06,0,.08,0,.21-.02,.41-.02,.96-.02h.48c.16,0,.17,.01,.17,.08,0,.07-.2,.6-.39,.99-.3,.6-.33,.6-.75,.6-.13,0-.35-.02-.44-.03h-.06c-.13-.03-.25-.05-.29-.05-.11,0-.12,.08-.12,.11,0,.05,.07,.22,.43,.83,.02,.06,.08,.09,.13,.09,.04,0,.08-.03,.17-.09,.03-.02,.06-.04,.07-.04,.27-.12,3.21-.7,3.54-.7,.08,0,.13,0,.27,.26,.14,.25,.31,.57,.57,.57,.17,0,.35-.19,.35-.47,0-.51-.49-.8-.71-.93Zm1.51-2.75c-1.83-.52-3.14-2.22-3.14-2.4,0-.01,0-.01,.03-.03h.01c.07-.06,.1-.08,.1-.15,0-.19-.77-.52-.78-.52-.13,0-.15,.07-.19,.26v.05c-.04,.12-.49,1.03-1.83,2.17-.49,.42-1.11,.85-1.18,.91-.1,.07-.13,.09-.13,.15,0,.03,.01,.05,.03,.07,.04,.03,.09,.01,.1,0,.37-.07,2.09-.84,3.4-2.48,.08-.11,.14-.17,.17-.2,.02,.03,.05,.09,.08,.15,.88,1.61,2.52,2.74,2.72,2.74,.08,0,.12-.05,.15-.1,.05-.08,.17-.2,.46-.29,.2-.07,.25-.08,.25-.17,0-.08-.02-.09-.26-.15Zm-5.28,.35s.05,0,.09,0c.03,0,.06,0,.08,0,.28-.02,.5-.02,.97-.02h1.77c.38,0,.46,0,.46-.14,0-.11-.53-.63-.64-.63-.06,0-.11,.06-.26,.24l-.03,.04c-.14,.17-.15,.18-.5,.18h-.76c-.25,0-.63,0-1.05-.03-.02,0-.09,0-.15-.01-.08,0-.16-.01-.18-.01-.05,0-.08,.04-.08,.07s.01,.06,.04,.09l.15,.18s.06,.06,.11,.06Zm6.41-2.84l.11,.17s.06,.07,.11,.07c0,0,.04,0,.07,0,.03,0,.07,0,.09,0,.16-.02,.26-.02,.42-.02h1.52c.12,0,.27,0,.27-.15,0-.07-.08-.14-.2-.26l-.12-.11c-.24-.21-.26-.23-.33-.23s-.15,.09-.3,.27c-.05,.06-.12,.14-.14,.16-.04,.02-.08,.02-.17,.02h-.55c-.14,0-.36,0-.53-.03-.04,0-.15-.02-.19-.02-.08,0-.09,.05-.09,.07,0,.03,.02,.06,.02,.07,0,0,0,.01,0,.01Zm2.02,2.52c-.1,0-.13,.05-.27,.27l-.02,.03c-.08,.13-.13,.13-.28,.13h-.84c-.11,0-.21,0-.53-.02-.04-.01-.15-.03-.19-.03-.05,0-.09,.04-.09,.09,0,.03,.01,.04,.02,.05,0,0,0,0,.02,.03l.12,.16s.05,.08,.1,.08c.01,0,.04,0,.08-.01,.03,0,.07-.01,.08-.01,.14,0,.29-.02,.42-.02h1.78c.13,0,.27,0,.27-.13,0-.11-.52-.61-.69-.61Zm3.82-.84c-.08,0-.16,.11-.29,.3-.04,.06-.08,.12-.1,.13-.05,.04-.09,.06-.16,.06-.25,0-.29-.01-.29-.14,0-1.07,.01-1.81,.03-1.87,0-.02,.07-.07,.1-.1,.12-.1,.16-.15,.16-.2,0-.2-.85-.32-.89-.32-.09,0-.09,.08-.09,.12,0,.03,.02,.34,.03,.39,.02,.43,.02,1.02,.02,1.31,0,.5,0,.7,0,.72-.01,.07-.06,.1-.16,.1h-.74c-.19,0-.35-.01-.52-.03h-.02s-.04,0-.07-.01c-.04,0-.09-.01-.11-.01-.06,0-.08,.04-.08,.07,0,.03,.01,.06,.02,.08,0,0,0,.01,0,.02l.1,.15s.04,.08,.1,.08c.01,0,.05,0,.09-.01,.03,0,.06,0,.07-.01,.13-.02,.23-.02,.34-.02h.81c.15,0,.16,.08,.16,.18,0,.28-.01,1.07-.02,1.83-.01,.74-.02,1.43-.02,1.68,0,.13,0,.44,.27,.44,.12,0,.43-.12,.43-.5,0-.2,0-.77,0-1.32,0-.52,0-1.03,0-1.21,0-.74,0-.92,0-.98v-.02c.01-.07,.06-.1,.16-.1h1.19c.11,0,.27,0,.27-.15,0-.17-.71-.65-.79-.65Zm-5.56-.4h2.53c.12,0,.27,0,.27-.16,0-.17-.63-.61-.75-.61-.12,0-.15,.05-.33,.31-.1,.14-.16,.14-.29,.14h-1.46c-.14,0-.19,0-.54-.02-.01,0-.04,0-.07,0-.04,0-.09-.01-.11-.01-.05,0-.09,.03-.09,.08,0,.04,.03,.08,.03,.08l.11,.16s0,.01,0,.01c.03,.03,.05,.06,.09,.06,.03,0,.14-.02,.16-.02,.16,0,.29,0,.42,0Zm2.4,2.99c0,.07-.05,.11-.14,.2l-.02,.02c-.09,.08-.09,.17-.09,.5,0,.07,0,.29,.02,.53,.01,.28,.02,.57,.02,.67,0,.28-.4,.37-.45,.37-.19,0-.19-.11-.19-.41,0-.24,0-.26-.15-.26h-.76c-.11,0-.16,.04-.16,.12,0,.01,0,.05,.01,.08,0,.04,.01,.08,.01,.1,0,.31-.34,.44-.51,.44s-.18-.13-.19-.2c0-.09,0-.32,0-.56,0-.25,0-.51,0-.6,0-.24,0-.46-.03-.98,0-.03,0-.13-.01-.21,0-.08-.01-.15-.01-.17,0-.04,0-.12,.09-.12,.05,0,.15,.05,.38,.15,.06,.03,.11,.05,.13,.06,.07,.02,.16,.05,.24,.05h.76c.09,0,.16-.03,.19-.06,.09-.11,.12-.16,.22-.16,.06,0,.65,.28,.65,.46Zm-.85,.7c0-.14,0-.28,0-.33,0-.29,0-.31-.15-.31h-.79c-.16,0-.17,0-.17,.34,0,.22,.02,.77,.03,.82,0,0,0,.01,0,.02,0,.02,.08,.05,.15,.05h.78c.17,0,.17-.06,.17-.22,0-.06,0-.22,0-.37Zm-1.8-2.62s.07,0,.12-.01c.05,0,.11-.01,.13-.01,.12,0,.18,0,.33,0h1.73c.12,0,.27,0,.27-.15,0-.13-.34-.55-.51-.55-.09,0-.16,.06-.3,.27-.08,.11-.1,.11-.26,.11h-.98c-.2,0-.37,0-.54-.02-.03-.01-.16-.03-.19-.03-.06,0-.08,.04-.08,.07,0,.03,.02,.08,.04,.09l.13,.16s.04,.07,.1,.07Zm13.58-.56c-.1,0-.14,.05-.35,.3-.1,.11-.1,.11-.45,.11h-1.5c-.18,0-.18-.04-.18-.28,0-1.09,.02-1.53,.04-1.59,0-.02,.06-.07,.1-.1,.1-.1,.17-.16,.17-.22,0-.11-.14-.15-.36-.22-.12-.04-.67-.17-.7-.17-.07,0-.12,.04-.12,.1,0,.03,.02,.14,.05,.3,.02,.12,.05,.26,.06,.31,.04,.6,.06,1.17,.06,1.7,0,.15-.08,.16-.17,.16h-1.54c-.34,0-.64,0-1.04-.02-.05,0-.29-.03-.35-.03-.05,0-.09,.03-.09,.08,0,.03,.02,.05,.05,.08l.15,.18s.05,.07,.11,.07c.03,0,.14-.02,.16-.02,.02,0,.05,0,.09,0,.12,0,.37-.01,.88-.01h1.58c.16,0,.17,.04,.17,.33,0,1.38-.02,2.53-.02,2.85h0c-.01,.17-.09,.17-.18,.17h-1.07c-.31,0-.59-.01-.91-.03h-.15s-.09-.01-.15-.02c-.08,0-.16-.01-.18-.01-.07,0-.08,.05-.08,.07,0,.04,0,.05,.04,.09l.14,.17s.05,.07,.11,.07c.01,0,.05,0,.09,0,.03,0,.06,0,.08,0,.11-.01,.36-.02,.96-.02h4.33c.28,0,.47,0,.47-.16s-.73-.56-.78-.56c-.09,0-.12,.04-.33,.27l-.02,.03c-.09,.11-.1,.11-.45,.11h-1.03c-.17,0-.18-.07-.18-.15v-3c0-.18,.07-.19,.19-.19h2.6c.28,0,.47,0,.47-.16,0-.15-.72-.56-.78-.56Zm7.98,2.28c0,.15-.17,.15-.39,.15h-.58c-.09,0-.11,.04-.11,.18,0,.07,0,.26,.01,.44,0,.15,0,.28,0,.32,0,.33-.23,.45-.45,.45-.23,0-.25-.13-.28-.37-.01-.13-.05-.14-.12-.14h-1.19c-.12,0-.13,.04-.13,.2,0,.04,0,.16,0,.28,0,.11,0,.22,0,.26,0,.17,0,.53-.4,.66-.11,.04-.32,.09-.4,.09-.09,0-.11-.05-.14-.13,0,0,0-.01,0-.01-.05-.12-.17-.28-.6-.42-.19-.05-.28-.12-.28-.2,0-.04,.02-.09,.16-.09,.05,0,.19,.02,.34,.03,.13,.01,.26,.03,.31,.03q.37,0,.37-.57c0-.07,0-.13-.12-.13h-.82c-.54,0-.89,.02-.96,.02-.02,0-.06,0-.1,0-.04,0-.07,0-.08,0-.06,0-.09-.04-.11-.07l-.15-.17s-.04-.06-.04-.09,.03-.07,.08-.07c.03,0,.1,0,.18,.01,.07,0,.14,.01,.17,.01h.17c.31,.02,.58,.03,.88,.03h.78c.12,0,.13,0,.13-.38,0-.14-.01-.18-.11-.18h-1.7c-.55,0-.86,0-.96,.02-.02,0-.04,0-.07,.01-.04,0-.07,.01-.09,.01-.06,0-.1-.05-.12-.08l-.14-.17s-.05-.05-.05-.08c0-.04,.04-.08,.09-.08,.03,0,.11,0,.19,.02,.07,0,.13,.01,.15,.01,.39,.02,.71,.02,1.05,.02h1.67c.1,0,.11-.02,.11-.26,0-.2-.01-.24-.11-.24h-1.06c-.68,0-.9,0-.96,.02-.02,0-.06,0-.09,.01-.04,0-.07,.01-.08,.01-.06,0-.09-.03-.11-.07l-.17-.2s-.03-.04-.03-.06c0-.04,.02-.08,.09-.08,.03,0,.1,0,.18,.02,.07,0,.14,.02,.16,.02,.38,.02,.69,.02,1.05,.02h1.02c.1,0,.11,0,.11-.36,0-.11,0-.15-.11-.15h-1.01q-.1,0-.13,.1c-.05,.19-.24,.28-.41,.28-.26,0-.26-.19-.26-.26,0-.06,0-.21,.01-.36,0-.14,.01-.28,.01-.33,0-.19,0-.55-.01-.67,0,0-.04-.16-.04-.21,0-.11,.08-.12,.11-.12,.08,0,.24,.09,.51,.25,.05,.03,.09,.05,.11,.06,.05,.03,.15,.04,.28,.04h.83q.11,0,.11-.39c0-.12-.01-.16-.1-.16h-1.54c-.53,0-.78,.01-.92,.02h-.04s-.05,0-.09,.01c-.03,0-.07,0-.08,0-.06,0-.09-.04-.11-.07l-.15-.17s-.02-.03-.02-.04c0-.01-.02-.03-.02-.05,0-.03,.01-.07,.09-.07,.03,0,.1,0,.17,.01,.07,0,.14,.01,.16,.01h.15c.32,.02,.59,.03,.91,.03h1.5c.09,0,.11-.05,.11-.17,0-.06-.02-.23-.04-.38-.02-.15-.03-.27-.03-.32,0-.14,.1-.16,.12-.16,.06,0,.78,.17,.78,.39,0,.04-.04,.1-.12,.21-.02,.03-.06,.08-.06,.09-.01,.03-.02,.15-.02,.2,0,.09,.03,.12,.11,.12h1.36c.34,0,.35,0,.45-.11l.02-.02c.2-.24,.24-.28,.33-.28,.06,0,.78,.42,.78,.56,0,.16-.19,.16-.47,.16h-2.47q-.13,0-.14,.41c0,.1,.02,.14,.11,.14h.96c.1,0,.13,0,.2-.09l.02-.02c.12-.12,.17-.18,.26-.18,.07,0,.54,.29,.54,.44,0,.07-.04,.11-.13,.2l-.02,.02s-.05,.05-.05,.1v.73c0,.16-.15,.33-.39,.33s-.26-.08-.31-.26c0-.02-.02-.07-.09-.07h-.98c-.1,0-.11,.03-.11,.27,0,.22,.01,.24,.11,.24h1.14c.14,0,.2-.01,.28-.09,.1-.1,.16-.16,.27-.16,.09,0,.55,.3,.55,.44,0,.06-.02,.09-.16,.24-.03,.03-.03,.05-.03,.31,0,.06,0,.06,.03,.06,.03,0,.09-.04,.13-.08l.05-.06c.12-.16,.15-.2,.23-.2,.1,0,.65,.34,.65,.53Zm-3.24-2.17c0,.35,.01,.36,.12,.36h.98c.12,0,.13,0,.13-.35,0-.18-.01-.23-.11-.23h-1c-.11,0-.12,.05-.12,.22Zm1.51,1.69c0-.14,0-.19-.11-.19h-1.28c-.1,0-.11,.05-.11,.19,0,.3,.01,.31,.11,.31h1.27c.09,0,.13-.01,.13-.31Zm-1.5,.78q0,.4,.13,.4h1.21c.12,0,.15,0,.15-.37,0-.15,0-.2-.11-.2h-1.26c-.1,0-.11,.05-.11,.16Zm-.74-2.69h-1.01c-.12,0-.13,0-.13,.29s0,.29,.14,.29h1.01c.1,0,.11-.03,.11-.3,0-.25-.01-.28-.11-.28Zm6.96,1.37c.33-.36,.45-.37,.56-.37,.2,0,.39-.02,.39-.25,0-.14-.07-.18-.24-.29l-.05-.03s-.06-.04-.11-.07c-.29-.17-.34-.2-.38-.2-.06,0-.08,.03-.17,.15l-.04,.05q-.08,.11-.16,.11h-.47c.08-.06,.14-.15,.14-.31,0-.21-.07-.31-.16-.44-.01-.02-.02-.03-.02-.05,0-.03,.04-.07,.13-.14,.88-.72,.9-.72,1-.74h.06c.23-.06,.29-.07,.29-.18,0-.19-.62-.6-.71-.6s-.13,.07-.19,.19v.02c-.06,.09-.06,.1-.38,.1h-.67c-.45,0-.85-.02-1.05-.03-.03,0-.1,0-.18-.01-.07,0-.14-.01-.16-.01-.06,0-.08,.04-.08,.07,0,.04,.03,.08,.04,.09l.15,.18,.02,.02s.05,.05,.09,.05c0,0,.05,0,.1,0,.05,0,.11-.01,.13-.01,.3-.01,.68-.02,.9-.02h.74c.09,0,.14,0,.14,.02-.01,.07-.32,.52-.44,.68-.1,.14-.13,.17-.18,.17-.02,0-.13-.05-.22-.09-.28-.12-.5-.21-.58-.21-.11,0-.12,.07-.12,.09,0,.03,.01,.05,.12,.15,.03,.03,.06,.06,.07,.08,.35,.43,.38,.47,.49,.74,.02,.05,.07,.16,.15,.22h-.37c-.27,0-.62-.01-.82-.02-.09,0-.16,0-.18,0-.05,0-.29-.03-.35-.03-.04,0-.08,.03-.08,.08,0,.02,.01,.04,.03,.06,0,0,0,.01,.02,.02l.15,.18,.02,.02s.05,.05,.09,.05c.01,0,.07,0,.14-.01,.07,0,.17-.02,.19-.02,.3,0,.55,0,.93,0,.03,0,.08,.02,.08,.05,0,.08-.38,.98-1.01,1.83-.04,.05-.13,.16-.23,.29q-.41,.52-.41,.55c0,.07,.07,.12,.12,.12,.07,0,.6-.39,1.03-.89,.26-.3,.45-.55,.51-.64l.02-.02s.02-.02,.03-.03c0,.03,0,.08,0,.11,0,.48,0,1.14,0,1.6,0,.45,0,.47-.45,.47-.03,0-.1,0-.18-.01-.07,0-.14-.01-.17-.01-.12,0-.15,.05-.15,.09,0,.07,.08,.09,.19,.13h.03c.32,.13,.35,.21,.38,.27,.05,.1,.07,.16,.18,.16,.48,0,.72-.3,.72-.89,0-.08,0-.47,0-.93,0-.65,0-1.43,0-1.65q0-.6,.18-.6h.14c.08,0,.16,0,.17,0,0,0,0,0,0,.02,0,.05-.07,.22-.11,.34-.06,.16-.09,.23-.09,.27,0,.06,.04,.09,.09,.09,.08,0,.19-.14,.19-.14Zm4.35-.24s0,.05-.37,.24l-.03,.02c-.09,.06-.1,.11-.14,.21-.02,.03-.05,.09-.11,.09-.13,0-1.07-.58-1.4-.88-.04-.04-.08-.08-.12-.08-.03,0-.04,0-.14,.08l-.04,.03c-.84,.65-1.77,.79-1.78,.79-.05,0-.1-.03-.1-.08s.02-.07,.55-.33c.15-.07,.28-.14,.33-.17,.34-.2,.84-.57,.84-.69,0-.04-.11-.19-.15-.24l-.03-.04c-.05-.08-.12-.18-.18-.28-.07-.11-.14-.23-.2-.31-.03-.04-.04-.05-.06-.05-.04,.01-.19,.16-.31,.28-.26,.26-.44,.43-.56,.43-.04,0-.09-.04-.09-.09,0-.05,.05-.12,.18-.26,.03-.03,.05-.06,.06-.07,.43-.56,.84-1.44,.84-1.69,0,0,0-.03,0-.05,0-.07,0-.1,0-.13,0-.05,.05-.09,.11-.09,.07,0,.63,.23,.66,.24,.08,.04,.15,.07,.15,.16,0,.09-.03,.11-.18,.2-.13,.09-.44,.48-.45,.55,0,.01,.03,.02,.09,.02h1.11c.35,0,.35,0,.41-.1,.16-.26,.18-.3,.28-.3,.14,0,.66,.42,.66,.57s-.15,.15-.37,.15h-.32s-.05,0-.07,0c0,0,0,0,0,0,.06,.05,.11,.09,.11,.17,0,.05-.03,.13-.15,.17-.18,.07-.21,.1-.51,.44-.04,.04-.22,.24-.25,.28,0,0-.01,.02-.02,.02,0,0-.01,.03-.02,.03,.03,.11,.81,.5,1.52,.65l.11,.02c.11,.02,.15,.03,.15,.09Zm-1.84-1.87h-.91c-.14,0-.14,0-.14,.03,.01,.1,.52,.76,.66,.76,.09-.01,.5-.54,.5-.72,0-.05-.02-.07-.11-.07Zm.87,0s0,0,0,0,0,0,0,0c0,0,0,0,0,0Zm-.02,2.66c-.08,0-.11,.04-.21,.19-.04,.06-.06,.07-.42,.07h-.26c-.12,0-.12-.02-.12-.06,0-.03,.06-.31,.1-.39,0-.01,.03-.05,.05-.07,.07-.09,.1-.13,.1-.17,0-.19-.77-.34-.78-.34-.06,0-.13,.04-.13,.12,0,.03,.05,.18,.07,.21,.03,.06,.03,.11,.03,.15,0,.08-.02,.2-.03,.3l-.02,.1c-.02,.13-.03,.14-.13,.14-.24,0-.9-.02-.95-.03-.02,0-.08,0-.13-.01-.06,0-.12-.01-.14-.01-.04,0-.08,.03-.08,.08,0,.03,.01,.05,.04,.08l.15,.18,.02,.02s.05,.05,.09,.05c0,0,.04,0,.09,0,.05,0,.12-.01,.14-.01,.23-.01,.47-.01,.7-.01,.08,0,.08,.01,.08,.04,0,.11-.37,1.15-1.16,1.74-.06,.04-.14,.1-.23,.15-.08,.05-.17,.11-.23,.15-.06,.03-.07,.08-.07,.11,0,.03,.01,.08,.1,.08,.27,0,1.35-.45,1.88-1.49,.02-.03,.05-.1,.08-.18,.08-.17,.23-.53,.29-.58,.03-.03,.08-.03,.14-.03h.53c.08,0,.15,.01,.15,.14,0,.2-.05,.8-.15,1.19-.09,.38-.24,.38-.35,.38-.04,0-.2-.01-.4-.06h-.03c-.1-.05-.13-.06-.15-.06-.1,0-.1,.07-.1,.09,0,.03,0,.04,.2,.3,.05,.07,.1,.13,.11,.15v.02c.06,.09,.08,.14,.09,.16,.07,.11,.17,.11,.22,.11,.11,0,.66-.03,.9-.66,.15-.37,.22-1.11,.25-1.36,.02-.2,.05-.24,.11-.31,.09-.09,.12-.12,.12-.21,0-.15-.46-.45-.55-.45Zm1.64-3.33s.06,.07,.12,.07c.02,0,.09,0,.16-.01,.07,0,.13-.01,.16-.01,.19,0,.44-.02,.67-.02h1.34c.28,0,.45,0,.45-.12,0-.09-.69-.59-.76-.59-.07,0-.14,.09-.29,.3-.03,.04-.05,.07-.05,.07-.02,.02-.09,.03-.36,.03h-.3c-.25,0-.63-.02-.89-.03-.03,0-.1,0-.17-.01-.07,0-.15-.01-.18-.01-.08,0-.09,.06-.09,.07,0,.02,.01,.04,.03,.06l.17,.19Zm5.86,1.35c-.1,0-.12,.04-.35,.42-.07,.1-.12,.11-.44,.11h-1.08c-.08,0-.09-.02-.09-.16,0-.06,0-.23,0-.4,0-.18,0-.35,0-.42,0-.43,.01-.5,.01-.5,0-.01,0-.01,.06-.03,.17-.04,.68-.17,1.13-.3,.37-.1,.72-.19,.78-.2,.24-.05,.3-.06,.3-.15,0-.08-.05-.1-.26-.2l-.14-.07c-.47-.24-.48-.24-.5-.24-.03,0-.04,0-.4,.3-.06,.05-.11,.09-.12,.1-.43,.33-.85,.55-.95,.55-.03,0-.16-.04-.25-.07-.18-.06-.29-.09-.34-.09-.08,0-.08,.08-.08,.11,0,.07,.03,.37,.04,.4v.08c.03,.28,.08,1.14,.08,1.66,0,1.75-.26,2.63-1.04,3.5,0,0-.13,.13-.13,.2,0,.04,.04,.08,.09,.08,.09,0,.37-.2,.66-.49,.64-.67,.96-1.31,1.06-3.16,0-.18,.02-.18,.12-.18h.59c.05,0,.12,0,.15,.06,.02,.06,.03,.65,.03,1.47,0,.54,0,1.15-.02,1.68,0,.11-.04,.61-.04,.69,0,.14,.04,.24,.23,.24,.14,0,.52-.09,.52-.48,0-.19,0-.75-.01-1.32,0-.6-.01-1.21-.01-1.43,0-.73,.02-.83,.03-.84,.03-.06,.09-.07,.15-.07h.61c.28,0,.47,0,.47-.16,0-.13-.72-.67-.83-.67Zm-3.79,2.44c-.24,0-.26-.13-.26-.29,0-.12,0-.19-.16-.19h-.74c-.11,0-.11,0-.16,.31-.17,1.09-.5,1.92-.94,2.4-.15,.16-.21,.22-.28,.22-.06,0-.09-.04-.09-.08,0-.03,.02-.07,.15-.34,.03-.05,.05-.1,.06-.12,.18-.45,.56-1.38,.56-3.39,0-.73-.04-1.02-.08-1.31,0-.02-.04-.2-.04-.25,0-.09,.06-.09,.08-.09,.03,0,.06,0,.41,.21l.07,.04c.17,.09,.21,.11,.35,.11h.64c.07,0,.1,0,.16-.07,.16-.23,.19-.27,.33-.27,.16,0,.62,.36,.62,.53,0,.08-.02,.11-.14,.26-.02,.02-.02,.03-.02,.23,0,.13,0,.47,0,.8,0,.31,0,.61,0,.72,0,.43-.27,.58-.52,.58Zm-.2-2.38c-.01-.07-.11-.09-.16-.09h-.68c-.16,0-.17,.03-.17,.27,0,.11,0,.41-.02,.7,0,.24-.01,.46-.01,.52,0,.09,.01,.18,.16,.18h.72c.18,0,.18-.03,.18-.33,0-.72,0-1.19-.02-1.25Z"/>
    <path class="cls-1" d="M21,16.71c-.03-.08-.23-.59-.23-.62,0-.07,.06-.09,.1-.09,.05,0,.06,.02,.17,.19,.2,.31,.6,.62,1.06,.62,.3,0,.67-.2,.67-.68,0-.41-.27-.55-.84-.75-.63-.22-1.04-.46-1.04-.99,0-.47,.32-.87,.9-.87,.09,0,.2,.01,.32,.04,.05,0,.24,.05,.27,.05,.04,0,.07,0,.1-.03,.06-.05,.07-.06,.1-.06,.05,0,.07,.04,.11,.16,.03,.07,.24,.6,.24,.63,0,.06-.05,.07-.08,.07-.04,0-.04-.01-.12-.13-.12-.19-.37-.58-.92-.58-.51,0-.61,.41-.61,.59,0,.37,.27,.51,.86,.72,.91,.32,1.03,.68,1.03,1.02,0,.61-.48,.97-.98,.97-.16,0-.32-.03-.49-.09-.12-.04-.15-.04-.18-.04-.07,0-.13,.02-.17,.06-.08,.07-.09,.08-.13,.08-.06,0-.07-.03-.15-.25Zm2.34-1.82s-.12,0-.12-.07c0-.06,.02-.06,.15-.08,.07,0,.45-.1,.45-.68,0-.04,0-.1,.06-.1,.07,0,.07,.07,.07,.09v.58s.01,.11,.11,.11h.48s.13,0,.13,.07c0,.03-.03,.07-.12,.07h-.48s-.08,0-.1,.06c-.02,.05-.02,.55-.02,.64,0,.14,0,.86,.01,.92,.06,.25,.27,.25,.31,.25,.09,0,.2-.04,.3-.11,.03-.02,.13-.12,.16-.12,.02,0,.03,.02,.03,.04,0,.08-.28,.39-.66,.39-.47,0-.47-.36-.47-.81,0-.01,0-.99,0-1.14,0-.02,0-.11-.11-.11h-.18Zm1.7,1.98s-.12,0-.12-.07,.04-.07,.17-.07c.05,0,.15,0,.21-.1,.04-.06,.05-.12,.05-.75,0-.14,0-.8-.03-.88-.01-.05-.07-.09-.14-.09-.03,0-.18,.04-.22,.04-.03,0-.04-.02-.04-.05,0-.04,.02-.04,.22-.1,.06-.02,.47-.15,.5-.15,.01,0,.02,0,.02,.01v.2c0,.24,0,.27,.05,.27,.02,0,.03,0,.09-.09,.04-.05,.31-.39,.64-.39,.17,0,.27,.1,.27,.26s-.12,.24-.23,.24c-.09,0-.14-.05-.18-.09-.03-.03-.07-.08-.13-.08-.11,0-.3,.14-.38,.29-.11,.19-.13,.3-.13,.96,0,.41,.01,.49,.33,.49,.04,0,.09,.01,.09,.07,0,.07-.08,.07-.12,.07h-.93Zm3.54-1.6c0,.15,0,.89,0,1.05,0,.21,0,.4,.18,.4,.05,0,.12-.03,.14-.05,0,0,.03-.03,.04-.03,0,0,.02,0,.02,.03,0,.08-.18,.28-.38,.28-.14,0-.26-.11-.3-.2,0-.03-.02-.07-.06-.07-.03,0-.07,.03-.11,.06-.18,.14-.4,.21-.59,.21-.27,0-.57-.14-.57-.48,0-.54,.76-.77,1.02-.84,.27-.08,.3-.09,.3-.32,0-.39-.22-.53-.42-.53-.3,0-.35,.21-.36,.28-.03,.14-.06,.3-.24,.3-.12,0-.21-.09-.21-.22,0-.27,.44-.47,.82-.47,.36,0,.73,.16,.74,.61Zm-.35,1.21c.02-.05,.03-.07,.03-.6,0-.09,0-.17-.09-.17-.16,0-.84,.3-.84,.73,0,.12,.08,.33,.39,.33,.15,0,.45-.14,.51-.28Zm2.49,.39s-.08-.01-.09-.06c0-.06-.01-.09-.04-.09s-.13,.1-.15,.11c-.17,.11-.34,.12-.44,.12-.65,0-.88-.61-.88-1.15,0-.86,.56-1.14,.94-1.14,.05,0,.13,0,.24,.04,.04,.01,.23,.13,.28,.13,.05,0,.06-.07,.06-.11,0-.05,0-.34,0-.4,0-.2,0-.53-.28-.53-.02,0-.12,.01-.13,.01-.02,0-.04-.01-.04-.04,0-.04,.02-.05,.21-.1,.06-.02,.5-.16,.53-.16,0,0,.02,0,.04,.02,.01,.02,.01,.3,.01,.35,0,.33,0,1.97,0,2.34,0,.24,0,.51,.26,.52,.08,0,.16,0,.16,.08,0,.01-.01,.06-.07,.06h-.57Zm-.11-.5c.02-.1,.02-.57,.02-.86,0-.25,0-.36-.1-.49-.07-.09-.18-.18-.36-.18-.35,0-.67,.37-.67,1,0,.47,.19,.92,.6,.92,.15,0,.46-.08,.51-.39Zm2.61-1.1c0,.15,0,.89,0,1.05,0,.21,0,.4,.18,.4,.04,0,.12-.03,.14-.05,0,0,.03-.03,.04-.03,0,0,.02,0,.02,.03,0,.08-.18,.28-.38,.28-.14,0-.26-.11-.3-.2,0-.03-.02-.07-.06-.07-.03,0-.07,.03-.11,.06-.18,.14-.4,.21-.59,.21-.27,0-.57-.14-.57-.48,0-.54,.76-.77,1.02-.84,.27-.08,.3-.09,.3-.32,0-.39-.22-.53-.42-.53-.3,0-.35,.21-.36,.28-.03,.14-.06,.3-.24,.3-.12,0-.21-.09-.21-.22,0-.27,.44-.47,.82-.47,.36,0,.73,.16,.74,.61Zm-.35,1.21c.02-.05,.03-.07,.03-.6,0-.09,0-.17-.09-.17-.16,0-.84,.3-.84,.73,0,.12,.08,.33,.39,.33,.15,0,.45-.14,.51-.28Zm4.44-2.93s.29,.71,.29,.76-.04,.08-.09,.08-.05-.01-.14-.14c-.38-.54-.78-.6-.97-.6-.71,0-1.07,.87-1.07,1.65,0,1.05,.61,1.46,1.15,1.46,.32,0,.68-.14,.97-.64,.1-.18,.1-.18,.14-.18s.07,.03,.07,.07-.11,.28-.26,.46c-.38,.47-.86,.5-1.06,.5-.95,0-1.42-.77-1.42-1.65,0-1.05,.65-1.8,1.42-1.8,.11,0,.24,.02,.38,.05,.03,.01,.24,.07,.27,.07,.04,0,.09-.01,.12-.04,.07-.07,.08-.08,.12-.08,.03,0,.06,.03,.08,.05Zm1.25,2.14c-.06,0-.14,0-.14,.14,0,.55,.37,.93,.75,.93,.21,0,.41-.12,.55-.25,.03-.02,.13-.18,.17-.18,.02,0,.04,.02,.04,.06,0,.1-.32,.56-.91,.56-.63,0-.99-.5-.99-1.15,0-.75,.46-1.14,.96-1.14,.7,0,.9,.74,.9,.93,0,.08-.04,.1-.14,.1h-1.19Zm.83-.15c.1,0,.15-.02,.15-.13,0-.17-.16-.63-.54-.63-.42,0-.55,.56-.55,.66s.08,.1,.12,.1h.82Zm.85,1.33s-.12,0-.12-.07,.04-.07,.17-.07c.05,0,.15,0,.21-.1,.04-.06,.05-.12,.05-.75,0-.14,0-.8-.03-.88-.01-.05-.07-.09-.14-.09-.03,0-.18,.04-.22,.04-.03,0-.04-.02-.04-.05,0-.04,.02-.04,.22-.1,.06-.02,.47-.15,.5-.15,.01,0,.02,0,.02,.01v.2c0,.24,0,.27,.04,.27,.02,0,.03,0,.09-.09,.04-.05,.31-.39,.64-.39,.17,0,.27,.1,.27,.26s-.12,.24-.23,.24c-.09,0-.14-.05-.18-.09-.03-.03-.07-.08-.13-.08-.11,0-.3,.14-.38,.29-.11,.19-.13,.3-.13,.96,0,.41,.01,.49,.33,.49,.04,0,.09,.01,.09,.07,0,.07-.08,.07-.12,.07h-.93Zm2.01-1.98s-.12,0-.12-.07c0-.06,.02-.06,.15-.08,.07,0,.45-.1,.45-.68,0-.04,0-.1,.06-.1,.07,0,.07,.07,.07,.09v.58s.01,.11,.11,.11h.48s.13,0,.13,.07c0,.03-.03,.07-.12,.07h-.48s-.08,0-.1,.06c-.02,.05-.02,.55-.02,.64,0,.14,0,.86,.01,.92,.06,.25,.27,.25,.31,.25,.09,0,.2-.04,.3-.11,.03-.02,.13-.12,.16-.12,.02,0,.03,.02,.03,.04,0,.08-.28,.39-.66,.39-.47,0-.47-.36-.47-.81,0-.01,0-.99,0-1.14,0-.02,0-.11-.11-.11h-.18Zm1.67,1.98s-.1,0-.1-.07c0-.07,.05-.07,.14-.08,.06,0,.14-.03,.18-.13,.04-.08,.04-.73,.04-.9,0-.13,0-.65-.03-.71-.02-.05-.07-.08-.13-.08-.02,0-.14,.01-.14,.01-.02,0-.04,0-.04-.04s.02-.04,.23-.1c.06-.02,.34-.12,.37-.12,.04,0,.04,.04,.04,.09,0,.2,0,1.22,0,1.45,0,.33,0,.52,.21,.53,.09,0,.14,0,.14,.08,0,.07-.08,.07-.11,.07h-.8Zm.14-3.11c0-.14,.12-.26,.26-.26,.14,0,.26,.11,.26,.26s-.12,.26-.26,.26-.26-.12-.26-.26Zm2.18,.98s.1,0,.1,.07-.07,.07-.1,.07h-.34s-.08,0-.11,.06c-.01,.04-.01,.52-.01,.61,0,.1,0,.87,.01,.94,.05,.23,.25,.23,.32,.23,.14,0,.18,0,.18,.07s-.07,.07-.11,.07h-1.04s-.1,0-.1-.07,.07-.07,.1-.07c.14,0,.32-.05,.32-.31,0-.19,0-1.4,0-1.41,0-.05-.02-.12-.11-.12h-.25s-.11,0-.11-.07,.07-.07,.11-.07h.25c.12,0,.12-.09,.12-.15,0-.18,0-.36,.08-.56,.15-.36,.47-.53,.72-.53,.15,0,.28,.08,.28,.23,0,.11-.08,.22-.21,.22s-.18-.08-.21-.12c-.07-.09-.07-.1-.11-.1-.06,0-.12,.05-.15,.1-.08,.13-.08,.19-.08,.78,0,.03,0,.14,.12,.14h.34Zm.39,2.13s-.1,0-.1-.07c0-.07,.05-.07,.14-.08,.06,0,.14-.03,.18-.13,.04-.08,.04-.73,.04-.9,0-.13,0-.65-.03-.71-.02-.05-.07-.08-.13-.08-.02,0-.14,.01-.14,.01-.02,0-.04,0-.04-.04s.02-.04,.23-.1c.06-.02,.34-.12,.37-.12,.04,0,.04,.04,.04,.09,0,.2,0,1.22,0,1.45,0,.33,0,.52,.21,.53,.09,0,.14,0,.14,.08,0,.07-.08,.07-.11,.07h-.8Zm.14-3.11c0-.14,.12-.26,.26-.26,.14,0,.26,.11,.26,.26s-.12,.26-.26,.26-.26-.12-.26-.26Zm1.45,1.93c-.06,0-.14,0-.14,.14,0,.55,.37,.93,.75,.93,.21,0,.41-.12,.55-.25,.03-.02,.13-.18,.17-.18,.02,0,.05,.02,.05,.06,0,.1-.32,.56-.91,.56-.63,0-.99-.5-.99-1.15,0-.75,.46-1.14,.96-1.14,.7,0,.9,.74,.9,.93,0,.08-.04,.1-.14,.1h-1.19Zm.83-.15c.1,0,.15-.02,.15-.13,0-.17-.16-.63-.54-.63-.42,0-.55,.56-.55,.66s.08,.1,.12,.1h.82Zm2.45,1.33s-.08-.01-.09-.06c0-.06-.01-.09-.04-.09s-.13,.1-.15,.11c-.17,.11-.34,.12-.44,.12-.65,0-.88-.61-.88-1.15,0-.86,.56-1.14,.94-1.14,.05,0,.13,0,.24,.04,.04,.01,.23,.13,.27,.13,.05,0,.06-.07,.06-.11,0-.05,0-.34,0-.4,0-.2,0-.53-.28-.53-.02,0-.12,.01-.13,.01-.02,0-.05-.01-.05-.04,0-.04,.02-.05,.21-.1,.06-.02,.5-.16,.53-.16,0,0,.02,0,.04,.02,.01,.02,.01,.3,.01,.35,0,.33,0,1.97,0,2.34,0,.24,0,.51,.26,.52,.08,0,.16,0,.16,.08,0,.01-.01,.06-.07,.06h-.57Zm-.11-.5c.02-.1,.02-.57,.02-.86,0-.25,0-.36-.1-.49-.07-.09-.18-.18-.36-.18-.35,0-.67,.37-.67,1,0,.47,.19,.92,.6,.92,.15,0,.46-.08,.51-.39Zm3.44-2.79c.17,0,1.28,0,1.28,.85,0,.47-.36,.88-1.17,.88h-.43c-.12,0-.12,.04-.12,.38,0,.82,0,.83,.05,.91,.07,.1,.18,.13,.3,.13,.1,0,.15,0,.15,.07s-.06,.07-.13,.07h-1.11c-.07,0-.13,0-.13-.07s.07-.07,.11-.07c.15,0,.35,0,.39-.23,.01-.07,.01-.08,.01-1.28,0-.21,0-1.18-.01-1.25-.04-.22-.23-.23-.34-.23s-.16,0-.16-.07c0-.08,.06-.08,.13-.08h1.17Zm.03,1.58c.59,0,.83-.33,.83-.71,0-.5-.37-.72-.78-.72h-.19c-.32,0-.32,.2-.32,.59,0,.06,0,.7,0,.74,0,.07,.06,.1,.12,.1h.34Zm3.31,1.7s-.09-.04-.09-.09c0-.1,0-.14-.04-.14-.03,0-.12,.09-.14,.1-.06,.04-.28,.21-.55,.21-.13,0-.61-.04-.64-.7,0-.09,0-.55,0-.66s0-.59-.02-.65c-.02-.05-.07-.06-.11-.06-.02,0-.11,0-.14,0-.03,0-.04-.02-.04-.04,0-.04,.02-.04,.18-.09,.14-.04,.4-.11,.41-.11,.01,0,.04,0,.04,.04,0,0,0,1.17,0,1.3,0,.27,0,.38,.04,.5,.07,.18,.23,.27,.39,.27,.19,0,.48-.16,.56-.33,.06-.11,.06-.8,.06-.96,0-.45,0-.59-.17-.59-.02,0-.13,.01-.15,.01-.05,0-.05-.03-.05-.04,0-.05,.03-.06,.33-.13,.08-.02,.3-.08,.32-.08s.04,.02,.04,.04c0,.04,0,.77,0,.91,0,.12,0,.69,0,.82,0,.09,0,.29,.23,.29,.05,0,.12,0,.12,.08,0,.03-.02,.07-.08,.07h-.51Zm1.14-.02c-.08,.1-.09,.1-.11,.1-.03,0-.03-.05-.03-.07,0-.08,0-.44,0-.52,0-.26,0-2.38,0-2.43-.03-.16-.15-.19-.23-.19-.01,0-.09,0-.1,0-.04,0-.05-.02-.05-.04,0-.03,.02-.04,.18-.09,.16-.05,.46-.13,.49-.13,.02,0,.03,.01,.04,.02,0,.01,0,.04,0,.77v.48s.01,.08,.06,.08c.03,0,.18-.08,.19-.08,.18-.09,.33-.11,.42-.11,.43,0,.87,.41,.87,1.11,0,.64-.38,1.19-.88,1.19-.21,0-.41-.1-.53-.18-.04-.03-.08-.06-.14-.06s-.09,.04-.18,.14Zm.33-1.84c-.14,.14-.14,.25-.14,.89,0,.26,0,.46,.08,.61,.1,.19,.32,.25,.45,.25,.39,0,.62-.42,.62-.95s-.23-.96-.62-.96c-.14,0-.29,.06-.39,.16Zm1.63,1.86s-.11,0-.11-.07c0-.08,.07-.08,.13-.08,.06,0,.17-.02,.21-.17,.03-.09,.03-1.69,.03-1.94,0-.13,0-.7-.03-.79,0-.03-.04-.08-.13-.08-.02,0-.12,.01-.15,.01s-.04-.02-.04-.04c0-.04,.15-.09,.22-.11,.03,0,.41-.13,.41-.13,.03,0,.03,.01,.03,.1,0,.36,0,2.09,0,2.48,0,.48,0,.63,.23,.64,.1,0,.14,0,.14,.08,0,.07-.06,.07-.11,.07h-.84Zm1.24,0s-.1,0-.1-.07c0-.07,.05-.07,.14-.08,.06,0,.14-.03,.18-.13,.04-.08,.04-.73,.04-.9,0-.13,0-.65-.03-.71-.02-.05-.07-.08-.13-.08-.02,0-.14,.01-.14,.01-.02,0-.04,0-.04-.04s.02-.04,.23-.1c.06-.02,.34-.12,.37-.12,.04,0,.04,.04,.04,.09,0,.2,0,1.22,0,1.45,0,.33,0,.52,.21,.53,.09,0,.14,0,.14,.08,0,.07-.08,.07-.11,.07h-.8Zm.14-3.11c0-.14,.12-.26,.26-.26,.14,0,.26,.11,.26,.26s-.12,.26-.26,.26-.26-.12-.26-.26Zm1.88,3.2c-.42,0-.94-.27-.94-1.1,0-.69,.39-1.2,1.04-1.2,.36,0,.7,.18,.7,.43,0,.15-.12,.23-.24,.23-.18,0-.2-.16-.21-.27-.03-.27-.28-.27-.31-.27-.32,0-.6,.41-.6,1.01s.31,.98,.69,.98c.22,0,.46-.12,.6-.31,.04-.05,.06-.08,.09-.08,.02,0,.05,.01,.05,.05,0,.07-.31,.52-.87,.52Zm4.58-.09s-.11-.01-.11-.07c0-.07,.07-.07,.18-.07,.09,0,.18-.08,.18-.2,0-.1-.12-.41-.17-.53-.1-.25-.11-.28-.26-.28h-.98c-.17,0-.18,.04-.26,.25-.04,.12-.16,.48-.16,.59,0,.18,.14,.18,.25,.18,.05,0,.1,0,.1,.07,0,.07-.07,.07-.1,.07h-.87s-.09,0-.09-.07c0-.08,.05-.08,.15-.08,.12,0,.23-.03,.34-.18,.1-.14,.44-1.2,.54-1.52,.06-.18,.35-1.06,.41-1.27,.04-.16,.07-.26,.39-.26,.05,0,.08,.03,.1,.07,.04,.07,.12,.3,.15,.41,.32,.98,.34,1.09,.63,1.92,.26,.77,.29,.83,.55,.83,.06,0,.1,.03,.1,.08,0,.07-.07,.07-.1,.07h-.97Zm-.21-1.3s.11-.02,.11-.07c0-.09-.43-1.35-.51-1.59-.03-.08-.04-.12-.07-.12-.03,0-.03,.01-.08,.16-.13,.37-.48,1.51-.48,1.55,0,.07,.07,.07,.13,.07h.9Zm2.47,1.39c-.42,0-.94-.27-.94-1.1,0-.69,.39-1.2,1.04-1.2,.36,0,.7,.18,.7,.43,0,.15-.12,.23-.24,.23-.18,0-.2-.16-.21-.27-.03-.27-.28-.27-.31-.27-.32,0-.6,.41-.6,1.01s.31,.98,.69,.98c.22,0,.46-.12,.6-.31,.04-.05,.06-.08,.09-.08,.02,0,.05,.01,.05,.05,0,.07-.31,.52-.87,.52Zm2.13,0c-.42,0-.94-.27-.94-1.1,0-.69,.39-1.2,1.04-1.2,.36,0,.7,.18,.7,.43,0,.15-.12,.23-.24,.23-.18,0-.2-.16-.21-.27-.03-.27-.28-.27-.31-.27-.32,0-.6,.41-.6,1.01s.31,.98,.69,.98c.22,0,.46-.12,.6-.31,.04-.05,.06-.08,.09-.08,.02,0,.05,.01,.05,.05,0,.07-.31,.52-.87,.52Zm2.13-2.3c.58,0,1,.5,1,1.15s-.42,1.15-1,1.15-1-.5-1-1.15,.41-1.15,1-1.15Zm0,2.18c.38,0,.61-.49,.61-1.03s-.24-1.03-.61-1.03c-.34,0-.61,.42-.61,1.03,0,.53,.23,1.03,.61,1.03Zm2.9,.04s-.09-.04-.09-.09c0-.1,0-.14-.04-.14-.03,0-.12,.09-.14,.1-.06,.04-.28,.21-.55,.21-.13,0-.61-.04-.64-.7,0-.09,0-.55,0-.66s0-.59-.02-.65c-.02-.05-.07-.06-.11-.06-.02,0-.11,0-.14,0-.03,0-.05-.02-.05-.04,0-.04,.02-.04,.18-.09,.14-.04,.4-.11,.41-.11,.01,0,.04,0,.04,.04,0,0,0,1.17,0,1.3,0,.27,0,.38,.05,.5,.07,.18,.23,.27,.39,.27,.19,0,.48-.16,.56-.33,.06-.11,.06-.8,.06-.96,0-.45,0-.59-.17-.59-.02,0-.13,.01-.15,.01-.04,0-.05-.03-.05-.04,0-.05,.03-.06,.33-.13,.08-.02,.3-.08,.32-.08s.04,.02,.04,.04c0,.04,0,.77,0,.91,0,.12,0,.69,0,.82,0,.09,0,.29,.23,.29,.05,0,.12,0,.12,.08,0,.03-.02,.07-.08,.07h-.51Zm2.2,0c-.08,0-.08-.06-.08-.07,0-.06,.06-.07,.08-.07,.12-.01,.16-.02,.22-.09,.04-.07,.04-.15,.04-.87,0-.43,0-.59-.09-.74-.1-.15-.24-.17-.3-.17-.14,0-.33,.08-.46,.2-.14,.14-.14,.21-.14,.73,0,.12,0,.67,.01,.75,.03,.14,.1,.19,.22,.2,.05,0,.12,0,.12,.07,0,0,0,.07-.09,.07h-.84c-.09,0-.09-.06-.09-.07,0-.08,.05-.08,.12-.08,.11,0,.18-.07,.2-.14,.04-.1,.04-.7,.04-.86,0-.73,0-.84-.2-.84-.02,0-.11,.02-.13,.02s-.05,0-.05-.04,.02-.04,.18-.08c.07-.02,.45-.13,.46-.13,.05,0,.05,.02,.05,.2,0,.06,0,.1,.03,.1s.16-.12,.18-.14c.18-.12,.34-.16,.5-.16,.32,0,.46,.18,.5,.3,.06,.18,.06,.25,.06,.95,0,.14,0,.6,.03,.68,0,.03,.05,.13,.2,.14,.07,0,.13,0,.13,.08,0,.07-.05,.07-.09,.07h-.84Zm1.07-1.98s-.12,0-.12-.07c0-.06,.02-.06,.15-.08,.07,0,.45-.1,.45-.68,0-.04,0-.1,.06-.1,.07,0,.07,.07,.07,.09v.58s.01,.11,.11,.11h.48s.13,0,.13,.07c0,.03-.03,.07-.12,.07h-.48s-.08,0-.1,.06c-.02,.05-.02,.55-.02,.64,0,.14,0,.86,.01,.92,.06,.25,.27,.25,.31,.25,.09,0,.2-.04,.3-.11,.03-.02,.13-.12,.16-.12,.02,0,.03,.02,.03,.04,0,.08-.28,.39-.66,.39-.47,0-.47-.36-.47-.81,0-.01,0-.99,0-1.14,0-.02,0-.11-.11-.11h-.18Zm3.29,.38c0,.15,0,.89,0,1.05,0,.21,0,.4,.18,.4,.04,0,.12-.03,.14-.05,0,0,.03-.03,.04-.03,0,0,.02,0,.02,.03,0,.08-.18,.28-.38,.28-.14,0-.26-.11-.3-.2,0-.03-.02-.07-.06-.07-.03,0-.07,.03-.11,.06-.18,.14-.4,.21-.59,.21-.27,0-.57-.14-.57-.48,0-.54,.76-.77,1.02-.84,.27-.08,.3-.09,.3-.32,0-.39-.22-.53-.42-.53-.3,0-.35,.21-.36,.28-.03,.14-.06,.3-.24,.3-.12,0-.21-.09-.21-.22,0-.27,.44-.47,.82-.47,.36,0,.73,.16,.74,.61Zm-.35,1.21c.02-.05,.03-.07,.03-.6,0-.09,0-.17-.09-.17-.16,0-.84,.3-.84,.73,0,.12,.08,.33,.39,.33,.15,0,.45-.14,.51-.28Zm2.33,.39c-.08,0-.08-.06-.08-.07,0-.06,.06-.07,.08-.07,.12-.01,.16-.02,.22-.09,.05-.07,.05-.15,.05-.87,0-.43,0-.59-.09-.74-.1-.15-.24-.17-.3-.17-.14,0-.33,.08-.46,.2-.14,.14-.14,.21-.14,.73,0,.12,0,.67,.01,.75,.03,.14,.1,.19,.22,.2,.04,0,.12,0,.12,.07,0,0,0,.07-.09,.07h-.84c-.09,0-.09-.06-.09-.07,0-.08,.05-.08,.12-.08,.11,0,.18-.07,.2-.14,.04-.1,.04-.7,.04-.86,0-.73,0-.84-.2-.84-.02,0-.11,.02-.13,.02s-.04,0-.04-.04,.02-.04,.18-.08c.07-.02,.45-.13,.46-.13,.04,0,.04,.02,.04,.2,0,.06,0,.1,.03,.1s.16-.12,.18-.14c.18-.12,.34-.16,.51-.16,.32,0,.46,.18,.5,.3,.06,.18,.06,.25,.06,.95,0,.14,0,.6,.03,.68,0,.03,.05,.13,.2,.14,.07,0,.13,0,.13,.08,0,.07-.05,.07-.09,.07h-.84Zm1.07-1.98s-.12,0-.12-.07c0-.06,.02-.06,.15-.08,.07,0,.45-.1,.45-.68,0-.04,0-.1,.06-.1,.07,0,.07,.07,.07,.09v.58s.01,.11,.11,.11h.48s.13,0,.13,.07c0,.03-.03,.07-.12,.07h-.48s-.08,0-.1,.06c-.02,.05-.02,.55-.02,.64,0,.14,0,.86,.01,.92,.06,.25,.27,.25,.31,.25,.09,0,.2-.04,.3-.11,.03-.02,.13-.12,.16-.12,.02,0,.03,.02,.03,.04,0,.08-.28,.39-.66,.39-.47,0-.47-.36-.47-.81,0-.01,0-.99,0-1.14,0-.02,0-.11-.11-.11h-.18Zm4.29,2.07c-.87,0-1.47-.71-1.47-1.73s.6-1.73,1.47-1.73,1.47,.71,1.47,1.73-.6,1.73-1.47,1.73Zm1.04-1.77c0-.41-.12-1.54-1.04-1.54-1.01,0-1.05,1.33-1.05,1.62,0,.43,.13,1.54,1.05,1.54,1.01,0,1.04-1.31,1.04-1.62Zm2-.45s.1,0,.1,.07-.07,.07-.1,.07h-.34s-.08,0-.11,.06c-.01,.04-.01,.52-.01,.61,0,.1,0,.87,.01,.94,.05,.23,.25,.23,.32,.23,.14,0,.18,0,.18,.07s-.07,.07-.11,.07h-1.04s-.1,0-.1-.07,.07-.07,.1-.07c.14,0,.32-.05,.32-.31,0-.19,0-1.4,0-1.41,0-.05-.02-.12-.11-.12h-.25s-.11,0-.11-.07,.07-.07,.11-.07h.25c.12,0,.12-.09,.12-.15,0-.18,0-.36,.08-.56,.15-.36,.47-.53,.72-.53,.15,0,.28,.08,.28,.23,0,.11-.08,.22-.21,.22s-.18-.08-.21-.12c-.07-.09-.07-.1-.11-.1-.06,0-.12,.05-.15,.1-.08,.13-.08,.19-.08,.78,0,.03,0,.14,.12,.14h.34Zm1.52,0s.1,0,.1,.07-.07,.07-.1,.07h-.34s-.08,0-.11,.06c-.01,.04-.01,.52-.01,.61,0,.1,0,.87,.01,.94,.04,.23,.25,.23,.32,.23,.14,0,.18,0,.18,.07s-.07,.07-.11,.07h-1.04s-.1,0-.1-.07,.07-.07,.1-.07c.14,0,.32-.05,.32-.31,0-.19,0-1.4,0-1.41,0-.05-.02-.12-.11-.12h-.25s-.11,0-.11-.07,.07-.07,.11-.07h.25c.12,0,.12-.09,.12-.15,0-.18,0-.36,.08-.56,.15-.36,.47-.53,.72-.53,.15,0,.28,.08,.28,.23,0,.11-.08,.22-.21,.22s-.18-.08-.21-.12c-.07-.09-.07-.1-.11-.1-.06,0-.12,.05-.15,.1-.08,.13-.08,.19-.08,.78,0,.03,0,.14,.12,.14h.34Zm.39,2.13s-.1,0-.1-.07c0-.07,.05-.07,.14-.08,.06,0,.14-.03,.18-.13,.04-.08,.04-.73,.04-.9,0-.13,0-.65-.03-.71-.02-.05-.07-.08-.13-.08-.02,0-.14,.01-.14,.01-.02,0-.04,0-.04-.04s.02-.04,.23-.1c.06-.02,.34-.12,.37-.12,.04,0,.04,.04,.04,.09,0,.2,0,1.22,0,1.45,0,.33,0,.52,.21,.53,.09,0,.14,0,.14,.08,0,.07-.08,.07-.11,.07h-.8Zm.14-3.11c0-.14,.12-.26,.26-.26,.14,0,.26,.11,.26,.26s-.12,.26-.26,.26-.26-.12-.26-.26Zm1.88,3.2c-.42,0-.94-.27-.94-1.1,0-.69,.39-1.2,1.04-1.2,.36,0,.7,.18,.7,.43,0,.15-.12,.23-.24,.23-.18,0-.2-.16-.21-.27-.03-.27-.28-.27-.31-.27-.32,0-.6,.41-.6,1.01s.31,.98,.69,.98c.22,0,.46-.12,.6-.31,.04-.05,.06-.08,.09-.08,.02,0,.04,.01,.04,.05,0,.07-.31,.52-.87,.52Zm1.69-1.27c-.06,0-.14,0-.14,.14,0,.55,.37,.93,.75,.93,.21,0,.41-.12,.55-.25,.03-.02,.13-.18,.17-.18,.02,0,.04,.02,.04,.06,0,.1-.32,.56-.91,.56-.63,0-.99-.5-.99-1.15,0-.75,.46-1.14,.96-1.14,.7,0,.9,.74,.9,.93,0,.08-.04,.1-.14,.1h-1.19Zm.83-.15c.1,0,.15-.02,.15-.13,0-.17-.16-.63-.54-.63-.42,0-.55,.56-.55,.66s.08,.1,.12,.1h.82Z"/>
    <path class="cls-2" d="M16.19,8.09c0-2.21-1.7-4.04-3.86-4.23-.19-2.16-2.02-3.87-4.23-3.87S4.06,1.7,3.87,3.87c-2.16,.19-3.87,2.02-3.87,4.23s1.7,4.04,3.87,4.23c.19,2.16,2.02,3.86,4.23,3.86s4.04-1.7,4.23-3.86c2.16-.19,3.86-2.02,3.86-4.23Zm-8.46-.53c-1.16-.39-2-1.5-2-2.77,0-1.61,1.31-2.92,2.92-2.92,1.27,0,2.38,.84,2.77,2-1.92,.24-3.45,1.77-3.69,3.69Zm-3.85-2.79c.24,1.92,1.77,3.45,3.69,3.69-.39,1.16-1.5,2-2.77,2-1.61,0-2.92-1.31-2.92-2.92,0-1.27,.84-2.38,2-2.77Zm4.58,3.85c1.16,.39,2,1.5,2,2.77,0,1.61-1.31,2.92-2.92,2.92-1.27,0-2.38-.84-2.77-2,1.92-.24,3.45-1.77,3.69-3.69Zm3.85,2.79c-.24-1.92-1.77-3.45-3.69-3.69,.39-1.16,1.5-2,2.77-2,1.61,0,2.92,1.31,2.92,2.92,0,1.27-.84,2.38-2,2.77Z"/>
  </g>
</svg>