<?xml version="1.0" encoding="UTF-8"?>
<svg id="_レイヤー_2" data-name="レイヤー 2" xmlns="http://www.w3.org/2000/svg" viewBox="0 0 96.24 17.61">
  <defs>
    <style>
      .cls-1 {
        fill: #808c96;
      }

      .cls-2 {
        fill: #6a6969;
      }
    </style>
  </defs>
  <g id="_レイヤー_1-2" data-name="レイヤー 1">
    <path class="cls-1" d="M26.16,9.22c0,.22-.17,.4-.37,.4s-.25-.08-.54-.58c-.56-.98-1.26-1.58-1.42-1.58-.06,0-.08,.01-.25,.21l-.05,.05c-.31,.33-1.12,1.19-2.14,1.7-.2,.1-.44,.19-.52,.19-.09,0-.1-.07-.1-.09,0-.07,.39-.33,.39-.33,2.06-1.49,3.05-3.57,3.05-3.73,0-.01-.01-.03-.06-.03-.07,0-1.7,.38-1.79,.41-.02,0-.08,.03-.13,.06-.13,.06-.21,.1-.25,.1-.14,0-.53-.25-.58-.3-.07-.07-.21-.44-.21-.5,0-.07,.03-.1,.09-.1,.02,0,.22,.06,.22,.06,.25,.07,.34,.08,.42,.08,.29,0,1.81-.13,2.21-.3,.02,0,.08-.05,.14-.08,.16-.1,.27-.17,.32-.17,.21,0,.73,.43,.73,.66,0,.06-.08,.14-.26,.29-.04,.04-.09,.07-.1,.09-.12,.15-.53,.75-.78,1.11-.07,.1-.12,.18-.15,.22-.03,.03-.06,.08-.06,.14,0,.05,0,.06,.34,.24l.03,.02c.45,.26,1.81,1.04,1.81,1.79Zm2.32-3.06c-.23-.06-.24-.07-.24-.22,0-.21,.03-.92,.07-1.12h0c.07-.21,.1-.31,.1-.35,0-.29-.62-.56-.92-.56-.1,0-.26,.01-.27,.11,0,0,0,.02,0,.02l.02,.03s0,0,0,.01c.13,.12,.2,.2,.27,.36,.09,.25,.09,.55,.09,2.83,0,.98-.02,1.2-.07,1.88,0,.01,0,.07-.02,.11-.01,.06-.02,.11-.02,.12,0,.23,.22,.8,.49,.8s.28-.55,.28-.78c0-.12,0-.33-.02-.42-.03-.71-.04-1.15-.04-2.02,0-.56,.03-.56,.07-.56,.22,0,.59,.35,.83,.67h0c.54,.71,.57,.75,.8,.75,.12,0,.33-.07,.33-.32,0-.62-1.25-1.23-1.79-1.35Zm3.98-1.03c.06,0,1.8-.15,1.94-.17,.48-.04,.79-.07,.79-.36,0-.26-.37-.35-.54-.35-.08,0-.34,.06-.62,.12-.08,.02-.15,.03-.18,.04-.4,.08-.98,.09-1.29,.09-.11,0-.3,0-.42-.03,0,0,0,0,0,0-.02,0-.07-.02-.11-.04-.09-.03-.15-.05-.19-.05-.03,0-.09,0-.09,.1s.27,.65,.71,.65Zm2.9,.67s-.09,.02-.21,.07c-.02,0-.03,.01-.04,.02-.02,0-.06,0-.2,.02-.14,.01-.34,.03-.35,.03-.05,0-.15,.02-.27,.03-.57,.07-1.76,.21-2.31,.21-.32,0-.63-.07-.79-.14,0,0-.02-.01-.04-.02-.06-.03-.09-.05-.11-.05-.05,0-.09,.04-.09,.08,0,.26,.6,.97,.97,.97,.04,0,.13-.04,.27-.09,.05-.02,.1-.04,.12-.05,.37-.11,2.4-.46,2.66-.46,.12,0,.13,.07,.13,.11,0,.02-.49,1.81-3.18,3.26-.01,0-.04,.02-.07,.03-.18,.09-.22,.11-.23,.12-.02,.02-.03,.05-.03,.08,0,.05,.04,.1,.11,.1,.08,0,.73-.17,1.46-.53,1.11-.57,1.63-1.16,2.31-2.18,.22-.34,.3-.46,.43-.57,.19-.16,.23-.2,.23-.34,0-.21-.61-.71-.75-.71Zm7.34,.8s-.05,0-.08,0c-.03,0-.07,0-.09,0h0c-1.18,.06-4.02,.17-4.29,.17-.46,0-.83-.03-.98-.07-.01,0-.06-.02-.1-.04-.09-.04-.15-.06-.18-.06-.06,0-.1,.06-.1,.14,0,.29,.38,.82,.76,.82,.06,0,.22-.04,.42-.09,.09-.02,.18-.05,.22-.05,.19-.04,2.07-.15,3.17-.15,.08,0,.31,0,.55,0,.26,0,.52,0,.62,0,.35,0,.71-.02,.71-.29,0-.1-.11-.4-.61-.4Zm5.93-1.58c.33,.35,.37,.4,.37,.49,0,.16-.09,.2-.23,.26-.12,.05-.14,.08-.39,.48h0c-.04,.07-.12,.19-.22,.34-.18,.26-.52,.74-.52,.82,0,.06,0,.07,.15,.25l.02,.03c.18,.24,.33,.43,.33,.71,0,.34-.24,.43-.39,.43-.19,0-.23-.07-.54-.58h0c-.04-.08-.11-.18-.15-.18-.05,0-.09,.04-.22,.18l-.03,.04c-1.37,1.47-2.93,1.97-3.03,1.97-.04,0-.08-.01-.1-.04-.01-.02-.02-.04-.02-.08,.01-.04,.03-.05,.11-.1,.02-.01,.05-.03,.09-.05h0c1.64-.93,2.76-2.25,2.76-2.48,0-.09-.19-.29-.49-.5-.3-.21-.56-.33-.64-.33-.07,0-.35,.25-.58,.45-.42,.37-.71,.61-.86,.61-.06,0-.08-.04-.08-.08,0-.06,.3-.37,.3-.38,1-1.09,1.62-2.21,1.62-2.63,0-.03-.04-.12-.07-.19-.04-.1-.06-.16-.06-.2,0-.09,.13-.09,.19-.09,.45,0,.77,.34,.77,.52,0,.03-.02,.08-.05,.17-.02,.05-.04,.13-.04,.15,0,.09,.15,.1,.24,.1,.17,0,.96-.07,1.13-.21,.14-.11,.18-.13,.25-.13,.17,0,.32,.16,.39,.25Zm-.78,.43c-.06,0-.26,.02-.45,.05-.22,.03-.46,.06-.54,.06-.12,0-.18-.02-.25-.03-.1-.03-.12-.03-.19-.03-.02,0-.05,0-.07,.02-.07,.08-.66,.79-.68,.88,0,.08,.04,.1,.23,.17h.02c.25,.11,.32,.14,.86,.41l.04,.02c.07,.03,.14,.06,.16,.05,.14-.03,.96-1.24,.96-1.52,0-.07-.07-.07-.1-.07Zm.79-1.35c-.06,0-.19,.02-.19,.1,0,.06,.12,.16,.12,.16,.32,.29,.38,.35,.5,.54,.2,.31,.29,.42,.44,.42,.18,0,.29-.22,.29-.34,0-.48-.72-.88-1.17-.88Zm.64-.68c-.14,0-.34,.05-.34,.15,0,.04,.05,.08,.13,.12,.27,.1,.58,.32,.69,.45,.15,.18,.26,.31,.45,.31,.17,0,.24-.16,.24-.28,0-.36-.45-.75-1.18-.75Zm4.34,.77l.14,.17s.06,.07,.11,.07c.01,0,.05,0,.09,0,.03,0,.06,0,.08,0,.08,0,.32-.02,.96-.02h1.57c.26,0,.31-.08,.31-.16,0-.15-.63-.57-.73-.57-.09,0-.12,.04-.32,.27l-.03,.03c-.09,.11-.12,.11-.25,.11h-.51c-.27,0-.77-.02-1.05-.03-.02,0-.09,0-.15-.01-.08,0-.16-.01-.18-.01-.08,0-.09,.05-.09,.07,0,.03,.02,.05,.03,.06,0,0,.01,.01,.02,.03Zm3.22,1.35c-.11,0-.15,.04-.36,.33-.08,.11-.14,.11-.25,.11h-1.64c-.4,0-.68,0-1.1-.03-.02,0-.09,0-.15-.01-.08,0-.16-.01-.18-.01-.07,0-.08,.05-.08,.07,0,.04,0,.05,.04,.09l.15,.18s.06,.06,.11,.06c.01,0,.05,0,.09,0,.03,0,.06,0,.08,0,.08,0,.32-.02,.97-.02h.68c.15,0,.17,.05,.17,.25,0,.03,0,.19,0,.4,0,.34,.02,.78,.02,.91,0,.07-.02,1.57-.05,1.69-.03,.17-.08,.21-.28,.21-.05,0-.37-.02-.5-.03-.03,0-.21-.03-.25-.03-.11,0-.12,.07-.12,.09,0,.07,.08,.12,.15,.14,.4,.1,.63,.27,.67,.47,.01,.07,.03,.17,.18,.17,.07,0,.29-.03,.49-.13,.38-.17,.38-.61,.38-1.26v-2.67c0-.14,0-.21,.18-.21h.98c.13,0,.35,0,.35-.16,0-.13-.6-.59-.72-.59Zm-6.07,.11c.1,0,.95-.57,1.6-1.2h.01c.27-.27,.29-.29,.4-.31,0,0,.02,0,.02,0,.06-.02,.18-.04,.18-.16,0-.07-.09-.18-.54-.48-.05-.02-.08-.04-.12-.04-.09,0-.11,.03-.19,.18l-.02,.03c-.26,.45-.48,.76-.93,1.27-.02,.03-.09,.1-.17,.18-.31,.32-.36,.37-.36,.42,0,.05,.03,.1,.11,.1Zm2.47-.01s0-.09-.05-.15c-.13-.16-.54-.4-.6-.4-.1,0-.13,.09-.14,.12v.03c-.05,.09-.08,.15-.22,.4-.39,.7-1.37,1.92-1.54,2.12l-.04,.05c-.18,.22-.23,.29-.23,.34,0,.01,0,.09,.1,.09,.11,0,.39-.23,1.07-.88l.11-.1c.09-.09,.15-.14,.18-.17,0,.05,0,.17,0,.35,0,.37-.06,2.01-.08,2.3,0,0-.05,.49-.05,.56,0,.09,.04,.24,.29,.24,.29,0,.46-.2,.46-.54,0-.08,0-.31,0-.54,0-.24,0-.47,0-.56,0-.14,0-.53,.02-.93,0-.41,.02-.84,.02-.99,0-.05,0-.13,.01-.17v-.02c.09-.1,.11-.14,.11-.17,0-.08-.06-.12-.11-.15-.05-.03-.07-.05-.07-.06,.02-.09,.38-.55,.47-.57,0,0,.01,0,.01,0,.22-.08,.26-.1,.28-.19Zm12.23,4.36c0,.06-.06,.07-.11,.08h-.02c-.08,.02-.27,.1-.34,.14-.02,.01-.05,.04-.09,.06-.14,.1-.24,.17-.3,.17-.12,0-.82-.44-1.44-1.4-.12-.19-.14-.2-.16-.2-.01,0-.04,.02-.16,.16-1.18,1.32-2.34,1.53-2.35,1.53-.07,0-.12-.04-.12-.09,0-.07,.06-.1,.14-.14,.12-.05,.51-.27,.85-.54,.71-.54,1.32-1.33,1.32-1.49,0-.05,0-.06-.09-.25-.24-.56-.4-.98-.51-1.53-.03-.14-.05-.24-.06-.29-.06,.07-.18,.28-.27,.44-.27,.46-.39,.66-.5,.66-.05,0-.08-.03-.08-.08s.04-.14,.11-.29c.06-.12,.09-.2,.09-.28,0-.02,0-.02,0-.03,0,0-.02-.01-.1-.01h-.51c-.18,0-.19,.05-.19,.31v.28c0,.53,0,1.33,.02,1.62,0,.11,.03,.12,.08,.12,.09,0,.63-.12,.81-.16,.05-.02,.44-.12,.49-.12,.07,0,.11,.05,.11,.09,0,.11-.35,.26-2.43,.93-.36,.11-.67,.21-.81,.26,0,0-.04,.05-.06,.08-.07,.09-.11,.13-.15,.13-.22,0-.52-.81-.52-.85,0-.13,.08-.13,.38-.13,.24,0,.34-.01,.35-.05,.02-.09,.03-1.56,.03-1.91v-.11c0-.29,0-.72-.04-.96v-.04c-.04-.13-.05-.19-.05-.21,0-.09,.05-.13,.14-.13,.06,0,.56,.17,.59,.18,.04,.01,.14,.04,.14,.15,0,.04-.03,.08-.12,.16-.02,.02-.04,.04-.05,.05,0,.01-.05,.14-.05,1.12,0,.38,0,1.22,.02,1.55,0,.12,0,.12,.1,.12,.07,0,.36-.04,.42-.08,.02-.17,.02-1.87,.02-3.43,0-.69-.03-.8-.03-.82-.02-.05-.08-.05-.17-.05h-.18c-.16,0-.56,0-.78,.01-.04,.01-.12,.02-.14,.02-.05,0-.07-.04-.1-.07l-.13-.18s-.03-.05-.03-.08c0-.05,.04-.08,.07-.08,.02,0,.06,0,.11,.01,.05,0,.1,.01,.12,.01,.23,.02,.63,.03,.91,.03h1.16c.28,0,.28,0,.35-.1,.16-.22,.24-.34,.34-.34,.14,0,.5,.51,.5,.59,0,.16-.17,.16-.39,.16h-.81c-.13,0-.17,.02-.18,.11-.01,.09-.01,.8-.01,1.27q0,.21,.13,.21c.13,0,.14,0,.26-.19,.1-.16,.14-.19,.19-.19,.08,0,.19,.12,.27,.21h0c.05,.06,.08,.1,.1,.11,.14-.17,.69-1.83,.69-2.55,0-.06,0-.19,.15-.19,.05,0,.49,.19,.52,.2,.16,.07,.28,.12,.28,.23,0,.09-.05,.12-.17,.2-.05,.03-.05,.04-.13,.2v.03s-.03,.05-.06,.1c-.21,.5-.32,.78-.33,.83,0,.04,0,.06,.16,.06h1.28c.28,0,.28,0,.35-.11l.04-.05c.15-.22,.18-.26,.28-.26,.09,0,.66,.43,.66,.57,0,.16-.17,.16-.39,.16h-.76s.1,.07,.15,.11c.16,.11,.25,.18,.25,.25,0,.07-.02,.09-.16,.2l-.04,.03s-.06,.06-.08,.12l-.03,.07c-.22,.6-.28,.76-.54,1.3-.01,.02-.04,.07-.06,.12-.06,.12-.22,.4-.22,.45,0,.24,1.13,1.32,1.89,1.53,.04,.01,.19,.05,.19,.14Zm-1.76-4.22c0-.1,0-.1-.06-.1h-1.13c-.18,0-.24,.01-.24,.16,0,.39,.57,1.82,.73,1.93,.16-.1,.7-1.54,.7-1.99Zm8.23,2.44s-.01,.08-.1,.24c-.08,.15-.08,.23-.08,.49,0,.11,.02,.55,.03,.82,0,.12,0,.21,0,.22,0,.18-.2,.46-.45,.46-.2,0-.24-.2-.25-.28-.02-.1-.04-.1-.16-.1h-2.88c-.1,0-.11,.04-.12,.15h0c0,.15-.28,.33-.45,.33-.15,0-.25-.11-.25-.27,0-.1,0-.41,.01-.72,0-.33,.01-.68,.01-.81,0-.08,0-.32-.02-.52,0-.16-.01-.29-.01-.33,0-.11,.05-.13,.09-.13,.05,0,.33,.14,.45,.2,.13,.06,.26,.06,.32,.06h2.77c.07,0,.13,0,.22-.05,.01,0,.04-.04,.07-.07,.1-.1,.15-.15,.2-.15,.09,0,.59,.26,.59,.45Zm-.82,.55q0-.43-.18-.43h-2.86q-.16,0-.16,.44c0,.12,.03,.13,.19,.13h2.85c.12,0,.17-.01,.17-.14Zm-3.22,.69c0,.31,.02,.31,.18,.31h2.86c.16,0,.19,0,.19-.31,0-.22-.02-.24-.17-.24h-2.9c-.14,0-.16,.03-.16,.24Zm1.87-3.42q0,.42,.17,.42h.81c.34,0,.35,0,.44-.11,.21-.25,.26-.3,.36-.3,.05,0,.77,.42,.77,.56,0,.16-.19,.16-.46,.16h-1.91c-.17,0-.17,.03-.17,.21,0,.26,0,.27,.18,.27h1.4c.35,0,.36,0,.45-.1,.21-.26,.25-.3,.35-.3,.05,0,.78,.4,.78,.56s-.19,.16-.47,.16h-5.01c-.51,0-.76,0-.88,.01-.04,0-.07,0-.08,0-.02,0-.05,0-.08,.01-.04,0-.07,.01-.09,.01-.04,0-.07-.03-.09-.06,0,0,0,0,0-.01l-.16-.18s-.02-.02-.02-.03c-.01-.02-.02-.03-.02-.06,0-.04,.02-.08,.09-.08,.02,0,.09,0,.16,.01,.07,0,.15,.02,.17,.02,.4,.02,.71,.02,1.05,.02h1.45c.15,0,.15-.02,.15-.28,0-.16-.02-.19-.16-.19h-.88c-.51,0-.76,0-.88,.01-.04,0-.07,0-.09,0-.02,0-.13,.02-.16,.02-.06,0-.1-.06-.11-.08l-.14-.17s-.05-.05-.05-.08c0-.04,.04-.08,.09-.08s.3,.02,.35,.03c.39,.02,.7,.02,1.04,.02h.85c.16,0,.17,0,.17-.4,0-.11-.02-.14-.14-.14h-.71c-.68,0-.88,.02-.97,.02-.02,0-.05,0-.08,0-.04,0-.07,0-.09,0-.05,0-.09-.04-.12-.07l-.14-.17s-.04-.05-.04-.09c0-.02,0-.07,.08-.07,.03,0,.11,0,.18,.01,.07,0,.13,.01,.15,.01h.15c.32,.02,.6,.03,.9,.03h.67c.17,0,.17-.02,.17-.27,0-.15,0-.18-.17-.18h-1.37c-.5,0-.76,0-.88,.01-.04,0-.06,0-.08,0-.04,0-.14,.02-.17,.02-.06,0-.09-.04-.11-.07l-.15-.18s-.02-.02-.02-.02c-.01-.01-.03-.03-.03-.06,0-.04,.04-.08,.09-.08,.06,0,.3,.02,.35,.03,.38,.02,.7,.02,1.04,.02h1.34c.14,0,.16,0,.16-.17,0-.21-.02-.23-.18-.23h-.67c-.5,0-.75,0-.87,.01-.04,0-.07,0-.09,0s-.06,0-.09,.01-.06,.01-.07,.01c-.05,0-.1-.06-.11-.08l-.14-.17s-.04-.05-.04-.08c0-.05,.03-.08,.08-.08,.03,0,.11,0,.19,.02,.07,0,.13,.01,.15,.01,.4,.02,.71,.02,1.05,.02h.63c.15,0,.18,0,.18-.18,0-.03-.01-.13-.03-.2-.01-.09-.02-.15-.02-.17,0-.08,.05-.12,.12-.12,.04,0,.5,.07,.62,.1,.12,.02,.2,.09,.2,.18s-.08,.15-.18,.21l-.03,.02s-.05,.06-.05,.09c0,.06,.04,.07,.19,.07h.92c.1,0,.17-.03,.22-.1,.06-.08,.12-.15,.2-.15,.04,0,.57,.2,.57,.42,0,.07-.02,.09-.15,.22-.05,.05-.05,.08-.05,.15,0,.12,0,.17,.11,.17,.08,0,.11,0,.19-.1l.02-.03c.19-.23,.22-.27,.33-.27s.64,.44,.64,.56c0,.16-.19,.16-.47,.16h-.65c-.13,0-.18,.02-.18,.11v.59s0,.01,0,.02c-.05,.14-.22,.22-.36,.22-.16,0-.22-.07-.28-.15-.02-.03-.04-.03-.13-.03h-.92c-.14,0-.19,0-.19,.11Zm1.28-1.31c0-.24,0-.27-.16-.27h-.94c-.2,0-.2,.01-.2,.23,0,.17,.03,.17,.19,.17h.95c.1,0,.15-.02,.15-.12Zm-1.29,.78c0,.1,.05,.11,.2,.11h.91c.11,0,.18,0,.18-.33,0-.1-.05-.12-.17-.12h-.93q-.2,0-.2,.34Zm10.28,.27c-.1,0-.14,.05-.35,.3-.1,.11-.1,.11-.45,.11h-1.5c-.18,0-.18-.04-.18-.28,0-1.09,.02-1.53,.04-1.59,0-.02,.06-.06,.1-.1,.1-.1,.17-.16,.17-.22,0-.11-.14-.15-.36-.21-.12-.04-.67-.17-.7-.17-.07,0-.12,.04-.12,.1,0,.03,.02,.14,.05,.3,.02,.12,.05,.26,.06,.31,.04,.6,.06,1.17,.06,1.7,0,.15-.08,.16-.17,.16h-1.54c-.34,0-.66,0-1.04-.02-.05,0-.29-.03-.35-.03-.05,0-.09,.03-.09,.08,0,.03,.01,.05,.05,.08l.15,.18s.05,.07,.11,.07c.03,0,.14-.02,.16-.02,.02,0,.05,0,.09,0,.12,0,.37-.01,.88-.01h1.58c.16,0,.17,.04,.17,.33,0,1.38-.02,2.53-.02,2.85h0c-.01,.17-.09,.17-.18,.17h-1.07c-.32,0-.6-.01-.92-.03h-.13s-.09-.01-.15-.02c-.08,0-.16-.01-.18-.01-.07,0-.08,.05-.08,.07,0,.04,0,.05,.04,.09l.14,.17s.05,.07,.11,.07c.01,0,.05,0,.09,0,.03,0,.06,0,.08,0,.08,0,.32-.02,.96-.02h4.33c.28,0,.47,0,.47-.16s-.73-.56-.78-.56c-.09,0-.12,.04-.32,.27l-.03,.03c-.09,.11-.1,.11-.45,.11h-1.03c-.17,0-.18-.07-.18-.15v-3c0-.18,.07-.19,.19-.19h2.6c.28,0,.47,0,.47-.16,0-.15-.72-.56-.78-.56Zm2.53-1.08c.11,.2,.17,.29,.32,.29,.2,0,.31-.2,.31-.4,0-.28-.21-.53-.54-.67-.14-.06-.55-.13-.64-.13-.1,0-.12,.05-.12,.09,0,.03,.02,.05,.04,.07,.09,.07,.37,.3,.62,.75Zm-.68,1.71c.11,.22,.17,.35,.32,.35,.19,0,.35-.19,.35-.41,0-.47-.6-.82-1.13-.82-.06,0-.16,.01-.18,.08,0,.02,0,.04,.01,.05,0,0,.1,.09,.14,.11,.26,.23,.4,.46,.48,.63Zm5.86,.23c-.06,0-.13,.07-.26,.23-.04,.05-.08,.1-.11,.12-.04,.04-.06,.05-.38,.05h-.72c-.13,0-.17-.02-.19-.1,0-.04,0-.53,0-1.25,0-.14,.08-.15,.19-.15h1.34c.28,0,.47,0,.47-.16,0-.11-.56-.54-.65-.54-.06,0-.12,.07-.24,.23-.03,.05-.07,.1-.09,.11-.05,.05-.07,.05-.39,.05h-.43s-.11,0-.15-.04c-.02-.02-.03-.06-.03-.12,0-.02,.02-.58,.02-.69s0-.16,.03-.24c0-.01,.04-.05,.06-.08,.06-.07,.09-.11,.09-.15,0-.2-.81-.3-.82-.3-.06,0-.09,.04-.09,.11,0,0,0,.03,.03,.2,.01,.08,.02,.16,.03,.18,.02,.25,.02,.7,.02,.96,0,.15-.08,.17-.17,.17h-.17c-.37,0-.73-.02-1.05-.03-.03,0-.1,0-.17-.01-.07,0-.15-.01-.18-.01-.07,0-.08,.05-.08,.07,0,.04,0,.05,.04,.09l.15,.17s.05,.07,.11,.07c.01,0,.04,0,.08,0s.07,0,.09,0c.27-.02,.79-.02,.96-.02h.22c.11,0,.16,.05,.16,.17,0,.7,0,1.15-.01,1.21-.02,.09-.05,.12-.18,.12h-.57c-.36,0-.71-.02-1.05-.03-.03,0-.1,0-.17-.01-.07,0-.15-.01-.18-.01-.07,0-.08,.05-.08,.07,0,.03,0,.05,.04,.09l.15,.18s.06,.06,.11,.06c.01,0,.05,0,.09,0,.03,0,.06,0,.08,0,.27-.02,.8-.02,.97-.02h.41c.14,0,.17,.02,.17,.07,0,.09-.29,.74-.62,1.36-.31,.6-.34,.63-.48,.63-.18,0-.33,0-.51-.03-.01,0-.04,0-.07-.01-.13-.02-.26-.04-.3-.04-.06,0-.09,.04-.09,.08,0,0,.2,.86,.39,.86,.03,0,.08-.02,.16-.08,.02-.01,.04-.02,.05-.03,.09-.06,.29-.12,.37-.14,.17-.04,.8-.14,1.31-.21,.27-.04,.5-.07,.61-.09,.08-.01,.3-.06,.53-.1,.27-.06,.65-.13,.69-.13,.11,0,.14,.06,.19,.27,.13,.6,.16,.7,.36,.7,.17,0,.43-.13,.43-.5,0-.8-1.16-1.91-1.36-1.91-.02,0-.04,.01-.05,.03v.02s-.01,.02-.01,.03c0,.04,.06,.15,.15,.37,.11,.24,.29,.65,.29,.73,0,.03,0,.06-.21,.07-.12,0-.43,.02-.78,.04-.64,.03-1.42,.08-1.62,.08,.01-.02,.04-.05,.07-.09l.02-.02c.24-.28,.58-.71,.81-1.08,.19-.3,.21-.32,.26-.34,.15-.03,.25-.05,.25-.16,0-.06-.08-.17-.24-.36,0,0,0-.01-.01-.02h2.12c.28,0,.47,0,.47-.16,0-.13-.55-.55-.64-.55Zm-5.18,2.08c0-.23,.02-.28,.24-.85,0-.02,.84-2.26,.84-2.35,0-.06-.04-.1-.1-.1-.08,0-.09,.04-.13,.12l-.02,.04c-.03,.08-.08,.18-.13,.28-.05,.1-.1,.21-.14,.29-.58,1.29-1,2.23-1.26,2.36l.03,.05-.03-.05s-.05,.01-.08,.02c-.14,.03-.25,.06-.25,.14,0,.05,.05,.09,.18,.17,.03,.02,.06,.04,.07,.04,.27,.31,.27,.52,.27,.99,0,.28,.11,.58,.42,.58,.2,0,.39-.21,.39-.42,0-.08-.03-.2-.07-.32-.21-.58-.23-.65-.23-.99Zm13.54,.99c-1.03-.27-1.84-1.41-2.15-1.89-.99-1.62-1.1-3.43-1.11-3.49,0-.04,0-.05,.01-.06,0-.01,.03-.02,.09-.03,.05-.01,.17-.04,.17-.18,0-.19-.19-.24-.57-.34-.03,0-.09-.02-.16-.05-.19-.06-.27-.08-.3-.08-.06,0-.12,.05-.12,.12,0,.03,.03,.15,.03,.16,.03,.16,.03,.24,.03,.46,0,.23-.02,2.31-.87,3.92-.53,1.03-1.44,1.71-1.8,1.95-.08,.05-.13,.09-.13,.14,0,.06,.04,.09,.1,.09,.09,0,1.45-.47,2.28-1.85,.78-1.28,.97-3.11,.99-3.31v-.05s.01-.04,.01-.06c.12,1.52,.57,2.52,.72,2.86v.03c.77,1.66,1.75,2.27,1.81,2.27,.04,0,.06-.01,.14-.08l.09-.06c.08-.06,.26-.16,.51-.22l.08-.02c.19-.04,.24-.05,.24-.13,0-.07-.08-.09-.12-.11Z"/>
    <path class="cls-2" d="M21,16.71c-.03-.08-.23-.59-.23-.62,0-.07,.06-.09,.1-.09,.05,0,.06,.02,.17,.19,.2,.31,.6,.62,1.06,.62,.3,0,.67-.2,.67-.68,0-.41-.27-.55-.84-.75-.63-.22-1.04-.46-1.04-.99,0-.47,.32-.87,.9-.87,.09,0,.2,.01,.32,.04,.05,0,.24,.05,.27,.05,.04,0,.07,0,.1-.03,.06-.05,.07-.06,.1-.06,.05,0,.07,.04,.11,.16,.03,.07,.24,.6,.24,.63,0,.06-.05,.07-.08,.07-.04,0-.04-.01-.12-.13-.12-.19-.37-.58-.92-.58-.51,0-.61,.41-.61,.59,0,.37,.27,.51,.86,.72,.91,.32,1.03,.68,1.03,1.02,0,.61-.48,.97-.98,.97-.16,0-.32-.03-.49-.09-.12-.04-.15-.04-.18-.04-.07,0-.13,.02-.17,.06-.08,.07-.09,.08-.13,.08-.06,0-.07-.03-.15-.25Zm2.34-1.82s-.12,0-.12-.07c0-.06,.02-.06,.15-.08,.07,0,.45-.1,.45-.68,0-.04,0-.1,.06-.1,.07,0,.07,.07,.07,.09v.58s.01,.11,.11,.11h.48s.13,0,.13,.07c0,.03-.03,.07-.12,.07h-.48s-.08,0-.1,.06c-.02,.05-.02,.55-.02,.64,0,.14,0,.86,.01,.92,.06,.25,.27,.25,.31,.25,.09,0,.2-.04,.3-.11,.03-.02,.13-.12,.16-.12,.02,0,.03,.02,.03,.04,0,.08-.28,.39-.66,.39-.47,0-.47-.36-.47-.81,0-.01,0-.99,0-1.14,0-.02,0-.11-.11-.11h-.18Zm1.7,1.98s-.12,0-.12-.07,.05-.07,.17-.07c.05,0,.15,0,.21-.1,.04-.06,.05-.12,.05-.75,0-.14,0-.8-.03-.88-.01-.05-.07-.09-.14-.09-.03,0-.18,.04-.22,.04-.03,0-.05-.02-.05-.05,0-.04,.02-.04,.22-.1,.06-.02,.47-.15,.5-.15,.01,0,.02,0,.02,.01v.2c0,.24,0,.27,.05,.27,.02,0,.03,0,.09-.09,.04-.05,.31-.39,.64-.39,.17,0,.27,.1,.27,.26s-.12,.24-.23,.24c-.09,0-.14-.05-.18-.09-.03-.03-.07-.08-.13-.08-.11,0-.3,.14-.38,.29-.11,.19-.13,.3-.13,.96,0,.41,.01,.49,.33,.49,.04,0,.09,.01,.09,.07,0,.07-.08,.07-.12,.07h-.93Zm3.54-1.6c0,.15,0,.89,0,1.05,0,.21,0,.4,.18,.4,.04,0,.12-.03,.14-.05,0,0,.03-.03,.04-.03,0,0,.02,0,.02,.03,0,.08-.18,.28-.38,.28-.14,0-.26-.11-.3-.2,0-.03-.02-.07-.06-.07-.03,0-.07,.03-.11,.06-.18,.14-.4,.21-.59,.21-.27,0-.57-.14-.57-.48,0-.54,.76-.77,1.02-.84,.27-.08,.3-.09,.3-.32,0-.39-.22-.53-.42-.53-.3,0-.35,.21-.36,.28-.03,.14-.06,.3-.24,.3-.12,0-.21-.09-.21-.22,0-.27,.44-.47,.82-.47,.36,0,.73,.16,.74,.61Zm-.35,1.21c.02-.05,.03-.07,.03-.6,0-.09,0-.17-.09-.17-.16,0-.84,.3-.84,.73,0,.12,.08,.33,.39,.33,.15,0,.45-.14,.51-.28Zm2.49,.39s-.08-.01-.09-.06c0-.06-.01-.09-.04-.09s-.13,.1-.15,.11c-.17,.11-.34,.12-.44,.12-.65,0-.88-.61-.88-1.15,0-.86,.56-1.14,.94-1.14,.05,0,.13,0,.24,.04,.04,.01,.23,.13,.27,.13,.05,0,.06-.07,.06-.11,0-.05,0-.34,0-.4,0-.2,0-.53-.28-.53-.02,0-.12,.01-.13,.01-.02,0-.05-.01-.05-.04,0-.04,.02-.05,.21-.1,.06-.02,.5-.16,.53-.16,0,0,.02,0,.04,.02,.01,.02,.01,.3,.01,.35,0,.33,0,1.97,0,2.34,0,.24,0,.51,.26,.52,.08,0,.16,0,.16,.08,0,.01-.01,.06-.07,.06h-.57Zm-.11-.5c.02-.1,.02-.57,.02-.86,0-.25,0-.36-.1-.49-.07-.09-.18-.18-.36-.18-.35,0-.67,.37-.67,1,0,.47,.19,.92,.6,.92,.15,0,.46-.08,.51-.39Zm2.61-1.1c0,.15,0,.89,0,1.05,0,.21,0,.4,.18,.4,.05,0,.12-.03,.14-.05,0,0,.03-.03,.04-.03,0,0,.02,0,.02,.03,0,.08-.18,.28-.38,.28-.14,0-.26-.11-.3-.2,0-.03-.02-.07-.06-.07-.03,0-.07,.03-.11,.06-.18,.14-.4,.21-.59,.21-.27,0-.57-.14-.57-.48,0-.54,.76-.77,1.02-.84,.27-.08,.3-.09,.3-.32,0-.39-.22-.53-.42-.53-.3,0-.35,.21-.36,.28-.03,.14-.06,.3-.24,.3-.12,0-.21-.09-.21-.22,0-.27,.44-.47,.82-.47,.36,0,.73,.16,.74,.61Zm-.35,1.21c.02-.05,.03-.07,.03-.6,0-.09,0-.17-.09-.17-.16,0-.84,.3-.84,.73,0,.12,.08,.33,.39,.33,.15,0,.45-.14,.51-.28Zm4.31,.39s-.11-.01-.11-.07c0-.07,.07-.07,.18-.07,.09,0,.18-.08,.18-.2,0-.1-.12-.41-.17-.53-.1-.25-.11-.28-.26-.28h-.98c-.17,0-.18,.04-.26,.25-.04,.12-.16,.48-.16,.59,0,.18,.14,.18,.25,.18,.05,0,.1,0,.1,.07,0,.07-.07,.07-.1,.07h-.87s-.09,0-.09-.07c0-.08,.05-.08,.15-.08,.12,0,.23-.03,.34-.18,.1-.14,.44-1.2,.54-1.52,.06-.18,.35-1.06,.41-1.27,.04-.16,.07-.26,.39-.26,.05,0,.08,.03,.1,.07,.04,.07,.12,.3,.15,.41,.32,.98,.34,1.09,.63,1.92,.26,.77,.29,.83,.55,.83,.06,0,.1,.03,.1,.08,0,.07-.07,.07-.1,.07h-.97Zm-.21-1.3s.11-.02,.11-.07c0-.09-.43-1.35-.51-1.59-.03-.08-.04-.12-.07-.12-.03,0-.03,.01-.08,.16-.13,.37-.48,1.51-.48,1.55,0,.07,.07,.07,.13,.07h.9Zm3.2,1.3s-.08-.01-.09-.06c0-.06-.01-.09-.04-.09s-.13,.1-.15,.11c-.17,.11-.34,.12-.44,.12-.65,0-.88-.61-.88-1.15,0-.86,.56-1.14,.94-1.14,.05,0,.13,0,.24,.04,.04,.01,.23,.13,.27,.13,.05,0,.06-.07,.06-.11,0-.05,0-.34,0-.4,0-.2,0-.53-.28-.53-.02,0-.12,.01-.13,.01-.02,0-.05-.01-.05-.04,0-.04,.02-.05,.21-.1,.06-.02,.5-.16,.53-.16,0,0,.02,0,.04,.02,.01,.02,.01,.3,.01,.35,0,.33,0,1.97,0,2.34,0,.24,0,.51,.26,.52,.08,0,.16,0,.16,.08,0,.01-.01,.06-.07,.06h-.57Zm-.11-.5c.02-.1,.02-.57,.02-.86,0-.25,0-.36-.1-.49-.07-.09-.18-.18-.36-.18-.35,0-.67,.37-.67,1,0,.47,.19,.92,.6,.92,.15,0,.46-.08,.51-.39Zm3.58,.5c-.08,0-.09-.05-.09-.07,0-.07,.05-.07,.12-.07,.23,0,.23-.13,.23-.74s0-.68-.05-.83c-.04-.16-.16-.3-.36-.3-.25,0-.55,.23-.61,.38-.03,.07-.03,.72-.03,.84,0,.44,0,.49,.05,.55,.04,.07,.1,.09,.18,.1,.13,0,.17,0,.17,.07,0,.07-.06,.07-.1,.07h-.91s-.11,0-.11-.07c0-.03,.01-.05,.04-.06,.02-.01,.16,0,.19-.01,.18-.04,.18-.13,.18-.76s0-.71-.06-.87c-.04-.11-.15-.24-.34-.24-.19,0-.4,.13-.5,.23-.11,.11-.12,.12-.12,.89,0,.63,0,.75,.23,.76,.07,0,.14,0,.14,.07s-.06,.07-.1,.07h-.85s-.09,0-.09-.07,.06-.07,.14-.07c.11,0,.18-.08,.2-.13,.03-.09,.03-.75,.03-.9,0-.13,0-.62-.03-.69-.01-.04-.07-.11-.17-.11-.02,0-.11,.01-.14,.01,0,0-.05,0-.05-.03,0-.04,.01-.04,.22-.1,.1-.03,.39-.1,.42-.11,.05,0,.05,.02,.05,.13,0,.12,0,.15,.05,.15,.02,0,.11-.07,.14-.09,.11-.08,.31-.19,.56-.19,.37,0,.46,.2,.51,.29,0,.02,.03,.06,.06,.06,.02,0,.03,0,.1-.07,.14-.12,.36-.28,.68-.28s.46,.14,.51,.35c.05,.19,.05,.27,.05,1.03,0,.54,0,.69,.25,.69,.03,0,.1,0,.1,.08,0,.04-.04,.07-.09,.07h-.85Zm1.15,0s-.1,0-.1-.07c0-.07,.05-.07,.14-.08,.06,0,.14-.03,.18-.13,.04-.08,.04-.73,.04-.9,0-.13,0-.65-.03-.71-.02-.05-.07-.08-.13-.08-.02,0-.14,.01-.14,.01-.02,0-.04,0-.04-.04s.02-.04,.23-.1c.06-.02,.34-.12,.37-.12,.05,0,.05,.04,.05,.09,0,.2,0,1.22,0,1.45,0,.33,0,.52,.21,.53,.09,0,.14,0,.14,.08,0,.07-.08,.07-.11,.07h-.8Zm.14-3.11c0-.14,.12-.26,.26-.26,.14,0,.26,.11,.26,.26s-.12,.26-.26,.26-.26-.12-.26-.26Zm2.25,3.11c-.08,0-.08-.06-.08-.07,0-.06,.06-.07,.08-.07,.12-.01,.16-.02,.22-.09,.05-.07,.05-.15,.05-.87,0-.43,0-.59-.09-.74-.1-.15-.24-.17-.3-.17-.14,0-.33,.08-.46,.2-.14,.14-.14,.21-.14,.73,0,.12,0,.67,.01,.75,.03,.14,.1,.19,.22,.2,.05,0,.12,0,.12,.07,0,0,0,.07-.09,.07h-.84c-.09,0-.09-.06-.09-.07,0-.08,.05-.08,.12-.08,.11,0,.18-.07,.2-.14,.04-.1,.04-.7,.04-.86,0-.73,0-.84-.2-.84-.02,0-.11,.02-.13,.02s-.04,0-.04-.04,.02-.04,.18-.08c.07-.02,.45-.13,.46-.13,.04,0,.04,.02,.04,.2,0,.06,0,.1,.03,.1s.16-.12,.18-.14c.18-.12,.34-.16,.5-.16,.32,0,.46,.18,.51,.3,.06,.18,.06,.25,.06,.95,0,.14,0,.6,.03,.68,0,.03,.05,.13,.2,.14,.07,0,.13,0,.13,.08,0,.07-.05,.07-.09,.07h-.84Zm1.13,0s-.1,0-.1-.07c0-.07,.05-.07,.14-.08,.06,0,.14-.03,.18-.13,.04-.08,.04-.73,.04-.9,0-.13,0-.65-.03-.71-.02-.05-.07-.08-.13-.08-.02,0-.14,.01-.14,.01-.02,0-.04,0-.04-.04s.02-.04,.23-.1c.06-.02,.34-.12,.37-.12,.05,0,.05,.04,.05,.09,0,.2,0,1.22,0,1.45,0,.33,0,.52,.21,.53,.09,0,.14,0,.14,.08,0,.07-.08,.07-.11,.07h-.8Zm.14-3.11c0-.14,.12-.26,.26-.26,.14,0,.26,.11,.26,.26s-.12,.26-.26,.26-.26-.12-.26-.26Zm1.96,.98s.05,.02,.09,.02c.06,0,.1-.03,.13-.06,.03-.03,.04-.05,.06-.05,.03,0,.04,.02,.05,.06,.04,.1,.24,.59,.24,.64,0,.02,0,.04-.04,.04-.05,0-.05-.02-.16-.18-.05-.09-.38-.45-.67-.45-.17,0-.39,.12-.39,.37,0,.18,.12,.29,.58,.45,.52,.18,.79,.35,.79,.71,0,.3-.21,.65-.69,.65-.12,0-.17-.01-.37-.07-.03,0-.06-.01-.09-.01-.06,0-.11,.02-.14,.03-.09,.04-.14,.06-.16,.06-.04,0-.05-.04-.08-.09-.04-.1-.22-.55-.22-.61,0-.03,0-.08,.05-.08,.05,0,.09,.05,.16,.18,.2,.34,.62,.48,.83,.48,.22,0,.39-.19,.39-.41,0-.21-.13-.31-.65-.49-.47-.17-.71-.32-.71-.67s.25-.6,.59-.6c.15,0,.22,.02,.39,.09Zm.96,.14s-.12,0-.12-.07c0-.06,.02-.06,.15-.08,.07,0,.45-.1,.45-.68,0-.04,0-.1,.06-.1,.07,0,.07,.07,.07,.09v.58s.01,.11,.11,.11h.48s.13,0,.13,.07c0,.03-.03,.07-.12,.07h-.48s-.08,0-.1,.06c-.02,.05-.02,.55-.02,.64,0,.14,0,.86,.01,.92,.06,.25,.27,.25,.31,.25,.09,0,.2-.04,.3-.11,.03-.02,.13-.12,.16-.12,.02,0,.03,.02,.03,.04,0,.08-.28,.39-.66,.39-.47,0-.47-.36-.47-.81,0-.01,0-.99,0-1.14,0-.02,0-.11-.11-.11h-.18Zm1.59,1.98s-.12,0-.12-.07,.04-.07,.17-.07c.05,0,.15,0,.21-.1,.04-.06,.05-.12,.05-.75,0-.14,0-.8-.03-.88-.01-.05-.07-.09-.14-.09-.03,0-.18,.04-.22,.04-.03,0-.04-.02-.04-.05,0-.04,.02-.04,.22-.1,.06-.02,.47-.15,.5-.15,.01,0,.02,0,.02,.01v.2c0,.24,0,.27,.05,.27,.02,0,.03,0,.09-.09,.04-.05,.31-.39,.64-.39,.17,0,.27,.1,.27,.26s-.12,.24-.23,.24c-.09,0-.14-.05-.18-.09-.03-.03-.07-.08-.13-.08-.11,0-.3,.14-.38,.29-.11,.19-.13,.3-.13,.96,0,.41,.01,.49,.33,.49,.04,0,.09,.01,.09,.07,0,.07-.08,.07-.12,.07h-.93Zm3.51-1.6c0,.15,0,.89,0,1.05,0,.21,0,.4,.18,.4,.05,0,.12-.03,.14-.05,0,0,.03-.03,.04-.03,0,0,.02,0,.02,.03,0,.08-.18,.28-.38,.28-.14,0-.26-.11-.3-.2,0-.03-.02-.07-.06-.07-.03,0-.07,.03-.11,.06-.18,.14-.4,.21-.59,.21-.27,0-.57-.14-.57-.48,0-.54,.76-.77,1.02-.84,.27-.08,.3-.09,.3-.32,0-.39-.22-.53-.42-.53-.3,0-.35,.21-.36,.28-.03,.14-.06,.3-.24,.3-.12,0-.21-.09-.21-.22,0-.27,.44-.47,.82-.47,.36,0,.73,.16,.74,.61Zm-.35,1.21c.02-.05,.03-.07,.03-.6,0-.09,0-.17-.09-.17-.16,0-.84,.3-.84,.73,0,.12,.08,.33,.39,.33,.15,0,.45-.14,.51-.28Zm.93-1.59s-.12,0-.12-.07c0-.06,.02-.06,.15-.08,.07,0,.45-.1,.45-.68,0-.04,0-.1,.06-.1,.07,0,.07,.07,.07,.09v.58s.01,.11,.11,.11h.48s.13,0,.13,.07c0,.03-.03,.07-.12,.07h-.48s-.08,0-.1,.06c-.02,.05-.02,.55-.02,.64,0,.14,0,.86,.01,.92,.06,.25,.27,.25,.31,.25,.09,0,.2-.04,.3-.11,.03-.02,.13-.12,.16-.12,.02,0,.03,.02,.03,.04,0,.08-.28,.39-.66,.39-.47,0-.47-.36-.47-.81,0-.01,0-.99,0-1.14,0-.02,0-.11-.11-.11h-.18Zm1.54,1.98s-.1,0-.1-.07c0-.07,.05-.07,.14-.08,.06,0,.14-.03,.18-.13,.04-.08,.04-.73,.04-.9,0-.13,0-.65-.03-.71-.02-.05-.07-.08-.13-.08-.02,0-.14,.01-.14,.01-.02,0-.04,0-.04-.04s.02-.04,.23-.1c.06-.02,.34-.12,.37-.12,.04,0,.04,.04,.04,.09,0,.2,0,1.22,0,1.45,0,.33,0,.52,.21,.53,.09,0,.14,0,.14,.08,0,.07-.08,.07-.11,.07h-.8Zm.14-3.11c0-.14,.12-.26,.26-.26,.14,0,.26,.11,.26,.26s-.12,.26-.26,.26-.26-.12-.26-.26Zm3.1,.98s.11,0,.11,.07c0,.07-.06,.07-.11,.08-.05,0-.18,.05-.3,.33-.07,.17-.4,1.03-.47,1.22-.19,.49-.21,.52-.27,.52-.05,0-.1-.09-.11-.12-.09-.2-.25-.55-.37-.82-.45-1.02-.49-1.1-.64-1.13-.08-.01-.12-.02-.12-.08,0-.07,.07-.07,.12-.07h.73s.11,0,.11,.07-.07,.07-.11,.07c-.14,0-.16,.1-.16,.14s.01,.06,.02,.08c.04,.09,.45,.99,.53,1.18,.04,.09,.06,.14,.09,.14,.02,0,.04-.04,.05-.05,.01-.03,.32-.79,.35-.87,.13-.33,.14-.37,.14-.43,0-.18-.12-.18-.22-.18-.04,0-.1,0-.1-.07s.07-.07,.11-.07h.62Zm.81,.95c-.06,0-.14,0-.14,.14,0,.55,.37,.93,.75,.93,.21,0,.41-.12,.55-.25,.03-.02,.13-.18,.17-.18,.02,0,.05,.02,.05,.06,0,.1-.32,.56-.91,.56-.63,0-.99-.5-.99-1.15,0-.75,.46-1.14,.96-1.14,.7,0,.9,.74,.9,.93,0,.08-.04,.1-.14,.1h-1.19Zm.83-.15c.1,0,.15-.02,.15-.13,0-.17-.16-.63-.54-.63-.42,0-.55,.56-.55,.66s.08,.1,.12,.1h.82Zm2.07,1.16c-.03-.08-.23-.59-.23-.62,0-.07,.06-.09,.1-.09,.05,0,.06,.02,.17,.19,.2,.31,.6,.62,1.06,.62,.3,0,.67-.2,.67-.68,0-.41-.27-.55-.84-.75-.63-.22-1.04-.46-1.04-.99,0-.47,.32-.87,.9-.87,.09,0,.2,.01,.32,.04,.05,0,.24,.05,.27,.05,.04,0,.07,0,.1-.03,.06-.05,.07-.06,.1-.06,.05,0,.07,.04,.11,.16,.03,.07,.24,.6,.24,.63,0,.06-.05,.07-.08,.07-.04,0-.04-.01-.12-.13-.12-.19-.37-.58-.92-.58-.51,0-.61,.41-.61,.59,0,.37,.27,.51,.86,.72,.91,.32,1.03,.68,1.03,1.02,0,.61-.48,.97-.98,.97-.16,0-.32-.03-.49-.09-.12-.04-.15-.04-.18-.04-.07,0-.13,.02-.17,.06-.08,.07-.09,.08-.13,.08-.06,0-.07-.03-.15-.25Zm3.27,.25c-.42,0-.94-.27-.94-1.1,0-.69,.39-1.2,1.04-1.2,.36,0,.7,.18,.7,.43,0,.15-.12,.23-.24,.23-.18,0-.2-.16-.21-.27-.03-.27-.28-.27-.31-.27-.32,0-.6,.41-.6,1.01s.31,.98,.69,.98c.22,0,.46-.12,.6-.31,.04-.05,.06-.08,.09-.08,.02,0,.04,.01,.04,.05,0,.07-.31,.52-.87,.52Zm1.26-.09s-.12,0-.12-.07,.05-.07,.17-.07c.05,0,.15,0,.21-.1,.04-.06,.05-.12,.05-.75,0-.14,0-.8-.03-.88-.01-.05-.07-.09-.14-.09-.03,0-.18,.04-.22,.04-.03,0-.05-.02-.05-.05,0-.04,.02-.04,.22-.1,.06-.02,.47-.15,.5-.15,.01,0,.02,0,.02,.01v.2c0,.24,0,.27,.05,.27,.02,0,.03,0,.09-.09,.04-.05,.31-.39,.64-.39,.17,0,.27,.1,.27,.26s-.12,.24-.23,.24c-.09,0-.14-.05-.18-.09-.03-.03-.07-.08-.13-.08-.11,0-.3,.14-.38,.29-.11,.19-.13,.3-.13,.96,0,.41,.01,.49,.33,.49,.04,0,.09,.01,.09,.07,0,.07-.08,.07-.12,.07h-.93Zm1.87,0s-.1,0-.1-.07c0-.07,.05-.07,.14-.08,.06,0,.14-.03,.18-.13,.04-.08,.04-.73,.04-.9,0-.13,0-.65-.03-.71-.02-.05-.07-.08-.13-.08-.02,0-.14,.01-.14,.01-.02,0-.04,0-.04-.04s.02-.04,.23-.1c.06-.02,.34-.12,.37-.12,.04,0,.04,.04,.04,.09,0,.2,0,1.22,0,1.45,0,.33,0,.52,.21,.53,.09,0,.14,0,.14,.08,0,.07-.08,.07-.11,.07h-.8Zm.14-3.11c0-.14,.12-.26,.26-.26,.14,0,.26,.11,.26,.26s-.12,.26-.26,.26-.26-.12-.26-.26Zm3.1,.98s.11,0,.11,.07c0,.07-.06,.07-.11,.08-.05,0-.18,.05-.3,.33-.07,.17-.4,1.03-.47,1.22-.19,.49-.21,.52-.27,.52-.05,0-.1-.09-.11-.12-.09-.2-.25-.55-.37-.82-.45-1.02-.49-1.1-.64-1.13-.08-.01-.12-.02-.12-.08,0-.07,.07-.07,.12-.07h.73s.11,0,.11,.07-.07,.07-.11,.07c-.14,0-.16,.1-.16,.14s.01,.06,.02,.08c.04,.09,.45,.99,.53,1.18,.04,.09,.06,.14,.09,.14,.02,0,.05-.04,.05-.05,.01-.03,.32-.79,.35-.87,.13-.33,.14-.37,.14-.43,0-.18-.12-.18-.22-.18-.04,0-.1,0-.1-.07s.07-.07,.11-.07h.62Zm.81,.95c-.06,0-.14,0-.14,.14,0,.55,.37,.93,.75,.93,.21,0,.41-.12,.55-.25,.03-.02,.13-.18,.17-.18,.02,0,.05,.02,.05,.06,0,.1-.32,.56-.91,.56-.63,0-.99-.5-.99-1.15,0-.75,.46-1.14,.96-1.14,.7,0,.9,.74,.9,.93,0,.08-.04,.1-.14,.1h-1.19Zm.83-.15c.1,0,.15-.02,.15-.13,0-.17-.16-.63-.54-.63-.42,0-.55,.56-.55,.66s.08,.1,.12,.1h.82Zm2.11,1.33c-.08,0-.08-.06-.08-.07,0-.06,.06-.07,.08-.07,.12-.01,.16-.02,.22-.09,.05-.07,.05-.15,.05-.87,0-.43,0-.59-.09-.74-.1-.15-.24-.17-.3-.17-.14,0-.33,.08-.46,.2-.14,.14-.14,.21-.14,.73,0,.12,0,.67,.01,.75,.03,.14,.1,.19,.22,.2,.05,0,.12,0,.12,.07,0,0,0,.07-.09,.07h-.84c-.09,0-.09-.06-.09-.07,0-.08,.05-.08,.12-.08,.11,0,.18-.07,.2-.14,.04-.1,.04-.7,.04-.86,0-.73,0-.84-.2-.84-.02,0-.11,.02-.13,.02s-.04,0-.04-.04,.02-.04,.18-.08c.07-.02,.45-.13,.46-.13,.04,0,.04,.02,.04,.2,0,.06,0,.1,.03,.1s.16-.12,.18-.14c.18-.12,.34-.16,.5-.16,.32,0,.46,.18,.51,.3,.06,.18,.06,.25,.06,.95,0,.14,0,.6,.03,.68,0,.03,.05,.13,.2,.14,.07,0,.13,0,.13,.08,0,.07-.05,.07-.09,.07h-.84Zm1.67-1.18c-.06,0-.14,0-.14,.14,0,.55,.37,.93,.75,.93,.21,0,.41-.12,.55-.25,.03-.02,.13-.18,.17-.18,.02,0,.05,.02,.05,.06,0,.1-.32,.56-.91,.56-.63,0-.99-.5-.99-1.15,0-.75,.46-1.14,.96-1.14,.7,0,.9,.74,.9,.93,0,.08-.04,.1-.14,.1h-1.19Zm.83-.15c.1,0,.15-.02,.15-.13,0-.17-.16-.63-.54-.63-.42,0-.55,.56-.55,.66s.08,.1,.12,.1h.82Zm.86,1.33s-.12,0-.12-.07,.04-.07,.17-.07c.05,0,.15,0,.21-.1,.04-.06,.05-.12,.05-.75,0-.14,0-.8-.03-.88-.01-.05-.07-.09-.14-.09-.03,0-.18,.04-.22,.04-.03,0-.04-.02-.04-.05,0-.04,.02-.04,.22-.1,.06-.02,.47-.15,.5-.15,.01,0,.02,0,.02,.01v.2c0,.24,0,.27,.04,.27,.02,0,.03,0,.09-.09,.04-.05,.31-.39,.64-.39,.17,0,.27,.1,.27,.26s-.12,.24-.23,.24c-.09,0-.14-.05-.18-.09-.03-.03-.07-.08-.13-.08-.11,0-.3,.14-.38,.29-.11,.19-.13,.3-.13,.96,0,.41,.01,.49,.33,.49,.04,0,.09,.01,.09,.07,0,.07-.08,.07-.12,.07h-.93Zm5.68-3.32s.29,.71,.29,.76-.05,.08-.09,.08-.05-.01-.14-.14c-.38-.54-.78-.6-.97-.6-.71,0-1.07,.87-1.07,1.65,0,1.05,.61,1.46,1.15,1.46,.32,0,.68-.14,.97-.64,.1-.18,.1-.18,.14-.18s.07,.03,.07,.07-.11,.28-.26,.46c-.38,.47-.86,.5-1.06,.5-.95,0-1.42-.77-1.42-1.65,0-1.05,.65-1.8,1.42-1.8,.11,0,.24,.02,.38,.05,.03,.01,.24,.07,.27,.07,.04,0,.09-.01,.12-.04,.07-.07,.08-.08,.12-.08,.03,0,.06,.03,.08,.05Zm1.57,1.1c.58,0,1,.5,1,1.15s-.42,1.15-1,1.15-1-.5-1-1.15,.41-1.15,1-1.15Zm0,2.18c.38,0,.61-.49,.61-1.03s-.24-1.03-.61-1.03c-.34,0-.61,.42-.61,1.03,0,.53,.23,1.03,.61,1.03Zm1.29,.04s-.12,0-.12-.07,.04-.07,.17-.07c.05,0,.15,0,.21-.1,.04-.06,.05-.12,.05-.75,0-.14,0-.8-.03-.88-.01-.05-.07-.09-.14-.09-.03,0-.18,.04-.22,.04-.03,0-.04-.02-.04-.05,0-.04,.02-.04,.22-.1,.06-.02,.47-.15,.5-.15,.01,0,.02,0,.02,.01v.2c0,.24,0,.27,.04,.27,.02,0,.03,0,.09-.09,.04-.05,.31-.39,.64-.39,.17,0,.27,.1,.27,.26s-.12,.24-.23,.24c-.09,0-.14-.05-.18-.09-.03-.03-.07-.08-.13-.08-.11,0-.3,.14-.38,.29-.11,.19-.13,.3-.13,.96,0,.41,.01,.49,.33,.49,.04,0,.09,.01,.09,.07,0,.07-.08,.07-.12,.07h-.93Zm1.96,.74s-.12,0-.12-.07c0-.07,.09-.07,.16-.08,.11,0,.19-.05,.22-.19,.01-.09,.01-1.56,.01-1.83,0-.4,0-.52-.16-.52-.03,0-.16,.03-.19,.03-.02,0-.04-.02-.04-.04,0-.03,.02-.04,.1-.07,.05-.01,.56-.18,.57-.18,.03,0,.03,.04,.03,.13,0,.07,0,.1,.04,.1,0,0,.14-.08,.16-.09,.09-.05,.27-.14,.47-.14,.47,0,.9,.41,.9,1.11,0,.59-.34,1.19-.9,1.19-.2,0-.37-.06-.44-.09-.03-.01-.14-.07-.17-.07-.06,0-.06,.01-.06,.37,0,.08,0,.28,.23,.29,.13,0,.18,0,.18,.08s-.09,.07-.13,.07h-.87Zm.7-2.59c-.11,.11-.12,.18-.12,.84s.02,.68,.11,.77c.14,.13,.36,.14,.43,.14,.51,0,.65-.55,.65-.95,0-.53-.23-.96-.64-.96-.14,0-.32,.07-.43,.17Zm1.67,1.64c0-.16,.13-.3,.29-.3s.3,.13,.3,.3-.14,.3-.3,.3-.29-.13-.29-.3Z"/>
    <path class="cls-1" d="M16.19,8.09c0-2.21-1.7-4.04-3.86-4.23-.19-2.16-2.02-3.87-4.23-3.87S4.06,1.7,3.87,3.87c-2.16,.19-3.87,2.02-3.87,4.23s1.7,4.04,3.87,4.23c.19,2.16,2.02,3.86,4.23,3.86s4.04-1.7,4.23-3.86c2.16-.19,3.86-2.02,3.86-4.23Zm-8.46-.53c-1.16-.39-2-1.5-2-2.77,0-1.61,1.31-2.92,2.92-2.92,1.27,0,2.38,.84,2.77,2-1.92,.24-3.45,1.77-3.69,3.69Zm-3.85-2.79c.24,1.92,1.77,3.45,3.69,3.69-.39,1.16-1.5,2-2.77,2-1.61,0-2.92-1.31-2.92-2.92,0-1.27,.84-2.38,2-2.77Zm4.58,3.85c1.16,.39,2,1.5,2,2.77,0,1.61-1.31,2.92-2.92,2.92-1.27,0-2.38-.84-2.77-2,1.92-.24,3.45-1.77,3.69-3.69Zm3.85,2.79c-.24-1.92-1.77-3.45-3.69-3.69,.39-1.16,1.5-2,2.77-2,1.61,0,2.92,1.31,2.92,2.92,0,1.27-.84,2.38-2,2.77Z"/>
  </g>
</svg>