<?xml version="1.0" encoding="UTF-8"?>
<svg id="_レイヤー_2" data-name="レイヤー 2" xmlns="http://www.w3.org/2000/svg" viewBox="0 0 112.2 12.96">
  <defs>
    <style>
      .cls-1 {
        fill: #003e75;
      }

      .cls-2 {
        fill: #b8193f;
      }

      .cls-3 {
        fill: #231815;
      }
    </style>
  </defs>
  <g id="_レイヤー_1-2" data-name="レイヤー 1">
    <g>
      <rect class="cls-1" width="5.73" height="5.73"/>
      <rect class="cls-1" x="7.23" width="5.73" height="5.73"/>
      <rect class="cls-1" y="7.23" width="5.73" height="5.73"/>
      <g>
        <polygon class="cls-2" points="7.24 12.95 11.88 12.95 7.24 8.31 7.24 12.95"/>
        <polygon class="cls-2" points="12.95 7.24 8.31 7.24 12.95 11.88 12.95 7.24"/>
      </g>
    </g>
    <path class="cls-3" d="M22.3,5.17c-.15,.37-.26,.54-.37,.7l-.65-.44s.04-.04,.05-.06h-.54v.39c.13,.28,.48,.81,.86,1.15l-.45,.62c-.17-.25-.3-.49-.41-.76v2.58h-.7v-2.55c-.21,.66-.39,1-.64,1.37l-.28-.96c.41-.55,.67-1.18,.86-1.83h-.74v-.71h.81v-1.07h.7v1.07h.67v.51c.28-.48,.41-1.02,.49-1.41l.73,.09c-.04,.17-.07,.31-.15,.61h.39v-.86h.72v.86h1.27v.72h-1.27v.73h1.38v.73h-1.15c.39,.71,.78,1.1,1.26,1.48l-.34,.83c-.17-.14-.64-.54-1.14-1.55v1.96h-.72v-1.95c-.29,.55-.62,1-1.28,1.52l-.45-.7c.53-.35,1.06-.82,1.51-1.59h-1.24v-.73h1.46v-.73h-.62Zm3.07,3.23c.36-.03,.7-.06,1.23-.12v-1.64h-1.1v-.73h2.92v.73h-1.05v1.53c.52-.07,.92-.14,1.25-.2v.73c-.85,.18-2.02,.34-3.14,.47l-.1-.78Zm5.06-3.89h.71v.73h-1.78c.09,2.1,.63,3.16,.91,3.16,.22,0,.37-.53,.45-.88l.51,.61c-.06,.27-.29,1.22-.89,1.22-.32,0-1.6-.28-1.76-4.12h-3.18v-.73h3.15c0-.17-.02-.79-.02-.92h.79c0,.1,0,.53,.01,.92h.87c-.22-.23-.44-.41-.69-.57l.55-.4c.31,.17,.57,.37,.81,.64l-.45,.32Zm2.37,1.07c-.49,.29-.8,.43-.99,.51l-.38-.75c1.49-.58,2.22-1.26,2.55-1.75h.87c.33,.42,.93,1.1,2.53,1.75l-.39,.75c-.2-.09-.5-.21-.97-.52v.35h-3.22v-.34Zm3.55,3.84c-.07-.12-.11-.21-.25-.44-.79,.09-1.79,.21-4.26,.26l-.1-.77c.08,0,.73,0,.88,0,.18-.34,.39-.84,.53-1.27h-1.47v-.72h5.45v.72h-3.11c-.23,.55-.39,.89-.58,1.26,.2,0,1.22-.02,2.22-.1-.13-.18-.29-.39-.62-.76l.65-.35c.7,.69,1.22,1.55,1.35,1.76l-.7,.4Zm-.81-4.18c-.66-.49-.97-.85-1.13-1.04-.29,.41-.73,.77-1.1,1.04h2.23Zm3.72,4.13h-.77v-2.22c-.31,.28-.52,.42-.7,.55l-.25-.84c.69-.42,1.32-1.1,1.57-1.64h-1.48v-.72h.86v-.91h.77v.91h.68v.72c-.21,.44-.37,.7-.56,.96,.39,.45,.66,.6,.85,.71l-.37,.72c-.18-.17-.39-.36-.59-.63v2.4Zm1.97-5.78h.78v1.64h1.26v.78h-1.26v2.4h1.38v.77h-3.64v-.77h1.48v-2.4h-1.2v-.78h1.2v-1.64Zm5.59,6.29v-.99c1.75-.27,2.92-.9,3.66-1.86-1.07-.28-2.15-.46-3.15-.57v-.86c-.41,.44-.91,.82-1.47,1.06v-1.1c.71-.43,1.34-1.29,1.67-2.23h5.12v.1c-.13,3.34-1.47,6-5.82,6.45Zm1.41-5.57c-.21,.41-.48,.81-.81,1.19,1.17,.14,2.4,.33,3.58,.64,.24-.54,.39-1.15,.48-1.83h-3.25Zm5.79,2.79c-.1-.79-.35-1.97-.61-2.82h1c.25,.78,.48,1.9,.64,2.82h-1.03Zm.68,2.84v-.97c2.63-.54,3.46-2.05,3.49-4.61v-.12h1.07v.12c-.05,3.4-1.6,5.1-4.55,5.57Zm1.34-2.92c-.11-.81-.35-1.95-.58-2.81h.99c.25,.78,.45,1.82,.61,2.81h-1.03Zm4.98,2.85v-.98c2.64-.31,4.14-1.82,4.45-4.5h-3.14c-.45,1.11-1.34,2.07-2.44,2.49v-1.09c.75-.48,1.37-1.29,1.64-2.39h5.11v.16c-.13,3.94-2.17,6.04-5.61,6.31Zm10.24-2.39c-1.11,1.24-2.56,2.03-3.91,2.37v-1.04c1.81-.53,3.72-2.07,4.36-4.37h-3.99v-1h5.3c-.14,1.2-.52,2.23-1.06,3.09,.47,1.1,1.3,1.8,2.05,2.27v1.14c-1.22-.49-2.17-1.4-2.76-2.44Zm4.88-.99c0,.37-.3,.65-.65,.65s-.65-.29-.65-.65,.29-.65,.65-.65,.65,.28,.65,.65Zm1.12,.78V3.25h1.1V7.25h-1.1Zm.78,2.57v-1.01c2.46-.12,3.91-.68,3.91-3.1V3.25h1.11v2.46c0,2.87-1.6,4.01-5.01,4.12Zm8.97-2.26c-.51,1.27-1.54,1.98-2.78,2.31v-1.01c1.35-.52,2.1-1.48,2.1-3.36v-.45h1.03v.5c0,.33-.02,.64-.06,.92,1.14-.3,1.77-1.05,1.97-2.13h-5.28v-1h6.49v.2c-.08,2.6-1.71,3.71-3.46,4.01Zm4.18,2.43v-1.21c.53-.54,1.05-1.27,1.05-3.43V3.27h1.04v2.01c0,2.9-.91,4-2.09,4.72Zm3.01-.15V3.26h1.04v5.25c1.2-.38,1.75-1.66,1.87-3.21h1.04c-.15,2.73-1.4,4.32-3.95,4.55Zm9.15-3.49c-.28,2.2-1.81,3.24-3.77,3.5v-1.01c1.54-.25,2.43-1.16,2.6-2.49h-3.32v-.97h6.84v.97h-2.35Zm-3.99-2.03v-.98h5.87v.98h-5.87Zm11.01,1.97v3.74h-1.04v-3.14c-.85,.39-1.82,.67-2.85,.84v-.95c2.67-.55,3.99-1.59,4.57-2.77h1.15c-.36,.96-1,1.71-1.83,2.29Z"/>
  </g>
</svg>