<?xml version="1.0" encoding="UTF-8"?>
<svg id="_レイヤー_2" data-name="レイヤー 2" xmlns="http://www.w3.org/2000/svg" viewBox="0 0 112.29 17.16">
  <defs>
    <style>
      .cls-1 {
        fill: #6a6969;
      }

      .cls-2 {
        fill: #b97727;
      }
    </style>
  </defs>
  <g id="_レイヤー_1-2" data-name="レイヤー 1">
    <path class="cls-2" d="M26.01,4.9c-.1,0-.12,.04-.27,.23h0c-.06,.1-.11,.1-.19,.1h-1.43c-.15,0-.16-.07-.16-.2,0-.8,0-.87,.03-.99,0-.01,.04-.05,.06-.08,.08-.09,.11-.13,.11-.17,0-.22-.8-.32-.81-.32-.11,0-.13,.06-.13,.1,0,.04,.02,.14,.04,.25v.04c.02,.21,.03,.9,.03,1.14,0,.16,0,.23-.18,.23h-1.27c-.17,0-.25-.03-.39-.1l-.06-.03c-.42-.22-.47-.25-.55-.25-.04,0-.08,.02-.08,.11,0,0,0,.04,0,.09,0,.07,.02,.16,.02,.18,.03,.39,.05,.89,.05,1.39,0,.62,0,1.03-.02,1.21,0,.06-.03,.33-.03,.38,0,.08,0,.26,.26,.26s.48-.25,.51-.48c.02-.17,.03-.22,.17-.22h1.38c.16,0,.18,.04,.18,.21,0,.26-.02,1.34-.02,1.61,0,.05,0,.17-.02,.29,0,.12-.01,.23-.01,.28,0,.3,.17,.36,.31,.36,.46,0,.46-.5,.46-.66,0-.15,0-.58,0-.99,0-.39,0-.77,0-.9,0-.2,.07-.2,.19-.2h1.38c.17,0,.17,.08,.17,.15,0,.19,0,.43,.27,.43,.02,0,.24,0,.42-.22,.09-.11,.09-.21,.09-.35v-.04c0-.09,0-.34-.01-.58,0-.22-.01-.44-.01-.51,0-.75,0-.84,.05-.94,0,0,.04-.04,.06-.06,.1-.1,.14-.15,.14-.19,0-.15-.59-.55-.71-.55Zm-.24,.84c0,.18-.02,1.56-.04,1.64-.01,.06-.05,.07-.15,.07h-1.46c-.1,0-.14-.02-.15-.1-.01-.06-.02-.67-.02-1.61,0-.13,.01-.21,.17-.21h1.48c.11,0,.17,.03,.17,.2Zm-2.67,1.71h-1.39c-.16,0-.18-.04-.18-.24,0-.12,0-.43,0-.73,0-.28,0-.55,0-.64,0-.28,0-.31,.17-.31h1.43c.18,0,.18,0,.18,.62,0,1.08-.03,1.21-.04,1.23-.02,.05-.08,.06-.15,.06Zm6.66-.98c-.42,.57-.94,1.27-1.64,1.81-.22,.17-.37,.27-.46,.27-.08,0-.09-.05-.09-.07t.24-.33c.1-.13,.2-.26,.23-.3,.15-.21,.91-1.27,1.22-2.08l.03-.07c.09-.23,.1-.26,.17-.26,.11,0,.72,.32,.76,.34,.12,.07,.17,.18,.12,.27-.03,.08-.09,.08-.21,.1h-.02c-.09,.02-.15,.07-.35,.32Zm4.85,1.47c0,.46-.21,.52-.33,.52-.21,0-.23-.04-.58-.67-.4-.72-.93-1.45-1.27-1.78-.1-.1-.16-.18-.16-.23,0-.01,0-.09,.1-.09,.24,0,2.24,1.21,2.24,2.25Zm-2.74-4.04c0,.08-.04,.12-.15,.21l-.02,.02s-.08,.09-.09,.27c-.02,.41-.03,.86-.03,1.38,0,2.75,0,3.47,0,3.6,0,.21,0,.61-.38,.89-.22,.16-.46,.22-.58,.22-.08,0-.08-.01-.17-.27-.08-.22-.14-.26-.48-.45h-.02c-.11-.07-.17-.11-.17-.17,0-.09,.1-.09,.14-.09,.05,0,.17,0,.3,.02,.12,0,.23,.02,.27,.02,.23,0,.34-.06,.38-.2,.03-.11,.05-1.04,.05-2.46,0-1.3-.03-2.26-.04-2.84v-.1s-.01-.08-.02-.14c0-.08-.02-.12-.02-.15,0-.07,.05-.11,.14-.11,.05,0,.19,.03,.33,.06h.06c.19,.05,.48,.11,.48,.3Zm10.87,2.52s-.02,.06-.24,.15c-.04,.02-.06,.03-.08,.04-.25,.15-.32,.23-.4,.35-.03,.04-.08,.08-.15,.08-.17,0-1.69-.81-2.76-2.69-.03-.05-.07-.11-.11-.11-.04,0-.06,0-.22,.24h0c-1.13,1.63-3.16,2.79-3.4,2.79-.05,0-.09-.04-.09-.09,0-.06,.33-.28,.33-.28,1.65-1.23,2.72-2.96,2.76-3.24,.02-.12,.04-.21,.15-.21,.06,0,.09,.02,.31,.1,.07,.03,.17,.07,.3,.12,.15,.06,.25,.13,.25,.24,0,.03-.01,.06-.04,.12-.01,.03-.03,.07-.03,.08,.02,.1,.61,.8,1.17,1.23,.74,.57,1.41,.81,2.02,.97,.21,.04,.21,.07,.21,.11Zm-.36,3.47c0,.16-.19,.16-.47,.16h-4.94c-.17,0-.7,0-.96,.02-.02,0-.05,0-.08,0-.04,0-.07,0-.09,0-.05,0-.09-.04-.11-.07l-.15-.17s-.04-.05-.04-.09c0-.03,.02-.07,.09-.07,.06,0,.3,.02,.35,.03,.17,0,.73,.02,.81,.02,.16,0,.17,0,.17-.8,0-.19,0-1.03-.02-1.2,0-.02-.02-.07-.03-.12-.03-.12-.05-.2-.05-.24,0-.03,.01-.14,.15-.14,0,0,.86,.11,.86,.35,0,.1-.06,.15-.15,.22h-.02s-.07,.08-.08,.13c0,.03-.02,.2-.02,1.09,0,.56,.02,.64,.02,.65,.03,.06,.13,.06,.18,.06h.77c.09,0,.14-.03,.15-.1,.01-.09,.04-1.83,.04-2.05,0-.91-.02-1.08-.07-1.24,0,0-.02-.03-.03-.07-.07-.13-.09-.18-.09-.21,0-.03,.01-.11,.16-.11,.06,0,.47,.07,.84,.18,.08,.02,.17,.07,.17,.18,0,.13-.12,.21-.18,.25-.11,.07-.11,.09-.11,.65,0,.38,0,.43,.01,.47,.02,.05,.13,.05,.17,.05h.46c.32,0,.35,0,.43-.14,.14-.24,.18-.31,.29-.31,.14,0,.67,.47,.67,.6,0,.16-.09,.16-.46,.16h-1.38c-.16,0-.19,.05-.19,.21,0,.06,0,.24,0,.4,0,.16,0,.31,0,.36,0,.18,0,.62,.01,.67,.03,.05,.09,.05,.17,.05h1.21c.32,0,.33,0,.38-.04,.02-.02,.06-.06,.1-.11,.19-.21,.28-.31,.35-.31,.11,0,.72,.48,.72,.61Zm7.82-.2h-.03c-.68-.09-1.68-.34-2.58-1.01l-.07-.05c-.18-.13-.19-.14-.19-.18,.01-.01,.09-.01,.14-.01h2.24c.27,0,.46,0,.46-.16s-.62-.56-.72-.56c-.07,0-.17,.1-.31,.25-.05,.05-.11,.13-.13,.13-.05,.02-.19,.02-.36,.02h-1.56c-.13,0-.13-.04-.13-.14,0-.36,0-.36,.14-.36h1.68c.26,0,.44,0,.44-.18,0-.16-.49-.55-.65-.55-.11,0-.14,.04-.35,.29l-.02,.03c-.09,.1-.1,.1-.44,.1h-.64c-.15,0-.16-.04-.16-.25,0-.31,0-.34,.18-.34h2.14c.36,0,.45,0,.45-.16s-.57-.56-.64-.56-.15,.08-.3,.27c-.03,.04-.07,.08-.08,.09-.04,.04-.06,.04-.38,.04h-.69c-.05,0-.08,0-.09-.01,0-.07,.3-.35,.48-.46,.1-.05,.17-.09,.17-.18,0-.11-.04-.13-.29-.27l-.04-.02s-.07-.04-.09-.05h1.76c.28,0,.47,0,.47-.16,0-.13-.62-.55-.72-.55-.06,0-.14,.08-.28,.24-.04,.04-.08,.09-.1,.1-.06,.05-.12,.06-.41,.06h-.38s-.01,0-.02,0c.1-.09,.46-.33,.62-.43,.03-.03,.26-.17,.3-.19,0,0,0,0,0,0l.04-.02c.12-.05,.17-.06,.17-.15,0-.19-.6-.51-.64-.51-.08,0-.09,.03-.18,.25-.13,.31-.66,1.03-.76,1.05-.01,0-.02,0-.02-.06,0-.14,0-.23,0-.32,0-.15,0-.27,0-.55,0-.12,0-.15,.07-.24l.03-.04c.05-.07,.07-.09,.07-.14,0-.1-.1-.17-.16-.19-.44-.13-.49-.14-.55-.14-.06,0-.13,.04-.13,.16,0,.02,.01,.14,.02,.18,0,.14,.02,.52,.02,.72,0,.6,0,.6-.17,.6h-.28c-.17,0-.18,0-.18-.97,0-.16,.01-.21,.05-.25,0,0,.09-.09,.09-.16,0-.24-.69-.27-.69-.27-.07,0-.13,.02-.13,.15,0,.06,.02,.21,.04,.37,0,.04,.01,.08,.01,.1,0,.21,.02,.75,.02,.89,0,.1-.02,.15-.11,.15h-.23s-.03,0-.03,0c0-.02,0-.03,.03-.08,.05-.11,.06-.17,.06-.22,0-.54-.86-.78-1.08-.78-.08,0-.13,.06-.13,.11,0,.01,0,.03,.02,.04,.07,.07,.27,.27,.31,.31,.11,.16,.3,.5,.3,.59,0,.02,0,.03,0,.03-.01,0-.06,0-.1,0-.33,0-.64-.01-.87-.02-.07,0-.13,0-.19,0-.03,0-.1,0-.16-.01-.07,0-.15-.01-.17-.01-.06,0-.08,.04-.08,.07,0,.04,0,.05,.04,.09l.15,.17s.05,.07,.11,.07c.02,0,.05,0,.09,0,.03,0,.06,0,.08,0,.14-.01,.65-.02,.96-.02h.19c.12,0,.21,0,.35,.24,.11,.18,.31,.66,.31,.76,0,0-.02,0-.03,0h-.28c-.39,0-.77-.01-.99-.02h-.06s-.1-.01-.17-.02c-.07,0-.14-.01-.16-.01-.04,0-.08,.03-.08,.08,0,.03,0,.04,.04,.08l.15,.18s.06,.07,.11,.07c.01,0,.05,0,.09,0,.03,0,.06,0,.08,0,.27-.02,.8-.02,.97-.02h.93c.13,0,.14,.08,.14,.27,0,.29,0,.32-.17,.32h-.48c-.39,0-.94-.02-1.05-.02-.02,0-.1,0-.17-.02-.07,0-.14-.01-.16-.01-.05,0-.09,.03-.09,.08,0,.03,0,.04,.04,.08l.16,.19h.01s.05,.06,.09,.06c.01,0,.06,0,.11-.01,.04,0,.08-.01,.1-.01,.17-.02,.64-.02,.92-.02h.55c.14,0,.14,.05,.14,.12,0,.37,0,.37-.11,.37h-1.5c-.31,0-.81-.01-1.06-.02-.03,0-.09,0-.16-.02-.07,0-.14-.02-.17-.02-.04,0-.08,.03-.08,.08,0,.03,0,.04,.04,.08l.15,.18s.06,.07,.11,.07c.02,0,.07,0,.12-.01,.04,0,.07,0,.09,0,.2-.02,.67-.02,.92-.02h1.01c.07,0,.07,0,.08,.02-.03,.15-1.19,1.18-2.51,1.76,0,0-.02,0-.03,.02-.11,.06-.15,.08-.15,.13,0,.06,.06,.09,.11,.09,.12,0,1.46-.3,2.98-1.42,.1-.08,.15-.1,.15-.11,0,0,0,.01,0,.05,0,.2,0,.44,0,.64,0,0-.05,.69-.05,.71,0,.22,.13,.25,.22,.25,.14,0,.29-.06,.39-.17,.09-.1,.09-.18,.09-.46,0-.08,0-.31,0-.53,0-.21,0-.41,0-.48,0-.03,0-.11,0-.18,0-.06,0-.11,0-.13,0-.02,0-.03,.01-.04,.01,0,.06,.06,.13,.15l.05,.06c.38,.47,.97,1.07,2.13,1.55h.04c.18,.09,.31,.13,.36,.13,.07,0,.13-.13,.15-.18,.06-.13,.2-.3,.38-.35h.01c.12-.03,.19-.05,.19-.14,0-.09-.06-.1-.23-.12Zm-4.09-3.32l.02-.04c.03-.07,.04-.1,.04-.17,0-.23-.16-.45-.5-.69-.02,0-.06-.04-.09-.06h1.74c.11,0,.11,0,.11,.04,0,0,0,.27-.14,.68-.08,.25-.12,.28-.3,.28h-.85s-.02,0-.03,0c0,0,0-.01,0-.02Zm7.67-2.73c-.05-.1-.05-.16,0-.2,.04-.03,.1,0,.15,.01,.26,.11,1.02,.72,1.02,1.26,0,.29-.21,.46-.41,.46-.21,0-.26-.15-.35-.49v-.02c-.1-.35-.25-.72-.41-1.02Zm3.48,3.85c0,.08-.09,.14-.16,.19,0,0-.01,0-.01,0-.09,.06-.12,.07-.15,.25-.01,.06-.04,.25-.07,.42-.02,.15-.05,.28-.06,.34-.21,1.21-.61,1.83-1.19,1.83-.25,0-.28-.11-.3-.26-.02-.26-.32-.4-.59-.52-.08-.03-.12-.08-.12-.13,0-.05,.04-.11,.12-.11,.03,0,.06,.01,.11,.03h.04c.4,.11,.54,.15,.74,.15,.27,0,.32-.17,.46-.71,.11-.44,.24-1.25,.24-1.31,0-.09-.03-.1-.18-.1h-1.37c-.14,0-.16,.02-.18,.11-.12,.39-.33,1.12-1.01,1.77-.89,.86-2.02,.98-2.03,.98-.14,0-.16-.08-.16-.11,0-.09,.07-.11,.23-.17l.06-.02c1.76-.63,2.25-2.31,2.25-2.48,0-.06-.03-.09-.17-.09h-.58c-.21,0-.6,0-.9,.02-.02,0-.07,0-.13,.01-.05,0-.09,.01-.1,.01-.06,0-.09-.04-.11-.07l-.15-.18s-.05-.05-.05-.09c0,0,0-.07,.09-.07,.05,0,.29,.02,.35,.03h.05c.22,0,.6,.02,.99,.02h.61c.18,0,.18-.04,.18-.37,0-.15,0-.3-.02-.44,0-.02,0-.06-.02-.1-.01-.07-.02-.1-.02-.12,0-.15,.14-.15,.19-.15,.1,0,.83,.15,.83,.36,0,.05-.05,.1-.15,.21-.03,.03-.07,.07-.07,.08-.04,.08-.08,.38-.08,.41,0,.1,.06,.11,.18,.11h1.1c.32,0,.38,0,.44-.1,.08-.15,.11-.2,.22-.2,.15,0,.64,.37,.64,.55Zm-1.92-2.18s0-.02,.12-.2l.1-.15c.24-.37,.57-.87,.62-1.2,.01-.12,.02-.2,.11-.2,.07,0,.14,.06,.15,.08h.02c.53,.43,.59,.48,.59,.62,0,.15-.09,.16-.33,.2q-.16,.02-.75,.55h-.01c-.19,.19-.44,.4-.51,.4-.06,0-.1-.05-.1-.09Zm2.64,.73c0,.13-.12,.22-.22,.22-.03,0-.09,0-.17-.02-.05,0-.12-.02-.13-.02-.18,0-.36,.07-.48,.15l-.09,.05c-.2,.11-.21,.11-.24,.11-.05,0-.09-.04-.09-.09,0-.05,.04-.14,.12-.27,.04-.07,.09-.17,.1-.2,0-.03-.02-.04-.12-.04h-4.58c-.13,0-.15,0-.18,.09-.15,.52-.42,.82-.71,.82-.19,0-.28-.16-.28-.31,0-.18,.05-.25,.28-.51,.2-.23,.23-.38,.31-.77,0,0,0-.02,0-.02,.01-.03,.03-.09,.1-.09,.09,0,.11,.04,.25,.38,.03,.08,.08,.09,.19,.09h4.49c.32,0,.33,0,.45-.12,.09-.09,.16-.15,.26-.15,.19,0,.74,.51,.74,.69Zm-6-2.06c-.1-.16-.09-.22-.06-.25,0,0,.01-.01,.02-.02,.02-.01,.04-.02,.06-.02,.22,0,1.14,.68,1.14,1.24,0,.28-.18,.43-.35,.43-.22,0-.26-.11-.37-.47v-.02c-.11-.32-.24-.54-.43-.88Zm13.15,.99c-.06,0-.12,.06-.21,.14l-.03,.03c-.08,.07-.08,.08-.24,.08q-.19,0-.19-.24c0-.11,.02-.79,.04-.9,0-.02,.04-.07,.07-.11,.08-.12,.11-.17,.11-.22,0-.12-.11-.14-.21-.16-.02,0-.08-.01-.14-.03-.32-.06-.42-.08-.44-.08-.11,0-.12,.07-.12,.09,0,.05,.02,.16,.05,.32,.01,.08,.03,.14,.03,.17,.03,.23,.03,.82,.03,.93q0,.19-.26,.19s-.16,0-.27-.02c0,0-.02,0-.03,0,.1-.02,.16-.06,.16-.15,0-.13-.5-.53-.62-.53-.11,0-.14,.04-.31,.23l-.03,.03c-.07,.09-.1,.11-.26,.11s-.18-.04-.18-.21c0-.47,0-.47,.13-.51,.07-.02,.61-.1,.83-.1,.02,0,.07,0,.12,0,.04,0,.08,0,.1,0,.05,0,.11-.04,.11-.1,0-.12-.55-.5-.62-.5-.02,0-.02,0-.42,.15-.24,.09-.52,.19-.61,.22-.4,.12-.75,.19-1.26,.29,.01,0,.02-.02,.04-.03,.12-.09,.17-.14,.17-.19,0-.15-.65-.46-.69-.46-.1,0-.11,.05-.18,.36-.22,.85-.54,1.75-.97,2.67,0,.02-.03,.06-.06,.11-.24,.47-.28,.56-.28,.59,0,.07,.05,.11,.1,.11,.1,0,.24-.2,.59-.76,.07-.11,.14-.23,.19-.29,0,0,0,.02,0,.04v2.46c0,.09-.02,.67-.03,1.1,0,.25-.01,.45-.01,.46,0,.07,0,.24,.24,.24,.19,0,.39-.1,.39-.39,0-.07,0-.25,0-.43,0-.16,0-.32,0-.38v-3.01c0-.28,0-.32,.01-.37,0,0,.02-.04,.04-.06,.05-.07,.06-.11,.06-.14,0-.05-.06-.1-.15-.19-.03-.03-.08-.07-.09-.07,0-.02,.02-.08,.16-.39,.21-.46,.3-.68,.36-.8,.04,.03,.1,.03,.13,.03,.09,0,.4-.02,.66-.04,.14,0,.26-.02,.28-.02,.11,0,.13,0,.13,.3s0,.31-.21,.31c-.13,0-.45-.02-.64-.02-.08,0-.13,0-.14,0-.02,0-.08,0-.14-.01-.06,0-.11-.01-.13-.01-.05,0-.09,.03-.09,.08,0,.03,.02,.05,.05,.08l.15,.18s.05,.07,.11,.07c.01,0,.05,0,.09-.01,.03,0,.06-.01,.08-.01,.12,0,.43-.02,.64-.02,.18,0,.24,0,.24,.17,0,.44-.01,.44-.16,.44h-.31c-.09,0-.12,0-.26-.08-.29-.17-.33-.19-.41-.19-.05,0-.11,.04-.11,.14,0,.05,.02,.22,.03,.25,.01,.15,.02,.56,.02,.73,0,.11,0,.41-.01,.71,0,.28-.01,.55-.01,.64,0,.14,.02,.29,.26,.29,.18,0,.23-.05,.35-.17,.04-.05,.07-.05,.14-.05h.31c.11,0,.16,.04,.16,.14,0,.42,0,.45-.14,.45-.14,0-.58-.02-.74-.02-.04,0-.31-.03-.32-.03-.05,0-.09,.03-.09,.08,0,.02,.01,.04,.02,.06,0,0,0,.01,.02,.03l.16,.18s0,0,.01,.01c.02,.02,.05,.05,.1,.05,0,0,.04,0,.09,0,.05,0,.12-.01,.14-.01,.25-.01,.46-.02,.62-.02,.12,0,.14,.01,.14,.45,0,.13,0,.24-.85,.24-.03,0-.13-.01-.21-.02-.1-.01-.16-.02-.18-.02-.04,0-.11,.02-.11,.12,0,.12,.24,.63,.24,.64,.03,.07,.09,.1,.17,.1,.05,0,.11-.04,.24-.14,.03-.02,.07-.05,.08-.06,.12-.06,.55-.16,1-.26,.77-.18,1.17-.28,1.35-.36-.13,.31-.25,.51-.3,.59-.08,.13-.12,.2-.12,.23,0,.06,.05,.09,.1,.09,.16,0,.66-.64,.91-1.22,.49-1.14,.53-2.21,.59-3.56,0-.25,0-.26,.22-.26,.24,0,.25,.02,.25,.17,0,.99,0,2.24-.08,3.1-.08,1.02-.21,1.02-.48,1.02-.12,0-.25-.01-.31-.04-.02,0-.12-.03-.17-.03-.05,0-.11,.03-.11,.09,0,.04,.03,.08,.23,.27,.06,.06,.11,.12,.13,.14,.02,.02,.07,.1,.11,.15,.02,.03,.04,.06,.05,.07,0,0,0,0,0,.01,.05,.04,.11,.04,.18,.04,.18,0,.68,0,.84-.91,.19-1.08,.21-2.8,.21-3.3,0-.35,0-.62,.01-.64l.04-.05c.07-.09,.08-.12,.08-.17,0-.13-.36-.49-.49-.49Zm-2.9,1.13h.36c.17,0,.17,.03,.17,.31s0,.31-.17,.31h-.36c-.16,0-.17-.03-.17-.31s0-.31,.17-.31Zm0,.93h.38c.14,0,.15,.07,.15,.17,0,.55-.01,.55-.15,.55h-.38c-.14,0-.16-.07-.16-.14q0-.57,.16-.57Zm1.04,2.42s-.06,0-.26,.03c-.25,.03-.62,.07-.69,.07q-.24,0-.24-.43c0-.13,.07-.15,.18-.15h.81c.34,0,.41,0,.41-.13,0-.1-.36-.55-.5-.55-.07,0-.16,.09-.32,.28-.02,.03-.04,.05-.05,.06-.03,.03-.06,.03-.17,.03h-.21c-.15,0-.16-.08-.16-.17,0-.4,.01-.41,.16-.41h.39s.09,0,.11,.03c.04,.09,.08,.15,.22,.15,.4,0,.4-.35,.4-.61v-1.44s.03-.05,.05-.08c.05-.08,.08-.12,.08-.15,0-.12-.37-.38-.47-.38-.04,0-.09,.03-.22,.14l-.02,.02c-.06,.04-.12,.04-.16,.04h-.36c-.1,0-.16-.02-.16-.14,0-.47,0-.47,.18-.47h.77s-.02,.03-.02,.05c0,.02,.01,.04,.03,.06v.02s.02,0,.02,0l.15,.17s.05,.08,.12,.08c.01,0,.08,0,.15,0,.09,0,.2-.01,.23-.01q.19,0,.19,.28c0,1.07-.11,2.14-.31,2.87-.08,.3-.16,.55-.25,.77-.01,0-.03-.01-.06-.01Zm-1.9-1.7h-.31c-.07,0-.16,0-.16-.16,0-.56,0-.56,.16-.56h.31c.07,0,.16,0,.16,.17,0,.55,0,.55-.16,.55Zm0-1.03h-.32c-.16,0-.16-.1-.16-.14,0-.48,0-.48,.16-.48h.32c.09,0,.16,0,.16,.17,0,.44-.01,.44-.16,.44Zm12.3-.31s-.02,.06-.24,.15c-.04,.02-.07,.03-.08,.04-.25,.15-.32,.23-.4,.35-.03,.04-.08,.08-.15,.08-.17,0-1.69-.81-2.76-2.69-.03-.05-.08-.11-.11-.11-.04,0-.06,0-.22,.24h0c-1.13,1.63-3.16,2.79-3.4,2.79-.05,0-.09-.04-.09-.09,0-.06,.33-.28,.33-.28,1.65-1.23,2.72-2.96,2.75-3.24,.02-.14,.05-.21,.15-.21,.06,0,.09,.02,.31,.1,.07,.03,.17,.07,.3,.12,.15,.06,.25,.13,.25,.24,0,.03-.01,.06-.04,.12-.01,.03-.03,.07-.03,.08,.02,.1,.61,.8,1.17,1.23,.74,.57,1.41,.81,2.02,.97,.21,.04,.21,.07,.21,.11Zm-.36,3.47c0,.16-.19,.16-.47,.16h-4.94c-.17,0-.7,0-.96,.02-.02,0-.05,0-.08,0-.04,0-.07,0-.09,0-.05,0-.09-.04-.11-.07l-.15-.17s-.04-.05-.04-.09c0-.03,.03-.07,.09-.07s.3,.02,.35,.03c.17,0,.73,.02,.81,.02,.16,0,.18,0,.18-.8,0-.21,0-1.03-.02-1.2,0-.02-.02-.07-.03-.12-.03-.12-.05-.2-.05-.24,0-.03,.01-.14,.15-.14,0,0,.86,.11,.86,.35,0,.1-.06,.15-.15,.22h-.02s-.07,.08-.08,.13c0,.03-.02,.2-.02,1.09,0,.56,.02,.64,.02,.65,.03,.06,.13,.06,.18,.06h.77c.09,0,.14-.03,.15-.1,.01-.09,.04-1.82,.04-2.05,0-.91-.02-1.08-.07-1.24,0,0-.02-.04-.03-.07-.07-.13-.09-.18-.09-.21,0-.03,.01-.11,.16-.11,.07,0,.47,.06,.84,.18,.08,.02,.17,.07,.17,.18,0,.13-.12,.21-.18,.25-.11,.07-.11,.09-.11,.65,0,.38,0,.43,.01,.47,.02,.05,.13,.05,.17,.05h.46c.32,0,.35,0,.43-.14,.14-.24,.18-.31,.29-.31,.14,0,.67,.47,.67,.6,0,.16-.09,.16-.46,.16h-1.38c-.17,0-.19,.05-.19,.21,0,.06,0,.24,0,.4,0,.16,0,.31,0,.36,0,.18,0,.61,.01,.67,.03,.05,.09,.05,.17,.05h1.21c.31,0,.33,0,.38-.04,.02-.02,.06-.06,.1-.11,.19-.21,.28-.31,.35-.31,.11,0,.72,.48,.72,.61Zm1.55-5.7l.15,.18s.08,.07,.11,.07c.01,0,.05,0,.08-.01,.03,0,.07-.01,.09-.01,.13-.02,.31-.02,.63-.02h1.22c.07,0,.12,.02,.13,.04,0,.01,.03,.11,.03,.78,0,.24-.01,.29-.18,.29h-.52c-.14,0-.25-.04-.35-.08-.34-.15-.38-.17-.44-.17-.03,0-.1,.01-.1,.12,0,.04,.02,.23,.02,.27,.02,.31,.03,.88,.03,1.28,0,.52,0,.87-.02,1.17-.02,.37-.03,.49-.03,.63,0,.27,.11,.3,.22,.3,.06,0,.35-.01,.44-.29,.04-.11,.04-.13,.23-.13h2.09c.16,0,.17,.05,.18,.11,0,.07,.02,.2,.24,.2,.25,0,.4-.16,.4-.42,0-.09,0-.36-.01-.64,0-.3-.02-.61-.02-.73v-1.02s0-.14,.03-.17c.12-.14,.15-.19,.15-.23,0-.1-.39-.41-.52-.41-.03,0-.07,.02-.17,.1-.03,.02-.05,.04-.07,.05-.05,.03-.09,.05-.19,.05h-.61q-.19,0-.19-.74c0-.35,0-.37,.17-.37h2.03c.27,0,.46,0,.46-.16,0-.14-.67-.62-.81-.62-.09,0-.18,.08-.27,.25-.13,.22-.2,.22-.49,.22h-2.72c-.36,0-.67,0-1.05-.02-.03,0-.09,0-.16-.02-.07,0-.14-.02-.17-.02-.06,0-.09,.04-.09,.08,0,.02,.01,.04,.03,.06,0,0,0,.01,.02,.02Zm1.73,2.95h.54c.17,0,.18,.03,.18,.48,0,.68,0,.68-.18,.68h-.54c-.17,0-.18-.02-.18-.46q0-.7,.18-.7Zm.55-.31h-.58q-.16,0-.16-.66c0-.32,.01-.34,.16-.34h.58c.16,0,.17,0,.17,.57,0,.41,0,.44-.17,.44Zm1.57,0h-.63c-.16,0-.17,0-.17-.55,0-.45,.01-.45,.17-.45h.63c.16,0,.17,0,.17,.55,0,.45-.01,.45-.17,.45Zm-.63,.31h.62c.15,0,.16,.03,.16,.44,0,.73-.01,.73-.17,.73h-.61q-.17,0-.17-.67c0-.38,0-.42,.05-.46,.04-.04,.08-.04,.12-.04Zm2.85-1.73c.06,.04,.08,.09,.08,.14,0,.04-.03,.08-.1,.15-.02,.02-.06,.07-.07,.08-.04,.2-.04,1.36-.04,3.47,0,.05,0,.19,.01,.35,0,.17,.02,.34,.02,.4,0,.35-.23,.52-.45,.52-.25,0-.25-.23-.25-.4,0-.25-.03-.28-.15-.28h-4.71c-.14,0-.16,.03-.16,.14,0,.23-.02,.53-.44,.53-.13,0-.28-.05-.28-.31,0-.02,0-.07,0-.12,0-.05,0-.09,0-.11,.02-.41,.02-1.23,.02-3.2,0-.23,0-.51-.02-.87v-.07c-.03-.18-.05-.38-.05-.44,0-.05,0-.16,.11-.16,0,0,.76,.1,.76,.35,0,.07-.02,.09-.14,.21-.01,.01-.02,.05-.02,.18,0,.08,0,.32-.01,.56,0,.25-.01,.51-.01,.6,0,.41,0,2.2,.03,2.3,.01,.08,.06,.09,.18,.09h4.75c.08,0,.12-.01,.15-.09,.01-.08,.02-1.44,.02-2.75,0-.12-.02-.88-.02-.94,0-.03-.02-.13-.03-.2-.02-.11-.03-.18-.03-.21,0-.09,.06-.16,.14-.16,.06,0,.7,.23,.7,.24Zm7.15-1.76c-.07,0-.11,.05-.2,.15l-.03,.04c-.08,.1-.12,.1-.22,.1h-1.24c-.09,0-.12,0-.21-.05h-.02c-.25-.13-.31-.16-.41-.16-.1,0-.14,.11-.14,.18s0,.25,.02,.42c0,.16,.02,.33,.02,.39v1.37c0,.2,.08,.3,.25,.3,.07,0,.37-.05,.4-.3,.01-.14,.02-.15,.2-.15h1.08c.17,0,.2,0,.2,.15,0,.26,0,.98,0,1.68,0,.66,0,1.3,0,1.52,0,.49-.04,.49-.32,.49-.08,0-.22,0-.31,0-.1,0-.12,.05-.12,.08t.09,.11c.08,.07,.28,.24,.3,.29,.1,.18,.13,.24,.23,.24,.09,0,.29-.07,.43-.15,.27-.15,.32-.46,.32-.96,0-.2,0-.63,0-1.13,0-1.04,0-2.34,0-2.7,0-.4,.01-1.02,.03-1.08,.02-.05,.03-.06,.17-.17,.01-.01,.05-.05,.05-.12,0-.26-.43-.55-.57-.55Zm-1.8,1.48s0-.05,.17-.05h1.17q.17,0,.17,.34t-.17,.24h-1.17c-.17,0-.18,0-.18-.11,0-.25,0-.38,0-.41Zm1.34-.37h-1.18q-.17,0-.17-.24,0-.26,.17-.26h1.18c.11,0,.15,0,.16,.03,.01,.04,.01,.29,.01,.38,0,.07-.02,.08-.17,.08Zm-.08,3.26c0-.14-.42-.54-.56-.54-.1,0-.13,.04-.3,.27v.02c-.08,.1-.13,.1-.2,.1h-.27s-.07-.01-.07-.12v-.63c0-.15,.03-.15,.23-.15h.34c.27,0,.46,0,.46-.16s-.41-.51-.54-.51c-.1,0-.14,.04-.29,.25-.07,.09-.12,.1-.45,.1h-.97c-.33,0-.64-.01-.86-.02-.08,0-.14,0-.2,0-.03,0-.1,0-.17-.01-.07,0-.15-.01-.17-.01-.06,0-.08,.04-.08,.07,0,.03,0,.05,.04,.09l.15,.18s.06,.06,.11,.06c.03,0,.12,0,.22-.01,.11,0,.23-.02,.27-.02,.14,0,.14,.05,.14,.14v.64c0,.09-.02,.11-.11,.11-.08,0-.33-.01-.56-.03-.23-.01-.45-.03-.52-.03s-.09,.05-.09,.07c0,.04,0,.05,.04,.09l.15,.17s.06,.07,.11,.07c.01,0,.05,0,.09,0,.03,0,.06,0,.08,0,.23-.02,.57-.02,.68-.02,.08,0,.1,.02,.1,.09,0,.52-.32,1.29-.71,1.71l-.02,.02c-.1,.11-.11,.12-.11,.15,0,.06,.06,.1,.11,.1,.06,0,.36-.16,.68-.53,.46-.55,.55-1,.6-1.41,.01-.13,.03-.13,.21-.13h.27c.15,0,.19,0,.19,.15,0,.12-.02,.47-.03,.81-.02,.33-.03,.63-.03,.74,0,.16,0,.31,.22,.31,.17,0,.42-.14,.42-.44v-1.41c0-.15,.03-.16,.19-.16h.74c.27,0,.46,0,.46-.16Zm-1.97-.22c0,.05-.02,.06-.19,.06h-.25c-.19,0-.19,0-.19-.13v-.64q0-.13,.19-.13h.25q.19,0,.19,.17v.68Zm-1.31-1.8c.04,.21,.07,.37,.28,.37,.19,0,.39-.12,.39-.44,0-.1,0-.36-.01-.61,0-.23-.01-.46-.01-.54,0-.1,0-.28,.06-.34,.13-.13,.15-.16,.15-.23,0-.16-.36-.54-.52-.54-.1,0-.19,.11-.24,.18l-.02,.02c-.06,.07-.09,.07-.17,.07h-1.19c-.1,0-.15,0-.26-.07h-.01c-.08-.05-.25-.15-.39-.15-.09,0-.09,.1-.09,.13,0,.03,.04,.66,.05,.73v.03c0,.19,.02,.5,.02,1.38,0,1.77,0,1.92-.07,3.88,0,.06,0,.16-.01,.23,0,.04,0,.06,0,.07,0,.22,.09,.32,.28,.32,.39,0,.39-.43,.39-.57,0-.52,0-1.2,0-1.88,0-.68,0-1.36,0-1.88,0-.23,0-.24,.21-.24h.99c.14,0,.18,.01,.19,.08Zm-.11-1.22h-1.11q-.16,0-.16-.21,0-.3,.16-.3h1.11q.16,0,.16,.21,0,.3-.16,.3Zm-1.14,.31h1.14q.14,0,.14,.3,0,.23-.14,.23h-1.14q-.14,0-.14-.28,0-.24,.14-.24Zm13.6,1.52c-.6-.15-1.75-.78-1.8-.9,.05-.11,.95-.51,1.17-.51,.26,0,.32,0,.37-.11,.02-.05,0-.11-.04-.19-.13-.2-.52-.54-.62-.54-.09,0-.14,.08-.19,.18-.17,.31-.83,.97-.94,.98-.11,0-.53-.51-.58-.63,.07-.13,1.01-.62,1.18-.67h.02c.16-.05,.26-.08,.26-.18,0-.17-.59-.57-.72-.57-.1,0-.12,.03-.2,.22v.03c-.21,.42-.61,.9-.69,.91-.03,0-.11-.07-.33-.46v-.02s-.06-.09-.09-.17c-.16-.33-.18-.35-.22-.35-.02,0-.08,0-.08,.09,0,.05,.25,1.11,.86,1.91,.13,.17,.27,.33,.4,.48-.07-.05-.13-.08-.18-.08-.09,0-.12,.04-.25,.24-.1,.16-.19,.16-.29,.16h-1.2c-.29,0-.81-.02-1.11-.03h-.03s-.05,0-.07,0c.08-.09,.31-.33,.38-.41,.41-.46,.6-.82,.96-1.46l.06-.12c.06-.12,.1-.15,.24-.23,.07-.03,.16-.09,.16-.21,0-.18-.55-.51-.63-.51s-.11,.03-.23,.2l-.02,.03c-.06,.09-.12,.14-.31,.13h-.28c-.26-.02-.5-.02-.7-.02-.14,0-.26,0-.36,0-.03,0-.1,0-.18-.01-.07,0-.14-.01-.16-.01-.08,0-.09,.05-.09,.07,0,.03,.01,.05,.05,.08l.14,.17s.05,.08,.12,.08c0,0,.05,0,.1-.01,.05,0,.11-.01,.13-.01,.31-.02,.68-.02,.9-.02h.33c.12,0,.14,.01,.14,.06,0,.17-.38,.94-.51,1.1-.02-.04-.04-.11-.04-.15,0-.03-.01-.05-.02-.07-.19-.38-.84-.55-1.03-.55-.09,0-.1,.05-.1,.09,0,.01,0,.02,.01,.03,.03,.03,.07,.09,.12,.15,.04,.05,.07,.09,.1,.12,.23,.3,.57,.78,.58,.86,0,.17-.63,.76-1.09,1.13-.03,.03-.13,.1-.22,.17q-.26,.19-.26,.23s0,.09,.1,.09c.07,0,.35-.1,.91-.45,.03-.02,.08-.05,.14-.1,.11-.08,.34-.25,.37-.26,.02,0,.03,0,.03,.01,0,0,0,0,0,0l.1,.12s.05,.07,.11,.07c.03,0,.12,0,.22-.01,.11,0,.23-.02,.26-.02,.09,0,.1,.01,.1,.28,0,.82-.02,.82-.2,.82h-.25c-.33,0-.64-.01-.86-.02-.07,0-.13,0-.19,0-.03,0-.1,0-.18-.01-.07,0-.14-.01-.16-.01-.08,0-.09,.05-.09,.07,0,.03,.01,.04,.04,.07l.16,.19s.05,.07,.11,.07c0,0,.05,0,.1-.01,.05,0,.11-.01,.13-.01,.31-.02,.69-.02,.9-.02h.25c.1,0,.14,0,.14,.1,0,0-.11,.9-.78,1.46-.29,.24-.59,.45-.86,.58-.15,.07-.18,.08-.18,.14,0,.05,.05,.09,.12,.09,.04,0,.74-.17,1.24-.48,.82-.51,.96-1.22,1.07-1.74v-.02c.03-.12,.06-.12,.2-.12h.73c.14,0,.16,.06,.16,.21,0,.02,0,.13,0,.27,0,.23-.02,.53-.02,.62,0,1.01,.44,1.12,1.37,1.12,.36,0,1.03,0,1.29-.12,.29-.12,.39-.35,.39-.47,0-.12-.05-.17-.2-.33l-.04-.04c-.05-.06-.09-.32-.09-.37v-.03c-.02-.1-.03-.16-.11-.16-.07,0-.08,.03-.16,.36-.12,.46-.15,.56-.86,.56-.23,0-.78,0-.88-.19-.08-.15-.08-.56-.08-.96,0-.46,0-.46,.19-.46h1.44c.35,0,.43,0,.43-.15s-.52-.59-.65-.59c-.07,0-.16,.09-.32,.29-.03,.04-.07,.08-.08,.09-.06,.05-.08,.05-.42,.05h-.41c-.16,0-.17-.01-.17-.36,0-.49,0-.69,.01-.72,0-.03,.04-.03,.32-.03,.17,0,.36,0,.36-.18,0-.03-.02-.06-.04-.1,.53,.46,1.01,.72,1.11,.72,.04,0,.1-.04,.22-.12,.03-.02,.04-.03,.05-.04,.36-.18,.52-.21,.54-.21,.13,0,.14-.07,.14-.1,0-.07-.06-.08-.17-.11Zm-3.16,.83c0,.42-.01,.42-.16,.42h-.7c-.16,0-.16-.06-.16-.13,0-.06,0-.22,.01-.38,0-.18,.02-.36,.02-.43,0-.1,.01-.17,.17-.17h.64c.12,0,.15,.03,.17,.08,0,.02,0,.19,0,.61Zm10.69,.51c0,.08-.03,.11-.18,.23-.04,.04-.05,.1-.08,.58v.11c-.03,.24-.11,1.05-.32,1.31-.17,.22-.44,.28-.57,.28-.1,0-.12-.04-.19-.21v-.03c-.07-.15-.19-.23-.23-.26-.05-.04-.08-.07-.08-.11,0-.04,.03-.08,.09-.08,.04,0,.13,0,.23,.01,.08,0,.17,.01,.2,.01,.15,0,.17-.03,.23-.38,.08-.47,.12-1.09,.12-1.25,0-.15-.06-.15-.2-.15h-.17q-.18,0-.21,.3c-.08,.84-.4,1.49-.96,1.93-.18,.14-.33,.2-.4,.2-.05,0-.09-.04-.09-.08,0-.05,.04-.1,.19-.24,.01-.01,.02-.02,.03-.03,.43-.51,.68-1.26,.68-2.01,0-.04,0-.07-.1-.07-.02,0-.1,0-.17,.01-.06,0-.11,0-.13,0-.05,0-.08-.04-.11-.07l-.04-.05s-.06,.07-.12,.12c-.02,.01-.04,.03-.04,.03-.02,.05-.06,.65-.09,1.01-.01,.18-.02,.32-.03,.39v.02c-.04,.26-.12,.95-.8,.95-.19,0-.21-.04-.3-.27-.05-.12-.1-.16-.18-.23h-.01s-.07-.07-.07-.12c0-.02,0-.08,.09-.08,.02,0,.05,0,.16,.03,.1,.02,.26,.06,.3,.06,.15,0,.22-.19,.25-.35,.06-.33,.12-.99,.12-1.31,0-.16-.07-.17-.18-.17h-.22c-.16,0-.17,0-.22,.45-.14,1.12-.95,1.98-1.31,1.98-.07,0-.1-.04-.1-.09,0-.01,0-.03,.02-.04,.02-.02,.24-.27,.27-.31,.38-.5,.63-1.35,.63-1.83,0-.13-.08-.15-.17-.15-.03,0-.13,0-.21,.02-.08,0-.15,.01-.17,.01-.06,0-.09-.04-.11-.07l-.15-.18s-.05-.05-.05-.08c0-.04,.04-.08,.09-.08,.05,0,.19,0,.34,.02,.13,0,.26,.02,.31,.02,.1,0,.17-.01,.17-.18,0-.06,0-.4-.02-.45,0-.02,0-.05-.02-.08-.01-.05-.02-.07-.02-.09,0-.11,.11-.11,.16-.11,0,0,.68,0,.68,.2,0,.04-.04,.09-.12,.19-.02,.03-.05,.06-.06,.08-.02,.05-.04,.28-.04,.32,0,.11,.06,.13,.18,.13h.15s.08,0,.12-.03c0,0,.03-.03,.05-.06,.09-.1,.14-.15,.19-.15,.06,0,.26,.12,.41,.24,0-.02,.02-.05,.08-.05,.01,0,.08,0,.15,0,.12,0,.27,.02,.32,.02,.16,0,.19-.06,.19-.17,0-.09,0-.22-.03-.31,0,0-.01-.03-.02-.06-.03-.08-.04-.12-.04-.15,0-.03,0-.06,.03-.08-.03-.03-.06-.08-.11-.18-.07-.13-.26-.36-.34-.45-.07-.07-.09-.09-.09-.12,0-.02,0-.08,.09-.08,0,0,.03,0,.08,.01,.13,.03,.47,.09,.54,.09q.17,0,.27-.69c.02-.09,.05-.34,.05-.48s-.06-.16-.17-.16h-.47c-.24,0-.25,.03-.41,.43-.25,.64-.64,.99-.92,1.17-.34,.22-.65,.28-.77,.28-.06,0-.09-.04-.09-.09,0-.04,0-.05,.23-.18,.05-.03,.1-.06,.12-.08,.64-.46,.93-1.22,.93-1.39,0-.11-.08-.14-.11-.14-.16,0-.6,0-.75,.02-.02,0-.05,0-.08,0-.05,0-.07-.03-.11-.06l-.15-.18s-.04-.05-.04-.09c0-.03,.03-.07,.08-.07,.02,0,.09,0,.15,.01,.05,0,.1,.01,.12,.01,.13,0,.72,.02,.85,.02q.17,0,.17-.5c0-.1,0-.32-.01-.41-.01-.03-.02-.09-.02-.11,0-.05,.04-.09,.09-.09,0,0,.76,.16,.76,.37,0,.04-.03,.08-.09,.14-.02,.02-.05,.06-.05,.07,0,.04-.06,.39-.06,.42,0,.08,.05,.12,.18,.12h.36c.07,0,.17,0,.25-.1,.09-.1,.15-.16,.21-.16,.04,0,.62,.27,.62,.42,0,.07-.03,.1-.15,.2l-.04,.03s-.09,.46-.14,.75c-.04,.29-.08,.56-.12,.67-.1,.27-.35,.44-.56,.53,0,0,.01,0,.02,0,.12,.03,.27,.06,.36,.08,.09,.03,.13,.07,.13,.13,0,.04-.04,.08-.12,.17-.02,.02-.05,.05-.05,.06-.02,.04-.03,.08-.03,.19,0,.12,.02,.18,.2,.18h.18c.05,0,.09,0,.15-.05,.12-.11,.15-.14,.2-.14,.04,0,.59,.3,.59,.43Zm-5.32,1.91c0,.11,.01,.22,.01,.26,0,.24-.31,.39-.53,.39-.15,0-.21-.1-.21-.19v-.05c.04-.22,.11-1.35,.11-4.13,0-.27,0-.3-.21-.3-.04,0-.18,.01-.3,.02-.12,0-.23,.02-.26,.02-.06,0-.09-.03-.11-.07l-.14-.17s-.05-.05-.05-.09c0,0,0-.07,.09-.07,.04,0,.19,0,.36,.02,.18,.01,.38,.03,.45,.03,.17,0,.19-.06,.19-.19,0-.5,0-.83-.04-1.34,0-.01,0-.04-.01-.08-.02-.13-.04-.25-.04-.29,0-.12,.08-.13,.12-.13,0,0,.8,.08,.8,.31,0,.04-.03,.09-.11,.2-.03,.04-.07,.1-.08,.12-.02,.09-.05,.38-.05,1.26,0,.07,0,.15,.18,.15,.1,0,.22-.02,.26-.08l.03-.05c.12-.2,.14-.24,.25-.24,.12,0,.65,.38,.65,.5,0,.16-.19,.16-.47,.16h-.71c-.12,0-.17,.02-.18,.08,0,.04-.01,.51-.01,.7,0,1.09,0,1.54,.03,3.02,0,.03,0,.13,.01,.23Zm12.41,.28c0,.28-.18,.47-.36,.47-.26,0-.43-.31-.57-.57-.14-.26-.2-.26-.27-.26-.33,0-3.27,.58-3.54,.7-.01,0-.04,.02-.07,.04-.09,.06-.14,.08-.17,.08-.04,0-.1-.03-.13-.09-.37-.65-.43-.79-.43-.83,0-.03,.01-.11,.12-.11,.04,0,.17,.02,.3,.05h.05c.1,.02,.31,.04,.44,.04,.42,0,.45,0,.75-.6,.2-.39,.39-.92,.39-.99,0-.06-.01-.08-.18-.08h-.48c-.56,0-.75,0-.96,.02-.01,0-.05,0-.08,0-.04,0-.07,0-.09,0-.05,0-.07-.02-.09-.05h-.01s-.15-.19-.15-.19c0-.01-.02-.02-.02-.03-.02-.02-.03-.04-.03-.06,0-.02,0-.07,.09-.07,.03,0,.11,0,.18,.01,.07,0,.13,.01,.15,.01,.37,.02,.78,.03,1.05,.03h2.53c.32,0,.38,0,.55-.23h0c.11-.17,.16-.23,.25-.23,.08,0,.12,.03,.3,.17,.4,.33,.41,.34,.41,.44,0,.16-.09,.16-.45,.16h-2.34c.15,.13,.29,.28,.29,.36,0,.11-.04,.12-.27,.18-.04,.01-.05,.03-.21,.25l-.03,.03c-.16,.21-.48,.59-.53,.64v.02s-.09,.09-.09,.13c0,0,.04,.02,.08,.02,.09,0,.8-.04,1.67-.13,.32-.03,.54-.05,.57-.08,0-.05-.15-.2-.23-.29-.16-.17-.22-.25-.22-.31s.04-.1,.11-.1c.06,0,.22,.05,.95,.45l.05,.03c.22,.13,.71,.42,.71,.93Zm1.05-3.52c0,.09-.05,.1-.25,.17-.23,.07-.39,.17-.46,.29-.03,.05-.07,.1-.15,.1-.2,0-1.84-1.13-2.72-2.74-.03-.05-.06-.12-.08-.15-.03,.03-.09,.09-.17,.2-1.31,1.64-3.03,2.41-3.4,2.48-.01,0-.06,.02-.1,0-.02-.02-.03-.04-.03-.07,0-.06,.04-.09,.14-.15,.11-.08,.7-.5,1.18-.9,1.34-1.14,1.79-2.05,1.82-2.17v-.05c.06-.19,.08-.26,.21-.26,0,0,.78,.34,.78,.52,0,.06-.03,.09-.1,.13h-.02s-.03,.03-.03,.04c0,.18,1.31,1.89,3.14,2.4,.23,.07,.26,.07,.26,.15Zm-5.64,.14l-.15-.18s-.04-.05-.04-.09,.03-.07,.08-.07c.03,0,.11,0,.18,.01,.07,0,.13,.01,.15,.01,.42,.03,.8,.03,1.05,.03h.76c.35,0,.36,0,.5-.18l.04-.05c.15-.17,.2-.23,.26-.23,.11,0,.64,.53,.64,.63,0,.14-.08,.14-.46,.14h-1.77c-.47,0-.69,0-.97,.02-.02,0-.05,0-.08,0-.04,0-.07,0-.09,0-.05,0-.07-.03-.11-.06Z"/>
    <path class="cls-1" d="M21.6,13.47c-.05,0-.14,0-.14,.13,0,.04,.02,.83,.02,.99,0,1.53-.26,1.94-.53,2.27-.09,.1-.17,.15-.18,.15,0,0,0,0,0-.01,0,0,.09-.13,.1-.16,.31-.64,.31-1.59,.31-2.02,0-.31,0-1.25-.08-1.48,0-.02-.06-.09-.06-.12,0-.01,.02-.03,.04-.03,.06,0,.19,.06,.28,.1,.11,.05,.17,.05,.26,.05h2.33c.17,0,.2,0,.23-.04,.03-.04,.14-.25,.2-.25,.06,0,.37,.28,.37,.36,0,.06-.02,.06-.24,.06h-2.89Zm1.96,1.79c.06,0,.11,0,.14-.03,.02-.02,.1-.12,.13-.12,.04,0,.37,.21,.37,.26,0,.06-.02,.06-.22,.07-.09,0-.35,.15-.48,.23-.01,0-.06,.08-.08,.09-.06,.07-.09,.09-.09,.14,0,.07,.06,.07,.11,.07h.68s.08,0,.11-.03c.03-.03,.15-.21,.18-.21,.03,0,.35,.23,.35,.31,0,.04-.03,.05-.14,.05h-1.18s-.09,0-.09,.05c0,.05,0,.4,0,.47,0,.09-.01,.25-.09,.35-.11,.14-.36,.16-.38,.16-.05,0-.06,0-.07-.06,0-.02-.05-.1-.09-.15-.03-.03-.2-.14-.2-.16,0,0,0-.01,.03-.01,0,0,.11,.01,.13,.02,.05,0,.18,0,.22,0,.09,0,.11,0,.11-.44,0-.22-.02-.23-.11-.23h-.58c-.11,0-.41,0-.57,.01-.01,0-.08,0-.09,0-.02,0-.02,0-.04-.03l-.09-.1s-.02-.02-.02-.03c0,0,0,0,.01,0,.03,0,.17,.01,.2,.01,.13,0,.37,.01,.62,.01h.54c.07,0,.09-.03,.09-.09,0-.04,0-.07,0-.09,0-.02-.04-.1-.04-.13,0-.02,.02-.03,.06-.03,.05,0,.28,.04,.3,.04,.09,0,.29-.21,.29-.25,0-.04-.04-.04-.08-.04h-.73c-.11,0-.41,0-.57,.01-.01,0-.08,0-.09,0s-.02,0-.04-.03l-.09-.1s-.02-.02-.02-.03,0,0,.01,0c.03,0,.17,.01,.2,.01,.13,0,.37,.02,.62,.02h.76Zm-1.1-.38c-.06,0-.07,0-.11,.05-.05,.09-.19,.11-.22,.11-.08,0-.09-.04-.09-.09,0-.09,.01-.46,.01-.54,0-.15,0-.49-.02-.62,0-.02-.04-.1-.04-.12,0-.02,.02-.02,.03-.02,0,0,.21,.08,.23,.09,.05,.02,.09,.04,.2,.04h1.23s.09,0,.14-.05c0-.01,.05-.07,.07-.07s.29,.14,.34,.17c.03,.01,.05,.03,.05,.05,0,.03-.04,.05-.09,.09-.04,.03-.04,.05-.04,.18,0,.11,.02,.59,.02,.69,0,.16-.18,.18-.23,.18-.09,0-.1-.05-.11-.1,0-.05-.05-.05-.1-.05h-1.25Zm0-.98c-.11,0-.11,.03-.11,.17,0,.16,0,.18,.11,.18h1.24c.11,0,.11-.03,.11-.18,0-.16,0-.18-.11-.18h-1.24Zm1.25,.86c.1,0,.1-.03,.1-.21,0-.15,0-.18-.1-.18h-1.24s-.1,0-.1,.09c0,.27,0,.3,.11,.3h1.24Zm3.34-.73c.14,0,.14-.05,.14-.28,0-.31-.02-.45-.03-.53,0-.02-.04-.12-.04-.14s.02-.03,.05-.03,.49,.04,.49,.16c0,.03-.09,.11-.11,.14-.03,.07-.04,.42-.04,.52,0,.12,0,.17,.14,.17h.58c.21,0,.23,0,.29-.08,.14-.18,.15-.2,.19-.2,.05,0,.41,.3,.41,.34,0,.06-.1,.06-.24,.06h-1.24s-.11,0-.14,.08c0,.04,0,.74,0,.87,0,.14,0,.19,.15,.19h.45c.21,0,.23,0,.29-.08,.14-.18,.15-.2,.19-.2,.05,0,.41,.3,.41,.34,0,.06-.1,.06-.24,.06h-1.09c-.13,0-.14,.04-.14,.15,0,.14,0,1.1,0,1.13,.02,.07,.07,.08,.14,.08h.82c.21,0,.23,0,.29-.08,.14-.18,.15-.21,.19-.21,.05,0,.41,.3,.41,.34,0,.06-.1,.06-.24,.06h-2.99c-.4,0-.53,0-.57,.01-.02,0-.08,0-.1,0-.01,0-.02,0-.04-.03l-.09-.1s-.02-.02-.02-.03,0,0,.02,0c.03,0,.17,.01,.2,.01,.22,0,.41,.02,.62,.02h.86c.08,0,.15,0,.15-.16v-1.09c0-.05-.03-.11-.13-.11h-.53c-.4,0-.53,0-.57,0-.02,0-.08,.01-.09,.01-.02,0-.03-.01-.04-.03l-.09-.1s-.02-.02-.02-.03c0,0,0-.01,.02-.01,.03,0,.17,.01,.2,.02,.22,0,.41,.01,.62,.01h.5c.14,0,.14-.07,.14-.14v-.88c0-.09-.05-.12-.13-.12h-.74c-.14,0-.15,.01-.26,.2-.25,.41-.55,.78-.63,.78-.02,0-.02-.01-.02-.03,0,0,.07-.14,.11-.22,.5-.92,.58-1.5,.59-1.59,0-.09,.02-.09,.03-.09,0,0,.44,.18,.44,.25,0,.04-.14,.14-.16,.16-.03,.04-.14,.3-.14,.34,0,.06,.05,.06,.11,.06h.67Zm6.07,.27c.19,0,.21,0,.29-.08,.06-.06,.09-.08,.13-.08,.09,0,.4,.28,.4,.37,0,.06-.05,.1-.1,.1-.03,0-.15-.02-.18-.02-.12,0-.24,.05-.3,.09-.06,.03-.16,.09-.17,.09s-.02,0-.02-.02c0-.05,.13-.23,.13-.28,0-.06-.06-.06-.1-.06h-2.69c-.07,0-.11,0-.14,.08-.07,.23-.2,.46-.39,.46-.09,0-.13-.07-.13-.15,0-.09,.02-.12,.16-.27,.13-.14,.14-.24,.19-.47,0,0,0-.04,.03-.04,.03,0,.04,.02,.12,.21,.03,.06,.08,.07,.14,.07h2.64Zm-1.04,1.07c-.09,0-.12,.02-.14,.09-.07,.23-.19,.65-.58,1.03-.51,.49-1.15,.57-1.17,.57-.02,0-.06,0-.06-.03,0-.03,.04-.04,.15-.08,1.04-.37,1.34-1.37,1.34-1.49,0-.08-.06-.09-.14-.09h-.34c-.13,0-.35,0-.53,0-.01,0-.12,.01-.13,.01-.02,0-.03-.01-.04-.03l-.09-.1s-.02-.02-.02-.03,.01,0,.02,0c.03,0,.17,.01,.2,.02,.13,0,.37,.01,.62,.01h.36c.14,0,.14-.06,.14-.25,0-.09,0-.18,0-.26,0-.02-.02-.11-.02-.13,0-.04,.02-.05,.08-.05,.08,0,.45,.1,.45,.18,0,.03-.11,.13-.13,.16-.03,.06-.05,.24-.05,.26,0,.1,.09,.1,.14,.1h.64c.18,0,.24,0,.29-.08,.05-.09,.06-.1,.1-.1,.07,0,.34,.21,.34,.29,0,.03-.05,.07-.09,.09-.06,.04-.08,.06-.1,.17-.01,.06-.06,.37-.08,.44-.04,.23-.19,1.05-.67,1.05-.13,0-.14-.05-.14-.13-.01-.17-.2-.26-.37-.33-.03-.01-.05-.03-.05-.05s0-.03,.04-.03c.01,0,.05,.01,.06,.02,.25,.06,.33,.09,.46,.09,.19,0,.23-.14,.3-.44,.07-.27,.14-.75,.14-.78,0-.09-.06-.09-.14-.09h-.81Zm-1.62-2.2c.1,0,.64,.38,.64,.69,0,.14-.09,.22-.17,.22-.11,0-.12-.05-.19-.27-.06-.19-.14-.32-.25-.52-.02-.04-.05-.09-.04-.11,0,0,.01,0,.02,0Zm1.69,.57c0,.15-.11,.24-.21,.24-.1,0-.12-.07-.18-.28-.05-.2-.14-.42-.24-.6-.02-.04-.02-.06,0-.07,.05-.05,.64,.37,.64,.72Zm1.24-.27c0,.06-.03,.06-.17,.09-.1,.01-.11,.02-.46,.34-.05,.05-.25,.22-.28,.22-.02,0-.03-.01-.03-.02,0,0,.07-.11,.11-.16,.14-.22,.35-.53,.38-.74,0-.08,.01-.09,.03-.09,.02,0,.05,.02,.07,.04,.31,.24,.35,.27,.35,.34Zm1.76,.87s-.05,.09-.06,.11c0,.04,0,.06,0,.23v1.77c0,.07,0,.4,0,.47,0,.18-.16,.19-.2,.19-.1,0-.11-.06-.11-.11,0-.03,.03-.84,.03-.92v-1.44s0-.08-.03-.08c-.03,0-.38,.64-.46,.64-.01,0-.03,0-.03-.03,0-.03,.17-.34,.19-.4,.23-.5,.43-1.03,.57-1.57,.04-.17,.04-.18,.08-.18,.02,0,.37,.18,.37,.24,0,.03-.12,.1-.14,.13-.04,.05-.06,.1-.27,.56-.09,.21-.1,.23-.09,.25,0,.03,.14,.12,.14,.15Zm.16-.47s-.02-.02-.02-.03c0,0,0-.01,.02-.01,.02,0,.14,.01,.16,.01,.02,0,.35,.02,.46,.02,.15,0,.15-.05,.15-.22s0-.21-.11-.21c-.03,0-.46,.03-.55,.03-.03,0-.06,0-.06-.02s.02-.02,.05-.03c.29-.05,.51-.1,.76-.17,.1-.03,.59-.21,.59-.21,.03,0,.33,.22,.33,.26,0,.02-.02,.03-.03,.03-.02,0-.1,0-.13,0-.13,0-.46,.05-.5,.06-.1,.03-.1,.06-.1,.33,0,.11,.02,.16,.14,.16,.1,0,.13-.01,.18-.08,.11-.13,.12-.14,.17-.14,.06,0,.33,.23,.33,.28,0,.06-.09,.06-.24,.06h-.45c-.14,0-.14,.04-.14,.31,0,.11,.09,.11,.13,.11h.21s.07,0,.11-.03c.02-.01,.1-.09,.13-.09,.05,0,.24,.14,.24,.19,0,.02-.07,.11-.07,.13v.85c0,.15,0,.32-.2,.32-.07,0-.08-.02-.1-.07-.02-.04-.07-.04-.09-.04h-.23c-.13,0-.13,.05-.13,.27,0,.04,0,.14,.13,.14h.12c.06,0,.09,0,.12-.03,.03-.03,.15-.19,.19-.19,.06,0,.26,.24,.26,.29,0,.04-.02,.04-.21,.04h-.48s-.14,0-.14,.12c0,.25,0,.28,.17,.28,.06,0,.54-.06,.56-.06,0,0,.03,0,.03,.02,0,.1-1.25,.32-1.43,.41-.03,.01-.14,.11-.18,.11s-.06,0-.07-.04c-.01-.03-.14-.31-.14-.36,0-.03,0-.04,.03-.04,.03,0,.19,.02,.23,.02,.53,0,.53-.08,.53-.18,0-.24,0-.3-.11-.3s-.25,0-.37,0c-.02,0-.12,.01-.13,.01-.02,0-.03-.02-.04-.03l-.09-.1s-.02-.02-.02-.03c0,0,0-.01,.02-.01,0,0,.16,.01,.18,.02,.1,0,.36,.01,.44,.01,.12,0,.12-.06,.12-.3,0-.02,0-.11-.13-.11h-.18s-.07,0-.11,.04c-.07,.07-.09,.09-.18,.09-.11,0-.12-.05-.12-.14,0-.11,.01-.67,.01-.79,0-.1,0-.34-.01-.43,0-.02-.02-.12-.02-.14,0-.02,0-.05,.03-.05,.04,0,.06,0,.23,.11,.09,.05,.11,.05,.17,.05h.18c.13,0,.13-.05,.13-.29,0-.13-.08-.13-.17-.13-.13,0-.31,0-.38,0-.01,0-.08,.01-.09,.01-.02,0-.03-.01-.04-.03l-.09-.1Zm.45,.65c-.13,0-.13,.04-.13,.32,0,.1,.09,.11,.13,.11h.19c.13,0,.13-.05,.13-.29,0-.14-.07-.14-.13-.14h-.19Zm.19,1.03c.13,0,.13-.04,.13-.36,0-.13-.09-.13-.13-.13h-.18c-.13,0-.13,.04-.13,.36,0,.13,.09,.13,.13,.13h.18Zm.73-.6c.14,0,.14-.06,.14-.21s0-.22-.14-.22h-.21c-.13,0-.13,.06-.13,.21,0,.16,0,.22,.13,.22h.21Zm-.22,.12c-.13,0-.13,.02-.13,.37,0,.04,.01,.12,.13,.12h.22c.11,0,.12-.03,.12-.36,0-.05,0-.13-.12-.13h-.22Zm.5-.99s-.02-.02-.02-.03c0,0,0-.01,.02-.01,.05,0,.26,.02,.31,.02q.18,0,.18-.14s0-.41-.02-.55c0-.05-.05-.24-.05-.29,0-.02,.02-.02,.04-.02,.02,0,.29,.05,.34,.06,.07,.01,.1,.02,.1,.06,0,.03-.09,.15-.1,.18-.01,.07-.03,.47-.03,.54,0,.14,0,.17,.14,.17,.09,0,.11,0,.16-.05,.05-.05,.09-.09,.12-.09,.06,0,.26,.19,.26,.25,0,.02,0,.03-.06,.11-.01,.02-.01,.36-.01,.4,0,.14,0,1.25-.12,1.93-.09,.51-.36,.51-.46,.51-.04,0-.06,0-.09-.02-.01-.02-.08-.11-.09-.13-.03-.04-.2-.2-.2-.22,0-.02,.02-.02,.03-.02,.02,0,.08,.01,.09,.02,.04,.01,.12,.02,.19,.02,.19,0,.27-.02,.32-.63,.04-.52,.05-1.27,.05-1.82,0-.12-.04-.13-.18-.13-.15,0-.16,.03-.16,.18-.03,.8-.06,1.42-.34,2.08-.15,.36-.44,.7-.5,.7,0,0-.03,0-.03-.02,0,0,.05-.09,.06-.12,.1-.16,.26-.48,.37-.92,.13-.5,.18-1.17,.18-1.69,0-.18,0-.2-.14-.2-.03,0-.2,.01-.22,.01s-.03-.02-.04-.03l-.09-.1Zm2.77,.5c-.4,0-.52,0-.57,.01-.02,0-.08,0-.09,0-.02,0-.03,0-.04-.03l-.09-.1s-.02-.02-.02-.03,0,0,.02,0c.03,0,.17,.01,.2,.01,.22,0,.41,.02,.62,.02h.78c.14,0,.15,0,.15-.64,0-.11,0-.35-.03-.62,0-.03-.02-.13-.02-.15s0-.04,.03-.04c.07,0,.41,.09,.47,.1,.06,.01,.1,.04,.1,.08,0,.04-.02,.06-.07,.1-.09,.07-.09,.09-.09,.31,0,.12-.04,.64-.04,.75s.08,.1,.15,.1h.78c.21,0,.23,0,.29-.08,.14-.18,.16-.2,.22-.2,.1,0,.46,.29,.46,.33,0,.06-.09,.06-.24,.06h-1.44c-.1,0-.13,0-.13,.07,0,.27,.59,1.61,1.86,2.11q.12,.05,.12,.07s-.02,.04-.09,.04c-.14,0-.26,.02-.41,.09-.02,.01-.12,.08-.15,.08-.08,0-.48-.36-.72-.7-.33-.47-.57-.98-.7-1.53,0-.03-.02-.09-.03-.09-.01,0-.01,.01-.03,.11-.09,.5-.26,1.44-1.42,2.09-.33,.19-.64,.24-.67,.24,0,0-.03,0-.03-.02,0-.02,.1-.07,.14-.09,.32-.15,1.26-.7,1.57-1.92,.05-.2,.07-.44,.07-.46,0-.1-.05-.1-.12-.1h-.79Zm6.68-.2s.1,0,.14-.06c.02-.04,.04-.06,.08-.06,.03,0,.38,.2,.38,.26,0,.04-.05,.07-.09,.09-.07,.04-.07,.06-.07,.27,0,.03,0,.31,.02,.48,0,.02,0,.11,0,.16,0,.15-.1,.21-.2,.21-.08,0-.09-.03-.13-.09-.03-.05-.06-.06-.13-.06h-.6c-.09,0-.14,.02-.14,.12v.42c0,.08,0,.46,.02,.5,.02,.05,.09,.05,.13,.05h.81c.17,0,.19,0,.22-.04,.03-.03,.14-.23,.18-.23,.06,0,.4,.26,.4,.34,0,.05-.02,.05-.24,.05h-2.93c-.08,0-.13,.01-.14,.1,0,.09-.02,.2-.23,.2-.04,0-.14,0-.14-.14,0-.03,.01-.17,.01-.19,.02-.36,.02-.62,.02-.86,0-.51,0-2.37-.03-2.48,0-.04-.06-.2-.06-.22s.02-.03,.04-.03c.02,0,.24,.11,.28,.14,.09,.04,.13,.05,.2,.05h2.28c.14,0,.19,0,.25-.1,.09-.14,.1-.15,.14-.15,.07,0,.4,.21,.4,.3,0,.04,0,.07-.35,.07h-1.15c-.14,0-.14,.02-.14,.52,0,.35,0,.39,.14,.39h.62Zm-2.19,.12s-.11,0-.14,.06c0,.03,0,.43,0,.51,0,.35,0,.38,.14,.38h2.17s.11,0,.13-.06c.02-.05,.02-.47,.02-.55,0-.3,0-.34-.14-.34h-2.18Zm.97,2.17c.09,0,.12-.04,.13-.06,.02-.04,.02-.47,.02-.55,0-.46,0-.49-.14-.49h-.96c-.1,0-.12,.04-.13,.06-.02,.04-.02,.47-.02,.55,0,.46,0,.49,.15,.49h.96Zm-.97-3.2c-.08,0-.12,.02-.14,.09v.52c0,.25,0,.3,.14,.3h.95c.07,0,.12-.02,.14-.09,0-.01,0-.5,0-.52,0-.25,0-.3-.14-.3h-.95Zm4.71,.41c.21,0,.23,0,.29-.08,.03-.04,.06-.07,.09-.07,.06,0,.29,.18,.29,.22,0,.05-.02,.05-.24,.05h-.65c-.13,0-.35,0-.53,0-.02,0-.11,.01-.13,.01-.02,0-.03,0-.04-.03l-.09-.1s-.02-.02-.02-.03,0,0,.01,0c.03,0,.17,.01,.2,.01,.22,0,.41,.02,.62,.02h.2Zm-.11-.61c.13,0,.14,0,.15-.03,.07-.1,.09-.13,.13-.13,.06,0,.27,.19,.27,.23,0,.05-.05,.05-.15,.05h-.51c-.09,0-.18,0-.3,0-.01,0-.09,.01-.11,.01s-.03-.02-.04-.03l-.08-.1s0-.01,0-.02c0-.01,.01-.01,.02-.01,.02,0,.11,.01,.13,.01,.23,.01,.29,.01,.37,.01h.13Zm-.15,3.5c-.09,0-.14,.01-.14,.14,0,.06,0,.19-.2,.19-.13,0-.13-.06-.13-.1,0,0,.03-.52,.03-.62,0-.14,0-.37-.03-.51,0-.02-.01-.13-.01-.15,0-.02,0-.05,.05-.05,0,0,.15,.05,.16,.05,.08,.03,.13,.04,.21,.04h.33c.06,0,.09,0,.12-.03,.01-.01,.08-.1,.1-.1,0,0,.33,.12,.33,.19,0,.04-.07,.09-.09,.1-.05,.03-.05,.04-.05,.15,0,.12,0,.38,0,.5,0,.04,.02,.23,.02,.27,0,.13-.09,.2-.22,.2-.08,0-.08-.02-.08-.14,0-.08-.03-.12-.14-.12h-.27Zm.24-2.25c.09,0,.12,0,.17-.06,.03-.04,.05-.06,.08-.06,.05,0,.23,.14,.23,.18,0,.05-.05,.05-.15,.05h-.5c-.1,0-.18,0-.29,0-.02,0-.09,0-.11,0s-.03-.01-.04-.02l-.07-.1s-.01-.01-.01-.02c0-.01,0-.02,.02-.02,.02,0,.1,.01,.12,.02,.22,.01,.28,.01,.37,.01h.18Zm-.02,.57c.1,0,.11,0,.14-.04,.04-.05,.1-.12,.12-.12,.03,0,.27,.17,.27,.22s-.06,.05-.15,.05h-.5c-.09,0-.19,0-.29,0-.02,0-.1,.01-.11,.01s-.03-.01-.04-.03l-.08-.1s0-.01,0-.02c0-.01,.01-.01,.02-.01,.02,0,.1,.01,.12,.01,.23,.01,.28,.01,.37,.01h.13Zm-.23,.78c-.11,0-.14,.04-.14,.15,0,.08,0,.55,.03,.59,.02,.05,.09,.05,.13,.05h.28c.14,0,.14-.03,.14-.31,0-.05,0-.39-.01-.42-.02-.05-.09-.05-.13-.05h-.29Zm1.24,.39s0,.52-.25,.52c-.07,0-.14-.04-.14-.12,0-.07,.15-.34,.18-.39,.04-.1,.08-.23,.08-.34,0-.02,0-.11,.02-.11,.03,0,.11,.19,.11,.44Zm-.29-2.93s-.02-.02-.02-.03c0,0,0,0,.01,0,.03,0,.17,.01,.2,.01,.22,.01,.41,.02,.62,.02h1.01c.07,0,.11,0,.16-.06,.05-.07,.05-.08,.09-.08,.06,0,.34,.14,.34,.2,0,.04-.13,.14-.14,.17-.02,.04-.04,.56-.04,.67-.05,.6-.12,1.09-.64,1.09-.06,0-.07,0-.11-.08-.07-.15-.15-.26-.19-.31-.02-.03-.03-.05-.03-.06,0,0,0,0,0,0,.02,0,.15,.04,.18,.05,.1,.03,.16,.04,.21,.04,.15,0,.22-.08,.28-.5,.04-.27,.05-.59,.05-.87,0-.14-.09-.14-.14-.14h-.43c-.13,0-.13,.02-.17,.23-.02,.11-.03,.15-.08,.33,0,.02-.01,.04-.01,.07,0,.06,.04,.09,.08,.14,.01,.01,.16,.15,.16,.29,0,.12-.09,.19-.14,.19-.08,0-.11-.05-.2-.17,0-.01-.03-.03-.05-.03t-.12,.14c-.07,.11-.27,.4-.64,.56-.1,.05-.19,.07-.21,.07s0-.02,0-.03c.21-.18,.41-.34,.6-.64,.02-.03,.14-.23,.14-.32,0-.06-.05-.11-.1-.14-.03-.02-.34-.22-.34-.23s.04-.01,.05-.01c.07,0,.39,.07,.42,.07,.07,0,.09-.04,.11-.14,0-.05,.04-.25,.04-.29,0-.05-.02-.1-.1-.1-.2,0-.41,0-.59,.01-.02,0-.13,0-.14,0-.01,0-.02,0-.04-.03l-.09-.1Zm.57,2.2c.06,0,.33,.07,.33,.13,0,.02-.07,.1-.08,.12-.02,.05-.03,.47-.03,.54,0,.37,.02,.42,.37,.42,.39,0,.41-.1,.47-.38,0-.06,.03-.14,.04-.14,.03,0,.09,.24,.11,.28,.02,.03,.03,.04,.11,.14,.02,.02,.02,.05,.02,.06,0,.04-.05,.31-.65,.31-.22,0-.5-.04-.62-.12-.06-.05-.09-.11-.09-.6,0-.09,0-.5,0-.58,0-.02-.05-.11-.05-.13,0,0,0-.02,0-.02,0-.02,.04-.02,.05-.02Zm.51-.18c.14,0,.45,.17,.45,.37,0,.08-.05,.2-.13,.2-.06,0-.07-.02-.14-.23-.04-.12-.13-.23-.18-.27-.01,0-.05-.03-.04-.04,0-.01,.03-.02,.04-.02Zm1.4,1.09c0,.13-.07,.23-.18,.23-.12,0-.14-.05-.23-.33-.09-.3-.17-.42-.23-.5-.02-.03-.03-.06-.02-.07,0,0,.64,.24,.64,.68Zm1.24-2.92c-.32,0-.47,0-.57,0-.02,0-.08,.01-.09,.01-.02,0-.04-.02-.04-.03l-.09-.1s-.02-.02-.02-.03c0,0,0-.01,.02-.01,.03,0,.17,.02,.2,.02,.22,.01,.41,.01,.62,.01h2.36c.23,0,.26-.02,.32-.12,.04-.05,.12-.16,.16-.16s.41,.28,.41,.32c0,.07-.14,.07-.28,.07h-.38s-.11,0-.12,.08c0,.04,0,1.72,0,1.94,0,.18,.02,.94,.02,1.1,0,.5-.39,.5-.41,.5-.1,0-.1,0-.14-.1-.05-.14-.25-.24-.33-.25-.02,0-.09-.01-.09-.05,0-.02,.03-.02,.04-.02,.06,0,.34,.01,.4,.01,.2,0,.2-.09,.2-.22,0-.43,0-2.5-.01-2.85,0-.12-.05-.13-.14-.13h-2.01Zm.86,.84s.09,0,.13-.04c.02-.02,.09-.11,.12-.11,.03,0,.34,.2,.34,.27,0,.02-.04,.07-.07,.11-.05,.08-.05,.11-.05,.22,0,.14,.03,.83,.03,.99,0,.14-.07,.27-.22,.27-.1,0-.1-.07-.1-.18,0-.12-.05-.14-.14-.14h-.52s-.13,0-.13,.11c0,.12-.02,.3-.19,.3-.13,0-.14-.1-.14-.16,0-.14,.02-.78,.02-.92,0-.13,0-.21,0-.31,0-.07-.04-.41-.04-.5,0-.03,0-.07,.05-.07,.07,0,.18,.06,.26,.1,.08,.05,.13,.05,.18,.05h.5Zm.04,1.27c.13,0,.13-.06,.13-.23,0-.09,0-.79-.01-.84-.01-.06-.07-.08-.13-.08h-.54c-.13,0-.13,.09-.13,.16,0,.14,0,.88,.02,.94,.03,.06,.1,.06,.13,.06h.54Zm7.5-1.31c.19,0,.21,0,.29-.08,.06-.06,.09-.08,.13-.08,.09,0,.4,.28,.4,.37,0,.06-.05,.1-.1,.1-.03,0-.15-.02-.18-.02-.12,0-.24,.05-.3,.09-.06,.03-.16,.09-.17,.09s-.02,0-.02-.02c0-.05,.13-.23,.13-.28,0-.06-.06-.06-.1-.06h-2.69c-.07,0-.11,0-.14,.08-.07,.23-.2,.46-.39,.46-.09,0-.13-.07-.13-.15,0-.09,.02-.12,.16-.27,.13-.14,.14-.24,.19-.47,0,0,0-.04,.03-.04,.03,0,.04,.02,.12,.21,.03,.06,.08,.07,.14,.07h2.64Zm-1.04,1.07c-.09,0-.12,.02-.14,.09-.07,.23-.19,.65-.58,1.03-.51,.49-1.15,.57-1.17,.57-.02,0-.06,0-.06-.03,0-.03,.04-.04,.15-.08,1.04-.37,1.34-1.37,1.34-1.49,0-.08-.06-.09-.14-.09h-.34c-.13,0-.35,0-.53,0-.01,0-.12,.01-.13,.01-.02,0-.03-.01-.04-.03l-.09-.1s-.02-.02-.02-.03,.01,0,.02,0c.03,0,.17,.01,.2,.02,.13,0,.37,.01,.62,.01h.36c.14,0,.14-.06,.14-.25,0-.09,0-.18,0-.26,0-.02-.02-.11-.02-.13,0-.04,.02-.05,.08-.05,.08,0,.46,.1,.46,.18,0,.03-.11,.13-.13,.16-.03,.06-.05,.24-.05,.26,0,.1,.09,.1,.14,.1h.64c.18,0,.24,0,.29-.08,.05-.09,.06-.1,.1-.1,.07,0,.34,.21,.34,.29,0,.03-.05,.07-.09,.09-.06,.04-.08,.06-.1,.17-.01,.06-.06,.37-.08,.44-.04,.23-.19,1.05-.67,1.05-.13,0-.14-.05-.14-.13-.01-.17-.2-.26-.37-.33-.03-.01-.04-.03-.04-.05s0-.03,.04-.03c.01,0,.05,.01,.06,.02,.25,.06,.33,.09,.46,.09,.19,0,.23-.14,.3-.44,.07-.27,.14-.75,.14-.78,0-.09-.06-.09-.14-.09h-.81Zm-1.62-2.2c.1,0,.64,.38,.64,.69,0,.14-.09,.22-.17,.22-.11,0-.12-.05-.19-.27-.06-.19-.14-.32-.25-.52-.02-.04-.05-.09-.04-.11,0,0,.01,0,.02,0Zm1.69,.57c0,.15-.11,.24-.21,.24-.1,0-.12-.07-.18-.28-.05-.2-.14-.42-.24-.6-.02-.04-.02-.06,0-.07,.05-.05,.64,.37,.64,.72Zm1.23-.27c0,.06-.03,.06-.17,.09-.1,.01-.11,.02-.46,.34-.05,.05-.25,.22-.28,.22-.02,0-.03-.01-.03-.02,0,0,.07-.11,.11-.16,.14-.22,.35-.53,.38-.74,0-.08,.01-.09,.03-.09,.02,0,.05,.02,.07,.04,.31,.24,.35,.27,.35,.34Zm1.76,.87s-.05,.09-.06,.11c0,.04,0,.06,0,.23v1.77c0,.07,0,.4,0,.47,0,.18-.16,.19-.2,.19-.1,0-.11-.06-.11-.11,0-.03,.03-.84,.03-.92v-1.44s0-.08-.03-.08c-.03,0-.38,.64-.46,.64-.01,0-.03,0-.03-.03,0-.03,.17-.34,.19-.4,.23-.5,.43-1.03,.57-1.57,.04-.17,.04-.18,.08-.18,.02,0,.37,.18,.37,.24,0,.03-.12,.1-.14,.13-.04,.05-.06,.1-.27,.56-.09,.21-.1,.23-.09,.25,0,.03,.14,.12,.14,.15Zm.16-.47s-.02-.02-.02-.03c0,0,0-.01,.02-.01,.02,0,.14,.01,.16,.01,.02,0,.35,.02,.46,.02,.15,0,.15-.05,.15-.22s0-.21-.11-.21c-.03,0-.46,.03-.55,.03-.03,0-.06,0-.06-.02s.02-.02,.05-.03c.29-.05,.51-.1,.76-.17,.1-.03,.59-.21,.59-.21,.03,0,.33,.22,.33,.26,0,.02-.02,.03-.03,.03-.02,0-.1,0-.13,0-.13,0-.46,.05-.5,.06-.1,.03-.1,.06-.1,.33,0,.11,.02,.16,.14,.16,.1,0,.13-.01,.18-.08,.11-.13,.12-.14,.17-.14,.06,0,.33,.23,.33,.28,0,.06-.09,.06-.24,.06h-.45c-.14,0-.14,.04-.14,.31,0,.11,.09,.11,.13,.11h.21s.07,0,.11-.03c.02-.01,.1-.09,.13-.09,.05,0,.24,.14,.24,.19,0,.02-.07,.11-.07,.13v.85c0,.15,0,.32-.2,.32-.07,0-.08-.02-.1-.07-.02-.04-.07-.04-.09-.04h-.23c-.13,0-.13,.05-.13,.27,0,.04,0,.14,.13,.14h.12c.06,0,.09,0,.12-.03s.15-.19,.19-.19c.06,0,.26,.24,.26,.29,0,.04-.02,.04-.21,.04h-.48s-.14,0-.14,.12c0,.25,0,.28,.17,.28,.06,0,.54-.06,.56-.06,0,0,.03,0,.03,.02,0,.1-1.25,.32-1.43,.41-.03,.01-.14,.11-.18,.11s-.06,0-.07-.04c-.01-.03-.14-.31-.14-.36,0-.03,0-.04,.03-.04,.03,0,.19,.02,.23,.02,.53,0,.53-.08,.53-.18,0-.24,0-.3-.11-.3s-.25,0-.37,0c-.02,0-.12,.01-.13,.01-.02,0-.03-.02-.04-.03l-.09-.1s-.02-.02-.02-.03c0,0,0-.01,.02-.01,0,0,.16,.01,.18,.02,.1,0,.36,.01,.44,.01,.12,0,.12-.06,.12-.3,0-.02,0-.11-.13-.11h-.18s-.07,0-.11,.04c-.07,.07-.09,.09-.18,.09-.11,0-.12-.05-.12-.14,0-.11,.01-.67,.01-.79,0-.1,0-.34-.01-.43,0-.02-.02-.12-.02-.14,0-.02,0-.05,.03-.05,.04,0,.06,0,.23,.11,.09,.05,.11,.05,.17,.05h.18c.13,0,.13-.05,.13-.29,0-.13-.08-.13-.17-.13-.13,0-.31,0-.38,0-.01,0-.08,.01-.09,.01-.02,0-.03-.01-.04-.03l-.09-.1Zm.46,.65c-.13,0-.13,.04-.13,.32,0,.1,.09,.11,.13,.11h.19c.13,0,.13-.05,.13-.29,0-.14-.07-.14-.13-.14h-.19Zm.19,1.03c.13,0,.13-.04,.13-.36,0-.13-.09-.13-.13-.13h-.18c-.13,0-.13,.04-.13,.36,0,.13,.09,.13,.13,.13h.18Zm.73-.6c.14,0,.14-.06,.14-.21s0-.22-.14-.22h-.21c-.13,0-.13,.06-.13,.21,0,.16,0,.22,.13,.22h.21Zm-.22,.12c-.13,0-.13,.02-.13,.37,0,.04,.01,.12,.13,.12h.22c.11,0,.12-.03,.12-.36,0-.05,0-.13-.12-.13h-.22Zm.5-.99s-.02-.02-.02-.03c0,0,0-.01,.02-.01,.04,0,.26,.02,.31,.02q.18,0,.18-.14s0-.41-.02-.55c0-.05-.04-.24-.04-.29,0-.02,.02-.02,.04-.02,.02,0,.29,.05,.34,.06,.07,.01,.1,.02,.1,.06,0,.03-.09,.15-.1,.18-.01,.07-.03,.47-.03,.54,0,.14,0,.17,.14,.17,.09,0,.11,0,.16-.05s.09-.09,.12-.09c.06,0,.26,.19,.26,.25,0,.02,0,.03-.06,.11-.01,.02-.01,.36-.01,.4,0,.14,0,1.25-.12,1.93-.09,.51-.36,.51-.46,.51-.04,0-.06,0-.09-.02-.01-.02-.08-.11-.09-.13-.03-.04-.2-.2-.2-.22,0-.02,.02-.02,.03-.02,.02,0,.08,.01,.09,.02,.04,.01,.12,.02,.19,.02,.19,0,.27-.02,.32-.63,.05-.52,.05-1.27,.05-1.82,0-.12-.04-.13-.18-.13-.15,0-.16,.03-.16,.18-.03,.8-.06,1.42-.34,2.08-.15,.36-.44,.7-.5,.7,0,0-.03,0-.03-.02,0,0,.05-.09,.06-.12,.1-.16,.26-.48,.37-.92,.13-.5,.18-1.17,.18-1.69,0-.18,0-.2-.14-.2-.03,0-.2,.01-.22,.01s-.03-.02-.04-.03l-.09-.1Zm2.47,1.29c0-.1,0-.67,0-.73,0-.03,0-.1-.04-.1-.03,0-.07,.05-.14,.13-.18,.2-.41,.38-.43,.38-.02,0-.02,0-.02-.02s.07-.11,.11-.16c.59-.84,.81-1.72,.82-1.75,0-.05,.01-.09,.05-.09,.02,0,.4,.14,.4,.23,0,.03-.02,.05-.04,.06-.02,.02-.09,.06-.11,.08-.03,.03-.36,.7-.36,.75,0,.06,.05,.09,.13,.13,.05,.02,.08,.05,.08,.09,0,.03-.1,.15-.12,.18-.03,.07-.04,.9-.04,.99,0,.16,0,1.06,0,1.25s0,.37-.22,.37c-.1,0-.11-.06-.11-.16,0-.23,.03-1.35,.03-1.6Zm1.42-.05c-.4,0-.52,0-.57,0-.01,0-.08,.01-.09,.01-.02,0-.03-.01-.04-.03l-.09-.1s-.02-.02-.02-.03c0,0,0-.01,.02-.01,.03,0,.17,.01,.2,.02,.22,0,.41,.01,.62,.01h.33c.09,0,.13-.05,.13-.12,0-.02,0-.29,0-.34,0-.03-.02-.17-.02-.2s0-.04,.04-.04c.01,0,.38,.08,.38,.17,0,.03-.09,.13-.09,.15-.02,.06-.02,.12-.02,.23,0,.1,.01,.15,.14,.15h.34c.2,0,.23,0,.29-.08,.12-.14,.14-.16,.18-.16,.09,0,.37,.25,.37,.3,0,.03-.02,.04-.04,.05-.03,.01-.09,.01-.19,.01h-.89s-.09,0-.09,.05c0,.13,.53,.78,1.3,1.08,.06,.02,.07,.03,.07,.04,0,.03-.02,.03-.11,.06-.09,.03-.13,.06-.21,.13-.01,.01-.04,.03-.07,.03-.09,0-.55-.36-.86-.88-.03-.05-.19-.33-.19-.33-.02,0-.02,.04-.02,.05,0,.21,.03,1.12,.03,1.31,0,.28-.21,.28-.22,.28-.1,0-.1-.11-.1-.14,0-.17,.02-.93,.02-1.09,0-.17,0-.19-.04-.19-.04,0-.1,.09-.15,.15-.57,.74-1.07,.92-1.11,.92-.02,0-.03,0-.03-.02,0,0,.06-.05,.1-.09,.69-.66,1.05-1.22,1.05-1.29,0-.04-.04-.04-.07-.04h-.23Zm1.1-2.07c.08,0,.11-.01,.16-.06,.11-.1,.13-.12,.17-.12,.08,0,.27,.18,.27,.25,0,.04-.03,.07-.1,.15-.04,.04-.03,.37-.03,.41,0,.06,.01,.37,.01,.45,0,.13-.08,.21-.21,.21-.04,0-.12,0-.13-.11,0-.12,0-.15-.11-.15h-1.03c-.1,0-.11,.05-.12,.09,0,.09,0,.24-.21,.24-.12,0-.12-.09-.12-.14,0-.09,.02-.54,.02-.64s-.02-.55-.02-.66c0-.03,0-.05,.04-.05,.03,0,.2,.07,.27,.1,.05,.02,.07,.03,.14,.03h1Zm.05,.91c.11,0,.14,0,.14-.43,0-.32,0-.36-.14-.36h-1.05c-.14,0-.14,.04-.14,.4s0,.39,.14,.39h1.05Zm2.34-.83c.05,0,.1,0,.16-.05s.06-.06,.08-.06c.03,0,.32,.18,.32,.24,0,.05-.02,.06-.12,.09-.01,.02-.53,.9-.53,.96,0,.02,.08,.09,.1,.12,.31,.31,.33,.66,.33,.78,0,.3-.12,.83-.42,.83-.11,0-.12-.05-.13-.1-.02-.11-.07-.32-.16-.32-.03,0-.03,.05-.03,.06,0,.16,.03,.88,.03,1.03,0,.13-.08,.2-.22,.2-.11,0-.14-.06-.14-.18,0-.02,.02-.32,.02-.37,0-.14,0-.35,0-.76,0-.59,0-2.07-.03-2.53,0-.02-.02-.08-.02-.09,0-.02,.01-.03,.04-.03,.04,0,.06,.01,.29,.13,.08,.04,.13,.04,.18,.04h.23Zm-.27,.12c-.07,0-.13,0-.14,.09,0,.04,0,.99,0,1.13s0,1.03,.03,1.08c.03,.06,.19,.08,.27,.08,.16,0,.2-.42,.2-.55,0-.24-.08-.49-.22-.65-.05-.05-.05-.07-.05-.11s.27-.83,.27-.95c0-.09-.07-.09-.12-.09h-.23Zm1.28,2.47c-.12,0-.12,.03-.14,.14,0,.03-.09,.13-.26,.13-.06,0-.06-.06-.06-.09,0-.06,.02-.75,.02-.87,0-.07,0-.24-.02-.32,0-.01-.01-.05-.01-.06,0-.01,0-.03,.02-.03,.1,0,.21,.13,.29,.17,.06,.03,.11,.03,.15,.03h.32c.14,0,.14-.08,.14-.17,0-.32,0-.35-.16-.35-.04,0-.25,.02-.28,.02-.02,0-.04-.02-.05-.04l-.08-.09s-.02-.03-.02-.03c0,0,0-.01,.02-.01,0,0,.09,.01,.1,.01,.04,0,.18,.02,.32,.02h.4c.07,0,.11,0,.18-.11,.01-.02,.08-.12,.1-.12,.01,0,.32,.2,.32,.28,0,.07-.04,.07-.17,.07h-.24s-.14,0-.14,.11c0,.37,0,.41,.14,.41h.4c.06,0,.1,0,.16-.07,.06-.08,.08-.11,.1-.11s.35,.18,.35,.25c0,.04-.02,.05-.05,.07-.06,.04-.06,.04-.06,.09v.32c0,.06,.02,.32,.02,.37,0,.14-.16,.2-.27,.2-.09,0-.09-.04-.09-.12,0-.1-.09-.1-.13-.1h-.46s-.08,0-.08,.04c0,.08,.68,.71,1.45,.71,.07,0,.09,0,.09,.01,0,0-.14,.09-.17,.1-.14,.09-.16,.11-.25,.25,0,.01-.02,.02-.03,.02,0,0-.67-.24-1.11-.9-.07-.1-.07-.1-.09-.1-.02,0-.06,.07-.07,.09-.27,.56-.87,.92-1.43,.92-.02,0-.06,0-.06-.03,0,0,.07-.03,.12-.04,.77-.2,1.15-.9,1.15-1.01,0-.06-.05-.06-.09-.06h-.26Zm1.82-1.76c.14,.05,.26,.09,.4,.13,.04,0,.04,0,.04,.02,0,.02-.11,.04-.14,.05-.06,.02-.19,.09-.26,.16-.01,.01-.06,.08-.08,.08-.07,0-.71-.42-1.14-1.11-.03-.05-.04-.05-.05-.05-.03,0-.03,0-.08,.07-.38,.56-.97,1.13-1.38,1.18,.03-.03,.09-.09,.11-.1,.84-.75,1.07-1.37,1.08-1.42,.01-.12,.02-.14,.05-.14,.04,0,.39,.12,.39,.23,0,.02-.05,.08-.05,.09,0,.02,.46,.57,1.1,.82Zm-1.54,1.64c.06,0,.1,0,.13-.08,.02-.06,.04-.31,.04-.45,0-.11-.05-.14-.14-.14h-.3c-.14,0-.14,0-.14,.54,0,.13,.1,.13,.14,.13h.28Zm.61-.66c-.14,0-.14,.06-.14,.19,0,.06-.04,.39-.04,.39,0,.08,.09,.08,.14,.08h.45c.16,0,.16-.01,.16-.5,0-.09,0-.17-.14-.17h-.42Zm2.64-1.4c-.34,0-.48,0-.57,.01-.02,0-.08,0-.09,0-.02,0-.03,0-.04-.03l-.09-.1s-.02-.02-.02-.03,0,0,.02,0c.03,0,.17,.01,.2,.01,.22,0,.41,.02,.62,.02h.88c.09,0,.09-.08,.09-.13,0-.07-.04-.36-.04-.41,0-.05,.02-.06,.04-.06,.04,0,.42,.1,.42,.2,0,.03-.09,.14-.1,.17,0,.02-.01,.1-.01,.13,0,.04,0,.1,.1,.1h.8c.2,0,.22,0,.29-.08,.13-.15,.14-.17,.18-.17,.03,0,.42,.24,.42,.3,0,.06-.09,.06-.24,.06h-1.45c-.11,0-.11,.03-.11,.27,0,.05,0,.11,.1,.11h.56c.07,0,.09,0,.14-.06,.07-.08,.1-.11,.14-.11,.03,0,.28,.17,.28,.23,0,.03-.02,.05-.08,.1-.03,.03-.04,.04-.04,.09v.43c0,.08-.08,.16-.19,.16s-.13-.04-.15-.13c-.01-.05-.06-.06-.09-.06h-.58c-.1,0-.1,.07-.1,.19,0,.11,0,.18,.1,.18h.67c.09,0,.14,0,.19-.06,.05-.05,.09-.09,.14-.09,.04,0,.29,.17,.29,.23,0,.02,0,.03-.09,.12-.03,.03-.03,.05-.03,.2,0,.03,0,.07,.05,.07,.03,0,.08-.03,.1-.06,.09-.13,.1-.14,.14-.14,.05,0,.35,.19,.35,.28,0,.05-.08,.05-.2,.05h-.34c-.09,0-.09,.08-.09,.14,0,.07,.01,.4,.01,.45,0,.23-.2,.23-.23,.23-.11,0-.11-.05-.13-.19,0-.09-.04-.1-.1-.1h-.7c-.11,0-.11,.06-.11,.15,0,.05,0,.27,0,.32,0,.1,0,.29-.21,.36-.06,.02-.18,.05-.23,.05-.03,0-.04-.01-.06-.06-.03-.07-.1-.18-.37-.27-.05-.01-.14-.05-.14-.09,0-.02,.05-.02,.06-.02,.06,0,.32,.04,.38,.04,.25,0,.25-.01,.25-.37,0-.03,0-.11-.1-.11h-.48c-.32,0-.53,0-.57,.01-.02,0-.09,0-.1,0s-.02,0-.04-.03l-.09-.1s-.02-.02-.02-.03c0,0,0,0,.01,0,.03,0,.17,.01,.2,.01,.22,0,.41,.02,.62,.02h.46c.11,0,.11-.05,.11-.26,0-.07,0-.14-.09-.14h-1c-.39,0-.52,0-.57,0-.01,0-.08,.01-.09,.01-.02,0-.03-.01-.05-.03l-.09-.1s-.02-.02-.02-.03c0,0,0-.01,.02-.01,.03,0,.17,.02,.2,.02,.22,0,.41,.01,.62,.01h.98c.1,0,.1-.06,.1-.18,0-.1,0-.17-.09-.17h-.62c-.4,0-.53,0-.57,0-.02,0-.08,.01-.09,.01-.02,0-.03,0-.04-.03l-.09-.11s-.02-.02-.02-.03c0,0,0-.01,.02-.01,.03,0,.17,.02,.2,.02,.22,.01,.41,.01,.62,.01h.6c.1,0,.1-.05,.1-.24,0-.05,0-.12-.09-.12h-.59c-.09,0-.09,.02-.11,.09-.02,.09-.12,.14-.21,.14-.1,0-.12-.06-.12-.12,0-.06,.01-.35,.01-.41,0-.01,0-.31,0-.4,0-.02-.02-.1-.02-.12,0-.02,0-.04,.03-.04,.06,0,.31,.16,.35,.18,.04,.02,.1,.03,.18,.03h.49c.1,0,.1-.02,.1-.26,0-.05,0-.13-.09-.13h-.91Zm.89,.92c.1,0,.1-.07,.1-.21,0-.13,0-.2-.1-.2h-.59c-.11,0-.11,.04-.11,.2s0,.2,.11,.2h.59Zm.5-.41c-.1,0-.1,.08-.1,.16,0,.19,0,.24,.1,.24h.58c.11,0,.11-.05,.11-.24,0-.09,0-.17-.1-.17h-.59Zm.74,1.37c.09,0,.11-.05,.11-.21,0-.07,0-.14-.1-.14h-.75c-.1,0-.1,.08-.1,.14,0,.16,0,.21,.1,.21h.74Zm-.74,.12c-.1,0-.1,.07-.1,.13,0,.24,0,.27,.11,.27h.71c.1,0,.12-.04,.12-.25,0-.08,0-.15-.1-.15h-.74Zm3.63-1.03c-.14,0-.14,.02-.14,.39,0,.23,0,1.4,0,1.51s0,.49-.39,.49c-.04,0-.05-.02-.08-.08-.02-.04-.05-.09-.24-.17-.05-.02-.11-.04-.11-.05,0-.02,.04-.02,.05-.02,.03,0,.17,.01,.2,.01,.29,0,.3-.04,.3-.31,0-.27,0-.66,0-.94,0-.04,0-.1-.03-.1-.02,0-.04,.02-.05,.04-.03,.04-.14,.19-.31,.38-.27,.31-.56,.51-.58,.51-.01,0-.04-.01-.04-.04,0,0,.31-.4,.37-.47,.37-.5,.6-1.04,.6-1.1,0-.04-.04-.06-.08-.06-.22,0-.37,0-.55,0-.02,0-.18,.02-.19,.02s-.02-.01-.04-.03l-.09-.1s-.02-.02-.02-.03c0,0,0-.01,.01-.01,.03,0,.17,.01,.2,.02,.05,0,.36,.01,.59,.01h.71c.06,0,.07,0,.13-.09,.06-.09,.07-.09,.09-.09s.23,.13,.27,.15c.12,.08,.15,.09,.15,.16,0,.1-.08,.11-.2,.11-.08,0-.15,.01-.35,.23-.01,.02-.07,.07-.09,.07-.02,0-.02-.02-.02-.02,0-.04,.12-.29,.12-.36,0-.05-.03-.05-.14-.05h-.08Zm-.06-1.39c.19,0,.21,0,.25-.08,.04-.07,.05-.1,.09-.1s.38,.23,.38,.32c0,.04-.02,.04-.18,.08-.07,.01-.07,.01-.6,.44-.06,.04-.09,.07-.09,.11,0,.02,0,.03,.02,.04,.05,.07,.09,.12,.09,.24,0,.18-.15,.18-.16,.18-.1,0-.14-.09-.17-.14-.07-.16-.09-.19-.29-.44-.01-.02-.1-.1-.1-.11,0-.02,.03-.02,.04-.02,.08,0,.44,.18,.47,.18,.05,0,.08-.03,.14-.11,.05-.07,.26-.37,.26-.41,0-.04-.05-.05-.11-.05h-.43c-.13,0-.35,0-.53,.01-.01,0-.12,.01-.13,.01-.01,0-.02-.01-.04-.03l-.09-.1s-.02-.02-.02-.03,0,0,.01,0c.03,0,.17,.01,.2,.01,.13,0,.37,.02,.62,.02h.39Zm.51,2.28s-.02-.02-.02-.03c0,0,0-.01,.01-.01,.02,0,.14,.01,.16,.01,.03,0,.42,.02,.56,.02,.09,0,.09-.04,.11-.13,0-.06,.03-.16,.03-.23,0-.03,0-.06-.02-.1-.01-.03-.04-.1-.04-.11,0-.03,.03-.04,.04-.04,0,0,.42,.09,.42,.17,0,.02-.08,.11-.09,.13-.02,.05-.06,.22-.06,.24,0,.05,.03,.07,.1,.07h.15c.21,0,.24,0,.28-.05,.05-.08,.06-.09,.09-.09,.04,0,.29,.17,.29,.23,0,.04-.01,.05-.06,.1-.04,.04-.06,.07-.07,.2-.02,.17-.06,.58-.14,.79-.14,.36-.46,.37-.5,.37-.04,0-.07,0-.1-.05,0-.01-.05-.09-.05-.1-.03-.04-.18-.23-.18-.25,0-.02,.02-.02,.03-.02,.01,0,.08,.03,.09,.03,.13,.03,.23,.04,.24,.04,.07,0,.18,0,.24-.25,.06-.23,.09-.59,.09-.7s-.09-.11-.12-.11h-.31s-.08,0-.1,.03c-.05,.04-.19,.38-.22,.46-.32,.61-.95,.86-1.08,.86-.01,0-.03,0-.03-.01,0,0,0-.02,.03-.04,.07-.05,.2-.13,.27-.18,.48-.36,.69-.99,.69-1.05,0-.05-.04-.06-.08-.06-.14,0-.28,0-.41,0-.02,0-.12,.01-.13,.01-.01,0-.02-.01-.04-.03l-.09-.1Zm1.43-1.9c.2,0,.22,0,.27-.07,.09-.15,.1-.16,.14-.16,.07,0,.36,.23,.36,.3,0,.05-.06,.05-.18,.05h-.19c-.06,0-.08,0-.08,.03,0,.01,0,.02,.03,.03,.03,.03,.05,.04,.05,.07,0,.04-.04,.06-.06,.07-.11,.04-.14,.07-.31,.27-.02,.02-.13,.14-.15,.17,0,0-.03,.03-.03,.05,0,.09,.51,.33,.92,.41,.11,.02,.12,.02,.12,.03,0,.01-.18,.1-.22,.12-.06,.05-.08,.08-.1,.14,0,.02-.02,.03-.04,.03-.05,0-.59-.32-.8-.51-.03-.03-.06-.05-.09-.05s-.05,.01-.13,.07c-.48,.37-1.01,.46-1.02,.46s-.03,0-.03-.01c0-.03,.42-.22,.51-.27,.13-.08,.51-.33,.51-.43,0-.03-.08-.14-.11-.18-.07-.09-.16-.25-.23-.34-.02-.02-.03-.04-.06-.04-.07,0-.4,.41-.51,.41,0,0-.02,0-.02-.02,0-.04,.12-.15,.14-.18,.25-.32,.5-.85,.5-1.01,0-.02,0-.09,0-.1,0-.02,.02-.02,.03-.02,.03,0,.35,.13,.37,.14,.05,.02,.07,.04,.07,.06,0,.04,0,.04-.09,.09-.07,.05-.28,.29-.28,.34,0,.04,.05,.04,.09,.04h.65Zm-.71,.12c-.07,0-.11,0-.11,.05,0,.06,.32,.48,.42,.48,.07,0,.32-.34,.32-.46,0-.07-.06-.07-.1-.07h-.53Zm2.6,1.48c-.06,0-.23,.04-.33,.08-.02,0-.09,.08-.11,.08s-.04-.02-.05-.03c-.01-.03-.15-.36-.15-.37,0-.04,.02-.04,.04-.04s.1,.02,.12,.02c.07,.01,.18,.01,.26,.01,.15,0,.2-.03,.29-.16,.18-.26,.5-.76,.52-.83,.02-.04,.08-.26,.11-.26,.04,0,.38,.23,.38,.29,0,.04-.1,.08-.14,.09-.13,.04-.15,.07-.4,.36-.33,.39-.37,.43-.37,.45,0,.04,.05,.04,.07,.04,.03,0,.25-.01,.3-.02,.21-.01,.23-.01,.23-.07s-.06-.16-.09-.2c0,0-.04-.06-.04-.06,0-.01,0-.02,.01-.02,.08,0,.59,.35,.59,.7,0,.14-.13,.2-.2,.2-.1,0-.14-.09-.15-.17-.03-.23-.03-.26-.09-.26-.04,0-.31,.06-.34,.07-.09,.03-.09,.07-.09,.23,0,.09,0,.54,0,.64,0,.13,0,.53,0,.63,0,.02,0,.13,0,.2,0,.18-.18,.24-.26,.24-.08,0-.08-.1-.08-.14,0-.14,.02-1.07,.02-1.28v-.26s0-.09,0-.12c-.01-.03-.05-.04-.09-.04Zm0,.47s-.11,.16-.13,.19c-.02,.05-.12,.29-.14,.34-.15,.35-.3,.53-.33,.53-.01,0-.02,0-.02-.03s.03-.11,.04-.14c.06-.24,.15-.7,.15-.92,0-.14,0-.16,.04-.16,.02,0,.03,0,.05,0,.14,.05,.35,.11,.35,.17Zm.63-2.47s-.01,.03-.12,.09c-.02,.01-.49,.67-.49,.72,0,.02,.01,.04,.1,.15,.04,.05,.06,.14,.06,.2,0,.14-.09,.21-.16,.21-.14,0-.2-.18-.23-.25-.05-.14-.15-.28-.27-.4-.01,0-.1-.09-.1-.1s.03-.02,.04-.02c.07,0,.13,.03,.22,.07,.03,.01,.17,.08,.18,.08,.11,0,.25-.61,.29-.83,.03-.14,.03-.16,.08-.15,.04,0,.4,.14,.4,.23Zm.49,2.94c0,.11-.08,.21-.18,.21-.08,0-.09-.05-.12-.15-.05-.2-.16-.41-.26-.58,0-.01-.07-.12-.07-.14s0-.02,.02-.02,.05,0,.09,.04c.36,.23,.52,.45,.52,.64Zm-.43,.55s-.02-.02-.02-.03,.01,0,.02,0c.09,0,.54,.03,.64,.03,.08,0,.09-.05,.09-.09,.02-.25,.04-2.11,.04-2.51,0-.18,0-.69-.02-.84,0-.03-.01-.14-.01-.17,0-.01,0-.03,.01-.03,.03,0,.17,.07,.21,.09,.1,.05,.13,.07,.22,.07h.68c.08,0,.09-.01,.12-.05,.08-.1,.09-.11,.13-.11,.02,0,.36,.15,.36,.24,0,.04-.01,.05-.09,.12-.04,.03-.04,.19-.04,.33,0,.1,0,.58,0,.69,0,.31,0,1.79,0,2.13,0,.05,0,.07,.02,.07,.04,0,.16-.21,.2-.21,.05,0,.29,.24,.29,.32,0,.06-.02,.06-.19,.06h-1.94c-.15,0-.34,0-.5,.01-.01,0-.08,0-.09,0-.02,0-.03,0-.04-.03l-.09-.1Zm1.88-1.18c.14,0,.14-.07,.14-.18v-.82s0-.11-.13-.11h-.7s-.09,0-.11,.05c-.02,.03-.02,.41-.02,.48,0,.08,0,.5,.02,.53,.03,.05,.09,.05,.11,.05h.69Zm.01,1.17c.12,0,.12-.02,.12-.49,0-.08,0-.49-.02-.51-.03-.05-.09-.05-.12-.05h-.69s-.09,0-.12,.05c-.01,.03-.01,.42-.01,.5,0,.07,0,.42,.01,.45,.03,.04,.08,.05,.12,.05h.7Zm0-2.4c.13,0,.13-.09,.13-.15,0-.06,0-.71,0-.73-.01-.05-.04-.08-.13-.08h-.68c-.13,0-.14,.07-.14,.15v.71c0,.06,.05,.1,.13,.1h.69Zm3.57-1.22s0,.01,0,.02c0,.03-.01,.03-.05,.06-.01,0-.02,.02-.02,.04,0,.03,.29,.58,.7,.95,.32,.28,.69,.52,1.14,.69q.14,.05,.14,.09s-.02,.05-.16,.08c-.09,.02-.22,.06-.28,.13-.02,.02-.04,.04-.06,.04s-.23-.08-.65-.5c-.49-.49-.65-.76-.85-1.19-.03-.06-.09-.2-.12-.2s-.03,.01-.12,.14c-.74,1.08-1.78,1.75-1.89,1.75-.02,0-.04-.01-.04-.03,0-.02,.44-.41,.52-.49,.62-.64,.97-1.22,1.1-1.51,.02-.04,.09-.28,.11-.29,.02-.01,.49,.18,.52,.23Zm.41,2.35s.07,0,.1-.02c.03-.02,.14-.15,.18-.15,.03,0,.29,.21,.29,.28,0,.04-.01,.05-.06,.09-.05,.04-.05,.24-.05,.31,0,.14,.03,.77,.03,.89s-.23,.18-.29,.18c-.1,0-.1-.09-.1-.12,0-.19,0-.24-.12-.24h-1.36s-.14,0-.14,.12,0,.14-.03,.17c-.04,.04-.15,.09-.24,.09-.12,0-.12-.09-.12-.12,0-.03,.04-.86,.04-1.02,0-.09,0-.36,0-.44,0-.02-.02-.12-.02-.14,0-.01,0-.05,.04-.05,.04,0,.23,.1,.27,.12,.05,.03,.12,.03,.18,.03h1.4Zm-.65-.7c.16,0,.22,0,.27-.04,.04-.03,.18-.22,.22-.22s.41,.29,.41,.32c0,.05-.11,.05-.24,.05h-.85c-.32,0-.44,0-.57,.01-.01,0-.08,0-.09,0s-.02,0-.04-.03l-.09-.1s-.02-.02-.02-.03c0,0,0,0,.01,0,.03,0,.17,.02,.2,.02,.22,.01,.41,.01,.62,.01h.18Zm.64,1.82c.13,0,.13-.09,.13-.14,0-.11,0-.62,0-.72,0-.05,0-.14-.13-.14h-1.37c-.13,0-.14,.07-.14,.14,0,.11,0,.62,0,.72,0,.06,0,.14,.14,.14h1.37Z"/>
    <path class="cls-2" d="M16.19,8.09c0-2.21-1.7-4.04-3.86-4.23-.19-2.16-2.02-3.87-4.23-3.87S4.06,1.7,3.87,3.87c-2.16,.19-3.87,2.02-3.87,4.23s1.7,4.04,3.87,4.23c.19,2.16,2.02,3.86,4.23,3.86s4.04-1.7,4.23-3.86c2.16-.19,3.86-2.02,3.86-4.23Zm-8.46-.53c-1.16-.39-2-1.5-2-2.77,0-1.61,1.31-2.92,2.92-2.92,1.27,0,2.38,.84,2.77,2-1.92,.24-3.45,1.77-3.69,3.69Zm-3.85-2.79c.24,1.92,1.77,3.45,3.69,3.69-.39,1.16-1.5,2-2.77,2-1.61,0-2.92-1.31-2.92-2.92,0-1.27,.84-2.38,2-2.77Zm4.58,3.85c1.16,.39,2,1.5,2,2.77,0,1.61-1.31,2.92-2.92,2.92-1.27,0-2.38-.84-2.77-2,1.92-.24,3.45-1.77,3.69-3.69Zm3.85,2.79c-.24-1.92-1.77-3.45-3.69-3.69,.39-1.16,1.5-2,2.77-2,1.61,0,2.92,1.31,2.92,2.92,0,1.27-.84,2.38-2,2.77Z"/>
  </g>
</svg>