<?xml version="1.0" encoding="UTF-8"?>
<svg id="_レイヤー_2" data-name="レイヤー 2" xmlns="http://www.w3.org/2000/svg" viewBox="0 0 119.44 17.61">
  <defs>
    <style>
      .cls-1 {
        fill: #6a6969;
      }

      .cls-2 {
        fill: #ec7700;
      }
    </style>
  </defs>
  <g id="_レイヤー_1-2" data-name="レイヤー 1">
    <path class="cls-2" d="M26.16,9.22c0,.22-.17,.4-.37,.4s-.25-.07-.54-.58c-.56-.98-1.26-1.58-1.42-1.58-.06,0-.07,0-.25,.21l-.05,.05c-.31,.33-1.12,1.19-2.14,1.7-.2,.1-.44,.19-.52,.19-.09,0-.1-.07-.1-.09,0-.07,.39-.33,.39-.33,2.06-1.49,3.05-3.57,3.05-3.73,0-.01-.01-.03-.06-.03-.07,0-1.7,.38-1.79,.41-.02,0-.08,.03-.13,.06-.13,.06-.21,.1-.25,.1-.14,0-.53-.25-.58-.3-.07-.07-.21-.44-.21-.5,0-.07,.03-.1,.09-.1,.02,0,.22,.06,.22,.06,.25,.07,.34,.08,.42,.08,.29,0,1.8-.13,2.21-.3,.02,0,.08-.05,.14-.08,.16-.1,.27-.17,.33-.17,.21,0,.73,.43,.73,.66,0,.06-.08,.14-.26,.29-.04,.04-.09,.07-.1,.09-.12,.15-.53,.74-.77,1.1-.07,.1-.13,.19-.16,.23-.04,.05-.06,.1-.06,.14,0,.05,0,.06,.34,.24l.03,.02c.45,.26,1.81,1.04,1.81,1.79Zm2.32-3.06c-.23-.06-.24-.07-.24-.22,0-.21,.03-.92,.07-1.12h0c.07-.21,.09-.31,.09-.35,0-.29-.62-.56-.92-.56-.1,0-.26,.01-.27,.11,0,0,0,.02,0,.02l.02,.03s0,0,0,.01c.13,.12,.2,.2,.27,.36,.09,.25,.09,.55,.09,2.83,0,.98-.02,1.2-.07,1.88,0,.01,0,.07-.02,.11-.01,.06-.02,.1-.02,.12,0,.23,.22,.8,.49,.8s.28-.55,.28-.78c0-.12,0-.33-.02-.42-.03-.71-.04-1.15-.04-2.02,0-.56,.03-.56,.07-.56,.22,0,.59,.35,.83,.67,.54,.71,.58,.75,.8,.75,.12,0,.33-.07,.33-.32,0-.62-1.25-1.23-1.79-1.35Zm3.98-1.03c.06,0,1.8-.15,1.94-.17,.48-.04,.79-.07,.79-.36,0-.26-.37-.35-.54-.35-.08,0-.34,.06-.62,.12-.08,.02-.15,.03-.18,.04-.38,.07-.91,.09-1.29,.09-.11,0-.3,0-.42-.03,0,0,0,0,0,0-.02,0-.07-.02-.11-.04-.09-.03-.15-.05-.19-.05-.03,0-.09,0-.09,.1s.27,.65,.71,.65Zm2.9,.67s-.09,.02-.21,.07c-.02,0-.03,.01-.04,.02-.02,0-.06,0-.2,.02-.14,.01-.34,.03-.35,.03-.05,0-.14,.02-.26,.03-.57,.07-1.77,.21-2.32,.21-.32,0-.63-.07-.79-.14,0,0-.02-.01-.04-.02-.06-.03-.09-.05-.11-.05-.05,0-.09,.04-.09,.08,0,.26,.6,.97,.97,.97,.04,0,.13-.04,.27-.09,.05-.02,.1-.04,.12-.05,.37-.11,2.41-.46,2.66-.46,.12,0,.13,.07,.13,.11,0,.02-.49,1.81-3.18,3.26-.01,0-.04,.02-.08,.04-.17,.08-.21,.1-.22,.11-.02,.02-.03,.06-.03,.08,0,.05,.04,.1,.11,.1,.08,0,.73-.17,1.46-.53,1.11-.57,1.63-1.16,2.31-2.18,.22-.34,.3-.46,.43-.57,.19-.16,.23-.2,.23-.34,0-.21-.61-.71-.75-.71Zm7.34,.8s-.05,0-.08,0c-.03,0-.07,0-.09,0h0c-1.18,.07-4.02,.17-4.29,.17-.46,0-.83-.03-.98-.07-.01,0-.06-.02-.1-.04-.09-.04-.15-.06-.18-.06-.06,0-.1,.06-.1,.14,0,.29,.38,.82,.76,.82,.06,0,.22-.04,.42-.09,.09-.02,.18-.05,.22-.05,.19-.04,2.07-.15,3.17-.15,.08,0,.31,0,.55,0,.26,0,.52,0,.62,0,.35,0,.71-.02,.71-.29,0-.1-.11-.4-.61-.4Zm7.76-2.43c0-.36-.45-.75-1.18-.75-.14,0-.34,.05-.34,.15,0,.04,.05,.08,.13,.12,.27,.1,.58,.32,.69,.45,.15,.18,.26,.32,.45,.32,.17,0,.24-.16,.24-.28Zm-1.83,.85c.33,.35,.37,.4,.37,.49,0,.16-.09,.2-.23,.26-.12,.05-.14,.08-.39,.49h0c-.04,.07-.12,.19-.23,.34-.18,.26-.52,.74-.52,.81,0,.06,0,.07,.15,.25l.02,.03c.18,.24,.33,.42,.33,.71,0,.34-.24,.43-.39,.43-.19,0-.23-.07-.54-.58h0c-.04-.08-.11-.18-.15-.18-.05,0-.09,.04-.22,.18l-.03,.04c-1.37,1.47-2.93,1.97-3.03,1.97-.04,0-.08-.01-.1-.04-.01-.02-.02-.04-.02-.08,.01-.04,.03-.05,.11-.1,.02-.01,.05-.03,.09-.05h0c1.64-.93,2.76-2.25,2.76-2.48,0-.09-.19-.29-.49-.5-.3-.21-.56-.33-.64-.33-.07,0-.35,.25-.58,.45-.42,.37-.71,.61-.86,.61-.05,0-.08-.04-.08-.08,0-.06,.3-.37,.3-.38,1-1.09,1.62-2.21,1.62-2.63,0-.03-.04-.12-.07-.19-.04-.1-.06-.16-.06-.2,0-.09,.13-.09,.19-.09,.45,0,.77,.34,.77,.52,0,.03-.02,.08-.05,.17-.02,.05-.04,.13-.04,.15,0,.09,.15,.1,.24,.1,.17,0,.96-.07,1.13-.21,.14-.11,.18-.13,.25-.13,.17,0,.32,.16,.39,.25Zm-.78,.43c-.06,0-.26,.02-.45,.05-.22,.03-.46,.06-.54,.06-.12,0-.19-.02-.25-.03-.1-.03-.11-.03-.19-.03-.02,0-.05,0-.07,.02-.07,.08-.66,.79-.68,.88,0,.08,.04,.1,.23,.17h.02c.24,.1,.31,.14,.84,.4l.06,.03c.06,.03,.14,.06,.16,.05,.14-.03,.96-1.24,.96-1.52,0-.07-.07-.07-.1-.07Zm.79-1.35c-.06,0-.19,.02-.19,.1,0,.07,.12,.16,.12,.16,.32,.29,.38,.35,.5,.54,.2,.31,.29,.42,.44,.42,.18,0,.29-.22,.29-.34,0-.48-.72-.88-1.17-.88Zm4.65,4.23c.16,0,.32-.13,.32-.41,0-.58-.64-.82-1.03-.91-.19-.04-.21-.05-.21-.16s0-.12,.23-.35c.04-.04,.12-.13,.21-.23,.15-.17,.43-.5,.48-.52,0,0,.04,0,.07-.02,.04,0,.08-.02,.09-.02,.08-.03,.12-.08,.12-.15,0-.07-.02-.09-.21-.27-.01,0-.06-.06-.1-.11-.06-.06-.12-.14-.17-.18-.03-.04-.09-.08-.15-.08-.06,0-.13,.06-.28,.19-.04,.03-.08,.07-.1,.08-.05,.04-.09,.04-.15,.04-.06,0-.07,0-.07-.07v-.65c0-.32,0-.35,.03-.4,0,0,.04-.04,.06-.06,.08-.08,.1-.11,.1-.15,0-.09-.07-.13-.12-.16-.06-.03-.64-.21-.72-.21-.08,0-.09,.06-.09,.07,0,.03,0,.07,.02,.15,0,.04,.02,.1,.02,.12,.02,.29,.03,.75,.03,.86,0,.51,0,.51-.16,.51-.08,0-.31-.01-.53-.02-.21-.01-.42-.02-.49-.02-.07,0-.09,.04-.09,.07s.01,.04,.04,.08h.01s0,.01,0,.01l.14,.17s.05,.07,.11,.07c.01,0,.05,0,.09,0,.03,0,.06,0,.08,0,.26-.01,.59-.02,.89-.02h.54c.05,0,.06,0,.07,.02,0,.18-1.02,1.48-1.38,1.84-.03,.03-.1,.1-.19,.19-.43,.41-.49,.48-.49,.54,0,.02,0,.08,.09,.08,.13,0,.46-.25,.91-.59,.16-.12,.34-.26,.36-.27,.01,.01,.02,.06,.02,.16,0,.72-.02,1.37-.04,1.89v.38s-.02,.15-.03,.26c0,.11-.01,.21-.01,.25,0,.16,.1,.24,.29,.24,.27,0,.46-.17,.46-.41,0-.06,0-.2-.02-.36,0-.14-.02-.28-.02-.33,0-.16,0-.61,0-1.05,0-.42,0-.84,0-.98,0-.04,0-.13,.01-.14,.1,0,.32,.31,.4,.44,.19,.39,.29,.59,.52,.59Zm3.49,1.1c-.12,0-.15,.04-.37,.32-.16,.21-.28,.21-.41,.21h-.28c-.13,0-.14-.06-.14-.37,0-.26,0-.99-.01-1.69,0-.66-.01-1.31-.01-1.54,0-.14,.02-.2,.17-.2h1.07c.27,0,.46,0,.46-.16,0-.18-.56-.7-.7-.7-.1,0-.13,.04-.36,.35-.14,.19-.16,.19-.52,.19-.11,0-.13-.05-.13-.18,0-.33,.03-1.47,.06-1.57,0-.01,.04-.05,.06-.07,.08-.08,.11-.12,.11-.16,0-.16-.17-.21-.25-.24l-.12-.04c-.43-.13-.46-.13-.47-.13-.1,0-.12,.07-.12,.11,0,.03,0,.1,.02,.2,.01,.08,.02,.16,.02,.19,.04,.57,.05,.92,.05,1.62,0,.23-.02,.26-.14,.26-.17,0-.48-.01-.71-.02-.12,0-.22,0-.25,0-.02,0-.18-.01-.25-.02-.04,0-.07,0-.07,0-.06,0-.08,.04-.08,.07,0,.03,0,.05,.04,.09l.15,.18s.06,.06,.11,.06c.02,0,.06,0,.1,0,.03,0,.05,0,.07,0,.27-.02,.71-.02,.9-.02,.11,0,.13,.06,.13,.18,0,.46-.02,3.36-.03,3.49,0,.1-.06,.12-.17,.12h-.3c-.38,0-.74-.01-.97-.02h-.08s-.1-.01-.17-.02c-.07,0-.14-.01-.16-.01-.04,0-.08,.03-.08,.08,0,.03,0,.04,.04,.08h0s.15,.18,.15,.18c.03,.04,.06,.07,.11,.07,.01,0,.05,0,.09-.01,.03,0,.06-.01,.08-.01,.22-.02,.61-.02,.84-.02h2.85c.27,0,.47,0,.47-.16,0-.18-.72-.69-.8-.69Zm3.19-2.62s.05,0,.09,0c.03,0,.06,0,.08,0,.28-.02,.5-.02,.97-.02h1.77c.38,0,.46,0,.46-.14,0-.11-.53-.63-.64-.63-.06,0-.11,.06-.26,.23l-.04,.05c-.15,.18-.15,.18-.5,.18h-.76c-.36,0-.72-.01-1.05-.03-.02,0-.09,0-.15-.01-.08,0-.16-.01-.18-.01-.05,0-.08,.04-.08,.07,0,.04,.01,.06,.04,.09l.15,.18s.06,.06,.11,.06Zm3.77,2.39l-.06-.03c-.58-.32-.86-.45-.94-.45-.07,0-.11,.04-.11,.1s.06,.14,.22,.31c.08,.09,.23,.25,.23,.3-.03,.03-.24,.05-.57,.08-.87,.09-1.58,.13-1.67,.13-.04,0-.08-.01-.08-.02,0-.04,.05-.1,.08-.13v-.02c.07-.05,.38-.43,.54-.64l.02-.03c.17-.22,.18-.24,.22-.25,.24-.06,.27-.07,.27-.18,0-.08-.15-.23-.29-.36h2.34c.37,0,.45,0,.45-.16,0-.1-.02-.12-.41-.44-.18-.15-.21-.17-.3-.17-.1,0-.14,.06-.25,.22h0c-.17,.24-.23,.24-.55,.24h-2.53c-.26,0-.66-.01-1.05-.03-.02,0-.09,0-.15-.01-.08,0-.16-.01-.18-.01-.08,0-.09,.05-.09,.07,0,.02,.01,.04,.03,.06,0,0,.01,.02,.02,.03l.15,.18h.01s.05,.06,.09,.06c.01,0,.05,0,.09,0,.03,0,.06,0,.08,0,.21-.02,.4-.02,.96-.02h.48c.16,0,.18,.01,.18,.08,0,.07-.2,.6-.39,.99-.3,.6-.33,.6-.75,.6-.13,0-.34-.02-.44-.03h-.04c-.16-.04-.27-.05-.31-.05-.11,0-.12,.08-.12,.11,0,.05,.05,.18,.43,.83,.02,.06,.08,.09,.13,.09,.04,0,.08-.03,.17-.08,.03-.02,.06-.04,.07-.04,.27-.12,3.21-.7,3.54-.7,.08,0,.13,0,.27,.26,.13,.24,.31,.57,.57,.57,.17,0,.36-.19,.36-.47,0-.51-.49-.8-.71-.93Zm1.51-2.75c-1.83-.52-3.14-2.22-3.14-2.4,0-.01,0-.02,.03-.03h.02c.07-.06,.1-.08,.1-.15,0-.19-.77-.52-.78-.52-.13,0-.14,.07-.19,.26v.05c-.04,.12-.49,1.03-1.83,2.17-.43,.37-.96,.75-1.18,.9-.1,.07-.14,.09-.14,.15,0,.03,.01,.05,.03,.07,.04,.03,.08,.02,.1,0,.37-.07,2.09-.84,3.4-2.49,.1-.12,.15-.18,.17-.2,.02,.03,.05,.09,.08,.15,.88,1.61,2.52,2.74,2.72,2.74,.08,0,.12-.05,.15-.1,.07-.12,.23-.22,.46-.29,.2-.07,.25-.08,.25-.17,0-.08-.02-.09-.26-.15Zm3.45-2.1c0-.25-.02-.5-.02-.6,0-.12,.08-.14,.12-.14,.05,0,.29,.1,.48,.18,.07,.03,.11,.04,.22,.04h1.7c.13,0,.17-.02,.24-.09h.02c.19-.19,.22-.22,.32-.22,.16,0,.52,.33,.52,.49,0,.09-.05,.14-.16,.26l-.02,.03s-.04,.11-.04,.64v.02c0,.05,0,.2,.01,.36,0,.17,.01,.34,.01,.4,0,.25-.16,.42-.42,.42-.16,0-.26-.09-.27-.24q0-.21-.14-.21h-1.76c-.13,0-.14,.05-.14,.11,0,.15-.02,.46-.42,.46-.26,0-.26-.21-.26-.29,0-.08,0-.3,.01-.52,0-.24,.02-.48,.02-.57,0-.08,0-.3-.02-.53Zm.8,1.03h1.8c.15,0,.18,0,.18-.68,0-.56,0-.56-.18-.56h-1.8c-.17,0-.18,0-.18,.63s0,.61,.18,.61Zm-1.94,.18c-.13-.07-.19-.1-.19-.16,.02-.11,.54-1.18,.59-1.25,0,0,.06-.04,.09-.07,.04-.02,.07-.05,.09-.06,.05-.04,.08-.1,.08-.15,0-.2-.7-.45-.74-.45-.13,0-.14,.15-.15,.21,0,.01-.36,1.51-1.38,2.96-.02,.03-.05,.07-.07,.11-.11,.16-.12,.18-.12,.2,0,.04,.03,.09,.09,.09,.09,0,.51-.36,.78-.66l.03-.04c.06-.07,.14-.16,.16-.16,.01,.01,.02,.08,.02,.1,0,.01,0,.02,0,.02,0,.04,0,.24,0,.47,0,.31,0,.67,0,.77,0,.32-.03,1.43-.04,2.17,0,.25-.01,.45-.01,.55,0,.15,0,.33,.24,.33,.43,0,.43-.36,.43-.68,0-.16,0-.65,0-1.12,0-.44,0-.87,0-1,0-.45,.02-1.56,.06-1.66,0-.01,.04-.06,.07-.09,.11-.14,.14-.19,.14-.23,0-.08-.06-.15-.17-.2Zm5.48,3.71c-1.31-.5-2.18-1.6-2.18-1.78,0-.02,.02-.03,.11-.03h1.51c.2,0,.29,0,.35-.03,.07-.03,.1-.07,.1-.14,0-.13-.53-.56-.69-.56-.11,0-.14,.04-.34,.27l-.02,.02c-.09,.11-.1,.11-.45,.11h-.58c-.16,0-.18-.04-.18-.21,0-.2,0-.29,.03-.38,0,0,.03-.04,.05-.07,.07-.1,.12-.16,.12-.21,0-.21-.69-.34-.7-.34-.12,0-.12,.1-.12,.13,0,.06,.02,.3,.03,.35,0,.05,0,.24,0,.39,0,.09,0,.17,0,.18,0,.1-.05,.15-.16,.15h-.56c-.35,0-.66,0-1.04-.02-.05,0-.29-.03-.35-.03-.05,0-.09,.03-.09,.08,0,.03,.02,.05,.05,.08l.15,.18s.05,.07,.11,.07c.03,0,.15-.02,.17-.02,.1-.01,.41-.02,.96-.02h.4s.05,0,.06,.01c0,.11-.58,1.03-1.76,2.17-.03,.03-.06,.06-.09,.08-.07,.06-.09,.08-.09,.12,0,.06,.04,.09,.1,.09,.09,0,.97-.31,1.94-1.58,.01-.02,.03-.04,.05-.06,.04-.05,.13-.17,.17-.18,.01,.02,.01,.13,.01,.28,0,.13,0,.51-.01,.9,0,.4-.02,.81-.02,.96,0,.25,.13,.3,.23,.3,.02,0,.42,0,.42-.52,0-.16-.01-.6-.03-1.08-.01-.43-.03-.88-.03-1.09,.04,.08,.1,.17,.14,.25,.05,.09,.1,.17,.11,.2,.52,.87,1.32,1.52,1.51,1.52,.08,0,.15-.05,.16-.06l.06-.04c.11-.08,.17-.13,.29-.16h.03c.15-.06,.2-.08,.2-.16,0-.07-.05-.09-.16-.13Zm7.94,.46s0,.04-.2,.15c-.05,.03-.1,.06-.12,.07-.23,.14-.25,.18-.4,.39v.02s-.08,.05-.11,.05c0,0-1.16-.38-1.94-1.55-.04-.06-.08-.12-.1-.15-.02,.02-.04,.06-.08,.12-.46,.95-1.47,1.59-2.49,1.59-.04,0-.16,0-.16-.1,0-.06,.05-.07,.22-.11h.03c1.33-.36,1.92-1.54,1.92-1.68,0-.03,0-.04-.09-.04h-.44c-.15,0-.15,0-.18,.2-.01,.08-.18,.26-.49,.26-.06,0-.16-.03-.16-.21,0-.05,0-.28,.01-.56,.01-.36,.02-.81,.02-.93,0-.13-.02-.41-.04-.54,0-.01-.02-.09-.02-.12,0-.06,.04-.1,.09-.1,.13,0,.26,.1,.37,.19,.05,.04,.1,.08,.14,.1,.09,.05,.17,.05,.23,.05h.54c.18,0,.18-.07,.18-.24,0-.54,0-.54-.22-.54-.04,0-.17,.01-.27,.02-.11,.01-.18,.02-.2,.02-.05,0-.1-.05-.12-.09l-.15-.17s-.04-.05-.04-.07c0,0,0-.02,0-.03-.4,.35-.81,.59-1.16,.63-.02,0-.03,0-.04-.01,.36,.45,.41,.92,.41,1.19,0,.46-.19,1.47-.77,1.47-.22,0-.25-.1-.27-.22-.04-.26-.13-.47-.21-.49,0,0,0,.02,0,.05,0,.14,.01,.54,.03,.92,.01,.37,.03,.71,.03,.83,0,.25-.16,.4-.42,.4s-.29-.18-.29-.35c0-.04,.03-.55,.04-.64,0-.19,.02-.54,.02-1.29,0-.97,0-3.53-.05-4.31,0,0-.03-.13-.03-.16,0-.05,.03-.1,.12-.1,.07,0,.1,.02,.41,.17l.12,.06c.13,.06,.2,.06,.27,.06h.4c.09,0,.15,0,.23-.08,.1-.1,.12-.12,.17-.12,.08,0,.6,.32,.6,.47,0,.12-.07,.15-.21,.2h-.01c-.1,.16-.83,1.42-.88,1.58,.01,.02,.05,.06,.16,.17,.05,.05,.1,.11,.15,.16,0-.02,0-.04,0-.06,.03-.04,.1-.09,.15-.14,.02-.02,.04-.03,.04-.04,1.51-1.35,1.83-2.39,1.83-2.4,.02-.2,.03-.28,.14-.28,.08,0,.72,.21,.72,.44,0,.03-.02,.07-.06,.12,0,.01-.02,.02-.02,.04,.1,.14,.83,.96,1.84,1.34t0,0c.23,.09,.42,.15,.68,.21h.02c.05,.02,.1,.03,.1,.08,0,.07-.08,.09-.21,.13-.02,0-.04,.01-.05,.01-.11,.04-.32,.15-.43,.26,0,0-.02,.02-.03,.03-.07,.08-.11,.12-.15,.12-.16,0-1.25-.74-1.99-1.91-.02-.04-.04-.06-.05-.07-.02,.01-.06,.06-.08,.1-.32,.48-.74,.96-1.18,1.34,0,0,.02,0,.02,0,0,0,.04,0,.07,0,.04,0,.09,.01,.1,.01,.07,0,.33,.03,.54,.03h.68c.11,0,.15,0,.26-.17l.02-.03c.11-.16,.15-.2,.19-.2,.06,0,.61,.37,.61,.54s-.12,.17-.34,.17h-.41c-.12,0-.18,.02-.18,.14,0,.64,.01,.64,.19,.64h.68c.09,0,.15,0,.23-.1l.04-.05c.09-.12,.12-.16,.18-.16,.04,0,.65,.32,.65,.48,0,.09-.05,.12-.11,.16,0,0-.01,0-.01,0q-.07,.04-.07,.11v.54s0,.19,.02,.33c0,.14,.02,.26,.02,.31,0,.27-.31,.39-.52,.39s-.21-.13-.22-.26c0-.11-.07-.12-.17-.12h-.79s-.07,0-.07,.01c.02,.06,.29,.35,.75,.63,.39,.24,1,.53,1.67,.53,.13,0,.2,0,.2,.08Zm-6.34-3.45c0,1.25,.02,1.75,.04,1.81,.03,.06,.21,.1,.4,.1s.28-.59,.28-.89c0-.42-.14-.82-.36-1.08-.08-.09-.11-.13-.11-.23,0-.03,.03-.14,.15-.53,.12-.39,.31-.98,.31-1.09,0-.1-.04-.11-.14-.11h-.38c-.13,0-.17,.02-.18,.1,0,.04,0,.78,0,1.91Zm4.56,1.89q.21,0,.21-.79c0-.16,0-.23-.18-.23h-.71c-.17,0-.17,.04-.18,.27,0,.12-.07,.65-.08,.68,0,.06,.04,.08,.18,.08h.76Zm-1.67-1.02h-.51c-.18,0-.19,0-.19,.86,0,.15,.09,.16,.18,.16h.48c.1,0,.13,0,.16-.1,.03-.1,.07-.52,.07-.74,0-.15-.06-.18-.19-.18Zm8.45-1.74c.08,0,.35-.24,.51-.39l.02-.02q.59-.53,.74-.55c.24-.04,.33-.05,.33-.2s-.06-.18-.58-.6l-.02-.02s-.08-.08-.15-.08c-.09,0-.09,.08-.11,.2-.05,.34-.38,.84-.62,1.2l-.1,.15q-.12,.18-.12,.2s.04,.09,.1,.09Zm-3.03-.55v.03c.13,.36,.16,.47,.38,.47,.17,0,.35-.15,.35-.43,0-.56-.92-1.24-1.14-1.24-.03,0-.04,.01-.06,.02,0,0-.01,0-.02,.02-.02,.03-.04,.09,.07,.25,.19,.34,.32,.56,.43,.88Zm1.77-.2v.02c.1,.34,.15,.5,.36,.5,.2,0,.41-.18,.41-.46,0-.53-.72-1.13-1.02-1.26-.05-.02-.12-.05-.15-.01-.05,.03-.05,.1,0,.2,.16,.3,.31,.67,.4,1.02Zm2.44,2.28c-.1,0-.13,.05-.22,.2-.06,.1-.13,.1-.44,.1h-1.1c-.12,0-.18-.02-.18-.11,0-.04,.04-.33,.08-.41,0-.01,.05-.05,.07-.08,.1-.11,.15-.16,.15-.21,0-.21-.73-.36-.83-.36-.05,0-.19,0-.19,.15,0,.02,0,.05,.02,.12,0,.04,.02,.08,.02,.1,0,.14,.02,.3,.02,.44,0,.33,0,.37-.18,.37h-.61c-.4,0-.78-.01-1.01-.02h-.03c-.06,0-.3-.03-.35-.03-.08,0-.09,.06-.09,.07,0,.04,.03,.06,.05,.09l.15,.18s.05,.07,.11,.07c0,0,.05,0,.1-.01,.05,0,.11-.01,.13-.01,.31-.02,.69-.02,.9-.02h.58c.15,0,.18,.03,.18,.09,0,.17-.49,1.86-2.25,2.48l-.06,.02c-.16,.06-.23,.08-.23,.17,0,.03,.01,.11,.16,.11,.01,0,1.13-.12,2.03-.98,.67-.65,.89-1.38,1-1.77,.03-.09,.05-.11,.18-.11h1.37c.15,0,.18,0,.18,.1,0,.06-.13,.87-.24,1.31-.14,.54-.19,.71-.46,.71-.2,0-.34-.03-.74-.14h-.04s-.08-.04-.11-.04c-.08,0-.12,.05-.12,.11,0,.05,.04,.1,.12,.13,.27,.12,.57,.26,.59,.52,.02,.15,.05,.26,.3,.26,.4,0,.93-.32,1.19-1.83,.01-.05,.04-.2,.06-.35,.03-.17,.06-.34,.07-.4,.04-.17,.06-.19,.15-.25,0,0,.01,0,.01,0,.07-.05,.16-.11,.16-.19,0-.18-.49-.55-.64-.55Zm.63-1.58c-.1,0-.17,.05-.26,.15-.12,.12-.13,.12-.45,.12h-4.49c-.11,0-.16-.01-.19-.09-.14-.34-.16-.38-.25-.38-.06,0-.08,.06-.1,.09,0,0,0,.02,0,.03-.08,.39-.1,.53-.31,.76-.23,.26-.28,.33-.28,.51,0,.15,.09,.31,.28,.31,.3,0,.56-.31,.71-.82,.03-.09,.06-.09,.18-.09h4.58c.1,0,.12,.01,.12,.04,0,.03-.06,.13-.1,.2-.07,.13-.12,.22-.12,.28,0,.05,.04,.09,.09,.09,.02,0,.03,0,.23-.11l.09-.05c.11-.07,.3-.15,.48-.15,.02,0,.08,0,.14,.02,.08,.01,.14,.02,.17,.02,.11,0,.22-.09,.22-.22,0-.18-.55-.69-.74-.69Zm7.55,2.2c-.08,0-.11,.04-.21,.19-.04,.06-.06,.07-.42,.07h-.26c-.12,0-.12-.02-.12-.06,0-.03,.06-.31,.1-.39,0-.01,.03-.05,.05-.07,.07-.09,.1-.13,.1-.17,0-.19-.77-.34-.78-.34-.07,0-.13,.04-.13,.12,0,.03,.05,.18,.07,.21,.03,.06,.03,.11,.03,.15,0,.08-.02,.2-.03,.29l-.02,.11c-.03,.13-.03,.14-.13,.14-.24,0-.9-.02-.95-.03-.02,0-.08,0-.13-.01-.06,0-.12-.01-.14-.01-.04,0-.08,.03-.08,.08,0,.03,.01,.05,.05,.08l.15,.18,.02,.02s.05,.05,.09,.05c0,0,.04,0,.09,0,.05,0,.12-.01,.14-.01,.23-.02,.47-.02,.7-.02,.08,0,.08,.01,.08,.04,0,.11-.37,1.15-1.16,1.74-.06,.04-.14,.1-.23,.15-.08,.05-.17,.11-.23,.15-.06,.03-.07,.08-.07,.11,0,.03,.01,.08,.1,.08,.27,0,1.35-.45,1.89-1.49,.02-.03,.05-.1,.08-.18,.08-.17,.24-.53,.29-.58,.03-.03,.08-.03,.14-.03h.53c.08,0,.15,.01,.15,.14,0,.2-.05,.8-.15,1.19-.09,.38-.24,.38-.35,.38,0,0-.17,0-.4-.06,0,0-.02,0-.03-.01-.09-.04-.12-.04-.15-.04-.1,0-.1,.07-.1,.09,0,.03,0,.03,.2,.3,.05,.07,.1,.13,.11,.15,.07,.14,.09,.17,.09,.18,.07,.11,.17,.11,.22,.11,.11,0,.66-.03,.9-.66,.13-.33,.2-.93,.25-1.36,.02-.21,.05-.24,.11-.3,.09-.09,.12-.12,.12-.21,0-.15-.46-.45-.55-.45Zm-3.36-.54c.33-.36,.45-.37,.56-.37,.2,0,.39-.01,.39-.25,0-.14-.07-.18-.24-.3l-.04-.03s-.06-.03-.11-.06c-.29-.18-.35-.2-.38-.2-.06,0-.08,.03-.17,.15l-.04,.05q-.08,.11-.16,.11h-.47c.08-.06,.14-.15,.14-.31,0-.21-.07-.31-.16-.44-.01-.02-.02-.03-.02-.05,0-.03,.04-.07,.13-.14,.89-.72,.9-.72,1-.74h.06c.23-.06,.29-.07,.29-.19,0-.19-.62-.6-.71-.6s-.13,.07-.18,.19v.02c-.06,.09-.06,.1-.38,.1h-.67c-.45,0-.84-.02-1.05-.03-.03,0-.1,0-.18-.01-.07,0-.14-.01-.16-.01-.06,0-.08,.04-.08,.07,0,.04,.03,.08,.04,.09l.15,.18,.02,.02s.05,.05,.09,.05c0,0,.05,0,.1,0,.05,0,.11-.01,.13-.01,.31-.01,.69-.02,.9-.02h.74c.09,0,.14,0,.14,.02-.01,.07-.31,.51-.44,.68-.1,.14-.13,.17-.18,.17-.02,0-.13-.05-.22-.09-.28-.12-.5-.21-.58-.21-.11,0-.12,.07-.12,.09,0,.03,.01,.05,.12,.15,.03,.03,.06,.06,.07,.07,.35,.43,.38,.48,.49,.74,.02,.05,.07,.16,.15,.22h-.37c-.27,0-.61-.01-.82-.02-.09,0-.16,0-.18,0-.05,0-.3-.03-.35-.03-.04,0-.08,.03-.08,.08,0,.02,.01,.04,.03,.06,0,0,0,.01,.02,.03l.15,.18,.02,.02s.05,.05,.09,.05c.01,0,.07,0,.14-.01,.07,0,.17-.02,.19-.02,.3,0,.55,0,.93,0,.03,0,.08,.02,.08,.05,0,.08-.38,.98-1.01,1.83-.03,.04-.12,.15-.22,.27q-.43,.54-.43,.57c0,.07,.07,.12,.12,.12,.07,0,.6-.39,1.03-.89,.27-.32,.46-.56,.52-.65,0,0,0-.01,0-.01,0-.01,.02-.02,.03-.03,0,.03,0,.08,0,.11,0,.48,0,1.14,0,1.6,0,.45,0,.47-.45,.47-.03,0-.11,0-.18-.01-.07,0-.14-.01-.17-.01-.12,0-.15,.05-.15,.09,0,.07,.08,.09,.19,.13h.03c.32,.14,.35,.21,.38,.27,.05,.1,.08,.16,.18,.16,.48,0,.72-.3,.72-.89,0-.08,0-.47,0-.93,0-.65,0-1.43,0-1.65q0-.61,.18-.61h.14c.08,0,.16,0,.17,0,0,0,0,0,0,.02,0,.05-.07,.22-.11,.34-.06,.16-.09,.23-.09,.27,0,.06,.04,.09,.09,.09,.08,0,.19-.14,.19-.14Zm4.35-.24s0,.05-.37,.24l-.03,.02c-.09,.06-.1,.11-.14,.2-.02,.04-.05,.09-.11,.09-.13,0-1.07-.58-1.4-.88-.04-.04-.08-.08-.12-.08-.03,0-.04,0-.14,.08l-.04,.03c-.84,.65-1.77,.79-1.78,.79-.05,0-.1-.03-.1-.08s.02-.07,.55-.33c.15-.07,.28-.14,.33-.17,.34-.2,.84-.57,.84-.69,0-.04-.11-.19-.16-.25l-.03-.04c-.05-.07-.11-.17-.18-.27-.07-.11-.14-.23-.21-.31-.03-.04-.04-.05-.06-.05-.04,.01-.19,.16-.31,.28-.26,.26-.44,.43-.56,.43-.04,0-.09-.04-.09-.09,0-.05,.06-.12,.18-.26,.03-.03,.05-.06,.06-.07,.43-.56,.84-1.44,.84-1.69,0,0,0-.03,0-.05,0-.07,0-.1,0-.13,0-.05,.05-.09,.11-.09,.07,0,.63,.23,.66,.24,.08,.04,.15,.07,.15,.16,0,.09-.04,.11-.17,.2h-.01c-.12,.09-.43,.48-.44,.55,0,.01,.03,.02,.09,.02h1.11c.35,0,.35,0,.41-.1,.16-.26,.18-.3,.28-.3,.14,0,.66,.42,.66,.57s-.15,.15-.37,.15h-.32s-.05,0-.07,0c0,0,0,0,0,0,.06,.05,.11,.09,.11,.17,0,.05-.03,.13-.15,.17-.18,.07-.21,.1-.51,.44-.05,.05-.22,.24-.25,.28,0,0-.01,.01-.02,.02,0,0-.01,.03-.01,.03,.03,.11,.81,.5,1.52,.65l.1,.02c.11,.02,.15,.03,.15,.09Zm-1.84-1.87h-.91c-.14,0-.14,0-.14,.03,.01,.1,.52,.76,.66,.76,.09-.02,.5-.54,.5-.72,0-.05-.02-.07-.11-.07Zm8.75,.84c-.1,0-.13,.04-.35,.3-.1,.11-.1,.11-.45,.11h-1.5c-.18,0-.18-.04-.18-.28,0-1.09,.02-1.53,.04-1.59,0-.02,.06-.06,.09-.1,.11-.1,.17-.16,.17-.22,0-.11-.14-.15-.36-.21-.12-.04-.67-.17-.7-.17-.07,0-.12,.04-.12,.1,0,.03,.02,.14,.05,.3,.02,.12,.05,.26,.06,.31,.04,.59,.06,1.17,.06,1.7,0,.15-.08,.16-.18,.16h-1.54c-.35,0-.66,0-1.04-.02-.05,0-.29-.03-.35-.03-.05,0-.09,.03-.09,.08,0,.03,.01,.05,.05,.08l.15,.18s.05,.07,.11,.07c.03,0,.13-.01,.17-.02,.02,0,.05,0,.08,0,.12,0,.37-.01,.88-.01h1.58c.16,0,.17,.04,.17,.33,0,1.38-.02,2.53-.02,2.85h0c-.01,.17-.09,.17-.18,.17h-1.07c-.32,0-.61-.01-.93-.03h-.12s-.09,0-.15-.02c-.08,0-.16-.01-.18-.01-.07,0-.08,.05-.08,.07,0,.04,0,.05,.04,.09l.14,.17s.05,.07,.11,.07c.01,0,.05,0,.09,0,.03,0,.06,0,.08,0,.08,0,.31-.02,.96-.02h4.33c.28,0,.47,0,.47-.16s-.73-.56-.78-.56c-.09,0-.12,.04-.32,.27l-.03,.03c-.09,.11-.1,.11-.45,.11h-1.03c-.17,0-.18-.07-.18-.15v-3c0-.18,.07-.19,.19-.19h2.6c.28,0,.47,0,.47-.16,0-.15-.72-.56-.78-.56Zm2.53-1.08c.1,.18,.16,.29,.32,.29,.2,0,.31-.2,.31-.4,0-.28-.21-.53-.54-.67-.14-.06-.55-.13-.64-.13-.1,0-.12,.05-.12,.09,0,.02,.01,.04,.04,.07,.09,.07,.37,.3,.62,.75Zm0,4.02c0-.23,.02-.28,.24-.85,0-.02,.84-2.26,.84-2.35,0-.06-.04-.1-.1-.1-.08,0-.09,.04-.13,.12l-.02,.04c-.03,.08-.08,.18-.13,.28-.05,.1-.1,.21-.14,.29-.58,1.29-1,2.23-1.26,2.36l.03,.05-.03-.05s-.05,.01-.08,.02c-.14,.03-.25,.05-.25,.13,0,.05,.05,.09,.18,.17,.03,.02,.06,.04,.07,.04,.27,.31,.27,.52,.27,.99,0,.28,.11,.58,.42,.58,.2,0,.39-.21,.39-.42,0-.08-.03-.2-.07-.32-.21-.57-.23-.65-.23-.98Zm-.68-2.31c.11,.23,.17,.35,.32,.35,.19,0,.36-.19,.36-.41,0-.47-.6-.82-1.13-.82-.06,0-.16,.01-.18,.08,0,.02,0,.04,.01,.05,0,0,.1,.09,.14,.11,.26,.23,.4,.46,.48,.63Zm5.86,.23c-.06,0-.13,.07-.26,.23-.04,.05-.08,.1-.11,.12-.04,.04-.06,.05-.38,.05h-.72c-.13,0-.17-.02-.19-.1,0-.04,0-.53,0-1.25,0-.14,.08-.15,.19-.15h1.34c.28,0,.47,0,.47-.16,0-.11-.56-.54-.65-.54-.06,0-.12,.07-.24,.24-.03,.04-.07,.1-.09,.11-.05,.05-.07,.05-.39,.05h-.43s-.11,0-.15-.04c-.02-.02-.03-.06-.03-.12,0-.02,.02-.58,.02-.69s0-.16,.03-.24c0-.01,.04-.05,.06-.08,.06-.07,.09-.11,.09-.15,0-.2-.81-.3-.82-.3-.06,0-.09,.04-.09,.11,0,.01,0,.04,.03,.21,.01,.07,.02,.14,.02,.17,.02,.25,.02,.7,.02,.96,0,.15-.08,.17-.17,.17h-.17c-.36,0-.71-.02-1.05-.03-.03,0-.1,0-.17-.01-.07,0-.15-.01-.18-.01-.07,0-.08,.05-.08,.07,0,.03,0,.05,.04,.09l.15,.17s.05,.07,.11,.07c.01,0,.04,0,.08,0,.04,0,.07,0,.09,0,.27-.02,.79-.02,.96-.02h.22c.11,0,.16,.05,.16,.18,0,.7,0,1.15-.01,1.21-.02,.09-.05,.11-.18,.11h-.57c-.36,0-.71-.02-1.05-.03-.03,0-.1,0-.17-.01-.07,0-.15-.01-.18-.01-.07,0-.08,.05-.08,.07,0,.04,0,.05,.04,.09l.15,.18s.06,.06,.11,.06c.01,0,.05,0,.09,0,.03,0,.06,0,.08,0,.27-.02,.8-.02,.97-.02h.41c.14,0,.18,.02,.18,.08,0,.09-.29,.74-.62,1.36-.31,.59-.34,.63-.48,.63-.18,0-.33,0-.51-.03h-.07c-.14-.03-.26-.05-.31-.05-.06,0-.09,.04-.09,.08,0,0,.2,.86,.39,.86,.03,0,.08-.02,.16-.08,.02-.01,.04-.02,.05-.03,.09-.06,.29-.12,.37-.14,.17-.04,.8-.14,1.31-.21,.27-.04,.5-.07,.6-.09,.08-.01,.3-.06,.52-.1,.28-.06,.66-.13,.7-.13,.11,0,.14,.06,.19,.28,.13,.6,.16,.69,.36,.69,.17,0,.43-.13,.43-.5,0-.8-1.16-1.91-1.36-1.91-.02,0-.04,.01-.05,.03v.02s-.01,.02-.01,.03c0,.04,.06,.15,.15,.37,.11,.24,.29,.65,.29,.74,0,.03,0,.06-.21,.07-.12,0-.43,.02-.79,.04-.64,.03-1.42,.08-1.61,.08,.01-.02,.04-.05,.07-.08l.02-.02c.24-.28,.58-.71,.81-1.08,.19-.3,.21-.32,.26-.34,.15-.03,.25-.05,.25-.16,0-.06-.08-.17-.24-.36,0,0,0-.01-.01-.02h2.12c.28,0,.47,0,.47-.16,0-.13-.55-.55-.64-.55Zm8.36,3.07c-1.03-.27-1.84-1.41-2.15-1.9-.99-1.62-1.1-3.43-1.11-3.49,0-.04,0-.05,.01-.06,0-.01,.04-.02,.09-.03,.05-.01,.17-.04,.17-.18,0-.18-.19-.24-.57-.34-.03,0-.09-.03-.16-.05-.19-.06-.27-.08-.3-.08-.06,0-.12,.05-.12,.12,0,.03,.02,.15,.03,.16,.03,.16,.03,.24,.03,.46,0,.23-.02,2.31-.87,3.92-.54,1.03-1.44,1.71-1.8,1.95-.08,.05-.13,.09-.13,.14,0,.05,.03,.09,.1,.09,.09,0,1.45-.47,2.28-1.85,.78-1.29,.97-3.11,.99-3.31v-.05s.01-.04,.01-.06c.12,1.52,.57,2.52,.72,2.86v.03c.76,1.64,1.76,2.27,1.81,2.27,.04,0,.06-.01,.14-.08l.08-.06c.08-.06,.26-.16,.51-.22l.08-.02c.19-.04,.24-.05,.24-.13,0-.07-.08-.09-.12-.11Z"/>
    <path class="cls-1" d="M21,16.71c-.03-.08-.23-.59-.23-.62,0-.07,.06-.09,.1-.09,.05,0,.06,.02,.17,.19,.2,.31,.6,.62,1.06,.62,.3,0,.67-.2,.67-.68,0-.41-.27-.55-.84-.75-.63-.22-1.04-.46-1.04-.99,0-.47,.32-.87,.9-.87,.09,0,.2,.01,.32,.04,.05,0,.24,.05,.27,.05,.04,0,.07,0,.1-.03,.06-.05,.07-.06,.1-.06,.05,0,.07,.04,.11,.16,.03,.07,.24,.6,.24,.63,0,.06-.05,.07-.08,.07-.04,0-.04-.01-.12-.13-.12-.19-.37-.58-.92-.58-.51,0-.61,.41-.61,.59,0,.37,.27,.51,.86,.72,.91,.32,1.03,.68,1.03,1.02,0,.61-.48,.97-.98,.97-.16,0-.32-.03-.49-.09-.12-.04-.15-.04-.18-.04-.07,0-.13,.02-.17,.06-.08,.07-.09,.08-.13,.08-.06,0-.07-.03-.15-.25Zm2.34-1.82s-.12,0-.12-.07c0-.06,.02-.06,.15-.08,.07,0,.45-.1,.45-.68,0-.04,0-.1,.06-.1,.07,0,.07,.07,.07,.09v.58s.01,.11,.11,.11h.48s.13,0,.13,.07c0,.03-.03,.07-.12,.07h-.48s-.08,0-.1,.06c-.02,.05-.02,.55-.02,.64,0,.14,0,.86,.01,.92,.06,.25,.27,.25,.31,.25,.09,0,.2-.04,.3-.11,.03-.02,.13-.12,.16-.12,.02,0,.03,.02,.03,.04,0,.08-.28,.39-.66,.39-.47,0-.47-.36-.47-.81,0-.01,0-.99,0-1.14,0-.02,0-.11-.11-.11h-.18Zm1.7,1.98s-.12,0-.12-.07,.05-.07,.17-.07c.05,0,.15,0,.21-.1,.04-.06,.05-.12,.05-.75,0-.14,0-.8-.03-.88-.01-.05-.07-.09-.14-.09-.03,0-.18,.04-.22,.04-.03,0-.05-.02-.05-.05,0-.04,.02-.04,.22-.1,.06-.02,.47-.15,.5-.15,.01,0,.02,0,.02,.01v.2c0,.24,0,.27,.05,.27,.02,0,.03,0,.09-.09,.04-.05,.31-.39,.64-.39,.17,0,.27,.1,.27,.26s-.12,.24-.23,.24c-.09,0-.14-.05-.18-.09-.03-.03-.07-.08-.13-.08-.11,0-.3,.14-.38,.29-.11,.19-.13,.3-.13,.96,0,.41,.01,.49,.33,.49,.04,0,.09,.01,.09,.07,0,.07-.08,.07-.12,.07h-.93Zm3.54-1.6c0,.15,0,.89,0,1.05,0,.21,0,.4,.18,.4,.04,0,.12-.03,.14-.05,0,0,.03-.03,.04-.03,0,0,.02,0,.02,.03,0,.08-.18,.28-.38,.28-.14,0-.26-.11-.3-.2,0-.03-.02-.07-.06-.07-.03,0-.07,.03-.11,.06-.18,.14-.4,.21-.59,.21-.27,0-.57-.14-.57-.48,0-.54,.76-.77,1.02-.84,.27-.08,.3-.09,.3-.32,0-.39-.22-.53-.42-.53-.3,0-.35,.21-.36,.28-.03,.14-.06,.3-.24,.3-.12,0-.21-.09-.21-.22,0-.27,.44-.47,.82-.47,.36,0,.73,.16,.74,.61Zm-.35,1.21c.02-.05,.03-.07,.03-.6,0-.09,0-.17-.09-.17-.16,0-.84,.3-.84,.73,0,.12,.08,.33,.39,.33,.15,0,.45-.14,.51-.28Zm2.49,.39s-.08-.01-.09-.06c0-.06-.01-.09-.04-.09s-.13,.1-.15,.11c-.17,.11-.34,.12-.44,.12-.65,0-.88-.61-.88-1.15,0-.86,.56-1.14,.94-1.14,.05,0,.13,0,.24,.04,.04,.01,.23,.13,.27,.13,.05,0,.06-.07,.06-.11,0-.05,0-.34,0-.4,0-.2,0-.53-.28-.53-.02,0-.12,.01-.13,.01-.02,0-.05-.01-.05-.04,0-.04,.02-.05,.21-.1,.06-.02,.5-.16,.53-.16,0,0,.02,0,.04,.02,.01,.02,.01,.3,.01,.35,0,.33,0,1.97,0,2.34,0,.24,0,.51,.26,.52,.08,0,.16,0,.16,.08,0,.01-.01,.06-.07,.06h-.57Zm-.11-.5c.02-.1,.02-.57,.02-.86,0-.25,0-.36-.1-.49-.07-.09-.18-.18-.36-.18-.35,0-.67,.37-.67,1,0,.47,.19,.92,.6,.92,.15,0,.46-.08,.51-.39Zm2.61-1.1c0,.15,0,.89,0,1.05,0,.21,0,.4,.18,.4,.05,0,.12-.03,.14-.05,0,0,.03-.03,.04-.03,0,0,.02,0,.02,.03,0,.08-.18,.28-.38,.28-.14,0-.26-.11-.3-.2,0-.03-.02-.07-.06-.07-.03,0-.07,.03-.11,.06-.18,.14-.4,.21-.59,.21-.27,0-.57-.14-.57-.48,0-.54,.76-.77,1.02-.84,.27-.08,.3-.09,.3-.32,0-.39-.22-.53-.42-.53-.3,0-.35,.21-.36,.28-.03,.14-.06,.3-.24,.3-.12,0-.21-.09-.21-.22,0-.27,.44-.47,.82-.47,.36,0,.73,.16,.74,.61Zm-.35,1.21c.02-.05,.03-.07,.03-.6,0-.09,0-.17-.09-.17-.16,0-.84,.3-.84,.73,0,.12,.08,.33,.39,.33,.15,0,.45-.14,.51-.28Zm2.19,.23c-.03-.08-.23-.59-.23-.62,0-.07,.06-.09,.1-.09,.05,0,.06,.02,.17,.19,.2,.31,.6,.62,1.06,.62,.3,0,.67-.2,.67-.68,0-.41-.27-.55-.84-.75-.63-.22-1.04-.46-1.04-.99,0-.47,.32-.87,.9-.87,.09,0,.2,.01,.32,.04,.05,0,.24,.05,.27,.05,.04,0,.07,0,.1-.03,.06-.05,.07-.06,.1-.06,.05,0,.07,.04,.11,.16,.03,.07,.24,.6,.24,.63,0,.06-.05,.07-.08,.07-.04,0-.05-.01-.12-.13-.12-.19-.37-.58-.92-.58-.51,0-.61,.41-.61,.59,0,.37,.27,.51,.86,.72,.91,.32,1.03,.68,1.03,1.02,0,.61-.48,.97-.98,.97-.16,0-.32-.03-.49-.09-.12-.04-.15-.04-.18-.04-.07,0-.13,.02-.17,.06-.08,.07-.09,.08-.13,.08-.06,0-.07-.03-.15-.25Zm3.24-2.05c.58,0,1,.5,1,1.15s-.42,1.15-1,1.15-1-.5-1-1.15,.41-1.15,1-1.15Zm0,2.18c.38,0,.61-.49,.61-1.03s-.24-1.03-.61-1.03c-.34,0-.61,.42-.61,1.03,0,.53,.23,1.03,.61,1.03Zm2.21,.12c-.42,0-.94-.27-.94-1.1,0-.69,.39-1.2,1.04-1.2,.36,0,.7,.18,.7,.43,0,.15-.12,.23-.24,.23-.18,0-.2-.16-.21-.27-.03-.27-.28-.27-.31-.27-.32,0-.6,.41-.6,1.01s.31,.98,.69,.98c.22,0,.46-.12,.6-.31,.04-.05,.06-.08,.09-.08,.02,0,.05,.01,.05,.05,0,.07-.31,.52-.87,.52Zm1.2-.09s-.1,0-.1-.07c0-.07,.05-.07,.14-.08,.06,0,.14-.03,.18-.13,.04-.08,.04-.73,.04-.9,0-.13,0-.65-.03-.71-.02-.05-.07-.08-.13-.08-.02,0-.14,.01-.14,.01-.02,0-.04,0-.04-.04s.02-.04,.23-.1c.06-.02,.34-.12,.37-.12,.05,0,.05,.04,.05,.09,0,.2,0,1.22,0,1.45,0,.33,0,.52,.21,.53,.09,0,.14,0,.14,.08,0,.07-.08,.07-.11,.07h-.8Zm.14-3.11c0-.14,.12-.26,.26-.26,.14,0,.26,.11,.26,.26s-.12,.26-.26,.26-.26-.12-.26-.26Zm2.6,1.51c0,.15,0,.89,0,1.05,0,.21,0,.4,.18,.4,.04,0,.12-.03,.14-.05,0,0,.03-.03,.04-.03,0,0,.02,0,.02,.03,0,.08-.18,.28-.38,.28-.14,0-.26-.11-.3-.2,0-.03-.02-.07-.06-.07-.03,0-.07,.03-.11,.06-.18,.14-.4,.21-.59,.21-.27,0-.57-.14-.57-.48,0-.54,.76-.77,1.02-.84,.27-.08,.3-.09,.3-.32,0-.39-.22-.53-.42-.53-.3,0-.35,.21-.36,.28-.03,.14-.06,.3-.24,.3-.12,0-.21-.09-.21-.22,0-.27,.44-.47,.82-.47,.36,0,.73,.16,.74,.61Zm-.35,1.21c.02-.05,.03-.07,.03-.6,0-.09,0-.17-.09-.17-.16,0-.84,.3-.84,.73,0,.12,.08,.33,.39,.33,.15,0,.45-.14,.51-.28Zm.86,.39s-.11,0-.11-.07c0-.08,.07-.08,.13-.08,.06,0,.17-.02,.21-.17,.03-.09,.03-1.69,.03-1.94,0-.13,0-.7-.03-.79,0-.03-.04-.08-.13-.08-.02,0-.12,.01-.15,.01s-.04-.02-.04-.04c0-.04,.15-.09,.22-.11,.03,0,.41-.13,.41-.13,.03,0,.03,.01,.03,.1,0,.36,0,2.09,0,2.48,0,.48,0,.63,.23,.64,.1,0,.14,0,.14,.08,0,.07-.06,.07-.11,.07h-.84Zm2.53,0c-.06,0-.13,0-.13-.07s.04-.07,.21-.07c.13,0,.35,0,.39-.23,.01-.08,.01-1.11,.01-1.24,0-.18,0-1.2-.01-1.28-.04-.23-.21-.23-.5-.23-.03,0-.1,0-.1-.07,0-.08,.07-.08,.13-.08h1.32c.05,0,.12,0,.12,.08,0,.07-.04,.07-.21,.07-.14,0-.33,0-.39,.21-.02,.06-.02,1.08-.02,1.28,0,1.19,0,1.2,.01,1.27,.04,.23,.2,.23,.51,.23,.02,0,.09,0,.09,.07s-.07,.07-.12,.07h-1.33Zm2.9,0c-.08,0-.08-.06-.08-.07,0-.06,.06-.07,.08-.07,.12-.01,.16-.02,.22-.09,.04-.07,.04-.15,.04-.87,0-.43,0-.59-.09-.74-.1-.15-.24-.17-.3-.17-.14,0-.33,.08-.46,.2-.14,.14-.14,.21-.14,.73,0,.12,0,.67,.01,.75,.03,.14,.1,.19,.22,.2,.05,0,.12,0,.12,.07,0,0,0,.07-.09,.07h-.84c-.09,0-.09-.06-.09-.07,0-.08,.05-.08,.12-.08,.11,0,.18-.07,.2-.14,.04-.1,.04-.7,.04-.86,0-.73,0-.84-.2-.84-.02,0-.11,.02-.13,.02s-.04,0-.04-.04,.02-.04,.18-.08c.07-.02,.45-.13,.46-.13,.04,0,.04,.02,.04,.2,0,.06,0,.1,.03,.1s.16-.12,.18-.14c.18-.12,.34-.16,.51-.16,.32,0,.46,.18,.5,.3,.06,.18,.06,.25,.06,.95,0,.14,0,.6,.03,.68,0,.03,.05,.13,.2,.14,.07,0,.13,0,.13,.08,0,.07-.05,.07-.09,.07h-.84Zm2.14-2.13s.05,.02,.09,.02c.06,0,.1-.03,.13-.06,.03-.03,.05-.05,.06-.05,.03,0,.04,.02,.05,.06,.04,.1,.24,.59,.24,.64,0,.02,0,.04-.04,.04-.04,0-.05-.02-.16-.18-.05-.09-.38-.45-.67-.45-.17,0-.39,.12-.39,.37,0,.18,.12,.29,.58,.45,.52,.18,.79,.35,.79,.71,0,.3-.21,.65-.69,.65-.12,0-.17-.01-.37-.07-.03,0-.06-.01-.09-.01-.06,0-.11,.02-.14,.03-.09,.04-.14,.06-.16,.06-.04,0-.05-.04-.08-.09-.04-.1-.22-.55-.22-.61,0-.03,0-.08,.05-.08,.05,0,.09,.05,.16,.18,.2,.34,.62,.48,.83,.48,.22,0,.39-.19,.39-.41,0-.21-.13-.31-.65-.49-.47-.17-.71-.32-.71-.67s.25-.6,.6-.6c.15,0,.22,.02,.39,.09Zm2.58,2.13s-.09-.04-.09-.09c0-.1,0-.14-.04-.14-.03,0-.12,.09-.14,.1-.06,.04-.28,.21-.55,.21-.13,0-.61-.04-.64-.7,0-.09,0-.55,0-.66s0-.59-.02-.65c-.02-.05-.07-.06-.11-.06-.02,0-.11,0-.14,0-.03,0-.04-.02-.04-.04,0-.04,.02-.04,.18-.09,.14-.04,.4-.11,.41-.11,.01,0,.04,0,.04,.04,0,0,0,1.17,0,1.3,0,.27,0,.38,.05,.5,.07,.18,.23,.27,.39,.27,.19,0,.48-.16,.56-.33,.06-.11,.06-.8,.06-.96,0-.45,0-.59-.17-.59-.02,0-.13,.01-.15,.01-.05,0-.05-.03-.05-.04,0-.05,.03-.06,.33-.13,.08-.02,.3-.08,.32-.08s.04,.02,.04,.04c0,.04,0,.77,0,.91,0,.12,0,.69,0,.82,0,.09,0,.29,.23,.29,.05,0,.12,0,.12,.08,0,.03-.02,.07-.08,.07h-.51Zm.82,0s-.12,0-.12-.07,.04-.07,.17-.07c.05,0,.15,0,.21-.1,.04-.06,.05-.12,.05-.75,0-.14,0-.8-.03-.88-.01-.05-.07-.09-.14-.09-.03,0-.18,.04-.22,.04-.03,0-.04-.02-.04-.05,0-.04,.02-.04,.22-.1,.06-.02,.47-.15,.5-.15,.01,0,.02,0,.02,.01v.2c0,.24,0,.27,.04,.27,.02,0,.03,0,.09-.09,.04-.05,.31-.39,.64-.39,.17,0,.27,.1,.27,.26s-.12,.24-.23,.24c-.09,0-.14-.05-.18-.09-.03-.03-.07-.08-.13-.08-.11,0-.3,.14-.38,.29-.11,.19-.13,.3-.13,.96,0,.41,.01,.49,.33,.49,.04,0,.09,.01,.09,.07,0,.07-.08,.07-.12,.07h-.93Zm3.52-1.6c0,.15,0,.89,0,1.05,0,.21,0,.4,.18,.4,.04,0,.12-.03,.14-.05,0,0,.03-.03,.04-.03,0,0,.02,0,.02,.03,0,.08-.18,.28-.38,.28-.14,0-.26-.11-.3-.2,0-.03-.02-.07-.06-.07-.03,0-.07,.03-.11,.06-.18,.14-.4,.21-.59,.21-.27,0-.57-.14-.57-.48,0-.54,.76-.77,1.02-.84,.27-.08,.3-.09,.3-.32,0-.39-.22-.53-.42-.53-.3,0-.35,.21-.36,.28-.03,.14-.06,.3-.24,.3-.12,0-.21-.09-.21-.22,0-.27,.44-.47,.82-.47,.36,0,.73,.16,.74,.61Zm-.35,1.21c.02-.05,.03-.07,.03-.6,0-.09,0-.17-.09-.17-.16,0-.84,.3-.84,.73,0,.12,.08,.33,.39,.33,.15,0,.45-.14,.51-.28Zm2.18,.39c-.08,0-.08-.06-.08-.07,0-.06,.06-.07,.08-.07,.12-.01,.16-.02,.22-.09,.04-.07,.04-.15,.04-.87,0-.43,0-.59-.09-.74-.1-.15-.24-.17-.3-.17-.14,0-.33,.08-.46,.2-.14,.14-.14,.21-.14,.73,0,.12,0,.67,.01,.75,.03,.14,.1,.19,.22,.2,.04,0,.12,0,.12,.07,0,0,0,.07-.09,.07h-.84c-.09,0-.09-.06-.09-.07,0-.08,.05-.08,.12-.08,.11,0,.18-.07,.2-.14,.04-.1,.04-.7,.04-.86,0-.73,0-.84-.2-.84-.02,0-.11,.02-.13,.02s-.05,0-.05-.04,.02-.04,.18-.08c.07-.02,.45-.13,.46-.13,.05,0,.05,.02,.05,.2,0,.06,0,.1,.03,.1s.16-.12,.18-.14c.18-.12,.34-.16,.51-.16,.32,0,.46,.18,.5,.3,.06,.18,.06,.25,.06,.95,0,.14,0,.6,.03,.68,0,.03,.05,.13,.2,.14,.07,0,.13,0,.13,.08,0,.07-.05,.07-.09,.07h-.84Zm2.1,.09c-.42,0-.94-.27-.94-1.1,0-.69,.39-1.2,1.04-1.2,.36,0,.7,.18,.7,.43,0,.15-.12,.23-.24,.23-.18,0-.2-.16-.21-.27-.03-.27-.28-.27-.31-.27-.32,0-.6,.41-.6,1.01s.31,.98,.69,.98c.22,0,.46-.12,.6-.31,.04-.05,.06-.08,.09-.08,.02,0,.04,.01,.04,.05,0,.07-.31,.52-.87,.52Zm1.74-1.27c-.06,0-.14,0-.14,.14,0,.55,.37,.93,.75,.93,.21,0,.41-.12,.55-.25,.03-.02,.13-.18,.17-.18,.02,0,.04,.02,.04,.06,0,.1-.32,.56-.91,.56-.63,0-.99-.5-.99-1.15,0-.75,.46-1.14,.96-1.14,.7,0,.9,.74,.9,.93,0,.08-.04,.1-.14,.1h-1.19Zm.83-.15c.1,0,.15-.02,.15-.13,0-.17-.16-.63-.54-.63-.42,0-.55,.56-.55,.66s.08,.1,.12,.1h.82Zm3.15,1.19c.28,0,.79-.09,1.14-.61,.09-.13,.09-.14,.13-.14,.03,0,.07,.01,.07,.07,0,.03-.17,.47-.2,.54-.11,.28-.13,.29-.42,.29h-1.89c-.07,0-.13,0-.13-.07s.05-.07,.16-.07,.3-.01,.34-.23c.01-.08,.01-1.11,.01-1.24,0-.18,0-1.2-.01-1.28-.04-.23-.24-.23-.41-.23-.03,0-.1,0-.1-.07,0-.08,.06-.08,.13-.08h1.12c.07,0,.14,0,.14,.08,0,.07-.05,.07-.16,.07-.09,0-.3,0-.34,.23-.01,.08-.01,1.04-.01,1.25,0,1.2,0,1.2,.01,1.28,.04,.21,.23,.23,.31,.23h.12Zm3.19-1.46c0,.15,0,.89,0,1.05,0,.21,0,.4,.18,.4,.04,0,.12-.03,.14-.05,0,0,.03-.03,.04-.03,0,0,.02,0,.02,.03,0,.08-.18,.28-.38,.28-.14,0-.26-.11-.3-.2,0-.03-.02-.07-.06-.07-.03,0-.07,.03-.11,.06-.18,.14-.4,.21-.59,.21-.27,0-.57-.14-.57-.48,0-.54,.76-.77,1.02-.84,.27-.08,.3-.09,.3-.32,0-.39-.22-.53-.42-.53-.3,0-.35,.21-.36,.28-.03,.14-.06,.3-.24,.3-.12,0-.21-.09-.21-.22,0-.27,.44-.47,.82-.47,.36,0,.73,.16,.74,.61Zm-.35,1.21c.02-.05,.03-.07,.03-.6,0-.09,0-.17-.09-.17-.16,0-.84,.3-.84,.73,0,.12,.08,.33,.39,.33,.15,0,.45-.14,.51-.28Zm1.31,.37c-.08,.1-.09,.1-.11,.1-.03,0-.03-.05-.03-.07,0-.08,0-.44,0-.52,0-.26,0-2.38,0-2.43-.03-.16-.15-.19-.23-.19-.01,0-.09,0-.1,0-.04,0-.05-.02-.05-.04,0-.03,.02-.04,.18-.09,.16-.05,.46-.13,.49-.13,.02,0,.03,.01,.04,.02,0,.01,0,.04,0,.77v.48s.01,.08,.06,.08c.03,0,.18-.08,.19-.08,.18-.09,.33-.11,.42-.11,.43,0,.87,.41,.87,1.11,0,.64-.38,1.19-.88,1.19-.21,0-.41-.1-.53-.18-.04-.03-.08-.06-.14-.06s-.09,.04-.18,.14Zm.33-1.84c-.14,.14-.14,.25-.14,.89,0,.26,0,.46,.08,.61,.1,.19,.32,.25,.45,.25,.39,0,.62-.42,.62-.95s-.23-.96-.62-.96c-.14,0-.29,.06-.39,.16Zm2.61-.36c.58,0,1,.5,1,1.15s-.42,1.15-1,1.15-1-.5-1-1.15,.41-1.15,1-1.15Zm0,2.18c.38,0,.61-.49,.61-1.03s-.24-1.03-.61-1.03c-.34,0-.61,.42-.61,1.03,0,.53,.23,1.03,.61,1.03Zm1.29,.04s-.12,0-.12-.07,.04-.07,.17-.07c.05,0,.15,0,.21-.1,.04-.06,.05-.12,.05-.75,0-.14,0-.8-.03-.88-.01-.05-.07-.09-.14-.09-.03,0-.18,.04-.22,.04-.03,0-.04-.02-.04-.05,0-.04,.02-.04,.22-.1,.06-.02,.47-.15,.5-.15,.01,0,.02,0,.02,.01v.2c0,.24,0,.27,.04,.27,.02,0,.03,0,.09-.09,.04-.05,.31-.39,.64-.39,.17,0,.27,.1,.27,.26s-.12,.24-.23,.24c-.09,0-.14-.05-.18-.09-.03-.03-.07-.08-.13-.08-.11,0-.3,.14-.38,.29-.11,.19-.13,.3-.13,.96,0,.41,.01,.49,.33,.49,.04,0,.09,.01,.09,.07,0,.07-.08,.07-.12,.07h-.93Zm5.68-3.32s.29,.71,.29,.76-.05,.08-.09,.08-.05-.01-.14-.14c-.38-.54-.78-.6-.97-.6-.71,0-1.07,.87-1.07,1.65,0,1.05,.61,1.46,1.15,1.46,.32,0,.68-.14,.97-.64,.1-.18,.1-.18,.14-.18s.07,.03,.07,.07-.11,.28-.26,.46c-.38,.47-.86,.5-1.06,.5-.95,0-1.42-.77-1.42-1.65,0-1.05,.65-1.8,1.42-1.8,.11,0,.24,.02,.38,.05,.03,.01,.24,.07,.27,.07,.04,0,.09-.01,.12-.04,.07-.07,.08-.08,.12-.08,.03,0,.06,.03,.08,.05Zm1.48,1.1c.58,0,1,.5,1,1.15s-.42,1.15-1,1.15-1-.5-1-1.15,.41-1.15,1-1.15Zm0,2.18c.38,0,.61-.49,.61-1.03s-.24-1.03-.61-1.03c-.34,0-.61,.42-.61,1.03,0,.53,.23,1.03,.61,1.03Zm1.29,.04s-.12,0-.12-.07,.04-.07,.17-.07c.05,0,.15,0,.21-.1,.04-.06,.05-.12,.05-.75,0-.14,0-.8-.03-.88-.01-.05-.07-.09-.14-.09-.03,0-.18,.04-.22,.04-.03,0-.04-.02-.04-.05,0-.04,.02-.04,.22-.1,.06-.02,.47-.15,.5-.15,.01,0,.02,0,.02,.01v.2c0,.24,0,.27,.04,.27,.02,0,.03,0,.09-.09,.04-.05,.31-.39,.64-.39,.17,0,.27,.1,.27,.26s-.12,.24-.23,.24c-.09,0-.14-.05-.18-.09-.03-.03-.07-.08-.13-.08-.11,0-.3,.14-.38,.29-.11,.19-.13,.3-.13,.96,0,.41,.01,.49,.33,.49,.04,0,.09,.01,.09,.07,0,.07-.08,.07-.12,.07h-.93Zm1.96,.74s-.12,0-.12-.07c0-.07,.09-.07,.16-.08,.11,0,.19-.05,.22-.19,.01-.09,.01-1.56,.01-1.83,0-.4,0-.52-.16-.52-.03,0-.16,.03-.19,.03-.02,0-.04-.02-.04-.04,0-.03,.02-.04,.1-.07,.05-.01,.56-.18,.57-.18,.03,0,.03,.04,.03,.13,0,.07,0,.1,.04,.1,0,0,.14-.08,.16-.09,.09-.05,.27-.14,.47-.14,.47,0,.9,.41,.9,1.11,0,.59-.34,1.19-.9,1.19-.2,0-.37-.06-.44-.09-.03-.01-.14-.07-.17-.07-.06,0-.06,.01-.06,.37,0,.08,0,.28,.23,.29,.13,0,.18,0,.18,.08s-.09,.07-.13,.07h-.87Zm.7-2.59c-.11,.11-.12,.18-.12,.84s.02,.68,.11,.77c.14,.13,.36,.14,.43,.14,.5,0,.65-.55,.65-.95,0-.53-.23-.96-.64-.96-.14,0-.32,.07-.43,.17Zm1.67,1.64c0-.16,.13-.3,.29-.3s.3,.13,.3,.3-.14,.3-.3,.3-.29-.13-.29-.3Z"/>
    <path class="cls-2" d="M16.19,8.09c0-2.21-1.7-4.04-3.86-4.23-.19-2.16-2.02-3.87-4.23-3.87S4.06,1.7,3.87,3.87c-2.16,.19-3.87,2.02-3.87,4.23s1.7,4.04,3.87,4.23c.19,2.16,2.02,3.86,4.23,3.86s4.04-1.7,4.23-3.86c2.16-.19,3.86-2.02,3.86-4.23Zm-8.46-.53c-1.16-.39-2-1.5-2-2.77,0-1.61,1.31-2.92,2.92-2.92,1.27,0,2.38,.84,2.77,2-1.92,.24-3.45,1.77-3.69,3.69Zm-3.85-2.79c.24,1.92,1.77,3.45,3.69,3.69-.39,1.16-1.5,2-2.77,2-1.61,0-2.92-1.31-2.92-2.92,0-1.27,.84-2.38,2-2.77Zm4.58,3.85c1.16,.39,2,1.5,2,2.77,0,1.61-1.31,2.92-2.92,2.92-1.27,0-2.38-.84-2.77-2,1.92-.24,3.45-1.77,3.69-3.69Zm3.85,2.79c-.24-1.92-1.77-3.45-3.69-3.69,.39-1.16,1.5-2,2.77-2,1.61,0,2.92,1.31,2.92,2.92,0,1.27-.84,2.38-2,2.77Z"/>
  </g>
</svg>