<?xml version="1.0" encoding="UTF-8"?>
<svg id="_レイヤー_2" data-name="レイヤー 2" xmlns="http://www.w3.org/2000/svg" viewBox="0 0 309.84 51.16">
  <defs>
    <style>
      .cls-1, .cls-2 {
        fill: #fff;
      }

      .cls-2 {
        font-family: GothicMB101Pro-DeBold, 'GothicMB101Pro DeBold';
        font-size: 10px;
        font-weight: 700;
      }

      .cls-3 {
        letter-spacing: -.16em;
      }

      .cls-4 {
        letter-spacing: -.09em;
      }

      .cls-5 {
        fill: #808c96;
      }

      .cls-6 {
        letter-spacing: -.05em;
      }

      .cls-7 {
        letter-spacing: -.07em;
      }

      .cls-8 {
        letter-spacing: -.01em;
      }

      .cls-9 {
        letter-spacing: 0em;
      }

      .cls-10 {
        letter-spacing: -.15em;
      }
    </style>
  </defs>
  <g id="_レイヤー_1-2" data-name="レイヤー 1">
    <rect class="cls-5" width="309.84" height="51.16"/>
    <g>
      <path class="cls-1" d="M55.05,27.33c0,.34-.27,.62-.58,.62s-.4-.12-.84-.91c-.88-1.54-1.97-2.47-2.22-2.47-.1,0-.12,.02-.4,.33l-.07,.08c-.48,.51-1.76,1.86-3.34,2.65-.31,.15-.69,.3-.81,.3-.14,0-.15-.11-.15-.14,0-.11,.61-.52,.61-.52,3.22-2.33,4.77-5.57,4.76-5.83,0-.02-.02-.05-.09-.05-.11,.01-2.66,.6-2.8,.64-.03,.01-.12,.05-.2,.09-.2,.1-.33,.15-.39,.15-.21,0-.82-.39-.91-.47-.1-.1-.32-.68-.32-.78,0-.11,.05-.16,.14-.16,.03,0,.35,.09,.35,.09,.39,.11,.54,.12,.65,.12,.45,0,2.82-.21,3.45-.47,.03-.02,.12-.07,.22-.13,.25-.16,.42-.27,.51-.27,.33,0,1.14,.67,1.14,1.03,0,.09-.12,.21-.4,.45-.07,.06-.14,.11-.16,.14-.2,.23-.84,1.17-1.22,1.73-.11,.16-.19,.28-.24,.35-.04,.05-.09,.13-.09,.22,0,.07,0,.09,.53,.38l.05,.03c.7,.4,2.83,1.63,2.83,2.8Zm3.63-4.78c-.36-.09-.37-.11-.37-.35,0-.32,.05-1.44,.11-1.74v-.02c.11-.31,.16-.47,.16-.54,0-.46-.97-.87-1.43-.87-.15,0-.4,.02-.42,.17,0,.01,0,.02,0,.03l.03,.05s0,.01,.01,.02c.2,.19,.32,.31,.42,.56,.15,.4,.15,.85,.15,4.42,0,1.53-.02,1.87-.11,2.95,0,.02-.01,.11-.02,.17-.02,.1-.03,.16-.03,.19,0,.35,.34,1.26,.77,1.26s.43-.85,.43-1.22c0-.19-.01-.51-.03-.65-.05-1.12-.06-1.79-.06-3.16,0-.88,.05-.88,.12-.88,.35,0,.92,.54,1.3,1.04h.01c.85,1.11,.9,1.18,1.24,1.18,.19,0,.52-.11,.52-.51,0-.97-1.96-1.92-2.79-2.12Zm6.22-1.62c.09,0,2.81-.24,3.03-.27,.75-.06,1.24-.11,1.24-.56,0-.41-.57-.54-.84-.54-.13,0-.53,.09-.97,.19-.13,.03-.23,.05-.28,.06-.63,.12-1.54,.14-2.02,.14-.17,0-.46,0-.66-.05,0,0,0,0,0,0-.03,0-.11-.03-.17-.06-.15-.05-.24-.08-.29-.08-.04,0-.14,.01-.14,.15s.42,1.01,1.12,1.01Zm4.53,1.04c-.05,0-.15,.04-.32,.11-.03,.01-.05,.02-.06,.03-.02,0-.1,0-.32,.03-.22,.02-.52,.05-.55,.05-.08,0-.23,.03-.42,.05-.89,.11-2.76,.33-3.61,.33-.51,0-.98-.11-1.24-.21-.01,0-.04-.02-.07-.03-.1-.05-.14-.07-.18-.07-.08,0-.14,.06-.14,.13,0,.41,.94,1.51,1.51,1.51,.06,0,.21-.06,.42-.14,.08-.03,.16-.06,.18-.07,.57-.17,3.76-.72,4.16-.72,.18,0,.2,.1,.2,.18,0,.02-.76,2.82-4.97,5.09-.02,.01-.06,.03-.11,.05-.29,.14-.34,.17-.36,.19-.03,.03-.04,.08-.04,.12,0,.08,.06,.16,.18,.16,.13,0,1.14-.26,2.27-.83,1.74-.89,2.55-1.81,3.6-3.41,.35-.54,.46-.72,.67-.89,.3-.24,.37-.31,.37-.53,0-.33-.95-1.1-1.18-1.1Zm11.47,1.24s-.08,0-.13,0c-.05,0-.11,0-.15,0h0c-1.85,.1-6.28,.27-6.7,.27-.72,0-1.29-.04-1.54-.11-.02,0-.1-.03-.16-.06-.15-.06-.24-.09-.29-.09-.09,0-.16,.09-.16,.21,0,.46,.6,1.28,1.19,1.28,.1,0,.35-.06,.66-.15,.15-.04,.28-.07,.34-.08,.3-.06,3.24-.23,4.95-.23,.12,0,.48,0,.85,.01,.4,0,.81,.01,.96,.01,.54,0,1.12-.04,1.12-.46,0-.16-.17-.62-.95-.62Zm9.26-2.47c.51,.55,.58,.63,.58,.77,0,.24-.14,.31-.35,.41-.18,.08-.22,.13-.61,.76v.02c-.07,.09-.2,.28-.36,.51-.29,.4-.82,1.15-.82,1.28,0,.09,0,.1,.23,.39l.03,.04c.29,.37,.52,.66,.52,1.12,0,.53-.38,.67-.61,.67-.3,0-.36-.1-.84-.91v-.02c-.07-.11-.18-.26-.25-.26-.08,0-.13,.06-.35,.28l-.05,.06c-2.13,2.3-4.58,3.08-4.73,3.08-.07,0-.12-.02-.15-.06-.02-.02-.04-.07-.02-.13,.02-.07,.05-.08,.17-.15,.04-.02,.08-.05,.14-.08h0c2.57-1.45,4.31-3.52,4.31-3.88,0-.15-.3-.45-.77-.78-.46-.32-.88-.52-1-.52-.11,0-.55,.39-.91,.7-.66,.58-1.11,.96-1.34,.96-.09,0-.13-.06-.13-.13,0-.1,.47-.58,.47-.59,1.56-1.7,2.53-3.45,2.53-4.11,0-.04-.06-.19-.1-.29-.06-.15-.1-.25-.1-.31,0-.14,.2-.14,.3-.14,.71,0,1.2,.53,1.2,.81,0,.05-.03,.13-.07,.27-.03,.08-.07,.2-.07,.23,0,.13,.23,.15,.37,.15,.26,0,1.5-.11,1.76-.33,.22-.18,.28-.2,.4-.2,.27,0,.49,.25,.62,.39Zm-1.21,.66c-.09,0-.4,.04-.7,.08-.35,.04-.71,.09-.84,.09-.18,0-.29-.03-.39-.05-.15-.05-.18-.05-.29-.05-.03,0-.08,0-.11,.03-.12,.13-1.04,1.24-1.06,1.38,0,.12,.06,.15,.36,.27h.04c.39,.16,.5,.22,1.34,.63l.06,.03c.11,.05,.22,.09,.25,.08,.22-.04,1.5-1.94,1.5-2.38,0-.1-.11-.12-.15-.12Zm1.23-2.1c-.1,0-.29,.03-.29,.15,0,.1,.19,.25,.19,.25,.5,.45,.59,.54,.79,.85,.31,.49,.45,.65,.69,.65,.28,0,.46-.35,.46-.53,0-.74-1.12-1.37-1.83-1.37Zm1-1.07c-.22,0-.53,.07-.53,.23,0,.07,.07,.13,.21,.18,.41,.15,.9,.49,1.08,.71,.24,.29,.41,.49,.71,.49,.26,0,.38-.26,.38-.43,0-.57-.7-1.18-1.84-1.18Zm6.78,1.21l.22,.27c.04,.05,.09,.11,.18,.11,.02,0,.08,0,.14-.01,.05,0,.1-.01,.12-.01,.13-.01,.5-.04,1.5-.04h2.46c.4,0,.48-.13,.48-.24,0-.23-.98-.89-1.14-.89-.14,0-.19,.06-.51,.43l-.04,.05c-.14,.17-.19,.17-.39,.17h-.8c-.42,0-1.21-.03-1.64-.05-.03,0-.13,0-.24-.02-.12,0-.24-.02-.29-.02-.12,0-.13,.08-.13,.11,0,.05,.02,.08,.04,.1,0,0,.02,.02,.04,.04Zm5.03,2.1c-.18,0-.23,.07-.56,.51-.13,.17-.22,.17-.39,.17h-2.56c-.62,0-1.07-.01-1.72-.05-.03,0-.13,0-.24-.02-.12,0-.24-.02-.29-.02-.11,0-.12,.08-.12,.11,0,.05,.02,.07,.07,.14l.24,.29c.05,.05,.1,.09,.17,.09,.02,0,.08,0,.14-.01,.05,0,.1-.01,.12-.01,.13-.01,.5-.04,1.51-.04h1.06c.24,0,.27,.08,.27,.39,0,.05,0,.3,.01,.63,.01,.53,.02,1.22,.02,1.42,0,.11-.04,2.46-.07,2.64-.05,.27-.13,.33-.44,.33-.07,0-.57-.02-.78-.05-.05-.01-.32-.05-.39-.05-.17,0-.18,.1-.18,.13,0,.11,.12,.19,.23,.22,.62,.16,.98,.42,1.04,.74,.02,.1,.05,.26,.28,.26,.11,0,.46-.05,.77-.2,.59-.27,.59-.95,.59-1.97v-4.17c0-.21,.01-.32,.29-.32h1.52c.2,0,.54,0,.54-.24,0-.21-.94-.93-1.13-.93Zm-9.49,.17c.15,0,1.48-.89,2.51-1.87l.02-.02c.42-.4,.46-.43,.63-.46,0,0,.02,0,.03,0,.1-.02,.27-.07,.27-.25,0-.11-.14-.28-.84-.75-.07-.04-.13-.06-.18-.06-.14,0-.17,.05-.3,.28l-.03,.05c-.4,.71-.76,1.19-1.45,1.99-.04,.05-.15,.16-.26,.27-.49,.5-.56,.58-.56,.66,0,.08,.05,.16,.17,.16Zm3.85-.02c.01-.07-.01-.14-.08-.23-.2-.25-.84-.63-.94-.63-.15,0-.2,.14-.22,.18l-.02,.05c-.06,.14-.1,.23-.32,.63-.61,1.09-2.14,3-2.4,3.31l-.07,.08c-.28,.34-.36,.46-.36,.54,0,.02,0,.13,.16,.13,.17,0,.6-.36,1.67-1.37l.17-.16c.14-.14,.23-.22,.29-.27,.01,.08,.01,.27,.01,.54,0,.58-.1,3.15-.12,3.59,0,0-.08,.76-.08,.87,0,.14,.06,.37,.46,.37,.46,0,.72-.31,.72-.84,0-.12,0-.48,0-.84,0-.37,0-.74,0-.87,0-.21,.01-.82,.02-1.45,.01-.65,.02-1.31,.02-1.55,0-.08,0-.21,.02-.26l.02-.03c.12-.16,.15-.22,.15-.27,0-.12-.09-.19-.17-.24-.07-.05-.11-.08-.11-.09,.03-.13,.6-.85,.73-.9,0,0,.02,0,.02,0,.35-.13,.41-.16,.44-.3Zm19.11,6.81c0,.09-.09,.11-.17,.13h-.03c-.12,.03-.42,.15-.53,.21-.03,.02-.08,.06-.15,.1-.21,.15-.37,.26-.47,.26-.2,0-1.28-.68-2.26-2.19-.19-.29-.22-.32-.25-.32-.02,0-.07,.04-.25,.25-1.84,2.06-3.65,2.39-3.67,2.39-.1,0-.18-.06-.18-.15,0-.11,.1-.16,.22-.21,.18-.07,.79-.42,1.33-.84,1.11-.84,2.07-2.08,2.07-2.33,0-.08,0-.1-.14-.38-.38-.87-.63-1.54-.8-2.39-.04-.22-.08-.38-.1-.45-.09,.1-.28,.43-.42,.68-.42,.72-.61,1.04-.77,1.04-.07,0-.12-.05-.12-.12s.06-.23,.16-.45c.09-.19,.15-.32,.15-.44,0-.03,0-.04,0-.04,0,0-.03-.02-.16-.02h-.8c-.29,0-.3,.08-.3,.48v.44c0,.83,0,2.09,.02,2.54,0,.16,.05,.2,.13,.2,.14,0,.99-.18,1.26-.25,.08-.02,.69-.18,.76-.18,.11,0,.17,.07,.17,.15,0,.18-.55,.41-3.8,1.46-.56,.18-1.04,.34-1.26,.41,0,0-.06,.08-.1,.12-.11,.14-.17,.21-.24,.21-.35,0-.82-1.26-.82-1.33,0-.21,.12-.21,.59-.21,.37,0,.53-.02,.55-.08,.03-.14,.04-2.43,.04-2.98v-.17c0-.45,0-1.12-.06-1.5v-.06c-.06-.21-.07-.3-.07-.34,0-.14,.07-.21,.22-.21,.09,0,.87,.26,.93,.28,.06,.02,.21,.07,.21,.24,0,.06-.05,.12-.18,.24-.03,.03-.06,.06-.07,.07-.01,.02-.08,.22-.08,1.75,0,.59,.01,1.9,.02,2.42,0,.18,0,.19,.15,.19,.11,0,.56-.06,.65-.13,.02-.27,.03-2.92,.03-5.36,0-1.08-.04-1.25-.05-1.28-.04-.08-.13-.08-.27-.08h-.29c-.24,0-.88,0-1.22,.02-.06,.02-.19,.04-.22,.04-.08,0-.12-.06-.15-.11l-.2-.28c-.04-.05-.05-.08-.05-.12,0-.08,.06-.12,.11-.12,.02,0,.1,0,.17,.02,.08,0,.16,.02,.19,.02,.36,.03,.98,.05,1.42,.05h1.81c.43,0,.44,0,.55-.16,.25-.35,.37-.53,.54-.53,.22,0,.78,.8,.78,.93,0,.25-.27,.25-.61,.25h-1.26c-.21,0-.26,.03-.29,.17-.02,.15-.02,1.25-.02,1.98q0,.33,.2,.33c.2,0,.22,0,.41-.3,.15-.25,.21-.29,.3-.29,.13,0,.3,.18,.42,.33v.02c.09,.09,.13,.14,.17,.16,.22-.27,1.07-2.86,1.07-3.99,0-.09,0-.29,.23-.29,.07,0,.77,.29,.81,.31,.25,.1,.44,.19,.44,.37,0,.13-.08,.19-.27,.31-.08,.05-.09,.06-.2,.32l-.02,.04s-.03,.08-.07,.16c-.33,.78-.51,1.21-.51,1.29,0,.06,0,.09,.25,.09h2c.43,0,.44,0,.55-.17l.06-.08c.24-.34,.28-.4,.43-.4,.14,0,1.03,.67,1.03,.89,0,.24-.27,.24-.61,.24h-1.19c.06,.05,.16,.11,.23,.17,.25,.18,.4,.28,.4,.4,0,.11-.04,.14-.25,.31l-.06,.05c-.07,.06-.1,.09-.13,.19l-.04,.11c-.34,.94-.43,1.19-.84,2.04-.02,.04-.05,.1-.1,.19-.1,.19-.34,.62-.35,.7,0,.38,1.76,2.07,2.96,2.38,.07,.02,.3,.08,.3,.22Zm-2.75-6.59c0-.15,0-.15-.09-.15h-1.76c-.28,0-.38,.02-.38,.25,0,.61,.9,2.84,1.14,3.02,.26-.16,1.1-2.4,1.1-3.11Zm12.86,3.82c0,.07-.02,.12-.15,.38-.12,.23-.12,.36-.12,.76,0,.16,.03,.86,.05,1.28,0,.19,.01,.33,.01,.35,0,.29-.31,.72-.7,.72-.32,0-.38-.31-.4-.43-.03-.16-.06-.16-.25-.16h-4.5c-.16,0-.18,.06-.19,.23v.02c0,.22-.44,.49-.71,.49-.23,0-.39-.17-.39-.42,0-.16,0-.64,.02-1.13,0-.52,.02-1.06,.02-1.26,0-.13-.02-.49-.03-.81-.01-.24-.02-.46-.02-.52,0-.17,.08-.21,.15-.21,.07,0,.51,.22,.7,.31,.21,.1,.41,.1,.5,.1h4.33c.11,0,.2,0,.34-.08,.02-.01,.07-.06,.11-.1,.16-.16,.24-.23,.31-.23,.14,0,.93,.41,.93,.71Zm-1.28,.86q0-.67-.29-.67h-4.48q-.25,0-.25,.68c0,.19,.05,.2,.3,.2h4.45c.19,0,.26-.02,.26-.21Zm-5.03,1.08c0,.48,.04,.48,.27,.48h4.48c.25,0,.3,0,.3-.49,0-.35-.03-.37-.27-.37h-4.52c-.22,0-.25,.04-.25,.38Zm2.93-5.35q0,.66,.27,.66h1.27c.53,0,.55,0,.69-.17,.33-.39,.41-.46,.56-.46,.09,0,1.2,.65,1.2,.88,0,.25-.3,.25-.72,.25h-2.99c-.26,0-.26,.04-.26,.32,0,.4,0,.42,.29,.42h2.18c.55,0,.56,0,.7-.16,.33-.4,.39-.47,.54-.47,.08,0,1.21,.63,1.21,.88s-.29,.25-.73,.25h-7.82c-.8,0-1.19,.01-1.38,.02-.06,0-.1,0-.13,0-.03,0-.08,0-.13,.02-.06,0-.11,.02-.13,.02-.07,0-.11-.05-.14-.09,0,0-.01-.01-.02-.02l-.24-.28s-.02-.03-.03-.04c-.02-.03-.04-.05-.04-.09,0-.06,.04-.12,.13-.12,.04,0,.14,.01,.26,.02,.11,.01,.23,.03,.27,.03,.62,.03,1.12,.04,1.64,.04h2.27c.23,0,.24-.04,.24-.44,0-.26-.03-.3-.25-.3h-1.38c-.79,0-1.18,.01-1.37,.02-.07,0-.11,0-.14,0-.03,.01-.21,.04-.25,.04-.1,0-.16-.09-.18-.12l-.22-.27s-.08-.08-.08-.13c0-.07,.06-.12,.14-.12s.47,.04,.54,.05c.61,.02,1.1,.04,1.63,.04h1.33c.26,0,.26,0,.26-.62,0-.17-.03-.21-.23-.21h-1.12c-1.06,0-1.37,.02-1.52,.04-.02,0-.07,0-.12,.01-.06,0-.12,.01-.14,.01-.07,0-.14-.06-.18-.11l-.22-.27c-.05-.07-.07-.08-.07-.14,0-.03,0-.11,.12-.11,.04,0,.17,0,.29,.02,.11,0,.21,.02,.24,.02h.23c.5,.03,.94,.05,1.41,.05h1.04c.26,0,.26-.03,.26-.42,0-.24,0-.29-.26-.29h-2.15c-.79,0-1.18,.01-1.37,.02-.06,0-.1,0-.13,0-.06,.02-.22,.04-.26,.04-.09,0-.13-.06-.17-.11l-.23-.28s-.02-.03-.03-.04c-.02-.02-.05-.05-.05-.09,0-.07,.06-.12,.14-.12,.09,0,.47,.04,.54,.05,.6,.02,1.09,.03,1.63,.03h2.1c.21,0,.25,0,.25-.26,0-.33-.04-.36-.27-.36h-1.04c-.78,0-1.18,.01-1.37,.02-.07,0-.11,0-.15,0s-.09,.01-.14,.02-.1,.02-.11,.02c-.08,0-.16-.1-.18-.12l-.22-.27s-.07-.07-.07-.13c0-.07,.05-.12,.12-.12,.05,0,.17,.01,.29,.03,.1,.01,.2,.02,.24,.02,.62,.03,1.12,.04,1.64,.04h.98c.24,0,.27,0,.27-.29,0-.04-.02-.2-.04-.32-.02-.14-.03-.23-.03-.26,0-.12,.07-.19,.2-.19,.07,0,.78,.11,.97,.16,.19,.04,.31,.15,.31,.29s-.13,.23-.27,.33l-.04,.03s-.07,.09-.07,.13c0,.09,.07,.12,.3,.12h1.44c.16,0,.27-.05,.35-.16,.1-.13,.19-.24,.31-.24,.07,0,.89,.32,.89,.65,0,.11-.04,.14-.24,.35-.08,.07-.08,.13-.08,.24,0,.19,.01,.26,.17,.26,.12,0,.17,0,.29-.16l.04-.04c.3-.37,.34-.42,.51-.42s1,.69,1,.88c0,.25-.29,.25-.73,.25h-1.02c-.2,0-.29,.03-.29,.18v.92s0,.02,0,.03c-.07,.22-.34,.35-.56,.35-.25,0-.34-.11-.44-.24-.03-.05-.06-.05-.2-.05h-1.44c-.22,0-.3,.02-.3,.18Zm2-2.05c0-.38,0-.43-.25-.43h-1.46c-.31,0-.31,.02-.31,.36,0,.26,.05,.26,.3,.26h1.49c.16,0,.24-.03,.24-.19Zm-2.01,1.21c0,.15,.07,.18,.31,.18h1.43c.18,0,.29,0,.29-.51,0-.16-.08-.19-.26-.19h-1.45q-.31,0-.31,.52Zm16.06,.42c-.15,0-.21,.07-.55,.46-.15,.17-.16,.17-.7,.17h-2.34c-.29,0-.29-.07-.29-.44,0-1.7,.03-2.4,.05-2.48,.01-.03,.09-.1,.15-.15,.16-.15,.26-.25,.26-.35,0-.17-.23-.23-.57-.34-.18-.05-1.05-.27-1.09-.27-.1,0-.18,.07-.18,.16,0,.05,.03,.21,.08,.47,.04,.19,.08,.41,.09,.48,.06,.93,.1,1.83,.1,2.66,0,.23-.12,.25-.27,.25h-2.4c-.53,0-1.02-.01-1.63-.04-.07-.01-.45-.05-.54-.05-.08,0-.13,.05-.13,.12,0,.05,.02,.07,.08,.13l.23,.28s.08,.11,.17,.11c.05,0,.22-.03,.25-.04,.03,0,.08,0,.14,0,.19,0,.58-.02,1.37-.02h2.47c.25,0,.26,.06,.26,.51,0,2.15-.03,3.95-.04,4.45v.02c-.02,.24-.15,.24-.29,.24h-1.67c-.5,0-.93-.02-1.44-.04h-.21s-.13-.02-.24-.02c-.12,0-.24-.02-.29-.02-.11,0-.12,.08-.12,.11,0,.05,.02,.07,.07,.14l.22,.27s.08,.11,.18,.11c.02,0,.08,0,.14-.01,.05,0,.1-.01,.12-.01,.13-.01,.5-.04,1.5-.04h6.77c.44,0,.73,0,.73-.25s-1.14-.88-1.21-.88c-.14,0-.19,.06-.51,.43l-.04,.05c-.14,.17-.16,.17-.7,.17h-1.61c-.26,0-.29-.11-.29-.24v-4.69c0-.28,.11-.3,.3-.3h4.07c.44,0,.73,0,.73-.25,0-.23-1.13-.88-1.21-.88Zm3.96-1.69c.17,.31,.26,.45,.51,.45,.32,0,.48-.32,.48-.63,0-.43-.32-.84-.85-1.05-.21-.09-.86-.2-1.01-.2-.16,0-.18,.08-.18,.13,0,.04,.03,.07,.07,.12,.14,.12,.58,.47,.98,1.18Zm-1.06,2.67c.17,.35,.27,.54,.5,.54,.3,0,.55-.29,.55-.64,0-.73-.93-1.27-1.77-1.27-.09,0-.25,.02-.28,.13,0,.03,0,.06,.02,.08,0,0,.15,.14,.21,.18,.41,.36,.62,.72,.75,.99Zm9.16,.36c-.1,0-.2,.12-.4,.36-.06,.08-.13,.16-.17,.19-.07,.07-.1,.07-.6,.07h-1.13c-.21,0-.27-.03-.3-.15,0-.06-.01-.83-.01-1.96,0-.22,.13-.24,.3-.24h2.09c.44,0,.73,0,.73-.25,0-.16-.88-.84-1.02-.84-.1,0-.19,.11-.38,.37-.05,.07-.11,.15-.14,.17-.08,.07-.11,.07-.61,.07h-.67c-.07,0-.18,0-.23-.06-.04-.04-.05-.1-.05-.18,0-.04,.04-.9,.04-1.08s0-.25,.05-.37c0-.02,.06-.08,.09-.12,.09-.11,.14-.18,.14-.24,0-.31-1.26-.47-1.27-.47-.1,0-.15,.06-.15,.17,0,.02,0,.05,.04,.31,.02,.12,.04,.24,.04,.28,.04,.39,.04,1.09,.04,1.5,0,.24-.12,.26-.26,.26h-.26c-.57,0-1.14-.03-1.64-.05-.04,0-.15,0-.26-.02-.12,0-.23-.02-.28-.02-.11,0-.12,.08-.12,.11,0,.05,.02,.07,.07,.14l.24,.27s.08,.11,.17,.11c.02,0,.07,0,.12-.01s.11-.01,.15-.01c.42-.04,1.24-.04,1.5-.04h.34c.18,0,.25,.08,.25,.27,0,1.1,0,1.79-.02,1.89-.02,.14-.08,.18-.29,.18h-.89c-.56,0-1.11-.02-1.64-.05-.04,0-.15,0-.26-.02-.12,0-.23-.02-.28-.02-.11,0-.12,.08-.12,.11,0,.05,.02,.07,.07,.14l.23,.28c.05,.05,.1,.1,.17,.1,.02,0,.08,0,.14-.01,.05,0,.1-.01,.12-.01,.42-.04,1.24-.04,1.52-.04h.64c.21,0,.27,.03,.27,.12,0,.13-.46,1.16-.97,2.13-.48,.93-.52,.99-.75,.99-.28,0-.51-.01-.8-.05-.02,0-.06-.01-.12-.02-.21-.03-.4-.07-.47-.07-.09,0-.14,.06-.14,.12,0,.01,.31,1.35,.6,1.35,.05,0,.12-.04,.24-.12,.03-.02,.06-.04,.08-.05,.14-.09,.45-.18,.58-.22,.27-.07,1.25-.22,2.04-.33,.42-.06,.78-.12,.95-.15,.13-.02,.47-.09,.83-.16,.43-.09,1.02-.21,1.08-.21,.17,0,.22,.1,.3,.42,.21,.94,.24,1.09,.56,1.09,.27,0,.67-.21,.67-.78,0-1.25-1.81-2.99-2.13-2.99-.03,0-.06,.02-.08,.05v.02s-.02,.03-.02,.05c.01,.06,.09,.24,.24,.58,.17,.38,.45,1.02,.45,1.15,0,.05,0,.09-.33,.11-.19,0-.67,.03-1.22,.06-1,.05-2.23,.12-2.53,.13,.02-.03,.06-.08,.11-.14l.02-.03c.38-.44,.91-1.12,1.27-1.69,.29-.47,.32-.5,.4-.52,.23-.05,.39-.08,.39-.25,0-.1-.12-.26-.37-.56,0,0-.01-.02-.02-.03h3.31c.44,0,.73,0,.73-.25,0-.2-.87-.85-1-.85Zm-8.1,3.25c0-.36,.03-.44,.38-1.33,.01-.03,1.31-3.54,1.31-3.68,0-.09-.07-.16-.16-.16-.12,0-.15,.06-.21,.19l-.03,.06c-.05,.12-.13,.28-.21,.43-.08,.16-.16,.32-.21,.45-.91,2.02-1.56,3.48-1.96,3.69l.04,.08-.04-.08s-.08,.02-.13,.03c-.21,.05-.38,.09-.38,.21,0,.08,.08,.14,.28,.26,.05,.03,.09,.06,.1,.07,.42,.48,.42,.82,.42,1.55,0,.44,.17,.9,.66,.9,.32,0,.61-.32,.61-.66,0-.12-.04-.31-.11-.5-.33-.9-.37-1.02-.37-1.54Zm21.16,1.55c-1.62-.42-2.88-2.2-3.36-2.96-1.55-2.54-1.72-5.36-1.73-5.45,0-.06,0-.08,.02-.09,.01-.02,.05-.03,.14-.04,.08-.02,.27-.06,.27-.28,0-.29-.29-.37-.88-.53-.04,0-.14-.04-.25-.07-.3-.09-.42-.12-.47-.12-.09,0-.18,.08-.18,.18,0,.05,.04,.23,.05,.26,.05,.24,.05,.37,.05,.72,0,.36-.04,3.61-1.36,6.13-.83,1.61-2.25,2.67-2.81,3.05-.12,.08-.2,.14-.2,.22,0,.09,.06,.15,.16,.15,.15,0,2.27-.73,3.57-2.9,1.22-2.01,1.52-4.85,1.55-5.17v-.08s.02-.06,.02-.09c.19,2.37,.89,3.94,1.13,4.47l.02,.04c1.19,2.59,2.72,3.54,2.81,3.54,.06,0,.09-.02,.22-.12l.13-.1c.13-.09,.41-.26,.8-.35l.12-.03c.3-.06,.37-.08,.37-.2,0-.11-.12-.15-.18-.17Z"/>
      <path class="cls-1" d="M46.99,39.04c-.05-.13-.35-.92-.35-.96,0-.11,.09-.15,.15-.15,.08,0,.09,.04,.26,.3,.31,.49,.94,.96,1.66,.96,.47,0,1.04-.32,1.04-1.06,0-.64-.42-.87-1.32-1.18-.98-.34-1.63-.71-1.63-1.55,0-.73,.51-1.37,1.41-1.37,.14,0,.32,.02,.5,.06,.08,.01,.37,.08,.42,.08,.06,0,.11-.01,.15-.04,.1-.08,.11-.09,.16-.09,.08,0,.11,.06,.18,.25,.05,.11,.38,.94,.38,.99,0,.09-.08,.11-.12,.11-.06,0-.07-.02-.18-.2-.19-.3-.57-.91-1.44-.91-.79,0-.96,.63-.96,.93,0,.58,.42,.8,1.35,1.12,1.42,.49,1.61,1.06,1.61,1.6,0,.95-.75,1.52-1.53,1.52-.25,0-.5-.05-.76-.14-.19-.06-.24-.07-.28-.07-.11,0-.2,.03-.27,.09-.12,.11-.13,.12-.2,.12-.09,0-.11-.04-.24-.39Zm3.66-2.84c-.08,0-.19,0-.19-.11,0-.09,.04-.1,.24-.13,.11-.01,.7-.15,.7-1.06,0-.06,0-.16,.09-.16,.11,0,.11,.11,.11,.15v.91c0,.06,.02,.18,.18,.18h.75c.07,0,.2,.01,.2,.11,0,.04-.04,.11-.19,.11h-.75s-.13,0-.16,.09c-.03,.08-.03,.87-.03,1.01,0,.21,0,1.34,.02,1.44,.09,.39,.42,.39,.49,.39,.15,0,.32-.06,.47-.18,.04-.03,.2-.19,.25-.19,.03,0,.04,.03,.04,.06,0,.13-.44,.61-1.03,.61-.74,0-.74-.56-.74-1.27,0-.02,.01-1.55,0-1.79,0-.04,0-.18-.18-.18h-.27Zm2.65,3.1s-.18,0-.18-.11,.07-.11,.27-.11c.08,0,.23,0,.32-.16,.06-.1,.08-.18,.08-1.17,0-.23,0-1.25-.04-1.37-.02-.08-.11-.13-.22-.13-.05,0-.29,.06-.34,.06-.04,0-.07-.04-.07-.07,0-.06,.04-.06,.35-.16,.1-.03,.74-.23,.77-.23,.02,0,.03,0,.04,.02v.31c0,.37,0,.42,.07,.42,.03,0,.05-.01,.15-.14,.06-.08,.48-.61,.99-.61,.26,0,.42,.16,.42,.4s-.18,.37-.35,.37c-.15,0-.22-.08-.27-.15-.04-.04-.11-.12-.2-.12-.18,0-.46,.21-.6,.46-.17,.3-.2,.47-.2,1.51,0,.64,.02,.76,.51,.76,.06,0,.15,.02,.15,.11,0,.11-.13,.11-.18,.11h-1.45Zm5.53-2.5c0,.24,0,1.39,0,1.65,0,.33,0,.63,.28,.63,.07,0,.18-.04,.23-.08,0,0,.05-.04,.06-.04,.01,0,.04,0,.04,.04,0,.13-.29,.44-.59,.44-.23,0-.41-.17-.46-.32-.01-.05-.04-.11-.1-.11-.04,0-.11,.05-.17,.1-.27,.21-.62,.33-.93,.33-.42,0-.89-.23-.89-.75,0-.84,1.18-1.2,1.59-1.32,.42-.13,.46-.14,.46-.51,0-.61-.34-.83-.66-.83-.47,0-.54,.33-.56,.43-.05,.21-.1,.46-.37,.46-.18,0-.33-.15-.33-.35,0-.42,.68-.74,1.27-.74,.56,0,1.14,.25,1.16,.96Zm-.55,1.89c.04-.08,.05-.11,.05-.94,0-.14,0-.26-.15-.26-.25,0-1.31,.47-1.31,1.13,0,.19,.12,.51,.61,.51,.24,0,.7-.21,.8-.44Zm3.89,.61c-.06,0-.13-.02-.13-.1-.01-.09-.02-.13-.06-.13s-.2,.15-.24,.18c-.27,.17-.53,.19-.68,.19-1.01,0-1.38-.95-1.38-1.8,0-1.34,.87-1.79,1.47-1.79,.08,0,.2,0,.37,.06,.06,.02,.35,.2,.43,.2,.08,0,.09-.11,.09-.17,0-.08,0-.53,0-.63,0-.31,0-.82-.44-.82-.04,0-.19,.02-.2,.02-.03,0-.07-.02-.07-.06,0-.06,.04-.07,.32-.16,.09-.03,.78-.25,.82-.25,.01,0,.03,0,.06,.04,.02,.03,.02,.47,.02,.55,0,.52-.01,3.07-.01,3.65,0,.37,0,.8,.4,.81,.12,0,.25,0,.25,.13,0,.02-.02,.1-.11,.1h-.89Zm-.17-.78c.03-.15,.03-.89,.03-1.34,0-.39,0-.56-.16-.76-.11-.15-.29-.27-.56-.27-.55,0-1.05,.57-1.05,1.56,0,.73,.3,1.43,.94,1.43,.24,0,.71-.13,.8-.61Zm4.08-1.72c0,.24,0,1.39,0,1.65,0,.33,0,.63,.28,.63,.07,0,.18-.04,.23-.08,0,0,.05-.04,.06-.04,.01,0,.04,0,.04,.04,0,.13-.29,.44-.59,.44-.23,0-.41-.17-.46-.32-.01-.05-.04-.11-.1-.11-.04,0-.11,.05-.17,.1-.27,.21-.62,.33-.93,.33-.42,0-.89-.23-.89-.75,0-.84,1.18-1.2,1.59-1.32,.42-.13,.46-.14,.46-.51,0-.61-.34-.83-.66-.83-.47,0-.54,.33-.56,.43-.05,.21-.1,.46-.37,.46-.18,0-.33-.15-.33-.35,0-.42,.68-.74,1.28-.74,.56,0,1.14,.25,1.15,.96Zm-.55,1.89c.04-.08,.05-.11,.05-.94,0-.14,0-.26-.15-.26-.25,0-1.31,.47-1.31,1.13,0,.19,.12,.51,.61,.51,.24,0,.7-.21,.8-.44Zm6.73,.61c-.08,0-.17-.02-.17-.11,0-.11,.11-.11,.28-.11,.13,0,.29-.13,.29-.31,0-.15-.18-.64-.26-.82-.15-.39-.18-.44-.41-.44h-1.53c-.26,0-.29,.07-.4,.39-.06,.19-.25,.75-.25,.92,0,.27,.23,.27,.39,.27,.08,0,.16,.01,.16,.11,0,.11-.11,.11-.16,.11h-1.35c-.06,0-.15,0-.15-.11,0-.12,.08-.12,.24-.12,.19,0,.36-.04,.54-.28,.16-.22,.68-1.87,.84-2.37,.09-.28,.54-1.66,.63-1.98,.07-.25,.11-.41,.61-.41,.08,0,.13,.05,.15,.11,.06,.11,.18,.47,.23,.63,.49,1.53,.53,1.7,.98,3,.4,1.2,.45,1.3,.85,1.3,.09,0,.16,.04,.16,.12,0,.11-.11,.11-.16,.11h-1.52Zm-.33-2.04c.08,0,.18-.04,.18-.11,0-.15-.67-2.11-.8-2.49-.04-.12-.06-.18-.11-.18-.04,0-.05,.02-.13,.25-.2,.57-.75,2.36-.75,2.42,0,.11,.11,.11,.2,.11h1.4Zm5,2.04c-.06,0-.13-.02-.13-.1-.01-.09-.02-.13-.06-.13s-.2,.15-.24,.18c-.27,.17-.53,.19-.68,.19-1.01,0-1.38-.95-1.38-1.8,0-1.34,.87-1.79,1.47-1.79,.08,0,.2,0,.37,.06,.06,.02,.35,.2,.43,.2,.08,0,.09-.11,.09-.17,0-.08,0-.53,0-.63,0-.31,0-.82-.44-.82-.04,0-.19,.02-.2,.02-.03,0-.07-.02-.07-.06,0-.06,.04-.07,.32-.16,.09-.03,.78-.25,.82-.25,.01,0,.03,0,.06,.04,.02,.03,.02,.47,.02,.55,0,.52-.01,3.07-.01,3.65,0,.37,0,.8,.4,.81,.12,0,.25,0,.25,.13,0,.02-.02,.1-.11,.1h-.89Zm-.17-.78c.03-.15,.03-.89,.03-1.34,0-.39,0-.56-.16-.76-.11-.15-.29-.27-.56-.27-.55,0-1.05,.57-1.05,1.56,0,.73,.3,1.43,.94,1.43,.24,0,.71-.13,.8-.61Zm5.6,.78c-.13,0-.13-.08-.13-.11,0-.11,.08-.11,.19-.11,.37-.01,.37-.2,.37-1.16s-.01-1.06-.07-1.3c-.06-.25-.25-.47-.56-.47-.39,0-.86,.35-.95,.59-.04,.11-.04,1.12-.04,1.32,0,.68,0,.76,.07,.87,.07,.11,.16,.15,.29,.16,.2,0,.27,0,.27,.11,0,.11-.1,.11-.16,.11h-1.42c-.06,0-.17,0-.17-.11,0-.04,.02-.08,.06-.1,.03-.02,.25-.01,.3-.02,.28-.06,.28-.2,.28-1.18s0-1.11-.09-1.37c-.06-.17-.24-.37-.53-.37-.3,0-.63,.2-.78,.35-.17,.17-.18,.18-.18,1.39,0,.98,0,1.18,.37,1.19,.11,0,.21,0,.21,.11s-.1,.11-.15,.11h-1.33s-.14,0-.14-.11,.09-.11,.21-.11c.18,0,.28-.12,.31-.2,.05-.15,.05-1.17,.05-1.41,0-.2,0-.96-.04-1.08-.02-.07-.11-.18-.26-.18-.03,0-.18,.02-.21,.02-.01,0-.07,0-.07-.05,0-.06,.02-.06,.35-.15,.16-.04,.61-.16,.66-.18,.07,0,.07,.04,.07,.2,0,.18,0,.23,.07,.23,.03,0,.17-.11,.21-.13,.18-.13,.49-.3,.88-.3,.57,0,.72,.32,.79,.46,.01,.03,.05,.1,.09,.1,.04,0,.05-.01,.16-.11,.22-.19,.56-.44,1.06-.44s.71,.23,.8,.54c.08,.3,.08,.43,.08,1.61,0,.84,0,1.08,.39,1.08,.05,0,.16,0,.16,.12,0,.07-.06,.11-.13,.11h-1.32Zm1.8,0c-.06,0-.16,0-.16-.11,0-.11,.08-.11,.22-.12,.09,0,.22-.04,.28-.2,.06-.12,.06-1.15,.06-1.4,0-.2,0-1.01-.04-1.11-.03-.08-.11-.12-.2-.12-.04,0-.21,.02-.22,.02-.03,0-.06-.01-.06-.06s.03-.06,.35-.16c.09-.03,.53-.19,.58-.19,.07,0,.07,.06,.07,.13,0,.32,0,1.9,0,2.26,0,.51,0,.81,.32,.83,.14,0,.23,.01,.23,.12,0,.11-.12,.11-.17,.11h-1.25Zm.23-4.86c0-.23,.18-.41,.41-.4,.23,0,.41,.18,.41,.4s-.18,.41-.41,.41-.41-.18-.41-.41Zm3.51,4.86c-.13,0-.13-.1-.13-.11,0-.1,.09-.11,.13-.11,.18-.02,.25-.03,.34-.15,.07-.11,.07-.23,.07-1.37,0-.67,0-.93-.15-1.16-.15-.24-.38-.26-.46-.26-.23,0-.52,.12-.72,.32-.21,.22-.21,.32-.21,1.13,0,.18,0,1.04,.02,1.17,.04,.23,.16,.3,.34,.31,.07,0,.19,0,.19,.11,0,.01,0,.11-.14,.11h-1.31c-.14,0-.14-.1-.14-.11,0-.12,.08-.12,.19-.12,.18,0,.28-.11,.32-.21,.06-.16,.06-1.1,.06-1.34,0-1.14,0-1.32-.32-1.32-.03,0-.18,.03-.2,.03s-.07,0-.07-.06,.03-.06,.28-.12c.11-.03,.7-.2,.73-.2,.07,0,.07,.03,.07,.31,0,.1,0,.15,.05,.15s.25-.18,.29-.21c.28-.18,.53-.25,.79-.25,.51,0,.72,.27,.79,.47,.1,.27,.1,.39,.1,1.49,0,.21,0,.94,.05,1.06,.01,.05,.08,.2,.32,.21,.11,0,.2,0,.2,.12,0,.11-.08,.11-.14,.11h-1.32Zm1.76,0c-.06,0-.16,0-.16-.11,0-.11,.08-.11,.22-.12,.09,0,.22-.04,.28-.2,.06-.12,.06-1.15,.06-1.4,0-.2,0-1.01-.04-1.11-.03-.08-.11-.12-.2-.12-.04,0-.21,.02-.22,.02-.03,0-.06-.01-.06-.06s.03-.06,.35-.16c.09-.03,.53-.19,.58-.19,.07,0,.07,.06,.07,.13,0,.32,0,1.9,0,2.26,0,.51,0,.81,.32,.83,.14,0,.23,.01,.23,.12,0,.11-.12,.11-.17,.11h-1.25Zm.23-4.86c0-.23,.18-.41,.41-.4,.23,0,.41,.18,.41,.4s-.18,.41-.41,.41-.41-.18-.41-.41Zm3.06,1.54c.06,.02,.08,.04,.13,.04,.09,0,.15-.04,.2-.1,.05-.05,.07-.07,.1-.07,.04,0,.06,.04,.08,.09,.06,.16,.38,.93,.38,1.01,0,.04-.01,.07-.06,.07-.07,0-.08-.03-.25-.28-.08-.13-.59-.7-1.04-.7-.26,0-.61,.18-.61,.57,0,.29,.19,.45,.9,.7,.82,.29,1.23,.55,1.23,1.11,0,.47-.33,1.02-1.08,1.02-.19,0-.27-.02-.57-.11-.04-.01-.09-.02-.13-.02-.1,0-.17,.03-.21,.04-.13,.06-.22,.09-.25,.09-.06,0-.08-.06-.12-.15-.06-.16-.34-.87-.34-.96,0-.04,.01-.12,.08-.12,.08,0,.13,.08,.25,.28,.31,.54,.97,.75,1.3,.75,.35,0,.61-.3,.61-.64,0-.32-.2-.49-1.02-.77-.74-.26-1.11-.51-1.11-1.05s.39-.94,.93-.94c.24,0,.34,.04,.61,.13Zm1.51,.23c-.08,0-.19,0-.19-.11,0-.09,.04-.1,.24-.13,.11-.01,.7-.15,.7-1.06,0-.06,0-.16,.09-.16,.11,0,.11,.11,.11,.15v.91c0,.06,.02,.18,.18,.18h.75c.07,0,.2,.01,.2,.11,0,.04-.04,.11-.19,.11h-.75s-.13,0-.16,.09c-.03,.08-.03,.87-.03,1.01,0,.21,0,1.34,.02,1.44,.09,.39,.42,.39,.49,.39,.15,0,.32-.06,.47-.18,.04-.03,.2-.19,.25-.19,.03,0,.04,.03,.04,.06,0,.13-.44,.61-1.03,.61-.74,0-.74-.56-.74-1.27,0-.02,.01-1.55,0-1.79,0-.04,0-.18-.18-.18h-.27Zm2.49,3.1s-.18,0-.18-.11,.07-.11,.27-.11c.08,0,.23,0,.32-.16,.06-.1,.08-.18,.08-1.17,0-.23,0-1.25-.04-1.37-.02-.08-.11-.13-.22-.13-.05,0-.29,.06-.34,.06-.04,0-.07-.04-.07-.07,0-.06,.04-.06,.35-.16,.1-.03,.74-.23,.77-.23,.02,0,.03,0,.03,.02v.31c0,.37,0,.42,.07,.42,.03,0,.05-.01,.15-.14,.06-.08,.48-.61,.99-.61,.26,0,.42,.16,.42,.4s-.18,.37-.35,.37c-.15,0-.22-.08-.27-.15-.04-.04-.11-.12-.2-.12-.18,0-.46,.21-.6,.46-.17,.3-.2,.47-.2,1.51,0,.64,.02,.76,.51,.76,.06,0,.15,.02,.15,.11,0,.11-.13,.11-.18,.11h-1.45Zm5.49-2.5c0,.24,0,1.39,0,1.65,0,.33,0,.63,.28,.63,.07,0,.18-.04,.23-.08,0,0,.05-.04,.06-.04,.01,0,.03,0,.03,.04,0,.13-.29,.44-.59,.44-.23,0-.41-.17-.46-.32-.01-.05-.03-.11-.1-.11-.04,0-.11,.05-.17,.1-.27,.21-.62,.33-.93,.33-.42,0-.89-.23-.89-.75,0-.84,1.18-1.2,1.59-1.32,.42-.13,.46-.14,.46-.51,0-.61-.34-.83-.66-.83-.46,0-.54,.33-.56,.43-.05,.21-.1,.46-.37,.46-.18,0-.33-.15-.33-.35,0-.42,.68-.74,1.27-.74,.56,0,1.14,.25,1.15,.96Zm-.55,1.89c.03-.08,.05-.11,.05-.94,0-.14,0-.26-.15-.26-.25,0-1.31,.47-1.31,1.13,0,.19,.12,.51,.61,.51,.24,0,.7-.21,.8-.44Zm1.46-2.49c-.08,0-.19,0-.19-.11,0-.09,.03-.1,.24-.13,.11-.01,.7-.15,.7-1.06,0-.06,0-.16,.09-.16,.11,0,.11,.11,.11,.15v.91c0,.06,.02,.18,.18,.18h.75c.07,0,.2,.01,.2,.11,0,.04-.04,.11-.19,.11h-.75s-.13,0-.16,.09c-.03,.08-.03,.87-.03,1.01,0,.21,0,1.34,.02,1.44,.09,.39,.42,.39,.49,.39,.15,0,.32-.06,.47-.18,.04-.03,.2-.19,.25-.19,.03,0,.04,.03,.04,.06,0,.13-.44,.61-1.03,.61-.74,0-.74-.56-.74-1.27,0-.02,.01-1.55,0-1.79,0-.04,0-.18-.18-.18h-.27Zm2.4,3.1c-.06,0-.16,0-.16-.11,0-.11,.08-.11,.22-.12,.09,0,.22-.04,.28-.2,.06-.12,.06-1.15,.06-1.4,0-.2,0-1.01-.04-1.11-.04-.08-.11-.12-.2-.12-.03,0-.21,.02-.22,.02-.03,0-.06-.01-.06-.06s.04-.06,.35-.16c.09-.03,.53-.19,.58-.19,.07,0,.07,.06,.07,.13,0,.32,0,1.9,0,2.26,0,.51,0,.81,.32,.83,.14,0,.23,.01,.23,.12,0,.11-.12,.11-.17,.11h-1.25Zm.23-4.86c0-.23,.18-.41,.41-.4,.23,0,.41,.18,.41,.4s-.18,.41-.41,.41-.41-.18-.41-.41Zm4.84,1.54c.07,0,.18,0,.18,.11,0,.11-.09,.11-.17,.12-.08,0-.28,.08-.47,.51-.11,.27-.63,1.61-.74,1.9-.3,.77-.33,.81-.42,.81-.08,0-.15-.15-.18-.18-.15-.31-.39-.85-.58-1.27-.7-1.59-.76-1.72-1.01-1.77-.13-.02-.18-.04-.18-.12,0-.11,.11-.11,.18-.11h1.13c.07,0,.18,0,.18,.11s-.11,.11-.17,.11c-.22,0-.25,.16-.25,.22s.02,.1,.03,.13c.06,.14,.7,1.55,.83,1.84,.06,.14,.09,.21,.14,.21,.04,0,.07-.06,.08-.08,.02-.04,.49-1.24,.54-1.36,.2-.52,.23-.58,.23-.68,0-.27-.19-.27-.34-.27-.06,0-.16,0-.16-.11s.11-.11,.17-.11h.97Zm1.27,1.48c-.09,0-.23,0-.23,.23,0,.86,.58,1.45,1.17,1.45,.32,0,.63-.19,.85-.39,.04-.03,.2-.27,.27-.27,.04,0,.07,.04,.07,.09,0,.15-.49,.88-1.42,.88-.99,0-1.54-.78-1.54-1.8,0-1.17,.73-1.79,1.49-1.79,1.09,0,1.4,1.16,1.4,1.45,0,.13-.07,.16-.21,.16h-1.85Zm1.3-.23c.15,0,.23-.04,.23-.2,0-.27-.25-.99-.84-.99-.66,0-.86,.88-.86,1.04s.12,.15,.18,.15h1.29Zm3.24,1.82c-.05-.13-.35-.92-.35-.96,0-.11,.09-.15,.15-.15,.08,0,.09,.04,.26,.3,.31,.49,.94,.96,1.66,.96,.47,0,1.04-.32,1.04-1.06,0-.64-.42-.87-1.32-1.18-.98-.34-1.63-.71-1.63-1.55,0-.73,.51-1.37,1.41-1.37,.14,0,.32,.02,.5,.06,.08,.01,.37,.08,.42,.08,.06,0,.11-.01,.15-.04,.1-.08,.11-.09,.16-.09,.08,0,.11,.06,.18,.25,.05,.11,.38,.94,.38,.99,0,.09-.08,.11-.12,.11-.06,0-.07-.02-.18-.2-.19-.3-.57-.91-1.44-.91-.79,0-.96,.63-.96,.93,0,.58,.42,.8,1.35,1.12,1.42,.49,1.61,1.06,1.61,1.6,0,.95-.75,1.52-1.53,1.52-.25,0-.5-.05-.76-.14-.19-.06-.24-.07-.28-.07-.11,0-.2,.03-.27,.09-.12,.11-.13,.12-.2,.12-.09,0-.11-.04-.24-.39Zm5.1,.39c-.66,0-1.46-.42-1.46-1.72,0-1.08,.61-1.87,1.63-1.87,.56,0,1.09,.28,1.09,.67,0,.24-.18,.37-.38,.37-.29,0-.32-.25-.33-.42-.04-.42-.44-.42-.48-.42-.51,0-.94,.65-.94,1.57s.48,1.53,1.07,1.53c.34,0,.71-.19,.94-.48,.06-.08,.09-.12,.15-.12,.03,0,.07,.02,.07,.08,0,.11-.49,.82-1.36,.82Zm1.96-.13s-.18,0-.18-.11,.07-.11,.27-.11c.08,0,.23,0,.32-.16,.06-.1,.08-.18,.08-1.17,0-.23,0-1.25-.04-1.37-.02-.08-.11-.13-.22-.13-.05,0-.29,.06-.34,.06-.04,0-.07-.04-.07-.07,0-.06,.04-.06,.35-.16,.1-.03,.74-.23,.77-.23,.02,0,.03,0,.04,.02v.31c0,.37,0,.42,.07,.42,.03,0,.05-.01,.15-.14,.06-.08,.48-.61,.99-.61,.26,0,.42,.16,.42,.4s-.18,.37-.35,.37c-.15,0-.22-.08-.27-.15-.04-.04-.11-.12-.2-.12-.18,0-.46,.21-.6,.46-.17,.3-.2,.47-.2,1.51,0,.64,.02,.76,.51,.76,.06,0,.15,.02,.15,.11,0,.11-.13,.11-.18,.11h-1.45Zm2.91,0c-.06,0-.16,0-.16-.11,0-.11,.08-.11,.22-.12,.09,0,.22-.04,.28-.2,.06-.12,.06-1.15,.06-1.4,0-.2,0-1.01-.04-1.11-.04-.08-.11-.12-.2-.12-.03,0-.21,.02-.22,.02-.03,0-.06-.01-.06-.06s.04-.06,.35-.16c.09-.03,.53-.19,.58-.19,.07,0,.07,.06,.07,.13,0,.32,0,1.9,0,2.26,0,.51,0,.81,.32,.83,.14,0,.23,.01,.23,.12,0,.11-.12,.11-.17,.11h-1.25Zm.23-4.86c0-.23,.18-.41,.41-.4,.23,0,.41,.18,.41,.4s-.18,.41-.41,.41-.41-.18-.41-.41Zm4.84,1.54c.07,0,.18,0,.18,.11,0,.11-.09,.11-.17,.12-.08,0-.28,.08-.47,.51-.11,.27-.63,1.61-.74,1.9-.3,.77-.33,.81-.42,.81-.08,0-.15-.15-.18-.18-.15-.31-.39-.85-.58-1.27-.7-1.59-.76-1.72-1.01-1.77-.13-.02-.18-.04-.18-.12,0-.11,.11-.11,.18-.11h1.13c.07,0,.18,0,.18,.11s-.11,.11-.17,.11c-.22,0-.25,.16-.25,.22s.02,.1,.03,.13c.06,.14,.7,1.55,.83,1.84,.06,.14,.09,.21,.14,.21,.04,0,.07-.06,.08-.08,.02-.04,.49-1.24,.54-1.36,.2-.52,.23-.58,.23-.68,0-.27-.19-.27-.34-.27-.06,0-.16,0-.16-.11s.11-.11,.17-.11h.97Zm1.27,1.48c-.09,0-.23,0-.23,.23,0,.86,.58,1.45,1.17,1.45,.32,0,.63-.19,.85-.39,.04-.03,.2-.27,.27-.27,.04,0,.07,.04,.07,.09,0,.15-.49,.88-1.42,.88-.99,0-1.54-.78-1.54-1.8,0-1.17,.73-1.79,1.49-1.79,1.09,0,1.4,1.16,1.4,1.45,0,.13-.07,.16-.21,.16h-1.85Zm1.3-.23c.15,0,.23-.04,.23-.2,0-.27-.25-.99-.84-.99-.66,0-.86,.88-.86,1.04s.12,.15,.18,.15h1.29Zm3.3,2.08c-.13,0-.13-.1-.13-.11,0-.1,.09-.11,.13-.11,.18-.02,.25-.03,.34-.15,.07-.11,.07-.23,.07-1.37,0-.67,0-.93-.15-1.16-.15-.24-.38-.26-.46-.26-.23,0-.52,.12-.72,.32-.21,.22-.21,.32-.21,1.13,0,.18,0,1.04,.02,1.17,.04,.23,.16,.3,.34,.31,.07,0,.19,0,.19,.11,0,.01,0,.11-.14,.11h-1.31c-.14,0-.14-.1-.14-.11,0-.12,.08-.12,.19-.12,.18,0,.28-.11,.32-.21,.06-.16,.06-1.1,.06-1.34,0-1.14,0-1.32-.32-1.32-.03,0-.18,.03-.2,.03s-.07,0-.07-.06,.03-.06,.28-.12c.11-.03,.7-.2,.73-.2,.07,0,.07,.03,.07,.31,0,.1,0,.15,.05,.15s.25-.18,.29-.21c.28-.18,.53-.25,.79-.25,.51,0,.72,.27,.79,.47,.1,.27,.1,.39,.1,1.49,0,.21,0,.94,.05,1.06,.01,.05,.08,.2,.32,.21,.11,0,.2,0,.2,.12,0,.11-.08,.11-.14,.11h-1.32Zm2.6-1.85c-.09,0-.23,0-.23,.23,0,.86,.58,1.45,1.17,1.45,.32,0,.63-.19,.85-.39,.04-.03,.2-.27,.27-.27,.04,0,.07,.04,.07,.09,0,.15-.49,.88-1.42,.88-.99,0-1.54-.78-1.54-1.8,0-1.17,.73-1.79,1.49-1.79,1.09,0,1.4,1.16,1.4,1.45,0,.13-.07,.16-.21,.16h-1.85Zm1.3-.23c.15,0,.23-.04,.23-.2,0-.27-.25-.99-.84-.99-.66,0-.86,.88-.86,1.04s.12,.15,.18,.15h1.29Zm1.35,2.08s-.18,0-.18-.11,.07-.11,.27-.11c.08,0,.23,0,.32-.16,.06-.1,.08-.18,.08-1.17,0-.23,0-1.25-.04-1.37-.02-.08-.11-.13-.22-.13-.05,0-.29,.06-.34,.06-.04,0-.07-.04-.07-.07,0-.06,.03-.06,.34-.16,.1-.03,.74-.23,.77-.23,.02,0,.03,0,.04,.02v.31c0,.37,0,.42,.07,.42,.04,0,.05-.01,.15-.14,.06-.08,.48-.61,.99-.61,.26,0,.42,.16,.42,.4s-.18,.37-.35,.37c-.15,0-.22-.08-.27-.15-.04-.04-.11-.12-.2-.12-.18,0-.47,.21-.6,.46-.17,.3-.2,.47-.2,1.51,0,.64,.02,.76,.51,.76,.06,0,.15,.02,.15,.11,0,.11-.13,.11-.18,.11h-1.45Zm8.87-5.18s.46,1.11,.46,1.19-.07,.13-.13,.13-.08-.02-.23-.23c-.6-.84-1.23-.94-1.52-.94-1.11,0-1.68,1.35-1.68,2.57,0,1.63,.96,2.27,1.8,2.27,.49,0,1.06-.21,1.52-1,.16-.27,.16-.28,.22-.28s.11,.05,.11,.11-.18,.43-.4,.71c-.59,.73-1.34,.78-1.65,.78-1.49,0-2.21-1.2-2.21-2.58,0-1.65,1.02-2.82,2.21-2.82,.18,0,.38,.03,.6,.08,.05,.02,.38,.11,.42,.11,.06,0,.14-.02,.19-.07,.11-.11,.13-.13,.18-.13,.04,0,.1,.04,.12,.08Zm2.45,1.73c.9,0,1.56,.78,1.56,1.8s-.65,1.8-1.56,1.8-1.56-.79-1.56-1.8,.64-1.8,1.56-1.8Zm0,3.4c.59,0,.96-.76,.96-1.61s-.37-1.61-.96-1.61c-.54,0-.96,.66-.96,1.61,0,.83,.36,1.61,.96,1.61Zm2.01,.06s-.18,0-.18-.11,.07-.11,.27-.11c.08,0,.23,0,.32-.16,.06-.1,.08-.18,.08-1.17,0-.23,0-1.25-.04-1.37-.02-.08-.11-.13-.22-.13-.05,0-.29,.06-.34,.06-.04,0-.07-.04-.07-.07,0-.06,.03-.06,.34-.16,.1-.03,.74-.23,.77-.23,.02,0,.03,0,.04,.02v.31c0,.37,0,.42,.07,.42,.04,0,.05-.01,.15-.14,.06-.08,.48-.61,.99-.61,.26,0,.42,.16,.42,.4s-.18,.37-.35,.37c-.15,0-.22-.08-.27-.15-.04-.04-.11-.12-.2-.12-.18,0-.47,.21-.6,.46-.17,.3-.2,.47-.2,1.51,0,.64,.02,.76,.51,.76,.06,0,.15,.02,.15,.11,0,.11-.13,.11-.18,.11h-1.45Zm3.06,1.16c-.06,0-.19-.01-.19-.11,0-.11,.13-.11,.25-.12,.17,0,.3-.08,.35-.3,.02-.13,.02-2.44,.02-2.87,0-.62,0-.82-.25-.82-.04,0-.25,.05-.3,.05-.03,0-.06-.03-.06-.06,0-.05,.03-.06,.16-.11,.08-.02,.87-.28,.89-.28,.05,0,.05,.06,.05,.2,0,.11,0,.15,.06,.15,0,0,.23-.13,.25-.14,.13-.08,.42-.21,.74-.21,.73,0,1.4,.64,1.4,1.73,0,.93-.53,1.86-1.41,1.86-.31,0-.58-.09-.68-.13-.04-.02-.21-.11-.26-.11-.09,0-.09,.02-.09,.58,0,.13,0,.44,.35,.46,.2,0,.29,.01,.29,.12s-.13,.11-.2,.11h-1.36Zm1.1-4.04c-.18,.17-.18,.29-.18,1.31s.03,1.06,.18,1.2c.22,.2,.56,.21,.67,.21,.79,0,1.01-.87,1.01-1.49,0-.83-.35-1.5-1-1.5-.23,0-.5,.11-.68,.27Zm2.6,2.56c0-.25,.2-.46,.46-.46s.47,.2,.47,.46-.23,.46-.47,.46-.46-.2-.46-.46Z"/>
      <path class="cls-1" d="M39.47,25.58c0-3.46-2.66-6.3-6.04-6.61-.3-3.38-3.15-6.04-6.61-6.04s-6.31,2.66-6.61,6.04c-3.38,.3-6.04,3.15-6.04,6.61s2.66,6.31,6.04,6.61c.3,3.38,3.15,6.04,6.61,6.04s6.31-2.66,6.61-6.04c3.38-.3,6.04-3.15,6.04-6.61Zm-13.22-.82c-1.82-.61-3.13-2.34-3.13-4.33,0-2.51,2.05-4.56,4.56-4.56,1.99,0,3.72,1.31,4.33,3.13-3,.37-5.39,2.76-5.76,5.76Zm-6.01-4.36c.37,3,2.76,5.39,5.76,5.76-.61,1.82-2.34,3.13-4.33,3.13-2.51,0-4.56-2.05-4.56-4.56,0-1.99,1.31-3.72,3.13-4.33Zm7.16,6.01c1.82,.61,3.13,2.34,3.13,4.33,0,2.51-2.05,4.56-4.56,4.56-1.99,0-3.72-1.31-4.33-3.13,3-.37,5.39-2.76,5.76-5.76Zm6.01,4.36c-.37-3-2.76-5.39-5.76-5.76,.61-1.82,2.34-3.13,4.33-3.13,2.51,0,4.56,2.05,4.56,4.56,0,1.99-1.31,3.72-3.13,4.33Z"/>
    </g>
    <text class="cls-2" transform="translate(221.06 29.45)"><tspan class="cls-3" x="0" y="0">リ</tspan><tspan class="cls-4" x="8.4" y="0">ク</tspan><tspan x="17.5" y="0">ル</tspan><tspan class="cls-10" x="27.5" y="0">ー</tspan><tspan class="cls-7" x="36" y="0">ト</tspan><tspan class="cls-8" x="45.3" y="0">ペ</tspan><tspan class="cls-6" x="55.2" y="0">ー</tspan><tspan class="cls-9" x="64.7" y="0">ジ</tspan></text>
  </g>
</svg>