<?xml version="1.0" encoding="UTF-8"?>
<svg id="_レイヤー_2" data-name="レイヤー 2" xmlns="http://www.w3.org/2000/svg" viewBox="0 0 309.84 51.16">
  <defs>
    <style>
      .cls-1, .cls-2 {
        fill: #fff;
      }

      .cls-2 {
        font-family: GothicMB101Pro-DeBold, 'GothicMB101Pro DeBold';
        font-size: 10px;
        font-weight: 700;
      }

      .cls-3 {
        letter-spacing: -.16em;
      }

      .cls-4 {
        letter-spacing: -.09em;
      }

      .cls-5 {
        letter-spacing: -.05em;
      }

      .cls-6 {
        fill: #b97727;
      }

      .cls-7 {
        letter-spacing: -.07em;
      }

      .cls-8 {
        letter-spacing: -.01em;
      }

      .cls-9 {
        letter-spacing: 0em;
      }

      .cls-10 {
        letter-spacing: -.15em;
      }
    </style>
  </defs>
  <g id="_レイヤー_1-2" data-name="レイヤー 1">
    <rect class="cls-6" width="309.84" height="51.16"/>
    <g>
      <path class="cls-1" d="M54.81,20.58c-.15,0-.19,.06-.42,.36l-.02,.02c-.09,.13-.18,.13-.3,.13h-2.23c-.24,0-.25-.11-.25-.31,0-1.25,0-1.36,.04-1.55,0-.02,.06-.08,.1-.13,.12-.14,.17-.21,.17-.27,0-.35-1.25-.49-1.26-.49-.17,0-.21,.09-.21,.16,0,.06,.03,.22,.06,.39v.06c.04,.33,.05,1.41,.05,1.78,0,.25-.01,.36-.27,.36h-1.99c-.26,0-.4-.05-.61-.16l-.1-.05c-.66-.35-.73-.39-.85-.39-.06,0-.12,.03-.12,.17,0,0,0,.07,.01,.14,.01,.11,.02,.24,.02,.28,.05,.61,.07,1.38,.07,2.17,0,.96,0,1.6-.02,1.9-.01,.1-.05,.51-.05,.6,0,.13,0,.4,.4,.4s.75-.4,.79-.75c.02-.26,.04-.34,.26-.34h2.16c.25,0,.27,.06,.27,.33,0,.4-.02,2.09-.04,2.52,0,.07-.01,.27-.03,.46-.01,.19-.02,.37-.02,.43,0,.47,.26,.57,.48,.57,.72,0,.72-.78,.72-1.03,0-.24,0-.91-.01-1.55,0-.61-.01-1.21-.01-1.41,0-.31,.11-.31,.3-.31h2.16c.26,0,.26,.13,.26,.24,0,.3,0,.67,.42,.67,.04,0,.38,0,.65-.34,.14-.17,.14-.33,.14-.55v-.06c0-.14-.01-.53-.02-.91,0-.35-.02-.69-.02-.8,0-1.17,0-1.32,.08-1.47,0-.01,.06-.06,.09-.1,.15-.15,.22-.23,.22-.3,0-.23-.92-.85-1.11-.85Zm-.37,1.31c0,.27-.04,2.44-.06,2.56-.02,.09-.09,.11-.23,.11h-2.28c-.16,0-.22-.04-.24-.15-.02-.09-.03-1.05-.03-2.51,0-.2,.02-.32,.26-.32h2.32c.17,0,.26,.05,.26,.31Zm-4.17,2.67h-2.17c-.24,0-.29-.06-.29-.37,0-.18,0-.67-.01-1.14,0-.44-.01-.86-.01-1,0-.44,0-.48,.26-.48h2.23c.28,0,.29,0,.29,.97,0,1.68-.05,1.89-.06,1.92-.04,.08-.13,.09-.23,.09Zm10.41-1.53c-.65,.88-1.46,1.99-2.56,2.84-.34,.26-.58,.43-.73,.43-.12,0-.13-.08-.13-.11t.37-.51c.16-.2,.32-.4,.37-.47,.23-.32,1.42-1.98,1.91-3.26l.04-.11c.13-.35,.15-.41,.27-.41,.17,0,1.12,.5,1.18,.54,.18,.11,.26,.27,.19,.41-.05,.12-.14,.13-.33,.15h-.04c-.14,.02-.24,.1-.54,.5Zm7.58,2.3c0,.71-.32,.82-.52,.82-.32,0-.35-.06-.9-1.05-.63-1.12-1.45-2.27-1.99-2.79-.16-.16-.24-.28-.24-.36,0-.02,0-.13,.16-.13,.38,0,3.49,1.9,3.49,3.52Zm-4.28-6.31c0,.13-.07,.19-.23,.33l-.03,.03c-.07,.05-.13,.13-.14,.42-.03,.64-.05,1.34-.05,2.16,0,4.29,0,5.43-.01,5.62,0,.33,0,.96-.59,1.39-.34,.25-.72,.34-.9,.34-.12,0-.13-.02-.27-.42-.13-.34-.23-.41-.75-.7l-.03-.02c-.16-.1-.26-.15-.26-.25,0-.13,.15-.13,.22-.13,.08,0,.27,.02,.47,.03,.18,.01,.37,.03,.43,.03,.36,0,.54-.09,.6-.31,.05-.18,.08-1.62,.08-3.85,0-2.02-.04-3.54-.07-4.44v-.15s-.02-.12-.03-.21c-.02-.12-.02-.19-.02-.23,0-.1,.09-.17,.22-.17,.08,0,.29,.04,.52,.09l.09,.02c.3,.06,.75,.15,.75,.44Zm16.99,3.94c0,.07-.03,.09-.37,.24-.05,.02-.1,.05-.12,.06-.39,.23-.5,.37-.63,.55-.04,.06-.13,.12-.23,.12-.26,0-2.65-1.27-4.31-4.21-.04-.09-.12-.17-.16-.17-.07,0-.09,.01-.34,.38h0c-1.76,2.55-4.93,4.36-5.32,4.36-.07,0-.13-.06-.13-.13,0-.09,.51-.44,.52-.44,2.58-1.92,4.25-4.63,4.31-5.06,.03-.19,.07-.33,.24-.33,.09,0,.15,.02,.48,.16,.12,.05,.27,.11,.47,.19,.23,.1,.39,.2,.39,.38,0,.04-.02,.09-.06,.18-.02,.04-.04,.1-.05,.12,.03,.15,.95,1.24,1.83,1.93,1.15,.9,2.2,1.26,3.16,1.52,.33,.07,.33,.12,.33,.17Zm-.56,5.42c0,.24-.29,.24-.73,.24h-7.71c-.27,0-1.09,0-1.5,.04-.03,0-.08,0-.13,.01-.06,0-.12,.01-.14,.01-.08,0-.13-.06-.17-.11l-.24-.27s-.07-.07-.07-.14c0-.04,.03-.11,.13-.11,.09,0,.48,.04,.55,.05,.26,.01,1.14,.04,1.26,.04,.25,0,.27,0,.27-1.25,0-.3-.01-1.6-.02-1.87,0-.02-.03-.1-.05-.19-.05-.19-.08-.32-.08-.37,0-.05,.02-.22,.23-.22,.01,0,1.35,.17,1.35,.55,0,.16-.09,.23-.24,.34l-.03,.02c-.08,.05-.11,.1-.12,.18-.01,.05-.03,.31-.03,1.71,0,.87,.03,1,.03,1.01,.05,.09,.2,.09,.28,.09h1.2c.14,0,.21-.05,.24-.16,.02-.13,.06-2.86,.06-3.21,0-1.42-.04-1.69-.12-1.94,0-.01-.03-.05-.05-.1-.11-.2-.14-.28-.14-.33,0-.04,.02-.17,.24-.17,.1,0,.74,.1,1.31,.28,.12,.04,.26,.1,.26,.29,0,.21-.18,.33-.28,.4-.17,.1-.18,.14-.18,1.02,0,.59,0,.67,.02,.73,.04,.09,.2,.09,.27,.09h.72c.5,0,.54,0,.67-.21,.22-.38,.28-.49,.45-.49,.23,0,1.05,.74,1.05,.94,0,.24-.14,.24-.72,.24h-2.16c-.26,0-.3,.07-.3,.32,0,.1,0,.37,.01,.63,0,.24,.01,.48,.01,.56,0,.29,0,.96,.02,1.04,.04,.08,.14,.08,.27,.08h1.89c.5,0,.52,0,.59-.06,.03-.02,.09-.09,.15-.17,.29-.33,.44-.48,.55-.48,.17,0,1.13,.75,1.13,.95Zm12.22-.31h-.05c-1.07-.14-2.63-.53-4.03-1.57l-.11-.08c-.28-.21-.29-.22-.29-.28,.02-.02,.14-.02,.21-.02h3.5c.42,0,.72,0,.72-.25s-.97-.88-1.12-.88c-.12,0-.26,.15-.49,.4-.08,.08-.18,.2-.2,.21-.08,.03-.29,.03-.56,.03h-2.44c-.2,0-.2-.07-.2-.21,0-.56,0-.56,.21-.56h2.63c.4,0,.69,0,.69-.28,0-.25-.77-.87-1.01-.87-.17,0-.22,.06-.55,.45l-.03,.04c-.14,.16-.16,.16-.69,.16h-1c-.24,0-.25-.06-.25-.39,0-.49,0-.53,.27-.53h3.35c.56,0,.7,0,.7-.24s-.89-.88-1-.88-.23,.13-.47,.42c-.05,.06-.11,.13-.13,.14-.07,.06-.1,.06-.59,.06h-1.08c-.08,0-.13,0-.14-.02,.01-.11,.47-.55,.76-.72,.16-.08,.26-.14,.26-.28,0-.17-.07-.21-.46-.43l-.06-.04c-.06-.03-.11-.06-.14-.08h2.74c.44,0,.73,0,.73-.25,0-.2-.97-.85-1.12-.85-.1,0-.22,.12-.44,.38-.06,.06-.13,.14-.15,.16-.09,.08-.19,.09-.64,.09h-.59s-.02,0-.03,0c.15-.15,.72-.52,.97-.67,.05-.04,.4-.27,.46-.3,0,0,0,0,0,0l.07-.03c.19-.07,.26-.1,.26-.24,0-.3-.94-.79-1-.79-.12,0-.14,.05-.28,.39-.21,.49-1.03,1.6-1.19,1.64-.02,0-.03,0-.03-.09,0-.22,0-.37-.01-.5,0-.24-.01-.42-.01-.86,0-.19,0-.23,.12-.37l.04-.06c.08-.1,.11-.14,.11-.21,0-.16-.15-.27-.25-.3-.69-.2-.77-.22-.85-.22-.1,0-.21,.07-.21,.25,0,.04,.02,.21,.04,.28,.01,.22,.04,.81,.04,1.13,0,.95,0,.95-.26,.95h-.43c-.26,0-.27,0-.27-1.52,0-.25,.02-.33,.08-.39,0,0,.15-.15,.15-.25,0-.37-1.07-.42-1.08-.42-.11,0-.21,.03-.21,.23,0,.09,.03,.33,.06,.59,0,.07,.02,.13,.02,.15,.01,.32,.02,1.18,.02,1.39,0,.16-.03,.24-.18,.24h-.36s-.04,0-.05,0c0-.04,0-.05,.05-.13,.08-.16,.09-.26,.09-.34,0-.84-1.34-1.21-1.68-1.21-.12,0-.21,.09-.21,.17,0,.02,0,.05,.03,.06,.12,.11,.43,.42,.48,.48,.18,.24,.46,.79,.46,.92,0,.03,0,.05,0,.05-.02,.01-.1,.01-.16,.01-.52,0-1.01-.02-1.36-.04-.11,0-.21,0-.29-.01-.04,0-.15,0-.26-.02-.11,0-.23-.02-.27-.02-.1,0-.12,.07-.12,.11,0,.05,.02,.07,.07,.14l.24,.27s.08,.11,.17,.11c.03,0,.08,0,.14-.01,.05,0,.1-.01,.13-.01,.22-.02,1.01-.04,1.5-.04h.3c.19,0,.32,0,.55,.38,.17,.28,.48,1.03,.49,1.19,0,0-.04,0-.05,0h-.44c-.61,0-1.2-.02-1.55-.03h-.1s-.16-.02-.27-.03c-.11-.01-.22-.02-.26-.02-.06,0-.12,.05-.12,.12,0,.04,.01,.06,.07,.13l.23,.27c.05,.06,.09,.12,.18,.12,.02,0,.08,0,.14-.01,.05,0,.1-.01,.12-.01,.42-.04,1.24-.04,1.52-.04h1.45c.2,0,.23,.12,.23,.42,0,.46,0,.5-.26,.5h-.76c-.6,0-1.47-.03-1.64-.04-.04,0-.16-.01-.27-.03-.11-.01-.22-.02-.26-.02-.08,0-.13,.05-.13,.12,0,.04,.01,.06,.07,.13l.25,.29,.02,.02s.07,.08,.15,.08c.02,0,.1,0,.17-.02,.07,0,.13-.02,.16-.02,.26-.02,.99-.02,1.43-.02h.86c.21,0,.21,.08,.21,.19,0,.59,0,.59-.17,.59h-2.35c-.48,0-1.27-.02-1.66-.04-.04,0-.15-.01-.26-.02-.12-.01-.23-.02-.27-.02-.06,0-.12,.05-.12,.12,0,.04,.01,.06,.07,.13l.23,.27c.05,.06,.09,.12,.18,.12,.03,0,.11-.01,.19-.02,.06,0,.11-.02,.14-.02,.31-.02,1.05-.02,1.44-.02h1.58c.12,0,.12,.01,.12,.03-.05,.23-1.85,1.84-3.92,2.75,0,0-.03,.01-.05,.02-.18,.09-.24,.13-.24,.2,0,.1,.09,.15,.17,.15,.19,0,2.28-.47,4.66-2.23,.16-.12,.23-.16,.23-.17,0,0,0,.02,0,.07,0,.31,0,.69-.01,1,0,.01-.07,1.08-.07,1.11,0,.35,.2,.39,.35,.39,.22,0,.45-.1,.6-.27,.14-.16,.14-.28,.14-.72,0-.13,0-.48,0-.83,0-.33,0-.65,0-.76,0-.04,0-.17,0-.28,0-.09,0-.18,0-.2,0-.03,0-.05,.02-.06,.02,.01,.09,.1,.2,.24l.08,.09c.6,.74,1.52,1.68,3.33,2.43l.05,.02c.29,.12,.48,.19,.57,.19,.1,0,.2-.2,.23-.28,.1-.2,.31-.47,.59-.55h.02c.18-.05,.3-.08,.3-.22,0-.14-.1-.16-.35-.19Zm-6.4-5.18l.03-.07c.04-.1,.06-.16,.06-.27,0-.35-.24-.7-.78-1.08-.03-.01-.09-.06-.14-.1h2.72c.17,0,.17,.02,.17,.07,0,0,0,.42-.22,1.06-.13,.38-.18,.43-.47,.43h-1.33s-.03,0-.04,0c0-.01,0-.02,.01-.04Zm11.98-4.26c-.08-.15-.07-.25,0-.31,.06-.05,.16-.02,.24,.02,.41,.18,1.59,1.13,1.59,1.96,0,.45-.33,.72-.64,.72-.34,0-.4-.24-.55-.77v-.04c-.16-.54-.39-1.12-.64-1.59Zm5.44,6.02c0,.12-.14,.22-.25,.3,0,0-.02,.01-.02,.02-.14,.09-.18,.12-.24,.39-.02,.09-.07,.39-.11,.65-.04,.23-.07,.44-.09,.53-.33,1.89-.96,2.85-1.86,2.85-.39,0-.44-.18-.47-.41-.03-.4-.51-.62-.92-.81-.12-.05-.18-.12-.18-.2,0-.09,.06-.17,.18-.17,.04,0,.1,.02,.17,.04l.07,.02c.63,.16,.84,.21,1.16,.21,.42,0,.51-.27,.72-1.11,.18-.69,.38-1.96,.38-2.04,0-.14-.04-.15-.29-.15h-2.15c-.21,0-.24,.03-.29,.18-.18,.61-.52,1.76-1.57,2.77-1.4,1.35-3.15,1.54-3.17,1.54-.23,0-.24-.13-.24-.17,0-.14,.11-.18,.37-.27l.09-.03c2.75-.98,3.52-3.61,3.52-3.88,0-.1-.04-.14-.27-.14h-.9c-.33,0-.93,0-1.41,.02-.03,0-.11,.01-.2,.02-.08,0-.14,.02-.16,.02-.09,0-.13-.06-.17-.11l-.23-.28s-.08-.08-.08-.14c0-.01,0-.11,.14-.11,.08,0,.46,.04,.54,.05h.08c.35,.01,.93,.04,1.55,.04h.95c.28,0,.29-.06,.29-.57,0-.23-.01-.47-.02-.69,0-.03-.02-.09-.03-.16-.02-.11-.03-.16-.03-.19,0-.23,.22-.23,.3-.23,.16,0,1.3,.24,1.3,.57,0,.08-.07,.16-.23,.33-.04,.05-.1,.11-.11,.13-.06,.13-.12,.59-.12,.64,0,.15,.09,.18,.29,.18h1.72c.49,0,.6,0,.69-.16,.13-.23,.18-.31,.34-.31,.23,0,1,.58,1,.87Zm-2.99-3.41s0-.03,.19-.32l.15-.23c.37-.57,.88-1.35,.96-1.88,.02-.2,.03-.31,.17-.31,.11,0,.21,.09,.24,.12l.03,.02c.83,.65,.92,.72,.92,.94,0,.23-.14,.25-.52,.31q-.25,.03-1.17,.86l-.02,.02c-.3,.28-.69,.61-.8,.61-.1,0-.16-.08-.16-.15Zm4.13,1.14c0,.21-.18,.35-.35,.35-.05,0-.14-.01-.27-.03-.08-.01-.18-.03-.21-.03-.28,0-.57,.12-.75,.23l-.13,.07c-.32,.17-.33,.18-.37,.18-.07,0-.13-.06-.13-.13,0-.09,.07-.22,.18-.43,.06-.11,.15-.27,.15-.32,0-.05-.03-.07-.19-.07h-7.16c-.2,0-.24,0-.28,.14-.23,.81-.65,1.29-1.12,1.29-.3,0-.43-.24-.43-.48,0-.28,.08-.38,.44-.79,.32-.36,.36-.59,.48-1.2,0,0,0-.03,0-.03,.02-.05,.05-.14,.15-.14,.14,0,.17,.07,.39,.59,.05,.12,.13,.14,.3,.14h7.02c.5,0,.52,0,.71-.18,.15-.15,.26-.23,.41-.23,.3,0,1.15,.79,1.15,1.07Zm-9.38-3.22c-.16-.26-.14-.35-.1-.4,0-.01,.02-.02,.03-.03,.03-.02,.06-.03,.1-.03,.35,0,1.78,1.06,1.78,1.93,0,.44-.28,.67-.54,.67-.34,0-.4-.17-.59-.74v-.04c-.18-.5-.38-.85-.68-1.38Zm20.54,1.55c-.1,0-.19,.09-.33,.22l-.05,.04c-.12,.11-.13,.12-.37,.12q-.3,0-.3-.37c0-.18,.04-1.24,.07-1.4,0-.03,.07-.11,.11-.18,.12-.18,.17-.27,.17-.34,0-.19-.17-.22-.34-.25-.04,0-.12-.02-.22-.04-.5-.1-.66-.13-.69-.13-.16,0-.18,.1-.18,.15,0,.08,.03,.26,.08,.51,.02,.12,.04,.23,.05,.27,.04,.36,.05,1.27,.05,1.45q0,.3-.41,.3c-.06,0-.24-.01-.42-.02-.01,0-.03,0-.04,0,.16-.03,.26-.09,.26-.23,0-.21-.78-.83-.97-.83-.17,0-.21,.06-.48,.36l-.05,.05c-.11,.14-.16,.17-.41,.17s-.29-.06-.29-.33c0-.74,0-.74,.21-.79,.11-.02,.96-.15,1.3-.15,.03,0,.11,0,.18,0,.07,0,.13,0,.15,0,.08,0,.17-.06,.17-.16,0-.18-.87-.78-.97-.78-.02,0-.03,0-.66,.23-.38,.14-.81,.29-.95,.34-.62,.18-1.17,.3-1.98,.45,.02-.01,.04-.03,.06-.04,.19-.15,.27-.22,.27-.3,0-.24-1.01-.72-1.08-.72-.15,0-.17,.07-.29,.56-.34,1.33-.85,2.73-1.52,4.17-.02,.03-.05,.09-.09,.17-.38,.73-.44,.87-.44,.93,0,.11,.08,.17,.16,.17,.15,0,.38-.31,.92-1.18,.11-.17,.22-.35,.29-.46,0,.02,0,.03,0,.06v3.84c0,.14-.03,1.05-.05,1.72-.01,.39-.02,.7-.02,.72,0,.11,0,.37,.37,.37,.3,0,.61-.16,.61-.6,0-.11,0-.39-.01-.67,0-.26-.01-.51-.01-.59v-4.7c0-.44,0-.49,.02-.58,0-.02,.04-.07,.06-.1,.07-.11,.1-.16,.1-.21,0-.08-.09-.16-.24-.3-.05-.04-.13-.11-.13-.12,0-.03,.03-.13,.25-.61,.32-.72,.48-1.06,.57-1.25,.06,.04,.15,.04,.2,.04,.14,0,.63-.03,1.02-.06,.23-.01,.41-.03,.44-.03,.17,0,.2,0,.2,.46s0,.49-.32,.49c-.2,0-.7-.02-1-.04-.12,0-.21,0-.22,0-.04,0-.13-.01-.22-.02-.09,0-.18-.02-.21-.02-.08,0-.13,.05-.13,.12,0,.05,.03,.08,.08,.13l.23,.28s.08,.11,.17,.11c.02,0,.08,0,.14-.02,.05,0,.09-.02,.12-.02,.18-.01,.68-.02,1-.02,.27,0,.37,.01,.37,.26,0,.68-.02,.68-.25,.68h-.49c-.13,0-.18,0-.4-.13-.45-.27-.51-.3-.64-.3-.08,0-.17,.06-.17,.22,0,.07,.04,.34,.05,.39,.02,.23,.04,.88,.04,1.14,0,.17,0,.65-.02,1.11,0,.44-.02,.86-.02,1.01,0,.22,.03,.46,.41,.46,.28,0,.36-.08,.54-.27,.07-.07,.11-.07,.23-.07h.48c.17,0,.25,.07,.25,.21,0,.66-.02,.7-.23,.7-.23,0-.9-.02-1.16-.03-.07-.01-.48-.05-.51-.05-.08,0-.13,.05-.13,.12,0,.04,.02,.06,.04,.09,0,0,.01,.02,.03,.04l.24,.28s.01,.02,.02,.02c.03,.03,.07,.09,.15,.09,.01,0,.07,0,.13-.01,.08,0,.19-.02,.22-.02,.4-.02,.72-.02,.97-.02,.2,0,.21,.02,.21,.71,0,.2,0,.38-1.33,.38-.05,0-.2-.02-.34-.03-.15-.02-.25-.03-.29-.03-.06,0-.17,.02-.17,.18,0,.18,.38,.99,.38,.99,.05,.11,.14,.16,.27,.16,.08,0,.18-.07,.38-.22,.05-.04,.11-.08,.13-.09,.19-.09,.86-.25,1.56-.41,1.2-.28,1.83-.43,2.11-.57-.21,.49-.39,.8-.47,.93-.12,.2-.18,.32-.18,.36,0,.1,.08,.15,.16,.15,.24,0,1.03-1.01,1.42-1.91,.77-1.78,.84-3.45,.92-5.56,.01-.39,.01-.41,.35-.41,.38,0,.39,.03,.39,.26,0,1.55-.02,3.5-.13,4.84-.13,1.59-.33,1.59-.75,1.59-.19,0-.39-.02-.49-.06-.03-.01-.19-.05-.27-.05-.08,0-.17,.05-.17,.15,0,.06,.05,.12,.35,.43,.09,.09,.18,.18,.21,.21,.03,.04,.11,.15,.17,.24,.04,.05,.07,.09,.08,.11,0,0,0,.01,.02,.02,.08,.07,.17,.07,.28,.07,.29,0,1.06,0,1.31-1.43,.3-1.69,.33-4.37,.33-5.15,0-.54,.01-.96,.02-1.01l.06-.08c.1-.14,.13-.18,.13-.26,0-.21-.56-.76-.77-.76Zm-4.52,1.77h.56c.26,0,.27,.05,.27,.49s0,.48-.27,.48h-.56c-.25,0-.26-.04-.26-.49s0-.48,.26-.48Zm-.01,1.45h.59c.22,0,.24,.11,.24,.26,0,.86-.02,.86-.24,.86h-.59c-.22,0-.25-.11-.25-.23q0-.9,.25-.9Zm1.62,3.79s-.1,0-.41,.04c-.39,.04-.98,.11-1.08,.11q-.37,0-.37-.67c0-.2,.11-.24,.27-.24h1.27c.53,0,.64,0,.64-.21,0-.16-.56-.87-.78-.87-.1,0-.24,.14-.49,.43-.04,.04-.07,.08-.08,.1-.04,.04-.1,.05-.26,.05h-.32c-.23,0-.25-.13-.25-.27,0-.63,.02-.65,.25-.65h.61s.14,0,.16,.05c.07,.15,.12,.24,.34,.24,.63,0,.63-.55,.63-.95v-2.25s.05-.08,.07-.13c.08-.13,.12-.19,.12-.24,0-.19-.58-.59-.73-.59-.06,0-.14,.05-.35,.21l-.04,.03c-.1,.07-.18,.07-.25,.07h-.56c-.16,0-.25-.03-.25-.21,0-.73,0-.73,.29-.73h1.21s-.03,.05-.03,.08c0,.04,.02,.06,.04,.1l.02,.03s0,0,0,0l.23,.27s.08,.12,.18,.12c.02,0,.12,0,.23-.01,.14-.01,.31-.02,.36-.02q.3,0,.3,.44c0,1.67-.18,3.34-.48,4.48-.12,.46-.26,.87-.39,1.2-.02-.01-.05-.02-.09-.02Zm-2.98-2.66h-.49c-.11,0-.25,0-.25-.25,0-.87,0-.87,.25-.87h.49c.11,0,.25,0,.25,.26,0,.86,0,.86-.25,.86Zm0-1.61h-.5c-.25,0-.25-.16-.25-.21,0-.75,.01-.75,.25-.75h.5c.14,0,.25,0,.25,.27,0,.69-.02,.69-.25,.69Zm19.22-.49c0,.07-.03,.09-.37,.24-.06,.02-.1,.05-.12,.06-.39,.23-.5,.37-.63,.55-.04,.06-.13,.12-.23,.12-.26,0-2.65-1.27-4.31-4.21-.04-.08-.12-.17-.16-.17-.07,0-.09,.01-.34,.38h0c-1.76,2.55-4.93,4.36-5.31,4.36-.07,0-.14-.06-.14-.13,0-.09,.51-.44,.52-.44,2.58-1.92,4.25-4.63,4.3-5.06,.03-.22,.08-.33,.24-.33,.09,0,.15,.02,.48,.16,.12,.05,.27,.11,.46,.18,.24,.1,.39,.2,.39,.38,0,.04-.02,.09-.06,.18-.02,.04-.04,.1-.05,.12,.03,.15,.95,1.24,1.83,1.93,1.15,.9,2.2,1.26,3.16,1.52,.33,.07,.33,.12,.33,.17Zm-.56,5.42c0,.24-.29,.24-.73,.24h-7.71c-.27,0-1.09,0-1.5,.04-.03,0-.08,0-.13,.01-.06,0-.12,.01-.14,.01-.09,0-.13-.06-.17-.11l-.24-.27s-.07-.07-.07-.14c0-.05,.04-.11,.13-.11s.48,.04,.55,.05c.26,.01,1.14,.04,1.26,.04,.25,0,.27,0,.27-1.25,0-.32-.01-1.61-.02-1.87,0-.02-.03-.1-.05-.19-.05-.19-.08-.32-.08-.37,0-.05,.02-.22,.23-.22,.01,0,1.35,.17,1.35,.55,0,.16-.09,.23-.24,.34l-.03,.02c-.08,.05-.11,.1-.12,.18-.01,.05-.03,.31-.03,1.71,0,.87,.03,1,.03,1.01,.04,.09,.2,.09,.28,.09h1.2c.14,0,.21-.05,.24-.16,.02-.14,.06-2.85,.06-3.21,0-1.43-.04-1.69-.12-1.94,0-.01-.03-.06-.05-.11-.1-.2-.14-.28-.14-.33,0-.04,.02-.17,.24-.17,.1,0,.73,.1,1.31,.28,.12,.04,.26,.1,.26,.29,0,.21-.18,.33-.28,.4-.17,.1-.18,.14-.18,1.02,0,.59,0,.67,.02,.73,.04,.08,.2,.08,.27,.08h.72c.5,0,.54,0,.67-.21,.22-.38,.28-.49,.45-.49,.23,0,1.05,.74,1.05,.94,0,.24-.14,.24-.72,.24h-2.16c-.26,0-.3,.07-.3,.32,0,.1,0,.37,.01,.63,0,.24,.01,.48,.01,.56,0,.29,0,.96,.02,1.04,.04,.08,.14,.08,.27,.08h1.9c.49,0,.52,0,.59-.06,.03-.02,.09-.09,.15-.17,.29-.33,.44-.48,.55-.48,.17,0,1.13,.75,1.13,.95Zm2.43-8.91l.24,.28c.05,.06,.12,.11,.18,.11,.02,0,.07,0,.13-.02,.05,0,.1-.02,.14-.02,.2-.03,.48-.03,.99-.02h1.9c.12,0,.19,.03,.21,.07,0,.02,.04,.17,.04,1.21,0,.38-.02,.45-.27,.45h-.82c-.22,0-.38-.06-.54-.12-.53-.23-.59-.26-.69-.26-.05,0-.16,.02-.16,.19,0,.07,.02,.36,.04,.41,.04,.48,.05,1.38,.05,2,0,.82-.01,1.36-.04,1.83-.04,.57-.05,.77-.05,.98,0,.41,.18,.47,.35,.47,.09,0,.55-.02,.68-.46,.06-.17,.07-.2,.36-.2h3.26c.25,0,.26,.08,.28,.18,.01,.11,.03,.31,.37,.31,.39,0,.63-.24,.63-.65,0-.14-.01-.57-.02-1-.01-.47-.03-.95-.03-1.13v-1.6c0-.05,0-.22,.04-.27,.18-.21,.23-.29,.23-.35,0-.16-.6-.64-.81-.64-.05,0-.1,.03-.26,.16-.04,.03-.08,.06-.1,.08-.07,.05-.14,.08-.3,.08h-.96q-.3,0-.3-1.15c0-.55,.02-.59,.26-.59h3.18c.42,0,.72,0,.72-.25,0-.22-1.05-.97-1.26-.97-.14,0-.28,.13-.42,.39-.2,.34-.31,.34-.76,.34h-4.25c-.57,0-1.05,0-1.64-.04-.04,0-.15-.01-.25-.02-.12-.01-.23-.02-.27-.02-.1,0-.14,.07-.14,.12,0,.04,.02,.06,.04,.09,0,0,.02,.02,.03,.04Zm2.71,4.6h.84c.27,0,.29,.04,.29,.75,0,1.07,0,1.07-.29,1.07h-.84c-.27,0-.29-.03-.29-.72q0-1.1,.29-1.1Zm.86-.49h-.9q-.25,0-.25-1.03c0-.5,.02-.54,.25-.54h.9c.25,0,.26,0,.26,.89,0,.64-.01,.68-.26,.68Zm2.45,0h-.98c-.26,0-.26,0-.26-.86,0-.71,.02-.71,.26-.71h.98c.26,0,.26,0,.26,.86,0,.71-.02,.71-.26,.71Zm-.98,.49h.97c.23,0,.25,.04,.25,.68,0,1.14-.02,1.14-.26,1.14h-.96q-.26,0-.26-1.04c0-.59,0-.65,.07-.72,.06-.06,.13-.06,.19-.06Zm4.45-2.7c.09,.07,.13,.14,.13,.22,0,.06-.05,.12-.15,.23-.04,.04-.09,.1-.1,.12-.07,.32-.07,2.13-.07,5.42,0,.07,.01,.3,.02,.54,.01,.26,.03,.53,.03,.62,0,.55-.36,.81-.7,.81-.39,0-.39-.36-.39-.63,0-.38-.05-.44-.24-.44h-7.37c-.22,0-.25,.04-.25,.21-.01,.35-.03,.83-.69,.83-.2,0-.43-.08-.43-.48,0-.03,0-.1,.01-.18,0-.07,.01-.14,.01-.17,.02-.64,.02-1.92,.02-5,0-.35,0-.79-.02-1.35v-.11c-.04-.28-.07-.59-.07-.68,0-.08,0-.25,.17-.25,.01,0,1.19,.16,1.19,.54,0,.11-.03,.14-.22,.33-.02,.02-.03,.08-.03,.27,0,.13,0,.5-.02,.88,0,.39-.02,.8-.02,.94,0,.64,.02,3.44,.05,3.59,.02,.12,.09,.15,.27,.15h7.42c.12,0,.19-.02,.23-.13,.02-.12,.03-2.24,.03-4.29,0-.18-.02-1.38-.04-1.47,0-.05-.03-.2-.05-.31-.03-.17-.05-.28-.05-.33,0-.14,.09-.24,.22-.24,.1,0,1.09,.37,1.09,.37Zm11.17-2.74c-.1,0-.18,.09-.31,.24l-.05,.06c-.13,.16-.19,.16-.34,.16h-1.93c-.14,0-.18,0-.33-.08h-.03c-.38-.2-.49-.25-.63-.25-.16,0-.22,.17-.22,.28s.02,.39,.03,.66c.01,.26,.03,.52,.03,.61v2.15c0,.31,.13,.47,.39,.47,.11,0,.58-.08,.63-.46,.02-.22,.02-.23,.31-.23h1.69c.26,0,.31,0,.31,.24,0,.41,0,1.53-.01,2.62,0,1.03-.01,2.04-.01,2.38,0,.77-.06,.77-.5,.77-.13,0-.34,0-.48-.01-.16,0-.18,.08-.18,.12t.15,.17c.12,.1,.44,.38,.47,.45,.16,.28,.21,.37,.36,.37,.14,0,.46-.11,.68-.23,.42-.24,.5-.71,.5-1.5,0-.31,0-.98,0-1.76,0-1.63-.01-3.65,0-4.23,0-.63,.02-1.59,.04-1.69,.03-.07,.05-.1,.26-.26,.02-.02,.08-.08,.08-.19,0-.4-.67-.85-.89-.85Zm-2.81,2.31c.01-.08,.01-.08,.26-.08h1.82q.26,0,.26,.52,0,.37-.26,.37h-1.82c-.27,0-.27,0-.27-.18,0-.39,0-.6,.01-.63Zm2.1-.58h-1.85q-.26,0-.26-.37t.26-.41h1.85c.18,0,.23,0,.24,.05,.02,.06,.02,.45,.02,.59,0,.11-.04,.13-.26,.13Zm-.13,5.09c0-.22-.65-.84-.88-.84-.16,0-.2,.06-.47,.42l-.02,.02c-.11,.15-.19,.15-.29,.15h-.42c-.07,0-.11-.02-.11-.19v-.98c0-.24,.04-.24,.36-.24h.53c.42,0,.72,0,.72-.24s-.64-.79-.84-.79c-.16,0-.21,.07-.45,.39-.12,.14-.18,.16-.7,.16h-1.51c-.51,0-.99-.02-1.34-.04-.12,0-.22,0-.31-.01-.04,0-.15,0-.26-.02-.11,0-.23-.02-.27-.02-.1,0-.12,.07-.12,.11,0,.05,.02,.07,.07,.14l.23,.28c.05,.05,.1,.1,.17,.1,.04,0,.19-.01,.35-.02,.17-.01,.36-.03,.42-.03,.21,0,.23,.09,.23,.23v1c0,.14-.03,.18-.18,.18-.13,0-.51-.02-.88-.04-.36-.02-.7-.04-.82-.04s-.13,.08-.13,.11c0,.05,.02,.07,.07,.14l.24,.27c.04,.06,.09,.11,.18,.11,.02,0,.08,0,.14-.01,.05,0,.1-.01,.12-.01,.36-.04,.89-.04,1.06-.04,.12,0,.15,.03,.15,.14,0,.81-.5,2.01-1.1,2.68l-.03,.03c-.16,.17-.17,.18-.17,.24,0,.09,.09,.16,.17,.16,.1,0,.56-.25,1.06-.83,.72-.85,.86-1.56,.93-2.21,.02-.2,.04-.21,.32-.21h.42c.23,0,.3,.01,.3,.24,0,.2-.03,.74-.05,1.26-.02,.51-.05,.99-.05,1.16,0,.25,0,.48,.34,.48,.26,0,.65-.22,.65-.69v-2.21c0-.23,.05-.25,.3-.25h1.16c.42,0,.72,0,.72-.24Zm-3.08-.34c-.01,.08-.03,.09-.3,.09h-.4c-.29,0-.3,0-.3-.2v-1.01q0-.2,.3-.2h.4q.3,0,.3,.26v1.06Zm-2.05-2.82c.06,.32,.1,.58,.43,.58,.3,0,.61-.18,.61-.69,0-.15,0-.55-.02-.95,0-.37-.02-.72-.02-.84,0-.15,0-.43,.09-.53,.2-.21,.24-.25,.24-.36,0-.25-.57-.84-.81-.84-.15,0-.29,.17-.38,.28l-.03,.04c-.09,.1-.14,.1-.27,.1h-1.86c-.16,0-.23,0-.41-.11h-.02c-.12-.08-.38-.23-.61-.23-.13,0-.13,.16-.13,.21,0,.05,.06,1.03,.07,1.14v.04c.01,.29,.04,.78,.04,2.15,0,2.77,0,3-.11,6.06,0,.09-.01,.25-.02,.36,0,.06,0,.1,0,.11,0,.34,.15,.51,.43,.51,.61,0,.61-.67,.61-.89,0-.82,0-1.88,0-2.94,0-1.06,0-2.12,0-2.94,0-.37,0-.38,.32-.38h1.55c.21,0,.28,.02,.3,.12Zm-.17-1.91h-1.74q-.25,0-.25-.33,0-.47,.25-.47h1.74q.25,0,.25,.33,0,.47-.25,.47Zm-1.78,.49h1.79q.23,0,.23,.47,0,.36-.23,.36h-1.79q-.23,0-.23-.44,0-.38,.23-.38Zm21.26,2.37c-.93-.24-2.74-1.22-2.82-1.41,.07-.18,1.49-.8,1.82-.8,.4,0,.5,0,.58-.17,.04-.08,.02-.18-.07-.3-.2-.31-.81-.84-.97-.84-.14,0-.21,.12-.29,.27-.26,.49-1.29,1.52-1.47,1.53-.17,0-.82-.8-.91-.98,.1-.21,1.57-.97,1.84-1.04h.03c.25-.08,.41-.13,.41-.27,0-.26-.92-.89-1.13-.89-.16,0-.18,.05-.32,.34l-.02,.05c-.31,.65-.93,1.4-1.06,1.43-.05,0-.17-.11-.51-.72v-.03s-.09-.14-.15-.26c-.25-.51-.28-.55-.35-.55-.03,0-.12,.01-.12,.15,0,.08,.39,1.74,1.34,2.99,.2,.27,.41,.52,.63,.75-.11-.07-.21-.12-.27-.12-.14,0-.19,.06-.39,.38-.15,.25-.29,.25-.45,.25h-1.87c-.46,0-1.27-.02-1.73-.05h-.05s-.08,0-.11-.01c.12-.15,.48-.52,.59-.63,.64-.72,.94-1.27,1.49-2.28l.1-.18c.1-.19,.15-.24,.37-.36,.11-.05,.25-.15,.25-.33,0-.28-.86-.79-.99-.79s-.17,.05-.36,.32l-.03,.05c-.1,.15-.19,.21-.49,.2h-.44c-.4-.03-.77-.03-1.09-.04-.22,0-.41,0-.56-.01-.04,0-.16,0-.28-.02-.11,0-.22-.02-.25-.02-.13,0-.14,.08-.14,.11,0,.05,.02,.07,.08,.13l.22,.27c.04,.06,.08,.13,.18,.13,.01,0,.08,0,.16-.02,.08,0,.17-.02,.2-.02,.48-.02,1.06-.02,1.41-.02h.52c.18,0,.21,.02,.21,.09,0,.26-.6,1.47-.8,1.73-.03-.07-.06-.18-.07-.23-.01-.05-.02-.08-.03-.11-.29-.6-1.32-.85-1.6-.85-.14,0-.16,.08-.16,.13,0,.02,0,.04,.02,.05,.04,.05,.11,.14,.18,.23,.06,.07,.12,.14,.15,.19,.36,.46,.89,1.21,.91,1.34,0,.26-.99,1.19-1.71,1.76-.05,.04-.2,.15-.34,.26q-.41,.3-.41,.36s.01,.13,.16,.13c.11,0,.54-.15,1.43-.71,.04-.03,.12-.09,.22-.16,.17-.12,.53-.39,.59-.41,.03,0,.04,0,.05,.02,0,0,0,0,0,0l.15,.19s.08,.11,.18,.11c.04,0,.19-.01,.34-.02,.17-.01,.36-.03,.41-.03,.14,0,.15,.02,.15,.44,0,1.28-.04,1.28-.31,1.28h-.4c-.52,0-1-.02-1.35-.04-.11,0-.21,0-.3-.01-.04,0-.16,0-.27-.02-.11,0-.22-.02-.25-.02-.12,0-.13,.08-.13,.11,0,.04,.02,.06,.06,.11l.25,.3s.08,.11,.18,.11c.01,0,.08,0,.16-.02,.08,0,.17-.02,.2-.02,.48-.02,1.08-.02,1.41-.02h.38c.15,0,.21,.01,.21,.15,0,.01-.18,1.41-1.22,2.28-.45,.38-.93,.71-1.35,.91-.23,.11-.28,.13-.28,.22,0,.08,.08,.15,.18,.15,.07,0,1.16-.27,1.93-.76,1.27-.8,1.51-1.91,1.68-2.72v-.03c.04-.19,.1-.19,.32-.19h1.14c.21,0,.25,.09,.25,.32,0,.03,0,.2-.01,.42-.01,.36-.02,.83-.02,.97,0,1.57,.68,1.74,2.14,1.74,.56,0,1.6,0,2.01-.19,.45-.19,.62-.55,.62-.73,0-.19-.08-.27-.31-.51l-.06-.06c-.08-.09-.15-.5-.15-.58v-.05c-.03-.15-.04-.26-.17-.26-.12,0-.13,.04-.25,.56-.18,.71-.23,.88-1.34,.88-.36,0-1.22,0-1.37-.3-.12-.23-.12-.88-.12-1.51,0-.72,.01-.72,.3-.72h2.24c.55,0,.67,0,.67-.23s-.82-.93-1.01-.93c-.11,0-.24,.14-.49,.45-.05,.06-.11,.13-.12,.15-.09,.07-.12,.08-.65,.08h-.65c-.25,0-.26-.02-.26-.56,0-.76,.01-1.08,.02-1.12,.02-.04,.06-.05,.49-.05,.27,0,.57,0,.57-.28,0-.04-.02-.1-.06-.16,.82,.72,1.58,1.12,1.74,1.12,.07,0,.16-.06,.35-.19,.04-.03,.07-.05,.08-.06,.55-.28,.82-.32,.84-.33,.2,0,.22-.11,.22-.16,0-.11-.09-.13-.27-.17Zm-4.94,1.3c0,.66-.02,.66-.25,.66h-1.09c-.25,0-.25-.09-.25-.2,0-.09,.01-.34,.02-.6,.01-.28,.03-.57,.03-.67,0-.16,.02-.26,.26-.26h1.01c.19,0,.24,.05,.26,.13,0,.03,.01,.3,.01,.95Zm16.71,.79c0,.13-.05,.17-.28,.37-.07,.05-.08,.15-.13,.91v.17c-.04,.38-.17,1.65-.5,2.05-.26,.35-.69,.44-.88,.44-.16,0-.18-.06-.3-.32l-.02-.04c-.09-.23-.28-.37-.34-.41-.08-.06-.13-.1-.13-.17,0-.06,.04-.12,.13-.12,.06,0,.21,0,.35,.02,.13,0,.26,.02,.31,.02,.23,0,.26-.05,.36-.59,.13-.73,.19-1.71,.19-1.95,0-.23-.09-.24-.31-.24h-.26q-.28,0-.33,.46c-.12,1.31-.63,2.33-1.5,3.02-.28,.22-.52,.32-.62,.32-.08,0-.13-.06-.13-.12,0-.07,.07-.16,.29-.37,.02-.02,.03-.03,.04-.04,.67-.8,1.07-1.98,1.07-3.14,0-.07,0-.11-.15-.11-.04,0-.16,.01-.27,.02-.09,0-.18,.02-.2,.02-.08,0-.13-.06-.18-.12l-.06-.07c-.03,.06-.09,.11-.19,.19-.03,.02-.06,.04-.07,.05-.03,.08-.1,1.02-.14,1.57-.02,.28-.04,.51-.05,.61v.03c-.06,.41-.19,1.49-1.25,1.49-.29,0-.33-.07-.47-.43-.07-.19-.16-.26-.29-.35l-.02-.02s-.11-.1-.11-.17c0-.03,.01-.12,.15-.12,.02,0,.07,0,.24,.05,.16,.03,.41,.09,.47,.09,.24,0,.35-.29,.4-.54,.09-.52,.19-1.55,.19-2.05,0-.25-.1-.26-.29-.26h-.35c-.26,0-.26,0-.35,.7-.22,1.75-1.49,3.09-2.04,3.09-.1,0-.16-.07-.16-.13,0-.02,0-.05,.03-.06,.03-.03,.38-.43,.42-.49,.59-.78,.98-2.11,.98-2.86,0-.21-.13-.24-.26-.24-.04,0-.2,.02-.33,.03-.12,.01-.24,.02-.27,.02-.09,0-.13-.06-.17-.11l-.23-.28c-.06-.06-.08-.08-.08-.13,0-.07,.06-.12,.14-.12,.08,0,.3,.02,.53,.03,.2,.01,.41,.03,.48,.03,.15,0,.26-.02,.26-.29,0-.09-.01-.62-.03-.7,0-.04-.01-.08-.02-.12-.02-.08-.03-.11-.03-.14,0-.17,.17-.17,.26-.17,.01,0,1.06,.01,1.06,.31,0,.07-.06,.14-.19,.3-.04,.04-.08,.1-.09,.12-.03,.09-.06,.43-.06,.51,0,.17,.1,.2,.27,.2h.23s.12,0,.19-.05c0,0,.04-.04,.08-.09,.14-.16,.22-.24,.29-.24,.1,0,.41,.19,.64,.37,0-.04,.03-.08,.12-.08,.02,0,.12,0,.24,.01,.18,.01,.42,.02,.49,.02,.25,0,.3-.09,.3-.26,0-.14-.01-.35-.05-.48,0-.02-.02-.05-.03-.09-.05-.13-.07-.19-.07-.23,0-.04,.01-.09,.04-.12-.05-.04-.1-.13-.18-.28-.11-.21-.41-.57-.53-.7-.12-.11-.14-.14-.14-.19,0-.03,.01-.12,.15-.12,0,0,.05,0,.12,.02,.2,.04,.74,.15,.85,.15q.26,0,.42-1.08c.03-.14,.07-.53,.07-.74s-.1-.25-.26-.25h-.73c-.37,0-.39,.05-.64,.67-.4,1-1,1.54-1.43,1.83-.53,.35-1.01,.44-1.21,.44-.1,0-.15-.07-.15-.13,0-.06,.01-.07,.36-.29,.08-.05,.16-.1,.19-.12,1-.71,1.45-1.91,1.45-2.17,0-.17-.12-.21-.17-.21-.25,0-.93,.01-1.17,.03-.04,.01-.08,.01-.13,.01-.07,0-.12-.04-.17-.1l-.23-.28s-.07-.08-.07-.14c0-.05,.04-.11,.12-.11,.04,0,.14,0,.24,.02,.08,0,.16,.02,.19,.02,.2,.01,1.13,.04,1.33,.04q.26,0,.26-.78c0-.16,0-.49-.02-.65-.02-.05-.04-.13-.04-.17,0-.08,.06-.15,.15-.15,.01,0,1.19,.24,1.19,.58,0,.06-.05,.12-.14,.22-.03,.03-.08,.09-.08,.11-.02,.06-.09,.6-.09,.66,0,.13,.08,.19,.27,.19h.56c.12,0,.26,0,.39-.15,.14-.16,.24-.26,.33-.26,.06,0,.97,.41,.97,.65,0,.12-.04,.15-.24,.32l-.06,.05c-.05,.08-.15,.71-.21,1.18-.06,.45-.13,.88-.18,1.04-.15,.41-.55,.7-.88,.82,.01,0,.02,0,.03,0,.19,.04,.42,.1,.57,.13,.14,.05,.2,.11,.2,.21,0,.07-.06,.13-.19,.27-.04,.04-.07,.07-.08,.09-.02,.06-.05,.13-.05,.29,0,.19,.03,.27,.31,.27h.29c.08,0,.14,0,.23-.09,.19-.18,.23-.21,.31-.21,.06,0,.93,.47,.93,.67Zm-8.31,2.98c0,.17,.02,.34,.02,.4,0,.37-.48,.6-.83,.6-.24,0-.33-.15-.33-.29v-.08c.06-.34,.17-2.11,.17-6.46,0-.42,0-.47-.32-.47-.07,0-.28,.02-.48,.03-.19,.02-.36,.03-.41,.03-.09,0-.14-.05-.18-.11l-.22-.27s-.08-.08-.08-.14c0-.01,0-.11,.13-.11,.07,0,.3,.02,.56,.03,.28,.02,.6,.04,.7,.04,.27,0,.3-.09,.3-.3,0-.78,0-1.29-.06-2.09,0-.02-.01-.06-.02-.12-.04-.21-.06-.39-.06-.45,0-.19,.13-.21,.18-.21,.01,0,1.25,.13,1.25,.48,0,.06-.05,.14-.17,.31-.05,.06-.11,.16-.12,.19-.03,.14-.07,.59-.07,1.96,0,.11,0,.24,.27,.24,.16,0,.35-.03,.41-.13l.05-.08c.19-.31,.23-.37,.39-.37,.19,0,1.01,.6,1.01,.78,0,.25-.29,.25-.73,.25h-1.1c-.19,0-.27,.04-.29,.13,0,.07-.02,.79-.02,1.1,0,1.7,0,2.4,.05,4.73,0,.05,0,.2,.02,.36Zm19.38,.44c0,.44-.29,.73-.55,.73-.41,0-.68-.49-.89-.88-.22-.4-.31-.4-.43-.4-.51,0-5.11,.91-5.53,1.1-.02,0-.06,.04-.11,.07-.15,.09-.21,.13-.27,.13-.07,0-.16-.04-.2-.14-.58-1.02-.67-1.23-.67-1.3,0-.05,.02-.17,.18-.17,.07,0,.27,.03,.46,.07h.08c.15,.04,.49,.06,.69,.06,.65,0,.7,0,1.17-.94,.31-.61,.61-1.43,.61-1.54,0-.1-.02-.12-.27-.12h-.76c-.87,0-1.18,.01-1.51,.04-.02,0-.07,0-.12,.01-.06,0-.12,.01-.14,.01-.08,0-.11-.04-.15-.08l-.02-.02-.23-.28s-.02-.03-.03-.04c-.03-.03-.05-.06-.05-.09,0-.03,0-.11,.14-.11,.04,0,.17,0,.29,.02,.11,0,.21,.02,.24,.02,.58,.02,1.22,.05,1.64,.05h3.96c.5,0,.59,0,.85-.36v-.02c.19-.25,.26-.34,.41-.34,.13,0,.19,.04,.46,.27,.62,.51,.64,.54,.64,.69,0,.24-.14,.24-.71,.24h-3.65c.23,.21,.46,.44,.46,.56,0,.17-.06,.19-.42,.29-.06,.02-.07,.04-.33,.38l-.04,.05c-.25,.33-.74,.93-.82,1.01l-.02,.03s-.12,.14-.12,.2c0,.01,.06,.03,.13,.03,.14,0,1.26-.07,2.61-.2,.51-.05,.84-.08,.88-.12,0-.08-.23-.32-.36-.46-.25-.27-.35-.39-.35-.48s.07-.16,.17-.16c.09,0,.34,.08,1.49,.71l.08,.04c.34,.2,1.11,.66,1.11,1.46Zm1.64-5.51c0,.14-.08,.16-.4,.26-.36,.11-.61,.27-.72,.45-.04,.08-.1,.16-.23,.16-.32,0-2.88-1.77-4.25-4.28-.04-.08-.1-.18-.13-.23-.05,.04-.14,.15-.27,.31-2.05,2.56-4.73,3.77-5.31,3.88-.02,0-.1,.03-.16-.01-.03-.02-.05-.06-.05-.11,0-.09,.06-.13,.22-.24,.18-.12,1.1-.78,1.84-1.41,2.09-1.79,2.8-3.21,2.84-3.4l.02-.08c.08-.3,.1-.4,.3-.4,.01,0,1.21,.53,1.21,.82,0,.1-.05,.14-.16,.21l-.03,.02s-.05,.03-.05,.05c0,.28,2.05,2.95,4.9,3.76,.36,.1,.4,.11,.4,.24Zm-8.81,.22l-.23-.28c-.05-.05-.07-.08-.07-.14s.04-.11,.12-.11c.05,0,.17,0,.29,.02,.11,0,.21,.02,.24,.02,.65,.04,1.25,.05,1.64,.05h1.19c.55,0,.56-.01,.78-.28l.06-.07c.23-.27,.31-.37,.4-.37,.17,0,1,.82,1,.99,0,.22-.12,.22-.72,.22h-2.76c-.74,0-1.08,0-1.52,.04-.02,0-.07,0-.12,.01-.06,0-.12,.01-.14,.01-.07,0-.11-.04-.17-.1Z"/>
      <path class="cls-1" d="M47.92,33.98c-.08,0-.23,0-.23,.2,0,.06,.04,1.3,.04,1.54,0,2.39-.4,3.04-.82,3.55-.13,.16-.26,.24-.28,.24-.01,0-.01-.01-.01-.02,0-.01,.13-.2,.15-.25,.48-1.01,.48-2.49,.48-3.16,0-.48,0-1.96-.12-2.31,0-.03-.09-.15-.09-.18,0-.02,.03-.04,.06-.04,.09,0,.3,.09,.44,.15,.18,.08,.26,.08,.41,.08h3.63c.27,0,.32-.01,.35-.06,.05-.06,.23-.39,.31-.39,.09,0,.58,.44,.58,.56,0,.09-.03,.09-.37,.09h-4.52Zm3.06,2.79c.1,0,.17,0,.23-.04,.04-.03,.16-.18,.2-.18,.06,0,.57,.32,.57,.41,0,.09-.04,.09-.35,.11-.13,0-.54,.24-.75,.36-.02,.01-.1,.13-.12,.15-.1,.11-.13,.15-.13,.21,0,.11,.09,.11,.18,.11h1.06c.06,0,.12,0,.17-.05,.05-.05,.24-.33,.27-.33,.04,0,.55,.37,.55,.49,0,.06-.04,.08-.21,.08h-1.85s-.13,0-.15,.08c-.01,.07,0,.62,0,.73,0,.15-.02,.39-.14,.54-.18,.21-.56,.25-.59,.25-.09,0-.09-.01-.11-.09,0-.03-.08-.16-.14-.24-.04-.04-.31-.23-.31-.25,0-.01,.01-.02,.04-.02,.01,0,.17,.02,.2,.03,.07,0,.27,.01,.35,.01,.14,0,.18-.01,.18-.69,0-.34-.03-.35-.17-.35h-.9c-.17,0-.64,0-.89,.02-.02,0-.13,.01-.15,.01-.03,0-.04-.01-.06-.05l-.13-.16s-.03-.04-.03-.04c0-.01,.01-.01,.02-.01,.04,0,.26,.02,.31,.02,.2,0,.57,.02,.96,.02h.84c.11,0,.15-.04,.15-.15,0-.06,0-.11-.01-.15,0-.03-.06-.16-.06-.2,0-.03,.04-.05,.09-.05,.08,0,.44,.06,.46,.06,.14,0,.46-.33,.46-.39,0-.06-.06-.06-.12-.06h-1.15c-.17,0-.65,0-.89,.02-.02,0-.13,.01-.15,.01s-.04-.01-.06-.04l-.13-.16s-.03-.04-.03-.05,.01-.01,.02-.01c.04,0,.26,.02,.31,.02,.2,.01,.57,.03,.96,.03h1.19Zm-1.73-.6c-.1,0-.11,0-.17,.08-.08,.13-.3,.17-.34,.17-.12,0-.14-.06-.14-.14,0-.13,.02-.72,.02-.84,0-.23,0-.76-.03-.96,0-.03-.06-.16-.06-.18,0-.03,.03-.04,.05-.04,.01,0,.32,.13,.35,.14,.08,.04,.15,.06,.31,.06h1.92c.06,0,.15,0,.21-.08,.01-.02,.08-.11,.11-.11s.45,.23,.53,.27c.04,.02,.08,.04,.08,.08,0,.05-.06,.08-.15,.15-.07,.05-.07,.07-.07,.27,0,.18,.03,.93,.03,1.08,0,.25-.27,.29-.36,.29-.13,0-.15-.08-.17-.16-.01-.08-.08-.08-.15-.08h-1.96Zm0-1.53c-.17,0-.17,.05-.17,.27,0,.25,0,.28,.17,.28h1.94c.17,0,.17-.04,.17-.27,0-.25,0-.27-.17-.27h-1.94Zm1.95,1.34c.16,0,.16-.04,.16-.32,0-.23,0-.28-.16-.28h-1.94c-.06,0-.16,0-.16,.14,0,.42,0,.46,.17,.46h1.94Zm5.22-1.14c.22,0,.22-.08,.22-.44,0-.49-.03-.7-.04-.82,0-.04-.06-.19-.06-.23s.03-.05,.08-.05,.76,.07,.76,.25c0,.04-.15,.18-.17,.21-.05,.11-.06,.66-.06,.81,0,.18,0,.27,.23,.27h.91c.32,0,.36,0,.45-.12,.21-.29,.23-.32,.3-.32,.08,0,.64,.47,.64,.53,0,.09-.16,.09-.37,.09h-1.93c-.08,0-.18,0-.21,.12-.01,.06-.01,1.16-.01,1.36,0,.22,.01,.3,.23,.3h.7c.33,0,.37,0,.45-.12,.22-.29,.24-.32,.3-.32,.08,0,.64,.47,.64,.54,0,.09-.16,.09-.38,.09h-1.7c-.2,0-.23,.07-.23,.24,0,.21,0,1.73,.01,1.76,.03,.11,.11,.12,.23,.12h1.29c.32,0,.36,0,.45-.12,.21-.29,.23-.32,.3-.32,.08,0,.64,.47,.64,.53,0,.09-.16,.09-.37,.09h-4.68c-.62,0-.82,.01-.89,.02-.03,0-.13,.01-.15,.01-.02,0-.03-.01-.06-.04l-.14-.16s-.03-.03-.03-.05,0-.01,.03-.01c.04,0,.26,.02,.31,.02,.34,.01,.63,.03,.96,.03h1.35c.13,0,.23,0,.23-.25v-1.7c0-.08-.04-.17-.2-.17h-.82c-.62,0-.82,.01-.89,.01-.03,0-.13,.02-.15,.02-.03,0-.04-.02-.06-.05l-.14-.16s-.03-.04-.03-.04c0-.01,0-.02,.03-.02,.05,0,.26,.02,.31,.03,.35,.01,.63,.02,.96,.02h.78c.21,0,.21-.11,.21-.22v-1.38c-.01-.13-.08-.18-.2-.18h-1.16c-.22,0-.23,.02-.41,.32-.39,.65-.87,1.23-.98,1.23-.03,0-.04-.02-.04-.04,0-.01,.11-.23,.18-.34,.77-1.43,.91-2.34,.93-2.48,.01-.13,.03-.15,.04-.15,.01,0,.69,.27,.69,.39,0,.06-.23,.21-.25,.25-.04,.06-.23,.47-.23,.54,0,.09,.08,.09,.18,.09h1.04Zm9.49,.43c.3,0,.32,0,.45-.12,.09-.09,.14-.12,.2-.12,.15,0,.63,.44,.63,.58,0,.09-.08,.15-.15,.15-.05,0-.24-.03-.28-.03-.19,0-.37,.08-.46,.14-.09,.05-.25,.14-.27,.14s-.03-.01-.03-.03c0-.08,.2-.37,.2-.44,0-.09-.1-.09-.16-.09h-4.2c-.11,0-.18,0-.21,.12-.11,.37-.32,.72-.61,.72-.14,0-.2-.11-.2-.23,0-.14,.04-.19,.25-.43,.2-.23,.23-.37,.3-.73,0-.01,.01-.06,.04-.06,.05,0,.06,.03,.18,.32,.04,.1,.13,.11,.22,.11h4.12Zm-1.63,1.68c-.14,0-.18,.03-.22,.14-.11,.36-.3,1.02-.91,1.61-.8,.77-1.8,.89-1.82,.89-.04,0-.09,0-.09-.05,0-.05,.06-.06,.23-.13,1.63-.58,2.1-2.14,2.1-2.32,0-.12-.1-.13-.21-.13h-.53c-.2,0-.55,0-.83,.01-.02,0-.19,.02-.2,.02-.03,0-.04-.02-.06-.05l-.13-.16s-.03-.04-.03-.05,.02-.01,.03-.01c.04,0,.26,.02,.31,.03,.2,0,.57,.02,.96,.02h.56c.22,0,.22-.1,.22-.39,0-.13,0-.27-.01-.41,0-.03-.03-.18-.03-.2,0-.06,.03-.08,.13-.08,.13,0,.71,.15,.71,.28,0,.05-.18,.2-.2,.25-.04,.09-.08,.37-.08,.4,0,.16,.14,.16,.22,.16h1.01c.29,0,.38,0,.45-.12,.08-.13,.09-.15,.15-.15,.11,0,.53,.32,.53,.46,0,.05-.08,.11-.13,.14-.1,.06-.13,.09-.16,.26-.02,.1-.1,.58-.12,.69-.06,.36-.3,1.63-1.04,1.63-.2,0-.21-.08-.23-.2-.02-.27-.32-.4-.58-.52-.05-.02-.07-.05-.07-.07s.01-.05,.06-.05c.02,0,.08,.02,.1,.03,.39,.1,.52,.13,.72,.13,.3,0,.35-.22,.47-.69,.11-.42,.23-1.17,.23-1.21,0-.14-.09-.14-.22-.14h-1.26Zm-2.53-3.44c.16,0,.99,.59,.99,1.08,0,.22-.13,.35-.27,.35-.17,0-.19-.08-.3-.42-.1-.3-.22-.51-.39-.82-.04-.06-.08-.15-.06-.18,.01,0,.02-.01,.03-.01Zm2.65,.89c0,.24-.18,.37-.32,.37-.16,0-.19-.11-.28-.44-.08-.31-.22-.66-.37-.94-.03-.06-.03-.1-.01-.11,.08-.08,.99,.58,.99,1.12Zm1.93-.42c0,.09-.04,.1-.26,.13-.16,.02-.17,.03-.73,.53-.08,.08-.39,.35-.44,.35-.03,0-.04-.02-.04-.04,0,0,.11-.17,.17-.25,.23-.35,.55-.83,.6-1.16,.01-.13,.02-.14,.05-.14,.03,0,.08,.03,.11,.06,.49,.38,.54,.42,.54,.53Zm2.74,1.37s-.08,.14-.09,.17c-.01,.06-.01,.09-.01,.35v2.76c0,.11,.01,.62,.01,.74,0,.29-.25,.3-.31,.3-.16,0-.17-.09-.17-.17,0-.04,.04-1.31,.04-1.44v-2.25s0-.12-.04-.12c-.05,0-.6,1-.73,1-.02,0-.04-.01-.04-.05,0-.04,.26-.54,.3-.62,.36-.78,.68-1.61,.89-2.46,.06-.26,.07-.29,.12-.29,.03,0,.58,.28,.58,.37,0,.04-.18,.16-.21,.2-.06,.08-.1,.15-.42,.88-.15,.32-.15,.35-.15,.39,.01,.04,.22,.18,.22,.23Zm.25-.73s-.04-.04-.04-.04c0-.01,.01-.02,.03-.02,.04,0,.21,.02,.25,.02,.03,0,.55,.03,.72,.03,.24,0,.24-.08,.24-.34s0-.32-.17-.32c-.05,0-.73,.05-.86,.05-.04,0-.1,0-.1-.03s.03-.04,.08-.05c.45-.08,.8-.15,1.18-.27,.15-.05,.92-.33,.93-.33,.05,0,.52,.35,.52,.41,0,.03-.03,.04-.05,.04-.03,0-.16,0-.2,0-.2,0-.71,.08-.77,.09-.16,.04-.16,.09-.16,.51,0,.18,.03,.25,.22,.25,.16,0,.2-.02,.28-.12,.18-.2,.19-.23,.27-.23,.09,0,.52,.35,.52,.44,0,.1-.14,.1-.37,.1h-.7c-.22,0-.22,.06-.22,.48,0,.18,.14,.18,.2,.18h.33s.11,0,.18-.05c.03-.02,.16-.13,.2-.13,.08,0,.38,.23,.38,.3,0,.04-.11,.17-.11,.2v1.33c0,.24,0,.51-.32,.51-.11,0-.12-.04-.15-.11-.03-.06-.11-.06-.14-.06h-.36c-.2,0-.2,.08-.2,.43,0,.06,0,.21,.2,.21h.19c.1,0,.15,0,.19-.04,.04-.04,.24-.3,.3-.3,.09,0,.41,.38,.41,.46,0,.07-.03,.07-.32,.07h-.75c-.06,0-.21,0-.21,.19,0,.39,0,.44,.27,.44,.1,0,.84-.09,.87-.09,.01,0,.04,0,.04,.03,0,.16-1.95,.5-2.24,.64-.04,.02-.23,.18-.27,.18s-.09-.01-.11-.06c-.02-.04-.22-.48-.22-.56,0-.04,.01-.06,.05-.06,.05,0,.3,.04,.37,.04,.82,0,.83-.12,.83-.27,0-.37,0-.47-.18-.47s-.39,0-.57,.01c-.03,0-.19,.02-.2,.02-.03,0-.04-.03-.06-.05l-.14-.16s-.03-.04-.03-.04c0-.01,.01-.02,.03-.02,0,0,.25,.02,.29,.03,.15,0,.56,.02,.69,.02,.18,0,.18-.1,.18-.46,0-.03,0-.18-.2-.18h-.28c-.07,0-.11,0-.17,.06-.11,.11-.14,.14-.28,.14-.17,0-.19-.08-.19-.22,0-.18,.02-1.04,.02-1.24,0-.15,0-.54-.02-.68,0-.04-.03-.19-.03-.23,0-.03,0-.08,.05-.08,.06,0,.09,.01,.35,.17,.14,.08,.18,.08,.26,.08h.29c.2,0,.2-.08,.2-.45,0-.2-.12-.2-.27-.2-.2,0-.49,0-.59,.01-.02,0-.13,.02-.15,.02-.03,0-.04-.02-.06-.05l-.13-.16Zm.71,1.01c-.2,0-.2,.07-.2,.49,0,.16,.14,.18,.2,.18h.3c.2,0,.2-.08,.2-.46,0-.21-.11-.21-.2-.21h-.3Zm.3,1.61c.2,0,.2-.06,.2-.56,0-.2-.13-.2-.2-.2h-.29c-.2,0-.2,.06-.2,.56,0,.2,.13,.2,.2,.2h.29Zm1.13-.94c.21,0,.21-.09,.21-.33s0-.34-.21-.34h-.33c-.2,0-.2,.09-.2,.33,0,.25,0,.34,.2,.34h.33Zm-.34,.18c-.2,0-.2,.04-.2,.58,0,.07,.02,.18,.2,.18h.34c.18,0,.19-.04,.19-.56,0-.07,0-.2-.19-.2h-.34Zm.79-1.55s-.03-.04-.03-.04c0-.01,.01-.02,.03-.02,.07,0,.4,.03,.48,.03q.29,0,.29-.23s0-.63-.03-.86c0-.07-.07-.38-.07-.45,0-.04,.04-.04,.06-.04,.03,0,.45,.08,.53,.1,.11,.02,.15,.03,.15,.1,0,.05-.15,.24-.16,.29-.02,.11-.04,.73-.04,.84,0,.23,0,.27,.23,.27,.15,0,.17,0,.25-.08,.08-.08,.15-.14,.19-.14,.09,0,.4,.3,.4,.39,0,.04-.01,.05-.1,.17-.02,.03-.02,.56-.02,.62,0,.23,0,1.95-.19,3.01-.14,.8-.56,.8-.72,.8-.06,0-.1,0-.13-.03-.02-.03-.12-.17-.15-.2-.04-.06-.32-.31-.32-.35,0-.03,.04-.04,.05-.04,.04,0,.12,.02,.14,.03,.06,.02,.19,.03,.3,.03,.3,0,.42-.03,.49-.98,.07-.81,.08-1.98,.08-2.85,0-.18-.06-.2-.28-.2-.24,0-.25,.05-.25,.29-.05,1.25-.09,2.22-.54,3.25-.24,.56-.69,1.09-.79,1.09-.01,0-.04,0-.04-.04,0-.01,.08-.15,.1-.18,.15-.25,.4-.75,.58-1.44,.2-.77,.28-1.83,.28-2.64,0-.28,0-.31-.23-.31-.05,0-.32,.02-.35,.02s-.05-.03-.06-.05l-.14-.16Zm4.32,.79c-.62,0-.82,.01-.89,.02-.03,0-.13,.01-.15,.01-.03,0-.04-.01-.06-.04l-.13-.16s-.03-.04-.03-.05,.01-.01,.03-.01c.05,0,.27,.02,.31,.02,.35,.01,.63,.03,.96,.03h1.22c.22,0,.24,0,.24-.99,0-.17,0-.54-.04-.97,0-.04-.03-.2-.03-.24s0-.06,.04-.06c.11,0,.64,.13,.73,.16,.09,.02,.15,.06,.15,.13,0,.06-.04,.1-.11,.16-.13,.11-.13,.15-.15,.48,0,.18-.06,1-.06,1.17s.13,.16,.24,.16h1.22c.32,0,.36,0,.45-.12,.23-.29,.25-.32,.34-.32,.15,0,.72,.45,.72,.52,0,.1-.14,.1-.37,.1h-2.25c-.15,0-.2,0-.2,.11,0,.43,.92,2.52,2.91,3.3q.19,.08,.19,.11s-.04,.06-.14,.06c-.22,.01-.4,.04-.63,.13-.04,.02-.19,.13-.23,.13-.13,0-.75-.56-1.13-1.1-.51-.73-.89-1.53-1.1-2.39,0-.04-.04-.14-.05-.14-.02,0-.02,.02-.05,.17-.14,.79-.4,2.25-2.22,3.27-.52,.3-.99,.38-1.05,.38-.01,0-.04,0-.04-.03,0-.04,.15-.11,.23-.14,.49-.23,1.96-1.09,2.45-3,.08-.32,.11-.69,.11-.71,0-.15-.08-.15-.19-.15h-1.23Zm10.43-.32c.08,0,.15,0,.21-.1,.04-.06,.06-.1,.12-.1,.04,0,.6,.31,.6,.41,0,.06-.08,.11-.14,.14-.11,.06-.11,.09-.11,.42,0,.05,0,.49,.03,.75,0,.03,.01,.18,.01,.25,0,.23-.16,.32-.31,.32-.12,0-.15-.05-.2-.15-.04-.08-.1-.09-.2-.09h-.94c-.14,0-.23,.04-.23,.19v.66c0,.12,0,.73,.03,.79,.04,.08,.14,.08,.2,.08h1.26c.27,0,.3-.01,.35-.06,.04-.05,.21-.37,.29-.37,.09,0,.62,.41,.62,.53,0,.08-.03,.08-.37,.08h-4.58c-.13,0-.2,.02-.22,.16-.01,.13-.03,.31-.36,.31-.06,0-.22,0-.22-.23,0-.04,.02-.26,.02-.3,.04-.56,.04-.96,.04-1.34,0-.8,0-3.7-.05-3.88-.01-.06-.09-.31-.09-.35s.04-.04,.06-.04c.04,0,.37,.18,.44,.21,.15,.06,.2,.08,.32,.08h3.56c.22,0,.3,0,.39-.15,.14-.22,.15-.24,.23-.24,.11,0,.63,.33,.63,.47,0,.07,0,.11-.55,.11h-1.8c-.22,0-.22,.03-.22,.81,0,.55,0,.61,.22,.61h.97Zm-3.42,.18c-.06,0-.17,0-.21,.1-.01,.05-.01,.68-.01,.79,0,.54,0,.6,.23,.6h3.39c.06,0,.17,0,.2-.09,.03-.07,.03-.74,.03-.87,0-.47,0-.53-.23-.53h-3.4Zm1.52,3.39c.15,0,.18-.07,.2-.09,.03-.07,.03-.73,.03-.87,0-.73,0-.76-.23-.76h-1.51c-.15,0-.19,.07-.2,.09-.04,.06-.04,.73-.04,.87,0,.73,0,.76,.23,.76h1.51Zm-1.51-5c-.12,0-.18,.03-.22,.14v.82c0,.39,0,.46,.22,.46h1.48c.11,0,.18-.03,.21-.14,0-.02,0-.78,0-.82,0-.39,0-.46-.22-.46h-1.48Zm7.36,.63c.32,0,.36,0,.45-.12,.05-.06,.09-.11,.14-.11,.1,0,.45,.29,.45,.34,0,.08-.03,.08-.37,.08h-1.01c-.2,0-.54,0-.82,.01-.04,0-.18,.02-.2,.02-.04,0-.04-.01-.07-.04l-.13-.16s-.03-.03-.03-.05,0-.01,.02-.01c.05,0,.27,.02,.31,.02,.35,.01,.63,.03,.97,.03h.31Zm-.18-.96c.2,0,.22-.01,.24-.04,.11-.16,.15-.2,.2-.2,.1,0,.42,.3,.42,.36,0,.07-.08,.07-.23,.07h-.8c-.15,0-.28,0-.46,0-.02,0-.14,.02-.17,.02s-.04-.03-.06-.04l-.12-.16s-.01-.02-.01-.04c0-.02,.02-.02,.03-.02,.03,0,.17,.02,.2,.02,.37,.02,.45,.02,.58,.02h.2Zm-.24,5.47c-.13,0-.21,.02-.22,.22,0,.1,0,.3-.31,.3-.2,0-.2-.1-.2-.16,0-.01,.05-.81,.05-.96,0-.21-.01-.57-.04-.8,0-.03-.02-.2-.02-.24,0-.04,0-.08,.08-.08,.01,0,.24,.08,.25,.08,.13,.04,.2,.06,.33,.06h.51c.09,0,.15,0,.18-.04,.02-.02,.12-.16,.15-.16,0,0,.52,.19,.52,.3,0,.07-.11,.13-.13,.15-.08,.05-.08,.06-.08,.23,0,.19,0,.6,0,.77,0,.06,.03,.36,.03,.43,0,.2-.14,.32-.35,.32-.12,0-.12-.04-.13-.22,0-.12-.04-.19-.22-.19h-.42Zm.37-3.51c.15,0,.18,0,.26-.09,.04-.06,.08-.1,.13-.1,.07,0,.35,.21,.35,.29,0,.08-.08,.08-.23,.08h-.77c-.15,0-.27,0-.46,.01-.03,0-.15,.01-.18,.01s-.04-.02-.06-.04l-.11-.16s-.02-.02-.02-.03c0-.02,.01-.03,.03-.03,.03,0,.16,.02,.19,.03,.34,.02,.44,.02,.58,.02h.28Zm-.03,.89c.15,0,.18,0,.23-.06,.06-.07,.16-.18,.19-.18,.05,0,.42,.26,.42,.34s-.1,.08-.23,.08h-.78c-.13,0-.3,0-.46,0-.03,0-.15,.02-.18,.02s-.04-.02-.06-.04l-.12-.16s-.01-.02-.01-.03c0-.02,.02-.02,.03-.02,.03,0,.16,.02,.19,.02,.35,.02,.44,.02,.58,.02h.2Zm-.37,1.21c-.17,0-.23,.06-.23,.23,0,.12,0,.85,.04,.92,.04,.08,.14,.08,.2,.08h.44c.22,0,.22-.05,.22-.49,0-.08,0-.61-.02-.66-.03-.08-.15-.08-.2-.08h-.46Zm1.94,.61c0,.06,0,.82-.39,.82-.11,0-.21-.06-.21-.18,0-.11,.24-.53,.27-.61,.07-.16,.12-.36,.12-.54,0-.03,0-.17,.03-.18,.05,0,.18,.3,.18,.69Zm-.45-4.58s-.03-.04-.03-.05c0,0,0-.01,.02-.01,.05,0,.27,.02,.31,.02,.35,.02,.63,.03,.97,.03h1.58c.11,0,.18,0,.25-.1,.07-.11,.08-.12,.13-.12,.09,0,.54,.22,.54,.31,0,.06-.2,.22-.23,.26-.03,.06-.06,.88-.07,1.05-.08,.94-.18,1.7-1.01,1.7-.09,0-.11,0-.17-.13-.11-.24-.23-.4-.3-.49-.04-.04-.05-.08-.05-.1,0,0,0-.01,.01-.01,.03,0,.24,.07,.28,.08,.16,.04,.25,.06,.32,.06,.24,0,.34-.12,.44-.78,.06-.42,.08-.92,.08-1.35,0-.21-.14-.21-.23-.21h-.68c-.2,0-.2,.03-.26,.37-.03,.18-.05,.23-.13,.51,0,.03-.02,.06-.02,.11,0,.09,.06,.14,.13,.21,.02,.02,.25,.24,.25,.46,0,.19-.14,.3-.22,.3-.13,0-.18-.08-.31-.27-.01-.02-.05-.05-.08-.05t-.19,.23c-.11,.18-.42,.62-.99,.88-.15,.07-.3,.11-.33,.11s0-.03,.01-.04c.33-.27,.65-.54,.94-.99,.04-.05,.23-.35,.23-.51,0-.1-.08-.17-.15-.22-.05-.03-.53-.34-.53-.36s.07-.02,.08-.02c.11,0,.61,.11,.66,.11,.11,0,.14-.06,.17-.23,.01-.08,.06-.39,.06-.45,0-.07-.03-.15-.15-.15-.31,0-.65,0-.92,.02-.03,0-.2,.01-.21,.01-.02,0-.03-.01-.06-.04l-.13-.16Zm.89,3.43c.1,0,.51,.11,.51,.2,0,.04-.11,.16-.12,.19-.03,.08-.05,.73-.05,.84,0,.57,.04,.66,.58,.66,.61,0,.65-.16,.73-.6,.01-.09,.04-.22,.06-.22,.04,0,.13,.37,.17,.44,.03,.04,.04,.06,.17,.21,.03,.03,.03,.08,.03,.1,0,.07-.08,.49-1.02,.49-.34,0-.77-.06-.96-.19-.1-.07-.14-.18-.14-.94,0-.14,.01-.78,0-.91,0-.04-.07-.17-.07-.2,0-.01,0-.03,.01-.04,.01-.04,.06-.04,.08-.04Zm.79-.27c.23,0,.71,.26,.71,.57,0,.13-.08,.32-.2,.32-.1,0-.11-.03-.23-.37-.06-.18-.2-.37-.28-.43-.02,0-.07-.05-.06-.06,0-.02,.04-.03,.06-.03Zm2.18,1.7c0,.2-.11,.36-.27,.36-.19,0-.22-.08-.35-.52-.15-.46-.27-.66-.35-.79-.03-.05-.04-.09-.03-.11,0-.01,1.01,.38,1.01,1.06Zm1.94-4.56c-.49,0-.73,0-.89,.01-.03,0-.13,.02-.15,.02-.03,0-.06-.04-.06-.05l-.14-.16s-.03-.04-.03-.04c0-.01,.01-.02,.03-.02,.05,0,.26,.03,.31,.03,.34,.02,.63,.02,.96,.02h3.68c.36,0,.4-.03,.51-.18,.06-.08,.18-.25,.25-.25s.64,.44,.64,.51c0,.11-.22,.11-.44,.11h-.59c-.06,0-.17,0-.19,.12-.01,.06-.01,2.69-.01,3.04,0,.27,.03,1.47,.03,1.72,0,.77-.61,.77-.65,.77-.16,0-.16-.01-.22-.15-.08-.22-.39-.37-.52-.39-.03,0-.14-.02-.14-.08,0-.04,.04-.04,.06-.04,.1,0,.54,.02,.63,.02,.31,0,.31-.13,.31-.34,0-.67,0-3.91-.02-4.46,0-.18-.08-.2-.23-.2h-3.14Zm1.34,1.31c.07,0,.14,0,.2-.06,.03-.03,.15-.18,.18-.18,.04,0,.53,.32,.53,.42,0,.03-.07,.11-.11,.18-.08,.12-.08,.18-.08,.35,0,.22,.04,1.3,.04,1.54,0,.23-.11,.42-.34,.42-.16,0-.16-.11-.16-.28,0-.19-.08-.22-.23-.22h-.82s-.2,0-.2,.18c-.01,.18-.03,.47-.3,.47-.2,0-.22-.15-.22-.25,0-.22,.03-1.21,.03-1.44,0-.2,0-.32,0-.48,0-.11-.06-.65-.06-.77,0-.05,0-.11,.08-.11,.11,0,.29,.1,.4,.16,.13,.07,.2,.07,.27,.07h.78Zm.06,1.99c.2,0,.2-.1,.2-.36,0-.15,0-1.24-.02-1.32-.02-.1-.11-.13-.2-.13h-.85c-.2,0-.2,.13-.2,.25,0,.22,0,1.38,.03,1.47,.04,.09,.15,.09,.2,.09h.84Zm11.72-2.04c.3,0,.32,0,.45-.12,.09-.09,.14-.12,.2-.12,.15,0,.63,.44,.63,.58,0,.09-.08,.15-.15,.15-.05,0-.24-.03-.28-.03-.19,0-.37,.08-.46,.14-.09,.05-.25,.14-.27,.14s-.03-.01-.03-.03c0-.08,.2-.37,.2-.44,0-.09-.1-.09-.16-.09h-4.2c-.11,0-.18,0-.21,.12-.11,.37-.32,.72-.61,.72-.14,0-.2-.11-.2-.23,0-.14,.03-.19,.25-.43,.2-.23,.23-.37,.3-.73,0-.01,.01-.06,.04-.06,.05,0,.06,.03,.18,.32,.04,.1,.13,.11,.22,.11h4.12Zm-1.63,1.68c-.14,0-.18,.03-.22,.14-.11,.36-.3,1.02-.91,1.61-.8,.77-1.8,.89-1.82,.89-.04,0-.09,0-.09-.05,0-.05,.06-.06,.23-.13,1.63-.58,2.1-2.14,2.1-2.32,0-.12-.1-.13-.21-.13h-.53c-.2,0-.55,0-.83,.01-.02,0-.19,.02-.2,.02-.03,0-.04-.02-.06-.05l-.13-.16s-.04-.04-.04-.05,.02-.01,.03-.01c.04,0,.26,.02,.31,.03,.2,0,.57,.02,.96,.02h.56c.22,0,.22-.1,.22-.39,0-.13,0-.27-.01-.41,0-.03-.04-.18-.04-.2,0-.06,.04-.08,.13-.08,.13,0,.71,.15,.71,.28,0,.05-.18,.2-.2,.25-.04,.09-.08,.37-.08,.4,0,.16,.14,.16,.22,.16h1.01c.29,0,.38,0,.45-.12,.08-.13,.09-.15,.15-.15,.11,0,.54,.32,.54,.46,0,.05-.08,.11-.13,.14-.1,.06-.13,.09-.16,.26-.02,.1-.1,.58-.12,.69-.06,.36-.3,1.63-1.04,1.63-.2,0-.21-.08-.23-.2-.02-.27-.32-.4-.58-.52-.05-.02-.07-.05-.07-.07s.01-.05,.06-.05c.02,0,.08,.02,.1,.03,.39,.1,.52,.13,.72,.13,.3,0,.35-.22,.47-.69,.11-.42,.23-1.17,.23-1.21,0-.14-.09-.14-.22-.14h-1.26Zm-2.53-3.44c.16,0,.99,.59,.99,1.08,0,.22-.13,.35-.27,.35-.17,0-.19-.08-.3-.42-.1-.3-.22-.51-.39-.82-.04-.06-.08-.15-.06-.18,.01,0,.02-.01,.04-.01Zm2.65,.89c0,.24-.18,.37-.32,.37-.16,0-.19-.11-.28-.44-.08-.31-.22-.66-.37-.94-.03-.06-.04-.1-.01-.11,.08-.08,.99,.58,.99,1.12Zm1.93-.42c0,.09-.04,.1-.26,.13-.16,.02-.17,.03-.73,.53-.08,.08-.39,.35-.44,.35-.03,0-.04-.02-.04-.04,0,0,.11-.17,.17-.25,.23-.35,.55-.83,.6-1.16,.01-.13,.02-.14,.05-.14,.04,0,.08,.03,.11,.06,.49,.38,.54,.42,.54,.53Zm2.74,1.37s-.08,.14-.09,.17c-.01,.06-.01,.09-.01,.35v2.76c0,.11,.01,.62,.01,.74,0,.29-.25,.3-.31,.3-.16,0-.17-.09-.17-.17,0-.04,.04-1.31,.04-1.44v-2.25s0-.12-.04-.12c-.05,0-.6,1-.73,1-.02,0-.04-.01-.04-.05,0-.04,.26-.54,.3-.62,.36-.78,.68-1.61,.89-2.46,.06-.26,.07-.29,.12-.29,.03,0,.58,.28,.58,.37,0,.04-.18,.16-.21,.2-.06,.08-.1,.15-.42,.88-.15,.32-.15,.35-.15,.39,.01,.04,.22,.18,.22,.23Zm.25-.73s-.04-.04-.04-.04c0-.01,.01-.02,.03-.02,.03,0,.21,.02,.25,.02,.03,0,.55,.03,.72,.03,.24,0,.24-.08,.24-.34s0-.32-.17-.32c-.05,0-.73,.05-.86,.05-.04,0-.1,0-.1-.03s.03-.04,.08-.05c.45-.08,.8-.15,1.18-.27,.15-.05,.92-.33,.93-.33,.05,0,.52,.35,.52,.41,0,.03-.03,.04-.05,.04-.03,0-.16,0-.2,0-.2,0-.71,.08-.77,.09-.16,.04-.16,.09-.16,.51,0,.18,.03,.25,.22,.25,.16,0,.2-.02,.28-.12,.18-.2,.19-.23,.27-.23,.09,0,.52,.35,.52,.44,0,.1-.14,.1-.37,.1h-.7c-.22,0-.22,.06-.22,.48,0,.18,.14,.18,.2,.18h.33s.11,0,.18-.05c.03-.02,.16-.13,.2-.13,.08,0,.38,.23,.38,.3,0,.04-.11,.17-.11,.2v1.33c0,.24,0,.51-.32,.51-.11,0-.12-.04-.15-.11-.03-.06-.11-.06-.14-.06h-.36c-.2,0-.2,.08-.2,.43,0,.06,0,.21,.2,.21h.19c.1,0,.15,0,.19-.04s.24-.3,.3-.3c.09,0,.41,.38,.41,.46,0,.07-.03,.07-.32,.07h-.75c-.06,0-.21,0-.21,.19,0,.39,0,.44,.27,.44,.1,0,.85-.09,.87-.09,.01,0,.04,0,.04,.03,0,.16-1.95,.5-2.24,.64-.04,.02-.23,.18-.27,.18s-.09-.01-.11-.06c-.02-.04-.22-.48-.22-.56,0-.04,.01-.06,.05-.06,.05,0,.3,.04,.37,.04,.82,0,.83-.12,.83-.27,0-.37,0-.47-.18-.47s-.39,0-.57,.01c-.03,0-.19,.02-.2,.02-.03,0-.04-.03-.06-.05l-.14-.16s-.03-.04-.03-.04c0-.01,.01-.02,.03-.02,0,0,.25,.02,.29,.03,.15,0,.56,.02,.69,.02,.18,0,.18-.1,.18-.46,0-.03,0-.18-.2-.18h-.28c-.07,0-.11,0-.17,.06-.11,.11-.14,.14-.28,.14-.17,0-.19-.08-.19-.22,0-.18,.02-1.04,.02-1.24,0-.15,0-.54-.02-.68,0-.04-.03-.19-.03-.23,0-.03,0-.08,.05-.08,.06,0,.09,.01,.35,.17,.14,.08,.18,.08,.26,.08h.29c.2,0,.2-.08,.2-.45,0-.2-.12-.2-.27-.2-.2,0-.49,0-.59,.01-.02,0-.13,.02-.15,.02-.03,0-.04-.02-.06-.05l-.13-.16Zm.71,1.01c-.2,0-.2,.07-.2,.49,0,.16,.14,.18,.2,.18h.3c.2,0,.2-.08,.2-.46,0-.21-.11-.21-.2-.21h-.3Zm.3,1.61c.2,0,.2-.06,.2-.56,0-.2-.13-.2-.2-.2h-.29c-.2,0-.2,.06-.2,.56,0,.2,.13,.2,.2,.2h.29Zm1.13-.94c.21,0,.21-.09,.21-.33s0-.34-.21-.34h-.33c-.2,0-.2,.09-.2,.33,0,.25,0,.34,.2,.34h.33Zm-.34,.18c-.2,0-.2,.04-.2,.58,0,.07,.02,.18,.2,.18h.35c.18,0,.19-.04,.19-.56,0-.07,0-.2-.19-.2h-.35Zm.79-1.55s-.03-.04-.03-.04c0-.01,.01-.02,.03-.02,.07,0,.4,.03,.48,.03q.29,0,.29-.23s0-.63-.03-.86c0-.07-.07-.38-.07-.45,0-.04,.04-.04,.06-.04,.03,0,.45,.08,.53,.1,.11,.02,.15,.03,.15,.1,0,.05-.15,.24-.16,.29-.02,.11-.04,.73-.04,.84,0,.23,0,.27,.23,.27,.15,0,.17,0,.25-.08s.15-.14,.19-.14c.09,0,.4,.3,.4,.39,0,.04-.01,.05-.1,.17-.02,.03-.02,.56-.02,.62,0,.23,0,1.95-.19,3.01-.14,.8-.56,.8-.72,.8-.06,0-.1,0-.13-.03-.02-.03-.12-.17-.15-.2-.04-.06-.32-.31-.32-.35,0-.03,.03-.04,.05-.04,.03,0,.12,.02,.14,.03,.06,.02,.19,.03,.3,.03,.3,0,.42-.03,.49-.98,.07-.81,.08-1.98,.08-2.85,0-.18-.06-.2-.28-.2-.24,0-.25,.05-.25,.29-.05,1.25-.09,2.22-.53,3.25-.24,.56-.69,1.09-.79,1.09-.01,0-.04,0-.04-.04,0-.01,.08-.15,.1-.18,.15-.25,.4-.75,.58-1.44,.2-.77,.28-1.83,.28-2.64,0-.28,0-.31-.23-.31-.05,0-.32,.02-.35,.02s-.05-.03-.06-.05l-.14-.16Zm3.86,2.01c0-.15,0-1.05,0-1.13,0-.04,0-.16-.07-.16-.05,0-.11,.08-.22,.2-.28,.32-.63,.59-.68,.59-.03,0-.04-.01-.04-.03s.11-.17,.17-.25c.93-1.32,1.27-2.68,1.27-2.74,0-.08,.02-.15,.08-.15,.03,0,.63,.23,.63,.36,0,.04-.03,.08-.06,.1-.03,.03-.15,.1-.17,.12-.05,.05-.56,1.1-.56,1.18,0,.09,.08,.13,.2,.2,.08,.04,.13,.08,.13,.14,0,.04-.16,.23-.18,.27-.05,.11-.06,1.4-.06,1.54,0,.25,.01,1.66,.01,1.95s0,.57-.35,.57c-.16,0-.17-.1-.17-.25,0-.35,.05-2.11,.05-2.5Zm2.23-.08c-.62,0-.82,0-.89,.01-.02,0-.13,.02-.15,.02-.03,0-.04-.02-.06-.05l-.13-.16s-.03-.03-.03-.04c0-.01,.01-.02,.03-.02,.05,0,.27,.02,.31,.03,.34,.01,.63,.02,.96,.02h.51c.15,0,.2-.08,.2-.19,0-.03,0-.46,0-.53,0-.05-.03-.27-.03-.32s0-.07,.06-.07c.02,0,.59,.13,.59,.26,0,.05-.13,.2-.15,.24-.03,.1-.03,.19-.03,.37,0,.16,.02,.24,.21,.24h.53c.32,0,.35,0,.45-.12,.19-.23,.21-.25,.29-.25,.13,0,.58,.39,.58,.47,0,.04-.03,.06-.06,.08-.05,.02-.13,.02-.3,.02h-1.39c-.06,0-.15,0-.15,.08,0,.2,.82,1.22,2.03,1.68,.09,.04,.11,.04,.11,.07,0,.04-.03,.05-.18,.1-.13,.04-.2,.1-.33,.2-.02,.02-.06,.05-.11,.05-.14,0-.85-.56-1.34-1.37-.04-.07-.3-.52-.3-.52-.03,0-.03,.06-.03,.08,0,.32,.05,1.75,.05,2.05,0,.43-.33,.43-.34,.43-.16,0-.16-.17-.16-.23,0-.27,.03-1.46,.03-1.7,0-.27,0-.3-.06-.3-.06,0-.16,.15-.23,.23-.89,1.16-1.68,1.43-1.74,1.43-.03,0-.04-.01-.04-.03,0-.01,.09-.08,.15-.15,1.08-1.03,1.63-1.91,1.63-2.02,0-.06-.06-.06-.11-.06h-.37Zm1.71-3.23c.13,0,.18-.02,.25-.1,.18-.16,.2-.18,.27-.18,.13,0,.42,.29,.42,.39,0,.06-.04,.11-.15,.23-.06,.06-.05,.57-.05,.64,0,.1,.02,.58,.02,.7,0,.2-.13,.33-.33,.33-.06,0-.19-.01-.2-.17,0-.19,0-.24-.18-.24h-1.61c-.16,0-.18,.08-.18,.15,0,.13-.01,.37-.33,.37-.19,0-.19-.13-.19-.22,0-.14,.03-.84,.03-1s-.04-.87-.04-1.04c0-.05,.01-.08,.06-.08,.04,0,.31,.11,.42,.16,.07,.03,.11,.04,.22,.04h1.56Zm.08,1.42c.18,0,.21,0,.21-.68,0-.51,0-.56-.21-.56h-1.65c-.21,0-.21,.06-.21,.63s0,.61,.21,.61h1.65Zm3.66-1.3c.08,0,.16,0,.25-.08s.09-.09,.12-.09c.05,0,.5,.28,.5,.38,0,.08-.03,.09-.18,.15-.02,.03-.83,1.4-.83,1.49,0,.03,.12,.15,.16,.19,.49,.48,.51,1.04,.51,1.22,0,.46-.19,1.3-.65,1.3-.17,0-.18-.07-.2-.15-.03-.18-.11-.49-.25-.49-.04,0-.04,.08-.04,.1,0,.25,.05,1.38,.05,1.61,0,.2-.13,.32-.34,.32-.18,0-.22-.1-.22-.27,0-.03,.03-.49,.03-.58,0-.21,.01-.54,.01-1.18,0-.92,0-3.24-.05-3.96,0-.03-.03-.13-.03-.15,0-.03,.02-.04,.06-.04,.06,0,.09,.02,.46,.2,.13,.06,.2,.06,.27,.06h.37Zm-.42,.19c-.11,0-.2,.01-.22,.13,0,.06,0,1.54,0,1.76s0,1.61,.04,1.68c.05,.1,.3,.12,.42,.12,.25,0,.31-.66,.31-.87,0-.38-.12-.77-.35-1.02-.07-.08-.08-.11-.08-.18s.42-1.3,.42-1.49c0-.15-.11-.15-.18-.15h-.35Zm1.99,3.87c-.18,0-.19,.04-.22,.23,0,.04-.13,.2-.4,.2-.09,0-.1-.09-.1-.14,0-.1,.03-1.18,.03-1.36,0-.11-.01-.38-.03-.51,0-.02-.02-.08-.02-.1,0-.02,0-.04,.04-.04,.15,0,.32,.2,.45,.27,.09,.05,.18,.05,.24,.05h.49c.21,0,.21-.12,.21-.27,0-.49,0-.55-.25-.55-.06,0-.39,.03-.44,.03-.03,0-.06-.03-.07-.06l-.13-.14s-.03-.04-.03-.05c0-.01,.01-.02,.03-.02,0,0,.14,.02,.15,.02,.06,0,.29,.03,.5,.03h.62c.11,0,.17,0,.28-.18,.02-.03,.13-.19,.15-.19,.02,0,.51,.32,.51,.44,0,.11-.06,.11-.26,.11h-.37c-.07,0-.22,0-.22,.18,0,.58,0,.64,.23,.64h.62c.09,0,.16,0,.25-.11,.1-.13,.13-.17,.15-.17s.54,.29,.54,.39c0,.06-.04,.08-.08,.11-.09,.06-.09,.06-.09,.14v.49c0,.09,.04,.5,.04,.58,0,.21-.25,.31-.42,.31-.13,0-.14-.06-.15-.19-.01-.15-.13-.15-.2-.15h-.73s-.12,0-.12,.06c0,.12,1.06,1.11,2.27,1.11,.11,0,.13,0,.13,.02,0,0-.23,.13-.27,.16-.23,.14-.25,.18-.39,.39-.01,.02-.04,.03-.05,.03-.01,0-1.05-.37-1.74-1.4-.11-.15-.11-.16-.14-.16-.04,0-.09,.11-.11,.15-.43,.88-1.35,1.43-2.24,1.43-.03,0-.1,0-.1-.04,0-.01,.11-.04,.19-.06,1.2-.32,1.8-1.4,1.8-1.58,0-.09-.08-.09-.13-.09h-.41Zm2.84-2.75c.22,.08,.4,.14,.63,.2,.06,.01,.07,.01,.07,.03,0,.03-.18,.07-.21,.08-.09,.04-.3,.13-.41,.25-.02,.02-.1,.13-.13,.13-.11,0-1.11-.66-1.78-1.73-.05-.08-.06-.08-.08-.08-.04,0-.05,0-.12,.11-.6,.88-1.52,1.76-2.15,1.84,.04-.05,.15-.13,.17-.15,1.31-1.17,1.68-2.13,1.69-2.23,.02-.19,.03-.21,.08-.21,.06,0,.61,.19,.61,.35,0,.03-.08,.13-.08,.15,0,.04,.73,.89,1.73,1.27Zm-2.4,2.56c.1,0,.16,0,.2-.13,.03-.1,.06-.49,.06-.7,0-.18-.08-.21-.23-.21h-.47c-.21,0-.23,0-.23,.84,0,.2,.15,.2,.22,.2h.44Zm.95-1.04c-.21,0-.21,.09-.22,.3,0,.1-.07,.61-.07,.61,0,.13,.13,.13,.21,.13h.7c.25,0,.25-.02,.25-.77,0-.15,0-.26-.21-.26h-.66Zm4.12-2.18c-.54,0-.75,.01-.89,.02-.03,0-.13,.01-.15,.01-.03,0-.04-.01-.06-.04l-.14-.16s-.03-.04-.03-.05,0-.01,.03-.01c.05,0,.26,.02,.31,.02,.35,.01,.63,.03,.96,.03h1.37c.15,0,.15-.13,.15-.2,0-.11-.06-.56-.06-.64,0-.08,.04-.09,.06-.09,.07,0,.66,.16,.66,.31,0,.05-.15,.23-.16,.27-.01,.03-.02,.16-.02,.2,0,.06,.01,.16,.15,.16h1.25c.32,0,.35,0,.45-.12,.2-.23,.22-.26,.28-.26,.04,0,.66,.37,.66,.46,0,.1-.14,.1-.38,.1h-2.26c-.17,0-.17,.04-.18,.43,0,.07,0,.18,.15,.18h.88c.11,0,.15-.01,.22-.1,.11-.12,.15-.17,.22-.17,.05,0,.44,.26,.44,.35,0,.05-.04,.08-.13,.16-.05,.04-.06,.06-.06,.13v.67c0,.13-.13,.25-.3,.25s-.2-.06-.24-.2c-.02-.08-.1-.09-.13-.09h-.9c-.15,0-.15,.11-.15,.3,0,.18,0,.27,.15,.27h1.04c.14,0,.21-.01,.3-.1,.08-.08,.13-.13,.21-.13,.06,0,.45,.26,.45,.35,0,.03,0,.05-.13,.19-.04,.04-.04,.07-.04,.32,0,.04,0,.11,.08,.11,.05,0,.12-.05,.15-.09,.15-.2,.16-.23,.22-.23,.07,0,.54,.3,.54,.44,0,.08-.13,.08-.31,.08h-.54c-.15,0-.15,.12-.15,.21,0,.11,.02,.62,.02,.7,0,.35-.31,.36-.37,.36-.17,0-.18-.08-.2-.3-.01-.13-.07-.16-.15-.16h-1.09c-.17,0-.17,.1-.17,.23,0,.08,.01,.42,.01,.49,0,.15,0,.45-.33,.56-.1,.04-.29,.08-.35,.08-.05,0-.06-.02-.09-.1-.05-.11-.15-.27-.58-.42-.08-.02-.23-.07-.23-.13,0-.04,.08-.04,.09-.04,.09,0,.51,.06,.59,.06,.39,0,.39-.02,.39-.57,0-.05,0-.17-.16-.17h-.75c-.5,0-.82,.01-.89,.02-.03,0-.13,.01-.15,.01s-.03-.01-.06-.04l-.14-.16s-.03-.03-.03-.05c0,0,0-.01,.02-.01,.05,0,.27,.02,.32,.02,.35,.01,.63,.03,.96,.03h.72c.17,0,.17-.08,.17-.4,0-.11,0-.22-.15-.22h-1.56c-.61,0-.82,0-.89,.01-.02,0-.12,.02-.14,.02-.03,0-.05-.02-.07-.05l-.13-.16s-.03-.03-.03-.04c0-.01,.01-.02,.03-.02,.05,0,.27,.03,.31,.03,.34,.01,.63,.02,.96,.02h1.53c.15,0,.15-.09,.15-.29,0-.15,0-.27-.15-.27h-.97c-.62,0-.82,0-.89,.01-.03,0-.13,.02-.15,.02-.03,0-.04-.01-.06-.04l-.14-.17s-.03-.03-.03-.04c0-.01,0-.02,.03-.02,.05,0,.26,.03,.31,.03,.35,.02,.63,.02,.96,.02h.94c.15,0,.15-.08,.15-.38,0-.08,0-.19-.15-.19h-.93c-.13,0-.14,.03-.17,.13-.04,.15-.18,.22-.32,.22-.16,0-.18-.09-.18-.18,0-.1,.02-.54,.02-.63,0-.02,0-.48-.01-.62,0-.03-.03-.15-.03-.18,0-.04,0-.06,.05-.06,.09,0,.48,.25,.55,.28,.06,.03,.16,.04,.28,.04h.76c.15,0,.15-.04,.15-.41,0-.08,0-.2-.14-.2h-1.42Zm1.39,1.43c.15,0,.15-.11,.15-.32,0-.2,0-.31-.15-.31h-.93c-.17,0-.17,.07-.17,.32s0,.32,.18,.32h.92Zm.78-.63c-.16,0-.16,.12-.16,.25,0,.3,0,.38,.16,.38h.9c.17,0,.17-.08,.17-.37,0-.15,0-.26-.15-.26h-.92Zm1.16,2.13c.14,0,.17-.08,.17-.33,0-.11,0-.23-.15-.23h-1.18c-.15,0-.15,.12-.15,.23,0,.25,0,.33,.15,.33h1.16Zm-1.16,.19c-.15,0-.15,.11-.15,.2,0,.38,0,.42,.17,.42h1.11c.16,0,.19-.06,.19-.39,0-.12,0-.23-.15-.23h-1.16Zm5.67-1.61c-.22,0-.22,.03-.22,.61,0,.35,0,2.19,0,2.37s0,.77-.61,.77c-.06,0-.08-.03-.12-.12-.03-.07-.08-.15-.37-.26-.08-.03-.17-.06-.17-.08,0-.04,.06-.04,.08-.04,.04,0,.27,.02,.32,.02,.46,0,.46-.06,.46-.49,0-.42,0-1.04,0-1.47,0-.06,0-.15-.05-.15-.03,0-.06,.04-.08,.06-.04,.06-.22,.3-.48,.6-.42,.48-.87,.8-.9,.8-.02,0-.06-.02-.06-.06,0-.01,.49-.62,.58-.74,.58-.78,.94-1.63,.94-1.71,0-.06-.06-.1-.13-.1-.35,0-.58,0-.85,0-.03,0-.28,.03-.3,.03s-.04-.02-.06-.05l-.13-.16s-.03-.04-.03-.04c0-.01,.01-.02,.02-.02,.05,0,.27,.02,.32,.03,.07,0,.56,.02,.92,.02h1.11c.1,0,.11-.01,.2-.13,.1-.13,.11-.15,.14-.15s.36,.2,.42,.24c.18,.12,.24,.15,.24,.25,0,.16-.12,.17-.31,.18-.12,0-.24,.02-.55,.36-.02,.03-.11,.11-.14,.11-.03,0-.03-.03-.03-.03,0-.06,.18-.46,.18-.56,0-.08-.04-.08-.21-.08h-.13Zm-.1-2.17c.3,0,.33-.01,.39-.12,.06-.11,.08-.16,.13-.16s.6,.36,.6,.5c0,.07-.03,.07-.27,.12-.11,.02-.11,.02-.94,.69-.09,.07-.14,.11-.14,.17,0,.03,.01,.05,.03,.07,.08,.11,.13,.19,.13,.37,0,.29-.23,.29-.25,.29-.16,0-.23-.14-.26-.23-.11-.25-.14-.3-.46-.69-.02-.03-.16-.16-.16-.18,0-.03,.04-.03,.06-.03,.12,0,.69,.27,.73,.27,.08,0,.12-.04,.21-.18,.08-.11,.41-.58,.41-.65,0-.07-.08-.08-.18-.08h-.68c-.2,0-.55,0-.83,.02-.02,0-.19,.02-.2,.02-.02,0-.04-.02-.06-.05l-.13-.16s-.03-.04-.03-.05,.01-.01,.02-.01c.04,0,.26,.02,.31,.02,.2,.01,.57,.03,.96,.03h.61Zm.8,3.56s-.03-.04-.03-.04c0-.01,.01-.02,.02-.02,.03,0,.22,.02,.25,.02,.04,0,.65,.03,.87,.03,.15,0,.15-.06,.18-.2,.01-.1,.04-.25,.04-.35,0-.04,0-.1-.03-.16-.02-.05-.06-.15-.06-.17,0-.05,.04-.06,.07-.06,0,0,.66,.15,.66,.26,0,.04-.12,.17-.13,.2-.03,.08-.09,.35-.09,.37,0,.08,.05,.11,.16,.11h.24c.33,0,.37,0,.43-.08,.08-.13,.1-.15,.15-.15,.06,0,.45,.26,.45,.36,0,.06-.02,.08-.1,.15-.06,.07-.09,.11-.11,.31-.03,.27-.1,.91-.23,1.23-.21,.56-.71,.58-.77,.58-.06,0-.11,0-.15-.08-.01-.02-.07-.13-.08-.16-.04-.06-.28-.37-.28-.39,0-.03,.03-.03,.04-.03,.02,0,.13,.04,.15,.05,.2,.05,.35,.06,.38,.06,.11,0,.28,0,.37-.39,.09-.36,.14-.92,.14-1.1s-.13-.18-.19-.18h-.49c-.06,0-.12,0-.16,.04-.08,.06-.3,.6-.35,.71-.49,.96-1.48,1.34-1.68,1.34-.02,0-.04,0-.04-.02,0,0,0-.04,.04-.06,.11-.08,.31-.2,.42-.28,.75-.56,1.08-1.54,1.08-1.64,0-.08-.06-.09-.13-.09-.21,0-.44,0-.65,.01-.03,0-.19,.02-.2,.02-.02,0-.04-.02-.06-.05l-.13-.16Zm2.23-2.97c.31,0,.34,0,.42-.11,.14-.23,.15-.25,.21-.25,.11,0,.56,.37,.56,.47,0,.08-.09,.08-.29,.08h-.3c-.1,0-.13,0-.13,.05,0,.02,0,.03,.04,.05,.05,.04,.08,.07,.08,.11,0,.06-.06,.09-.1,.11-.18,.07-.21,.11-.49,.42-.03,.04-.2,.22-.23,.26-.01,0-.04,.05-.04,.08,0,.14,.8,.51,1.44,.65,.17,.03,.19,.03,.19,.05,0,.02-.29,.16-.35,.19-.1,.07-.12,.13-.15,.22-.01,.03-.03,.05-.06,.05-.08,0-.93-.5-1.25-.8-.04-.04-.09-.08-.15-.08s-.08,.02-.2,.11c-.75,.58-1.58,.71-1.6,.71s-.04,0-.04-.02c0-.04,.66-.34,.79-.42,.2-.12,.8-.51,.8-.68,0-.05-.13-.22-.18-.29-.11-.15-.25-.39-.35-.54-.03-.04-.05-.06-.1-.06-.11,0-.63,.65-.8,.65,0,0-.03,0-.03-.04,0-.06,.18-.23,.21-.27,.39-.51,.78-1.32,.78-1.58,0-.03-.01-.13,0-.15,0-.03,.03-.04,.05-.04,.05,0,.54,.2,.58,.22,.08,.04,.11,.06,.11,.1,0,.06-.01,.06-.15,.15-.11,.08-.43,.46-.43,.54,0,.07,.08,.07,.13,.07h1.02Zm-1.11,.19c-.11,0-.18,0-.18,.08,0,.1,.49,.75,.66,.75,.11,0,.51-.53,.51-.71,0-.11-.1-.11-.15-.11h-.83Zm4.07,2.32c-.09,0-.37,.06-.51,.12-.03,.01-.15,.12-.18,.12s-.06-.03-.08-.05c-.02-.04-.24-.56-.24-.58,0-.06,.03-.06,.06-.06s.16,.03,.19,.04c.11,.02,.28,.02,.41,.02,.24,0,.31-.05,.46-.25,.29-.4,.77-1.19,.82-1.3,.03-.06,.12-.4,.17-.4,.06,0,.6,.35,.6,.46,0,.07-.16,.13-.22,.14-.2,.06-.24,.11-.62,.56-.51,.61-.57,.67-.57,.7,0,.06,.08,.06,.11,.06,.05,0,.39-.02,.46-.03,.32-.02,.36-.02,.36-.11s-.09-.25-.14-.32c0-.01-.06-.09-.06-.1,0-.02,0-.03,.02-.03,.12,0,.92,.54,.92,1.09,0,.21-.2,.32-.31,.32-.15,0-.22-.15-.23-.26-.05-.37-.05-.41-.14-.41-.06,0-.48,.09-.53,.11-.15,.05-.15,.11-.15,.36,0,.14,.01,.84,.01,.99,0,.2,0,.83,.01,.99,0,.03,.01,.2,.01,.32,0,.29-.27,.38-.41,.38-.12,0-.12-.16-.12-.21,0-.21,.03-1.68,.03-1.99v-.41s0-.14-.01-.19c-.02-.05-.08-.07-.15-.07Zm.01,.73c0,.06-.18,.25-.2,.3-.04,.08-.19,.46-.23,.53-.24,.55-.47,.82-.51,.82-.02,0-.03-.01-.03-.04s.05-.18,.06-.21c.09-.38,.23-1.09,.23-1.44,0-.23,0-.25,.06-.25,.03,0,.05,0,.08,.01,.23,.07,.55,.18,.55,.27Zm.99-3.86s-.02,.05-.18,.15c-.04,.02-.76,1.05-.76,1.13,0,.04,.02,.06,.15,.23,.06,.08,.1,.22,.1,.31,0,.23-.15,.33-.25,.33-.21,0-.32-.27-.37-.39-.08-.21-.23-.44-.43-.63-.02-.01-.15-.13-.15-.16s.05-.03,.06-.03c.11,0,.2,.04,.34,.11,.05,.02,.26,.13,.29,.13,.17,0,.39-.96,.45-1.3,.04-.23,.05-.25,.12-.23,.06,0,.63,.23,.63,.37Zm.77,4.59c0,.17-.12,.33-.28,.33-.12,0-.15-.08-.19-.23-.08-.32-.25-.64-.4-.91-.01-.02-.11-.19-.11-.21s.01-.03,.04-.03,.08,.01,.14,.06c.56,.37,.81,.7,.81,.99Zm-.68,.86s-.03-.03-.03-.05,.02-.01,.03-.01c.14,0,.85,.05,1,.05,.13,0,.14-.08,.15-.14,.04-.39,.06-3.3,.06-3.92,0-.29-.01-1.08-.03-1.32,0-.04-.02-.23-.02-.27,0-.02,0-.04,.02-.04,.05,0,.27,.11,.33,.15,.15,.08,.2,.11,.34,.11h1.07c.12,0,.15-.02,.19-.08,.13-.16,.14-.18,.2-.18,.03,0,.56,.23,.56,.38,0,.06-.02,.08-.14,.18-.06,.05-.06,.3-.06,.52,0,.15-.01,.91-.01,1.08,0,.48,.01,2.8,.01,3.32,0,.08,0,.11,.04,.11,.06,0,.25-.32,.32-.32,.08,0,.45,.37,.45,.51,0,.09-.03,.09-.3,.09h-3.04c-.23,0-.53,0-.77,.02-.02,0-.13,.01-.15,.01-.03,0-.04-.01-.06-.04l-.13-.16Zm2.94-1.84c.21,0,.21-.11,.21-.28v-1.28s0-.18-.2-.18h-1.09c-.06,0-.14,.01-.18,.08-.03,.05-.03,.64-.03,.75,0,.12,0,.78,.03,.83,.04,.08,.13,.08,.18,.08h1.08Zm.02,1.82c.19,0,.19-.03,.19-.76,0-.12,0-.76-.03-.8-.05-.08-.14-.08-.18-.08h-1.08s-.13,0-.18,.08c-.02,.04-.02,.66-.02,.78,0,.11,0,.66,.02,.7,.04,.06,.12,.08,.18,.08h1.1Zm-.01-3.75c.2,0,.2-.13,.2-.24,0-.1,0-1.11,0-1.14-.02-.08-.07-.12-.2-.12h-1.06c-.2,0-.21,.11-.21,.24v1.11c.01,.1,.07,.15,.2,.15h1.07Zm5.58-1.9s.01,.02,.01,.04c0,.04-.02,.05-.08,.09-.02,.01-.03,.03-.03,.06,0,.05,.45,.9,1.1,1.48,.5,.44,1.07,.81,1.77,1.08q.23,.08,.23,.13c0,.06-.03,.07-.25,.12-.15,.03-.34,.09-.44,.2-.03,.03-.06,.06-.09,.06s-.37-.12-1.02-.77c-.76-.76-1.02-1.18-1.32-1.86-.04-.09-.15-.32-.18-.32s-.05,.02-.19,.23c-1.16,1.68-2.77,2.74-2.96,2.74-.03,0-.06-.02-.06-.04,0-.04,.68-.64,.81-.77,.96-.99,1.51-1.9,1.72-2.36,.04-.07,.15-.44,.17-.46,.03-.02,.77,.28,.81,.35Zm.63,3.68s.11,0,.15-.03c.04-.04,.23-.24,.27-.24,.04,0,.46,.32,.46,.44,0,.06-.02,.08-.09,.15-.07,.06-.08,.38-.08,.49,0,.22,.04,1.2,.04,1.39s-.35,.28-.45,.28c-.15,0-.15-.13-.15-.18,0-.3,0-.37-.18-.37h-2.13c-.07,0-.21,0-.21,.19s0,.21-.05,.26c-.06,.06-.23,.14-.37,.14-.18,0-.18-.15-.18-.18,0-.04,.06-1.34,.06-1.59,0-.15,0-.56-.01-.68,0-.03-.04-.19-.04-.22,0-.02,0-.08,.06-.08,.06,0,.35,.16,.42,.19,.08,.04,.18,.04,.29,.04h2.18Zm-1.01-1.1c.25,0,.34,0,.42-.06,.06-.05,.27-.35,.34-.35s.64,.45,.64,.51c0,.08-.17,.08-.38,.08h-1.32c-.5,0-.69,0-.89,.02-.02,0-.13,.01-.15,.01s-.03-.01-.06-.04l-.13-.16s-.03-.04-.03-.05c0,0,0-.01,.02-.01,.05,0,.27,.03,.31,.03,.35,.02,.64,.02,.97,.02h.27Zm.99,2.85c.2,0,.2-.13,.2-.22,0-.18,0-.96,0-1.13,0-.08,0-.22-.2-.22h-2.14c-.2,0-.22,.11-.22,.22,0,.18,0,.96,0,1.13,0,.09,0,.22,.21,.22h2.14Z"/>
      <path class="cls-1" d="M39.47,25.58c0-3.46-2.66-6.3-6.04-6.61-.3-3.38-3.15-6.04-6.61-6.04s-6.31,2.66-6.61,6.04c-3.38,.3-6.04,3.15-6.04,6.61s2.66,6.31,6.04,6.61c.3,3.38,3.15,6.04,6.61,6.04s6.31-2.66,6.61-6.04c3.38-.3,6.04-3.15,6.04-6.61Zm-13.22-.82c-1.82-.61-3.13-2.34-3.13-4.33,0-2.51,2.05-4.56,4.56-4.56,1.99,0,3.72,1.31,4.33,3.13-3,.37-5.39,2.76-5.76,5.76Zm-6.01-4.36c.37,3,2.76,5.39,5.76,5.76-.61,1.82-2.34,3.13-4.33,3.13-2.51,0-4.56-2.05-4.56-4.56,0-1.99,1.31-3.72,3.13-4.33Zm7.16,6.01c1.82,.61,3.13,2.34,3.13,4.33,0,2.51-2.05,4.56-4.56,4.56-1.99,0-3.72-1.31-4.33-3.13,3-.37,5.39-2.76,5.76-5.76Zm6.01,4.36c-.37-3-2.76-5.39-5.76-5.76,.61-1.82,2.34-3.13,4.33-3.13,2.51,0,4.56,2.05,4.56,4.56,0,1.99-1.31,3.72-3.13,4.33Z"/>
    </g>
    <text class="cls-2" transform="translate(221.06 29.45)"><tspan class="cls-3" x="0" y="0">リ</tspan><tspan class="cls-4" x="8.4" y="0">ク</tspan><tspan x="17.5" y="0">ル</tspan><tspan class="cls-10" x="27.5" y="0">ー</tspan><tspan class="cls-7" x="36" y="0">ト</tspan><tspan class="cls-8" x="45.3" y="0">ペ</tspan><tspan class="cls-5" x="55.2" y="0">ー</tspan><tspan class="cls-9" x="64.7" y="0">ジ</tspan></text>
  </g>
</svg>