<?xml version="1.0" encoding="UTF-8"?>
<svg id="_レイヤー_2" data-name="レイヤー 2" xmlns="http://www.w3.org/2000/svg" viewBox="0 0 309.84 51.16">
  <defs>
    <style>
      .cls-1, .cls-2 {
        fill: #fff;
      }

      .cls-2 {
        font-family: GothicMB101Pro-DeBold, 'GothicMB101Pro DeBold';
        font-size: 10px;
        font-weight: 700;
      }

      .cls-3 {
        letter-spacing: -.16em;
      }

      .cls-4 {
        letter-spacing: -.09em;
      }

      .cls-5 {
        fill: #003e75;
      }

      .cls-6 {
        letter-spacing: -.05em;
      }

      .cls-7 {
        fill: #b8193f;
      }

      .cls-8 {
        letter-spacing: -.07em;
      }

      .cls-9 {
        letter-spacing: -.01em;
      }

      .cls-10 {
        letter-spacing: 0em;
      }

      .cls-11 {
        letter-spacing: -.15em;
      }
    </style>
  </defs>
  <g id="_レイヤー_1-2" data-name="レイヤー 1">
    <rect class="cls-5" width="309.84" height="51.16"/>
    <g>
      <rect class="cls-1" x="16.09" y="15.46" width="8.95" height="8.95"/>
      <rect class="cls-1" x="27.39" y="15.46" width="8.95" height="8.95"/>
      <rect class="cls-1" x="16.09" y="26.76" width="8.95" height="8.95"/>
      <g>
        <polygon class="cls-7" points="27.4 35.69 34.66 35.69 27.4 28.43 27.4 35.69"/>
        <polygon class="cls-7" points="36.32 26.77 29.07 26.77 36.32 34.03 36.32 26.77"/>
      </g>
    </g>
    <path class="cls-1" d="M50.94,23.54c-.24,.58-.41,.84-.58,1.1l-1.01-.69s.06-.07,.08-.1h-.84v.6c.2,.43,.75,1.26,1.34,1.8l-.7,.97c-.27-.38-.47-.77-.64-1.19v4.04h-1.1v-3.99c-.33,1.02-.6,1.56-1.01,2.13l-.44-1.5c.64-.85,1.04-1.85,1.34-2.86h-1.16v-1.11h1.26v-1.67h1.1v1.67h1.05v.79c.44-.76,.64-1.59,.77-2.21l1.15,.13c-.06,.27-.11,.49-.23,.96h.6v-1.34h1.13v1.34h1.98v1.12h-1.98v1.15h2.15v1.14h-1.8c.6,1.11,1.22,1.72,1.96,2.31l-.54,1.3c-.26-.22-1-.84-1.78-2.42v3.06h-1.13v-3.05c-.46,.85-.98,1.56-2,2.38l-.71-1.09c.82-.55,1.66-1.28,2.36-2.49h-1.94v-1.14h2.29v-1.15h-.98Zm4.79,5.04c.55-.05,1.09-.1,1.92-.19v-2.55h-1.72v-1.15h4.56v1.15h-1.65v2.39c.81-.11,1.44-.22,1.95-.31v1.15c-1.33,.29-3.16,.53-4.91,.74l-.16-1.22Zm7.9-6.08h1.11v1.15h-2.78c.13,3.28,.99,4.94,1.43,4.94,.34,0,.57-.83,.71-1.37l.79,.96c-.1,.42-.45,1.91-1.4,1.91-.51,0-2.51-.43-2.75-6.44h-4.97v-1.15h4.93c0-.27-.03-1.23-.03-1.44h1.23c0,.15,0,.82,.02,1.44h1.36c-.34-.35-.69-.64-1.08-.89l.85-.62c.48,.27,.89,.58,1.27,1.01l-.7,.51Zm3.7,1.67c-.77,.46-1.24,.67-1.54,.8l-.59-1.18c2.33-.91,3.46-1.97,3.98-2.74h1.36c.52,.65,1.45,1.72,3.95,2.74l-.61,1.17c-.31-.13-.78-.34-1.51-.81v.55h-5.03v-.53Zm5.55,6c-.11-.19-.17-.34-.38-.68-1.23,.14-2.79,.34-6.66,.41l-.15-1.21c.12,0,1.15,0,1.37,0,.28-.53,.6-1.31,.82-1.98h-2.3v-1.12h8.52v1.12h-4.85c-.36,.85-.6,1.4-.9,1.97,.31,0,1.9-.04,3.47-.16-.21-.29-.46-.6-.97-1.19l1.01-.55c1.09,1.08,1.9,2.42,2.11,2.75l-1.09,.62Zm-1.27-6.54c-1.03-.77-1.51-1.32-1.76-1.62-.46,.64-1.14,1.2-1.72,1.62h3.48Zm5.81,6.46h-1.2v-3.47c-.49,.43-.81,.66-1.09,.85l-.39-1.31c1.08-.66,2.06-1.72,2.45-2.56h-2.31v-1.12h1.34v-1.42h1.2v1.42h1.06v1.12c-.33,.69-.58,1.1-.88,1.5,.6,.7,1.03,.94,1.33,1.11l-.58,1.12c-.29-.26-.6-.55-.93-.99v3.75Zm3.08-9.03h1.22v2.56h1.97v1.22h-1.97v3.75h2.15v1.21h-5.68v-1.21h2.32v-3.75h-1.88v-1.22h1.88v-2.56Zm8.73,9.82v-1.55c2.74-.42,4.56-1.4,5.71-2.9-1.68-.43-3.36-.72-4.92-.89v-1.34c-.65,.68-1.43,1.28-2.3,1.66v-1.72c1.1-.67,2.1-2.02,2.6-3.49h8v.16c-.2,5.22-2.3,9.37-9.09,10.08Zm2.21-8.71c-.32,.64-.74,1.27-1.26,1.86,1.84,.22,3.74,.52,5.59,1,.37-.84,.61-1.8,.74-2.86h-5.08Zm9.05,4.36c-.16-1.24-.55-3.08-.96-4.4h1.56c.38,1.21,.76,2.98,1.01,4.4h-1.61Zm1.07,4.44v-1.51c4.1-.84,5.4-3.2,5.45-7.21v-.18h1.67v.19c-.08,5.32-2.5,7.97-7.12,8.71Zm2.09-4.56c-.17-1.27-.54-3.05-.9-4.39h1.55c.38,1.21,.71,2.84,.96,4.39h-1.61Zm7.79,4.45v-1.54c4.13-.48,6.47-2.84,6.95-7.03h-4.91c-.71,1.73-2.09,3.24-3.82,3.89v-1.7c1.18-.76,2.15-2.02,2.56-3.73h7.98v.25c-.2,6.15-3.4,9.44-8.76,9.86Zm16.01-3.73c-1.73,1.94-4.01,3.17-6.11,3.7v-1.63c2.83-.83,5.82-3.23,6.81-6.83h-6.23v-1.56h8.28c-.22,1.87-.82,3.48-1.66,4.82,.73,1.72,2.03,2.82,3.2,3.54v1.78c-1.91-.77-3.38-2.18-4.31-3.82Zm7.62-1.55c0,.58-.47,1.02-1.02,1.02s-1.02-.46-1.02-1.02,.46-1.02,1.02-1.02,1.02,.44,1.02,1.02Zm1.75,1.21v-6.26h1.72v6.26h-1.72Zm1.21,4.02v-1.57c3.84-.19,6.11-1.07,6.11-4.85v-3.86h1.73v3.84c0,4.49-2.5,6.26-7.84,6.44Zm14.02-3.53c-.8,1.98-2.4,3.1-4.34,3.61v-1.58c2.11-.82,3.29-2.32,3.29-5.24v-.7h1.61v.78c0,.52-.04,1-.1,1.44,1.79-.47,2.77-1.64,3.07-3.32h-8.25v-1.56h10.14v.31c-.13,4.06-2.68,5.8-5.41,6.26Zm6.53,3.8v-1.9c.83-.84,1.64-1.98,1.64-5.36v-3.26h1.62v3.14c0,4.54-1.42,6.25-3.26,7.38Zm4.7-.24v-10.29h1.62v8.21c1.87-.6,2.74-2.59,2.92-5.01h1.63c-.24,4.26-2.18,6.74-6.17,7.1Zm14.29-5.45c-.44,3.44-2.83,5.06-5.89,5.47v-1.58c2.4-.4,3.79-1.81,4.06-3.89h-5.18v-1.51h10.69v1.51h-3.67Zm-6.23-3.18v-1.54h9.17v1.54h-9.17Zm17.21,3.07v5.84h-1.63v-4.91c-1.33,.61-2.84,1.04-4.45,1.31v-1.49c4.18-.85,6.24-2.48,7.14-4.33h1.8c-.56,1.5-1.56,2.68-2.86,3.57Z"/>
    <text class="cls-2" transform="translate(221.06 29.45)"><tspan class="cls-3" x="0" y="0">リ</tspan><tspan class="cls-4" x="8.4" y="0">ク</tspan><tspan x="17.5" y="0">ル</tspan><tspan class="cls-11" x="27.5" y="0">ー</tspan><tspan class="cls-8" x="36" y="0">ト</tspan><tspan class="cls-9" x="45.3" y="0">ペ</tspan><tspan class="cls-6" x="55.2" y="0">ー</tspan><tspan class="cls-10" x="64.7" y="0">ジ</tspan></text>
  </g>
</svg>