<?xml version="1.0" encoding="UTF-8"?>
<svg id="_レイヤー_2" data-name="レイヤー 2" xmlns="http://www.w3.org/2000/svg" viewBox="0 0 309.84 51.16">
  <defs>
    <style>
      .cls-1, .cls-2 {
        fill: #fff;
      }

      .cls-2 {
        font-family: GothicMB101Pro-DeBold, 'GothicMB101Pro DeBold';
        font-size: 10px;
        font-weight: 700;
      }

      .cls-3 {
        letter-spacing: -.16em;
      }

      .cls-4 {
        letter-spacing: -.09em;
      }

      .cls-5 {
        letter-spacing: -.05em;
      }

      .cls-6 {
        letter-spacing: -.07em;
      }

      .cls-7 {
        fill: #ec7700;
      }

      .cls-8 {
        letter-spacing: -.01em;
      }

      .cls-9 {
        letter-spacing: 0em;
      }

      .cls-10 {
        letter-spacing: -.15em;
      }
    </style>
  </defs>
  <g id="_レイヤー_1-2" data-name="レイヤー 1">
    <rect class="cls-7" width="309.84" height="51.16"/>
    <g>
      <path class="cls-1" d="M55.05,27.33c0,.34-.27,.62-.58,.62s-.39-.1-.84-.91c-.88-1.54-1.97-2.47-2.22-2.47-.09,0-.11,.01-.4,.33l-.07,.08c-.48,.51-1.76,1.86-3.34,2.66-.31,.15-.69,.3-.81,.3-.14,0-.15-.11-.15-.14,0-.11,.61-.52,.61-.52,3.22-2.33,4.77-5.57,4.76-5.83,0-.02-.02-.05-.09-.05-.11,.01-2.66,.6-2.8,.64-.03,.01-.12,.05-.2,.09-.2,.1-.33,.15-.39,.15-.22,0-.82-.39-.91-.47-.1-.1-.32-.68-.32-.78,0-.11,.05-.16,.14-.16,.03,0,.35,.09,.35,.09,.39,.11,.54,.12,.65,.12,.45,0,2.82-.21,3.45-.47,.03-.02,.12-.07,.21-.13,.25-.16,.42-.27,.51-.27,.33,0,1.14,.67,1.14,1.03,0,.09-.13,.21-.41,.45-.07,.06-.13,.11-.15,.14-.19,.23-.83,1.16-1.21,1.72-.11,.16-.2,.29-.25,.36-.06,.08-.09,.15-.09,.22,0,.07,0,.09,.53,.38l.05,.03c.7,.4,2.83,1.63,2.83,2.8Zm3.63-4.78c-.36-.09-.37-.11-.37-.35,0-.33,.05-1.44,.11-1.74v-.02c.11-.3,.16-.47,.16-.53,0-.46-.97-.87-1.43-.87-.15,0-.4,.02-.42,.17,0,.01,0,.02,0,.03l.03,.05s0,.01,.01,.02c.2,.19,.32,.31,.42,.56,.15,.4,.15,.85,.15,4.42,0,1.53-.02,1.87-.11,2.94,0,.02-.01,.11-.02,.18-.02,.1-.03,.16-.03,.19,0,.35,.34,1.26,.77,1.26s.43-.85,.43-1.22c0-.19-.01-.51-.03-.65-.05-1.12-.06-1.79-.06-3.16,0-.88,.05-.88,.12-.88,.35,0,.92,.54,1.3,1.05,.85,1.1,.9,1.17,1.25,1.17,.19,0,.52-.11,.52-.51,0-.97-1.96-1.92-2.79-2.12Zm6.22-1.62c.09,0,2.81-.24,3.03-.27,.75-.06,1.24-.11,1.24-.56,0-.41-.57-.54-.84-.54-.13,0-.53,.09-.97,.19-.13,.03-.23,.05-.28,.06-.6,.11-1.43,.14-2.02,.14-.17,0-.46,0-.66-.05,0,0,0,0,0,0-.03,0-.11-.03-.17-.06-.15-.05-.24-.08-.29-.08-.04,0-.14,.01-.14,.15s.42,1.01,1.12,1.01Zm4.53,1.04c-.05,0-.15,.04-.32,.11-.03,.01-.05,.02-.06,.03-.03,0-.1,0-.32,.03-.22,.02-.52,.05-.55,.05-.08,0-.22,.03-.4,.05-.9,.11-2.77,.33-3.63,.33-.51,0-.98-.11-1.24-.21-.01,0-.04-.02-.07-.03-.1-.05-.14-.07-.18-.07-.08,0-.14,.06-.14,.12,0,.41,.94,1.51,1.51,1.51,.06,0,.21-.06,.42-.14,.08-.03,.16-.07,.19-.07,.57-.17,3.76-.72,4.16-.72,.18,0,.2,.1,.2,.18,0,.02-.76,2.82-4.97,5.09-.02,.01-.07,.03-.12,.06-.26,.12-.33,.16-.35,.18-.03,.03-.04,.09-.04,.12,0,.08,.06,.16,.18,.16,.13,0,1.14-.26,2.27-.83,1.74-.89,2.55-1.81,3.6-3.41,.35-.54,.47-.72,.67-.89,.3-.24,.37-.31,.37-.53,0-.33-.95-1.1-1.18-1.1Zm11.47,1.24s-.08,0-.13,0c-.05,0-.11,0-.15,0h0c-1.85,.1-6.28,.27-6.7,.27-.72,0-1.29-.04-1.54-.11-.02,0-.1-.03-.16-.06-.15-.06-.24-.1-.29-.1-.09,0-.16,.09-.16,.21,0,.46,.6,1.28,1.19,1.28,.1,0,.35-.06,.66-.15,.15-.04,.28-.07,.34-.08,.3-.06,3.24-.23,4.95-.23,.12,0,.48,0,.85,.01,.4,0,.81,.01,.96,.01,.54,0,1.12-.04,1.12-.46,0-.16-.17-.62-.95-.62Zm12.12-3.8c0-.57-.7-1.18-1.84-1.18-.22,0-.53,.07-.53,.23,0,.07,.07,.13,.21,.18,.41,.15,.9,.49,1.08,.7,.24,.29,.41,.49,.71,.49,.26,0,.38-.26,.38-.43Zm-2.86,1.33c.51,.55,.58,.63,.58,.77,0,.24-.14,.31-.35,.41-.19,.08-.22,.13-.61,.76v.02c-.07,.09-.2,.29-.36,.51-.29,.4-.82,1.15-.82,1.27,0,.09,0,.1,.23,.39l.03,.04c.29,.37,.51,.66,.51,1.11,0,.53-.38,.67-.61,.67-.3,0-.36-.1-.84-.91v-.02c-.07-.11-.18-.26-.25-.26-.08,0-.13,.06-.34,.28l-.05,.06c-2.13,2.3-4.58,3.08-4.73,3.08-.07,0-.12-.02-.15-.06-.02-.02-.04-.07-.02-.13,.02-.07,.05-.08,.17-.15,.04-.02,.08-.05,.14-.08h0c2.57-1.45,4.31-3.52,4.31-3.88,0-.15-.3-.45-.77-.78-.46-.32-.88-.52-1-.52-.11,0-.55,.39-.91,.7-.66,.58-1.11,.96-1.34,.96-.08,0-.13-.06-.13-.12,0-.1,.47-.58,.47-.59,1.56-1.7,2.53-3.45,2.53-4.11,0-.04-.06-.18-.1-.29-.06-.15-.1-.25-.1-.31,0-.14,.2-.14,.3-.14,.71,0,1.2,.53,1.2,.81,0,.05-.03,.13-.07,.27-.03,.08-.07,.2-.07,.23,0,.13,.23,.15,.37,.15,.26,0,1.5-.11,1.76-.33,.22-.18,.28-.2,.4-.2,.27,0,.49,.25,.62,.39Zm-1.21,.66c-.09,0-.4,.04-.7,.08-.35,.04-.71,.09-.84,.09-.18,0-.29-.03-.39-.05-.15-.05-.18-.05-.29-.05-.03,0-.08,0-.11,.03-.12,.13-1.04,1.24-1.06,1.38,0,.12,.06,.15,.36,.27h.03c.38,.16,.49,.21,1.31,.62l.09,.04c.09,.05,.21,.09,.25,.08,.22-.04,1.5-1.94,1.5-2.38,0-.1-.11-.12-.15-.12Zm1.23-2.1c-.1,0-.29,.03-.29,.15,0,.1,.19,.25,.19,.25,.5,.45,.59,.54,.79,.85,.31,.49,.45,.65,.69,.65,.28,0,.46-.35,.46-.53,0-.74-1.12-1.37-1.83-1.37Zm7.27,6.61c.24,0,.51-.2,.51-.64,0-.9-1-1.28-1.6-1.42-.29-.06-.33-.07-.33-.25s.01-.19,.36-.55c.06-.06,.18-.2,.32-.37,.23-.27,.67-.77,.76-.81,.02,0,.06-.02,.1-.03,.06-.01,.12-.03,.14-.04,.12-.05,.19-.13,.19-.24,0-.11-.04-.14-.32-.42-.02-.01-.09-.1-.15-.17-.09-.1-.19-.22-.26-.28-.04-.06-.14-.12-.24-.12-.09,0-.2,.09-.44,.29-.06,.05-.13,.11-.16,.13-.08,.06-.14,.07-.24,.07-.09,0-.11,0-.11-.11v-1.01c0-.5,0-.54,.05-.63,0-.01,.06-.06,.09-.09,.12-.12,.16-.17,.16-.23,0-.14-.11-.21-.18-.25-.1-.05-1-.33-1.12-.33-.13,0-.14,.1-.14,.11,0,.04,.01,.12,.03,.23,.01,.06,.03,.15,.03,.18,.04,.46,.05,1.18,.05,1.34,0,.8,0,.8-.25,.8-.13,0-.48-.02-.82-.04-.33-.02-.65-.03-.76-.03-.11,0-.13,.07-.13,.11s.02,.06,.06,.12l.02,.02s0,0,0,0l.23,.27s.08,.11,.18,.11c.02,0,.08,0,.14-.01,.05,0,.1-.01,.12-.01,.41-.02,.92-.04,1.39-.04h.84c.08,0,.1,.01,.11,.03,0,.29-1.59,2.31-2.15,2.88-.05,.05-.16,.16-.3,.29-.67,.64-.77,.76-.77,.84,0,.03,.01,.12,.15,.12,.21,0,.72-.39,1.42-.93,.25-.19,.53-.41,.57-.43,.02,.02,.03,.1,.03,.25,0,1.12-.03,2.14-.06,2.95l-.02,.6c0,.06-.01,.24-.02,.41-.01,.17-.02,.33-.02,.39,0,.25,.15,.38,.45,.38,.43,0,.72-.26,.72-.64,0-.09-.02-.32-.03-.56-.01-.21-.03-.44-.03-.51,0-.25,0-.95,0-1.64,0-.66,0-1.31,0-1.53,0-.07,0-.2,.02-.23,.15,0,.5,.49,.62,.7,.3,.61,.45,.92,.81,.92Zm5.46,1.72c-.19,0-.24,.06-.57,.5-.25,.33-.43,.33-.64,.33h-.44c-.21,0-.23-.09-.23-.57,0-.41,0-1.54-.02-2.64,0-1.04-.02-2.05-.02-2.4,0-.22,.02-.31,.26-.31h1.67c.42,0,.72,0,.72-.24,0-.27-.88-1.09-1.09-1.09-.15,0-.2,.06-.56,.55-.23,.3-.25,.3-.81,.3-.17,0-.2-.08-.2-.29,0-.51,.04-2.3,.1-2.45,.01-.02,.06-.07,.1-.11,.12-.13,.17-.19,.17-.25,0-.25-.26-.33-.39-.37l-.18-.06c-.67-.2-.71-.21-.74-.21-.16,0-.18,.11-.18,.17,0,.05,.01,.15,.04,.32,.02,.12,.04,.25,.04,.3,.06,.88,.08,1.43,.08,2.54,0,.35-.03,.41-.23,.41-.26,0-.76-.02-1.12-.03-.19,0-.34-.01-.38-.01-.04,0-.28-.02-.39-.03-.06,0-.11,0-.11,0-.1,0-.12,.07-.12,.11,0,.05,.02,.07,.07,.14l.23,.28c.05,.06,.1,.1,.17,.1,.03,0,.09,0,.15-.01,.04,0,.08-.01,.11-.01,.42-.04,1.11-.04,1.41-.04,.17,0,.2,.1,.2,.29,0,.72-.03,5.25-.05,5.45-.01,.16-.1,.19-.26,.19h-.47c-.6,0-1.15-.02-1.52-.03h-.12s-.16-.02-.27-.03c-.11-.01-.22-.02-.26-.02-.06,0-.12,.05-.12,.12,0,.04,.01,.06,.07,.13h0s.23,.28,.23,.28c.05,.06,.09,.12,.18,.12,.02,0,.08,0,.14-.02,.05,0,.09-.02,.12-.02,.34-.03,.95-.03,1.31-.02h4.45c.43,0,.73,0,.73-.25,0-.28-1.12-1.07-1.25-1.07Zm4.98-4.09s.08,0,.14-.01c.05,0,.1-.01,.12-.01,.44-.04,.78-.04,1.52-.04h2.76c.6,0,.72,0,.72-.22,0-.17-.83-.99-1-.99-.09,0-.17,.09-.4,.36l-.06,.08c-.23,.27-.23,.28-.78,.28h-1.19c-.56,0-1.13-.02-1.64-.05-.03,0-.13,0-.24-.02-.12,0-.24-.02-.29-.02-.08,0-.12,.06-.12,.11,0,.06,.02,.09,.07,.14l.23,.28c.05,.05,.1,.1,.17,.1Zm5.88,3.74l-.09-.05c-.91-.49-1.35-.7-1.47-.7-.1,0-.17,.06-.17,.16s.1,.21,.35,.48c.13,.14,.35,.39,.36,.46-.04,.04-.38,.07-.88,.12-1.35,.13-2.47,.2-2.61,.2-.06,0-.12-.02-.13-.03,0-.06,.08-.15,.12-.2l.02-.03c.08-.08,.58-.68,.82-1l.04-.05c.26-.35,.28-.37,.34-.39,.37-.1,.42-.11,.42-.29,0-.12-.23-.35-.46-.56h3.65c.57,0,.71,0,.71-.24,0-.15-.02-.18-.64-.69-.28-.23-.33-.27-.46-.27-.15,0-.21,.09-.39,.34l-.02,.02c-.26,.36-.35,.36-.85,.36h-3.96c-.41,0-1.03-.02-1.64-.05-.03,0-.14,0-.24-.02-.12,0-.24-.02-.29-.02-.13,0-.14,.08-.14,.11,0,.04,.02,.06,.05,.09,0,.01,.02,.03,.03,.05l.23,.28,.02,.02s.07,.07,.15,.07c.02,0,.08,0,.14-.01,.05,0,.1-.01,.12-.01,.32-.02,.63-.04,1.51-.04h.76c.25,0,.27,.02,.27,.12,0,.11-.31,.93-.61,1.54-.47,.94-.52,.94-1.17,.94-.21,0-.54-.02-.69-.05h-.06c-.24-.06-.42-.09-.48-.09-.17,0-.18,.12-.18,.17,0,.07,.08,.28,.67,1.3,.04,.1,.13,.14,.2,.14,.06,0,.13-.04,.27-.13,.05-.03,.09-.06,.11-.07,.42-.18,5.02-1.1,5.53-1.1,.12,0,.21,0,.43,.4,.2,.37,.48,.88,.89,.88,.27,0,.55-.29,.55-.73,0-.79-.77-1.25-1.11-1.46Zm2.36-4.29c-2.85-.81-4.9-3.47-4.9-3.76,0-.02,0-.02,.05-.05l.03-.02c.1-.07,.15-.11,.15-.21,0-.29-1.2-.82-1.21-.82-.2,0-.23,.1-.3,.4l-.02,.08c-.04,.19-.75,1.61-2.84,3.4-.68,.57-1.51,1.17-1.84,1.41-.16,.11-.22,.15-.22,.24,0,.04,.02,.08,.05,.11,.06,.04,.13,.03,.16,.02,.58-.11,3.26-1.32,5.31-3.88,.15-.19,.23-.28,.27-.31,.03,.04,.08,.15,.13,.23,1.38,2.51,3.94,4.28,4.25,4.28,.13,0,.19-.08,.23-.16,.11-.18,.37-.35,.72-.45,.32-.1,.4-.13,.4-.26,0-.13-.04-.14-.4-.24Zm5.39-3.29c-.02-.39-.03-.79-.03-.94,0-.19,.12-.22,.19-.22,.08,0,.46,.15,.75,.28,.11,.04,.17,.07,.34,.07h2.66c.2,0,.26-.03,.37-.14l.03-.02c.29-.27,.34-.31,.49-.31,.26,0,.81,.52,.81,.76,0,.13-.07,.21-.25,.41l-.04,.04s-.07,.17-.06,.99v.04c0,.08,0,.32,.02,.56,0,.26,.02,.53,.02,.63,0,.4-.26,.65-.65,.65-.25,0-.41-.14-.42-.37q-.01-.32-.21-.32h-2.75c-.21,0-.22,.07-.23,.17-.01,.24-.04,.71-.65,.71-.41,0-.41-.32-.41-.46,0-.12,.01-.46,.02-.82,.01-.37,.02-.75,.02-.88,0-.12-.01-.46-.03-.83Zm1.24,1.62h2.81c.24,0,.27,0,.27-1.07,0-.87,0-.87-.27-.87h-2.81c-.27,0-.27,0-.27,.98s0,.96,.27,.96Zm-3.03,.29c-.21-.11-.29-.16-.29-.25,.02-.17,.84-1.85,.92-1.95,.02-.02,.09-.07,.14-.1,.05-.04,.11-.07,.13-.09,.08-.06,.13-.15,.13-.24,0-.31-1.1-.7-1.15-.7-.2,0-.22,.23-.23,.33,0,.02-.56,2.36-2.16,4.63-.03,.05-.07,.11-.11,.16-.18,.26-.19,.28-.19,.32,0,.06,.05,.13,.15,.13,.14,0,.79-.56,1.22-1.04l.05-.06c.1-.12,.22-.25,.25-.25,.02,.02,.03,.12,.04,.16,0,.02,0,.04,0,.04,0,.06,0,.37,0,.73,0,.48,0,1.05,0,1.2,0,.5-.04,2.24-.06,3.4,0,.39-.02,.71-.02,.86,0,.23,0,.52,.37,.52,.67,0,.67-.56,.67-1.06,0-.25,0-1.02-.01-1.75,0-.69-.01-1.36-.01-1.57,0-.7,.03-2.44,.09-2.59,0-.02,.06-.09,.1-.14,.16-.22,.22-.3,.22-.36,0-.13-.09-.24-.26-.32Zm8.56,5.8c-2.04-.79-3.4-2.5-3.4-2.79,0-.03,.03-.05,.17-.05h2.36c.31,0,.45,0,.55-.04,.11-.04,.16-.11,.16-.21,0-.21-.83-.88-1.08-.88-.17,0-.22,.07-.53,.43l-.03,.04c-.14,.17-.16,.17-.7,.17h-.9c-.25,0-.27-.06-.27-.32,0-.31,.01-.45,.05-.59,0-.02,.05-.07,.08-.11,.11-.16,.18-.26,.18-.33,0-.33-1.08-.53-1.09-.53-.18,0-.18,.15-.18,.21,0,.09,.04,.47,.05,.54,0,.07,0,.38,0,.61,0,.15,0,.27,0,.29,0,.16-.08,.24-.25,.24h-.88c-.54,0-1.03-.01-1.63-.03-.08-.01-.45-.05-.54-.05-.08,0-.13,.05-.13,.12,0,.05,.03,.07,.08,.13l.23,.28c.04,.05,.08,.11,.17,.11,.04,0,.23-.02,.26-.04,.15-.02,.64-.02,1.5-.02h.62s.08,0,.09,.02c-.02,.17-.9,1.61-2.76,3.38-.04,.04-.1,.09-.14,.13-.11,.1-.15,.13-.15,.18,0,.09,.06,.15,.16,.15,.14,0,1.51-.49,3.03-2.47,.02-.03,.05-.06,.07-.09,.07-.08,.21-.26,.26-.28,.02,.03,.02,.2,.02,.44,0,.21-.01,.8-.02,1.4-.01,.63-.02,1.27-.02,1.5,0,.39,.2,.47,.36,.47,.03,0,.66,0,.66-.82,0-.25-.02-.94-.04-1.68-.02-.68-.04-1.37-.04-1.71,.07,.12,.16,.27,.23,.39,.08,.14,.15,.26,.18,.31,.82,1.35,2.06,2.38,2.37,2.38,.13,0,.23-.08,.24-.1l.09-.07c.17-.12,.27-.2,.45-.26h.04c.23-.09,.32-.12,.32-.25,0-.11-.08-.14-.25-.2Zm12.41,.72q0,.06-.31,.24c-.08,.05-.16,.09-.19,.11-.36,.23-.4,.28-.63,.61l-.02,.03c-.04,.06-.11,.08-.15,.08-.01,0-1.81-.6-3.04-2.43-.06-.09-.13-.19-.16-.23-.02,.03-.07,.09-.12,.19-.72,1.48-2.29,2.48-3.89,2.48-.06,0-.26,0-.26-.16,0-.09,.08-.11,.34-.18h.05c2.08-.56,3.01-2.41,3.01-2.63,0-.05,0-.07-.14-.07h-.7c-.24,0-.24,0-.29,.31-.02,.12-.28,.41-.77,.41-.09,0-.25-.04-.25-.33,0-.07,.01-.44,.02-.87,.02-.56,.04-1.27,.04-1.45,0-.2-.02-.64-.06-.85,0-.02-.04-.14-.04-.18,0-.09,.06-.16,.15-.16,.21,0,.41,.16,.58,.3,.08,.07,.16,.13,.23,.16,.14,.07,.26,.07,.37,.07h.84c.27,0,.27-.11,.27-.37,0-.85,0-.85-.35-.85-.06,0-.26,.02-.43,.03-.17,.02-.28,.03-.32,.03-.09,0-.15-.07-.19-.13l-.23-.26s-.06-.07-.06-.11c0-.01,0-.03,0-.04-.63,.54-1.27,.92-1.8,.99-.03,0-.05,0-.07-.02,.55,.7,.65,1.44,.65,1.85,0,.72-.3,2.29-1.2,2.29-.34,0-.39-.16-.42-.34-.06-.41-.2-.73-.32-.76,0,.01,0,.04,0,.08,0,.22,.02,.84,.04,1.43,.02,.57,.04,1.11,.04,1.3,0,.39-.25,.63-.66,.63s-.46-.28-.46-.55c0-.06,.05-.86,.06-1,.01-.3,.02-.84,.02-2.01,0-1.51,0-5.52-.08-6.74,0-.01-.05-.2-.05-.26,0-.07,.05-.16,.18-.16,.11,0,.16,.03,.64,.27l.18,.09c.2,.1,.32,.1,.43,.1h.62c.14,0,.24,0,.36-.12,.15-.15,.18-.18,.26-.18,.12,0,.94,.5,.94,.73,0,.19-.11,.23-.32,.32h-.02c-.15,.25-1.3,2.22-1.38,2.47,.02,.03,.07,.1,.25,.27,.09,.08,.16,.17,.23,.26-.02-.03-.01-.07,.01-.1,.05-.06,.15-.15,.23-.21,.03-.03,.05-.05,.07-.06,2.36-2.11,2.85-3.73,2.85-3.74,.03-.31,.05-.43,.22-.43,.12,0,1.13,.32,1.13,.69,0,.05-.03,.1-.1,.19-.01,.02-.03,.04-.04,.06,.16,.22,1.3,1.5,2.87,2.09t0,0c.35,.14,.66,.23,1.06,.33h.03c.09,.02,.16,.04,.16,.13,0,.1-.13,.14-.33,.2-.04,0-.07,.02-.08,.02-.17,.06-.5,.23-.67,.4,0,0-.02,.03-.04,.05-.11,.13-.17,.19-.24,.19-.24,0-1.95-1.16-3.11-2.99-.04-.06-.06-.1-.07-.11-.04,.02-.09,.09-.13,.16-.5,.74-1.16,1.51-1.84,2.1,.01,0,.02,0,.04,0,0,0,.05,0,.11,.01,.06,0,.14,.02,.16,.02,.12,.01,.51,.05,.85,.05h1.06c.18,0,.24,0,.41-.26l.03-.05c.18-.26,.23-.32,.3-.32,.1,0,.95,.57,.95,.84s-.19,.27-.53,.27h-.64c-.18,0-.29,.03-.29,.21,0,1,.02,1,.3,1h1.06c.14,0,.23,0,.35-.16l.06-.07c.15-.19,.19-.25,.27-.25,.06,0,1.01,.5,1.01,.76,0,.14-.08,.19-.16,.25,0,0-.02,.01-.02,.02q-.11,.07-.11,.17v.84c0,.08,.02,.3,.03,.51,.02,.21,.03,.41,.03,.49,0,.42-.48,.61-.81,.61s-.33-.21-.34-.41c-.02-.17-.11-.18-.26-.18h-1.24c-.07,0-.11,0-.12,.02,.03,.09,.46,.54,1.17,.98,.61,.38,1.56,.82,2.61,.82,.21,0,.31,0,.31,.12Zm-9.9-5.39c0,1.95,.03,2.74,.06,2.83,.04,.09,.32,.15,.63,.15s.44-.92,.44-1.39c0-.66-.21-1.28-.57-1.68-.12-.15-.17-.21-.17-.36,0-.05,.05-.21,.24-.82,.19-.61,.48-1.53,.48-1.71,0-.15-.06-.17-.23-.17h-.6c-.2,0-.27,.03-.29,.16,0,.07-.01,1.21-.01,2.98Zm7.12,2.95q.33,0,.33-1.23c0-.25,0-.36-.27-.36h-1.12c-.27,0-.27,.06-.28,.42-.01,.19-.12,1.02-.12,1.05,0,.09,.07,.12,.27,.12h1.19Zm-2.62-1.59h-.8c-.29,0-.3,0-.3,1.34,0,.23,.14,.25,.29,.25h.76c.16,0,.21,0,.25-.15,.05-.16,.11-.81,.11-1.16,0-.24-.09-.27-.3-.27Zm13.21-2.72c.12,0,.55-.38,.8-.61l.03-.03q.91-.82,1.16-.85c.38-.06,.52-.08,.52-.31s-.09-.29-.91-.93l-.04-.03s-.13-.12-.24-.12c-.14,0-.15,.12-.17,.31-.08,.53-.59,1.31-.96,1.88l-.15,.23q-.19,.28-.19,.32c0,.07,.06,.15,.16,.15Zm-4.74-.85v.04c.2,.57,.25,.74,.6,.74,.26,0,.54-.24,.54-.67,0-.88-1.43-1.93-1.78-1.93-.04,0-.07,.02-.1,.03-.01,0-.02,.01-.03,.02-.04,.05-.06,.14,.1,.4,.3,.53,.5,.88,.66,1.38Zm2.76-.32v.03c.16,.53,.23,.77,.56,.77,.31,0,.64-.28,.64-.72,0-.82-1.13-1.76-1.59-1.96-.08-.03-.18-.07-.24-.02-.08,.05-.08,.15,0,.31,.25,.47,.48,1.05,.63,1.59Zm3.82,3.56c-.16,0-.21,.08-.34,.31-.09,.16-.2,.16-.69,.16h-1.72c-.19,0-.29-.03-.29-.18,0-.06,.06-.51,.12-.65,.01-.02,.07-.08,.11-.13,.16-.17,.23-.25,.23-.33,0-.33-1.14-.57-1.3-.57-.08,0-.3,0-.3,.23,0,.03,0,.08,.03,.19,.01,.07,.03,.13,.03,.16,.01,.22,.02,.46,.02,.69,0,.52,0,.57-.29,.57h-.95c-.63,0-1.22-.02-1.58-.03h-.05c-.09-.01-.46-.05-.54-.05-.13,0-.14,.1-.14,.11,0,.06,.04,.1,.08,.14l.23,.28c.04,.05,.08,.11,.17,.11,.01,0,.08,0,.16-.02,.08,0,.17-.02,.2-.02,.48-.02,1.09-.02,1.41-.02h.9c.23,0,.27,.04,.27,.14,0,.27-.77,2.9-3.52,3.88l-.09,.03c-.25,.09-.36,.13-.36,.27,0,.04,.02,.17,.24,.17,.02,0,1.77-.19,3.17-1.54,1.05-1.02,1.39-2.16,1.57-2.77,.05-.15,.08-.18,.29-.18h2.15c.24,0,.29,.01,.29,.15,0,.09-.21,1.35-.38,2.04-.21,.84-.3,1.11-.72,1.11-.32,0-.53-.05-1.16-.21l-.07-.02c-.07-.02-.13-.04-.17-.04-.12,0-.18,.09-.18,.17,0,.08,.06,.15,.18,.2,.42,.19,.89,.41,.92,.81,.03,.23,.08,.41,.47,.41,.62,0,1.45-.5,1.86-2.85,.02-.08,.06-.31,.1-.55,.04-.26,.09-.54,.11-.62,.06-.27,.1-.3,.24-.39,0,0,.02-.01,.02-.01,.11-.07,.25-.18,.25-.3,0-.28-.77-.87-1-.87Zm.98-2.47c-.15,0-.26,.08-.41,.23-.19,.18-.21,.18-.71,.18h-7.02c-.16,0-.25-.02-.3-.14-.22-.53-.25-.59-.39-.59-.1,0-.13,.09-.15,.14,0,0,0,.03-.01,.04-.12,.6-.16,.83-.48,1.19-.36,.4-.44,.51-.44,.79,0,.24,.13,.48,.43,.48,.47,0,.88-.48,1.12-1.29,.04-.14,.09-.14,.28-.14h7.16c.16,0,.19,.02,.19,.07,0,.04-.09,.21-.15,.32-.11,.21-.18,.34-.18,.43,0,.07,.06,.13,.14,.13,.03,0,.05,0,.37-.18l.14-.07c.18-.11,.47-.23,.75-.23,.03,0,.13,.02,.21,.03,.13,.02,.22,.03,.27,.03,.17,0,.35-.14,.35-.35,0-.28-.85-1.07-1.15-1.07Zm11.79,3.43c-.13,0-.17,.06-.32,.29-.07,.1-.1,.11-.66,.11h-.41c-.19,0-.19-.03-.19-.09,0-.05,.09-.48,.15-.61,0-.02,.05-.07,.08-.11,.11-.14,.15-.21,.15-.27,0-.3-1.2-.53-1.21-.53-.1,0-.21,.07-.21,.2,0,.05,.08,.28,.1,.32,.04,.09,.04,.17,.04,.24,0,.12-.03,.31-.05,.46l-.03,.17c-.04,.2-.04,.22-.21,.22-.38,0-1.4-.04-1.49-.05-.03,0-.12,0-.21-.02-.1,0-.19-.02-.22-.02-.06,0-.12,.05-.12,.12,0,.04,.02,.08,.07,.13l.23,.28,.03,.03s.08,.08,.14,.08c.01,0,.07,0,.13-.01,.08,0,.19-.02,.22-.02,.36-.02,.73-.02,1.1-.02,.13,0,.13,.02,.13,.07,0,.17-.57,1.8-1.81,2.73-.09,.07-.23,.15-.35,.24-.13,.08-.27,.17-.36,.24-.09,.05-.11,.13-.11,.17,0,.05,.02,.12,.16,.12,.42,0,2.11-.7,2.95-2.33,.03-.05,.07-.16,.13-.28,.12-.27,.37-.83,.45-.91,.05-.05,.13-.05,.21-.05h.83c.13,0,.24,.02,.24,.21,0,.31-.08,1.25-.24,1.85-.14,.59-.38,.59-.55,.59,0,0-.26,0-.62-.09,0,0-.03-.01-.05-.02-.15-.05-.19-.07-.23-.07-.15,0-.16,.11-.16,.14,0,.04,0,.05,.31,.46,.08,.11,.15,.2,.18,.23,.11,.22,.14,.27,.15,.28,.1,.17,.26,.17,.34,.17,.17,0,1.03-.05,1.4-1.04,.2-.52,.32-1.46,.39-2.12,.04-.33,.08-.38,.17-.48,.14-.14,.19-.19,.19-.33,0-.23-.71-.7-.85-.7Zm-5.25-.85c.52-.56,.7-.57,.87-.58,.31-.01,.61-.02,.61-.39,0-.21-.11-.29-.38-.46l-.07-.05s-.09-.05-.17-.1c-.45-.27-.54-.32-.59-.32-.1,0-.13,.04-.27,.23l-.06,.07q-.13,.17-.25,.17h-.73c.13-.09,.22-.24,.22-.49,0-.33-.1-.48-.24-.68-.02-.03-.03-.05-.03-.07,0-.05,.06-.11,.21-.22,1.38-1.12,1.4-1.13,1.56-1.16l.09-.02c.36-.07,.45-.09,.45-.27,0-.3-.97-.94-1.11-.94s-.2,.11-.29,.29l-.02,.03c-.07,.14-.08,.16-.58,.16h-1.04c-.7,0-1.32-.03-1.64-.05-.04,0-.16,0-.27-.02-.11,0-.22-.02-.25-.02-.1,0-.12,.07-.12,.11,0,.06,.05,.12,.07,.14l.23,.28,.03,.03s.08,.08,.14,.08c.01,0,.08,0,.15-.02,.08,0,.17-.02,.2-.02,.48-.02,1.08-.04,1.41-.04h1.15c.14,0,.21,.02,.21,.04-.02,.11-.49,.8-.68,1.06-.15,.23-.2,.26-.28,.26-.03,0-.2-.08-.34-.14-.44-.19-.78-.33-.91-.33-.17,0-.18,.1-.18,.13,0,.05,.02,.07,.19,.24,.05,.05,.09,.09,.11,.11,.55,.67,.6,.74,.77,1.15,.04,.09,.1,.25,.24,.35h-.58c-.42,0-.96-.02-1.28-.03-.15,0-.25,0-.28,0-.08-.01-.46-.05-.55-.05-.06,0-.12,.05-.12,.12,0,.04,.02,.06,.04,.09,0,0,.02,.02,.03,.04l.23,.28,.03,.03s.08,.08,.14,.08c.02,0,.11,0,.21-.02,.11-.01,.27-.03,.3-.03,.47-.01,.86-.01,1.45-.01,.05,0,.13,.03,.13,.08-.01,.13-.59,1.53-1.58,2.86-.05,.07-.19,.24-.34,.43q-.67,.84-.67,.89c0,.11,.11,.18,.19,.18,.11,0,.93-.61,1.6-1.39,.42-.49,.71-.88,.81-1.01,0,0,.02-.02,.02-.02,.01-.02,.03-.04,.05-.05,.01,.04,.01,.13,.01,.17,0,.75,0,1.78,.01,2.5,0,.7,0,.74-.7,.74-.04,0-.16,0-.28-.02-.11,0-.22-.02-.26-.02-.19,0-.23,.08-.23,.15,0,.1,.12,.15,.29,.21l.05,.02c.51,.19,.55,.31,.59,.4,.07,.16,.12,.25,.28,.25,.75,0,1.13-.47,1.13-1.39,0-.12,0-.73,0-1.45,0-1.01,0-2.23,0-2.58q0-.95,.29-.95h.22c.13,0,.25,0,.27,.01,0,0,0,0,0,.03,0,.08-.1,.34-.18,.53-.1,.25-.14,.36-.14,.42,0,.1,.07,.15,.14,.15,.12,0,.3-.22,.3-.22Zm6.79-.37c0,.07,0,.09-.59,.38l-.05,.02c-.13,.1-.16,.17-.22,.32-.03,.06-.07,.14-.18,.14-.2,0-1.68-.9-2.19-1.38-.06-.06-.13-.12-.19-.12-.05,0-.07,0-.23,.13l-.06,.04c-1.32,1.02-2.76,1.23-2.78,1.23-.08,0-.16-.04-.16-.12s.03-.11,.86-.52c.23-.11,.44-.21,.52-.26,.52-.31,1.31-.89,1.31-1.08,0-.06-.18-.3-.24-.38l-.04-.06c-.08-.12-.18-.27-.28-.42-.11-.18-.23-.36-.32-.49-.05-.06-.06-.07-.1-.07-.06,.02-.3,.26-.48,.43-.41,.41-.69,.67-.88,.67-.06,0-.13-.06-.13-.15,0-.09,.09-.19,.28-.41,.04-.05,.08-.09,.09-.11,.67-.87,1.32-2.25,1.32-2.64,0-.02,0-.05,0-.08,0-.1-.01-.16,0-.2,0-.08,.07-.13,.17-.13,.11,0,.99,.36,1.03,.38,.13,.06,.23,.11,.23,.25,0,.14-.06,.18-.27,.31h-.02c-.19,.15-.67,.75-.69,.86,0,.02,.04,.03,.14,.03h1.74c.54,0,.54,0,.63-.15,.25-.41,.29-.47,.43-.47,.22,0,1.03,.65,1.03,.89s-.23,.23-.58,.23h-.5s-.08,0-.11,0c0,0,0,0,0,0,.09,.08,.17,.15,.17,.27,0,.08-.04,.2-.23,.26-.28,.11-.33,.16-.79,.68-.07,.07-.35,.37-.39,.43,0,.01-.02,.02-.03,.03,0,0-.02,.04-.02,.05,.04,.17,1.26,.78,2.38,1.02l.16,.03c.17,.03,.23,.05,.23,.14Zm-2.87-2.92h-1.42c-.21,0-.21,.01-.21,.05,.02,.16,.81,1.19,1.03,1.19,.14-.02,.78-.85,.78-1.13,0-.08-.04-.11-.18-.11Zm13.68,1.31c-.15,0-.2,.06-.55,.46-.15,.17-.16,.17-.7,.17h-2.34c-.29,0-.29-.07-.29-.44,0-1.7,.03-2.4,.05-2.48,.01-.02,.09-.1,.15-.15,.16-.15,.27-.25,.27-.35,0-.17-.23-.23-.57-.34-.18-.05-1.05-.27-1.09-.27-.1,0-.18,.07-.18,.16,0,.05,.03,.22,.08,.47,.04,.19,.08,.41,.09,.48,.06,.93,.1,1.82,.1,2.66,0,.23-.12,.25-.27,.25h-2.4c-.54,0-1.03-.01-1.63-.03-.07-.01-.45-.05-.54-.05-.08,0-.13,.05-.13,.12,0,.05,.02,.07,.08,.13l.23,.28s.08,.11,.17,.11c.04,0,.2-.02,.26-.04,.03,0,.07,0,.13,0,.19,0,.58-.02,1.37-.02h2.47c.25,0,.26,.06,.26,.51,0,2.15-.03,3.95-.04,4.45v.02c-.02,.24-.15,.24-.29,.24h-1.67c-.5,0-.95-.02-1.46-.04h-.18s-.14-.02-.24-.02c-.12,0-.24-.02-.29-.02-.11,0-.12,.08-.12,.11,0,.05,.02,.07,.07,.14l.23,.27s.08,.11,.18,.11c.02,0,.08,0,.14-.01,.05,0,.1-.01,.13-.01,.13-.01,.49-.04,1.5-.04h6.77c.44,0,.73,0,.73-.26s-1.14-.88-1.21-.88c-.14,0-.19,.06-.51,.43l-.04,.05c-.14,.17-.16,.17-.7,.17h-1.61c-.26,0-.29-.12-.29-.24v-4.69c0-.28,.11-.3,.3-.3h4.07c.44,0,.73,0,.73-.26,0-.23-1.13-.88-1.21-.88Zm3.96-1.69c.16,.28,.25,.45,.51,.45,.32,0,.48-.31,.48-.63,0-.43-.32-.84-.85-1.05-.21-.09-.86-.2-1-.2-.16,0-.18,.08-.18,.13,0,.04,.02,.07,.07,.12,.14,.12,.58,.47,.97,1.18Zm0,6.28c0-.36,.03-.44,.38-1.33,.01-.04,1.31-3.54,1.31-3.68,0-.09-.07-.16-.16-.16-.12,0-.15,.06-.21,.19l-.03,.06c-.05,.12-.13,.28-.21,.44-.08,.16-.16,.32-.21,.45-.91,2.02-1.56,3.48-1.96,3.69l.04,.08-.04-.08s-.08,.02-.13,.03c-.21,.05-.38,.09-.38,.21,0,.08,.08,.14,.28,.27,.05,.03,.09,.06,.1,.07,.42,.48,.42,.82,.42,1.55,0,.44,.17,.9,.66,.9,.32,0,.61-.32,.61-.66,0-.13-.04-.31-.12-.51-.32-.9-.36-1.01-.36-1.53Zm-1.06-3.61c.17,.36,.27,.54,.5,.54,.3,0,.55-.29,.55-.64,0-.73-.93-1.27-1.77-1.27-.09,0-.25,.02-.28,.13,0,.03,0,.06,.02,.08,.01,.01,.16,.14,.21,.18,.41,.36,.62,.72,.75,.99Zm9.16,.36c-.1,0-.2,.12-.4,.36-.06,.08-.13,.16-.17,.19-.07,.07-.09,.07-.6,.07h-1.13c-.21,0-.27-.03-.3-.15,0-.06-.01-.83-.01-1.96,0-.22,.13-.24,.3-.24h2.09c.44,0,.73,0,.73-.25,0-.16-.88-.84-1.02-.84-.1,0-.19,.11-.38,.37-.05,.07-.11,.15-.13,.17-.08,.07-.11,.07-.61,.07h-.67c-.07,0-.18,0-.23-.06-.04-.04-.05-.1-.05-.18,0-.04,.04-.9,.04-1.08s0-.25,.04-.37c0-.02,.06-.08,.09-.12,.09-.12,.14-.18,.14-.24,0-.31-1.26-.47-1.27-.47-.1,0-.15,.06-.15,.17,0,.02,0,.06,.05,.33,.02,.11,.03,.23,.04,.26,.04,.39,.04,1.09,.04,1.5,0,.24-.12,.26-.26,.26h-.26c-.56,0-1.11-.02-1.64-.05-.04,0-.15,0-.26-.02-.12,0-.23-.02-.28-.02-.11,0-.12,.08-.12,.11,0,.05,.02,.07,.07,.14l.24,.27s.08,.11,.17,.11c.02,0,.07,0,.12-.01,.06,0,.12-.01,.15-.01,.42-.04,1.24-.04,1.5-.04h.34c.18,0,.25,.08,.25,.27,0,1.1,0,1.79-.02,1.89-.02,.14-.08,.18-.29,.18h-.89c-.56,0-1.11-.02-1.64-.05-.04,0-.15,0-.26-.02-.12,0-.23-.02-.28-.02-.11,0-.12,.08-.12,.11,0,.05,.02,.07,.07,.14l.24,.29c.05,.05,.09,.09,.17,.09,.02,0,.08,0,.14-.01,.05,0,.1-.01,.12-.01,.42-.04,1.24-.04,1.52-.04h.64c.21,0,.27,.03,.27,.12,0,.13-.46,1.16-.97,2.13-.48,.93-.52,.98-.75,.98-.29,0-.51-.01-.8-.05l-.1-.02c-.21-.04-.41-.07-.49-.07-.09,0-.13,.06-.13,.12,0,.01,.31,1.35,.6,1.35,.05,0,.12-.04,.24-.12,.03-.02,.06-.04,.08-.05,.14-.09,.46-.18,.58-.22,.27-.07,1.26-.22,2.05-.33,.42-.06,.78-.12,.94-.14,.13-.02,.46-.09,.82-.16,.44-.09,1.03-.21,1.1-.21,.17,0,.22,.1,.3,.43,.21,.94,.24,1.08,.56,1.08,.27,0,.67-.21,.67-.78,0-1.25-1.81-2.99-2.13-2.99-.03,0-.06,.02-.08,.05v.02s-.02,.03-.02,.05c.01,.06,.09,.24,.24,.58,.17,.38,.45,1.02,.45,1.15,0,.05,0,.09-.32,.11-.19,0-.67,.03-1.23,.07-.99,.05-2.22,.12-2.52,.13,.02-.03,.06-.07,.11-.13l.03-.04c.38-.44,.91-1.12,1.27-1.69,.29-.47,.32-.5,.4-.52,.23-.05,.39-.08,.39-.25,0-.1-.12-.26-.37-.56,0,0-.02-.02-.02-.03h3.31c.44,0,.73,0,.73-.25,0-.2-.87-.85-1-.85Zm13.06,4.8c-1.61-.42-2.88-2.2-3.36-2.96-1.55-2.54-1.72-5.36-1.73-5.45,0-.06,0-.07,.02-.09,.02-.02,.06-.03,.14-.04,.07-.02,.27-.06,.27-.28,0-.29-.29-.37-.88-.53-.04,0-.14-.04-.25-.07-.3-.09-.42-.12-.46-.12-.09,0-.18,.08-.18,.18,0,.05,.04,.23,.05,.26,.05,.24,.05,.37,.05,.72,0,.36-.04,3.61-1.36,6.13-.84,1.61-2.25,2.67-2.81,3.05-.12,.08-.2,.14-.2,.22,0,.07,.05,.15,.16,.15,.15,0,2.27-.73,3.57-2.9,1.22-2.01,1.52-4.85,1.55-5.17v-.09s.02-.06,.02-.09c.18,2.37,.89,3.94,1.13,4.47l.02,.04c1.17,2.56,2.73,3.54,2.81,3.54,.06,0,.09-.02,.22-.12l.13-.1c.13-.09,.4-.26,.8-.35l.12-.03c.3-.06,.37-.08,.37-.2,0-.11-.12-.15-.18-.17Z"/>
      <path class="cls-1" d="M46.99,39.04c-.05-.13-.35-.92-.35-.96,0-.11,.09-.15,.15-.15,.08,0,.09,.04,.26,.3,.31,.49,.94,.96,1.66,.96,.47,0,1.04-.32,1.04-1.06,0-.64-.42-.87-1.32-1.18-.98-.34-1.63-.71-1.63-1.55,0-.73,.51-1.37,1.41-1.37,.14,0,.32,.02,.5,.06,.08,.01,.37,.08,.42,.08,.06,0,.11-.01,.15-.04,.1-.08,.11-.09,.16-.09,.08,0,.11,.06,.18,.25,.05,.11,.38,.94,.38,.99,0,.09-.08,.11-.12,.11-.06,0-.07-.02-.18-.2-.19-.3-.57-.91-1.44-.91-.79,0-.96,.63-.96,.93,0,.58,.42,.8,1.35,1.12,1.42,.49,1.61,1.06,1.61,1.6,0,.95-.75,1.52-1.53,1.52-.25,0-.5-.05-.76-.14-.19-.06-.24-.07-.28-.07-.11,0-.2,.03-.27,.09-.12,.11-.13,.12-.2,.12-.09,0-.11-.04-.24-.39Zm3.66-2.84c-.08,0-.19,0-.19-.11,0-.09,.04-.1,.24-.13,.11-.01,.7-.15,.7-1.06,0-.06,0-.16,.09-.16,.11,0,.11,.11,.11,.15v.91c0,.06,.02,.18,.18,.18h.75c.07,0,.2,.01,.2,.11,0,.04-.04,.11-.19,.11h-.75s-.13,0-.16,.09c-.03,.08-.03,.87-.03,1.01,0,.21,0,1.34,.02,1.44,.09,.39,.42,.39,.49,.39,.15,0,.32-.06,.47-.18,.04-.03,.2-.19,.25-.19,.03,0,.04,.03,.04,.06,0,.13-.44,.61-1.03,.61-.74,0-.74-.56-.74-1.27,0-.02,.01-1.55,0-1.79,0-.04,0-.18-.18-.18h-.27Zm2.65,3.1s-.18,0-.18-.11,.07-.11,.27-.11c.08,0,.23,0,.32-.16,.06-.1,.08-.18,.08-1.17,0-.23,0-1.25-.04-1.37-.02-.08-.11-.13-.22-.13-.05,0-.29,.06-.34,.06-.04,0-.07-.04-.07-.07,0-.06,.04-.06,.35-.16,.1-.03,.74-.23,.77-.23,.02,0,.03,0,.04,.02v.31c0,.37,0,.42,.07,.42,.03,0,.05-.01,.15-.14,.06-.08,.48-.61,.99-.61,.26,0,.42,.16,.42,.4s-.18,.37-.35,.37c-.15,0-.22-.08-.27-.15-.04-.04-.11-.12-.2-.12-.18,0-.46,.21-.6,.46-.17,.3-.2,.47-.2,1.51,0,.64,.02,.76,.51,.76,.06,0,.15,.02,.15,.11,0,.11-.13,.11-.18,.11h-1.45Zm5.53-2.5c0,.24,0,1.39,0,1.65,0,.33,0,.63,.28,.63,.07,0,.18-.04,.23-.08,0,0,.05-.04,.06-.04,.01,0,.04,0,.04,.04,0,.13-.29,.44-.59,.44-.23,0-.41-.17-.46-.32-.01-.05-.04-.11-.1-.11-.04,0-.11,.05-.17,.1-.27,.21-.62,.33-.93,.33-.42,0-.89-.23-.89-.75,0-.84,1.18-1.2,1.59-1.32,.42-.13,.46-.14,.46-.51,0-.61-.34-.83-.66-.83-.47,0-.54,.33-.56,.43-.05,.21-.1,.46-.37,.46-.18,0-.33-.15-.33-.35,0-.42,.68-.74,1.27-.74,.56,0,1.14,.25,1.16,.96Zm-.55,1.89c.04-.08,.05-.11,.05-.94,0-.14,0-.26-.15-.26-.25,0-1.31,.47-1.31,1.13,0,.19,.12,.51,.61,.51,.24,0,.7-.21,.8-.44Zm3.89,.61c-.06,0-.13-.02-.13-.1-.01-.09-.02-.13-.06-.13s-.2,.15-.24,.18c-.27,.17-.53,.19-.68,.19-1.01,0-1.38-.95-1.38-1.8,0-1.34,.87-1.79,1.47-1.79,.08,0,.2,0,.37,.06,.06,.02,.35,.2,.43,.2,.08,0,.09-.11,.09-.17,0-.08,0-.53,0-.63,0-.31,0-.82-.44-.82-.04,0-.19,.02-.2,.02-.03,0-.07-.02-.07-.06,0-.06,.04-.07,.32-.16,.09-.03,.78-.25,.82-.25,.01,0,.03,0,.06,.04,.02,.03,.02,.47,.02,.55,0,.52-.01,3.07-.01,3.65,0,.37,0,.8,.4,.81,.12,0,.25,0,.25,.13,0,.02-.02,.1-.11,.1h-.89Zm-.17-.78c.03-.15,.03-.89,.03-1.34,0-.39,0-.56-.16-.76-.11-.15-.29-.27-.56-.27-.55,0-1.05,.57-1.05,1.56,0,.73,.3,1.43,.94,1.43,.24,0,.71-.13,.8-.61Zm4.08-1.72c0,.24,0,1.39,0,1.65,0,.33,0,.63,.28,.63,.07,0,.18-.04,.23-.08,0,0,.05-.04,.06-.04,.01,0,.04,0,.04,.04,0,.13-.29,.44-.59,.44-.23,0-.41-.17-.46-.32-.01-.05-.04-.11-.1-.11-.04,0-.11,.05-.17,.1-.27,.21-.62,.33-.93,.33-.42,0-.89-.23-.89-.75,0-.84,1.18-1.2,1.59-1.32,.42-.13,.46-.14,.46-.51,0-.61-.34-.83-.66-.83-.47,0-.54,.33-.56,.43-.05,.21-.1,.46-.37,.46-.18,0-.33-.15-.33-.35,0-.42,.68-.74,1.28-.74,.56,0,1.14,.25,1.15,.96Zm-.55,1.89c.04-.08,.05-.11,.05-.94,0-.14,0-.26-.15-.26-.25,0-1.31,.47-1.31,1.13,0,.19,.12,.51,.61,.51,.24,0,.7-.21,.8-.44Zm3.43,.35c-.05-.13-.35-.92-.35-.96,0-.11,.09-.15,.15-.15,.08,0,.09,.04,.26,.3,.31,.49,.94,.96,1.66,.96,.47,0,1.04-.32,1.04-1.06,0-.64-.42-.87-1.32-1.18-.98-.34-1.63-.71-1.63-1.55,0-.73,.51-1.37,1.41-1.37,.14,0,.32,.02,.5,.06,.08,.01,.37,.08,.42,.08,.06,0,.11-.01,.15-.04,.1-.08,.11-.09,.16-.09,.08,0,.11,.06,.18,.25,.05,.11,.38,.94,.38,.99,0,.09-.08,.11-.12,.11-.06,0-.07-.02-.18-.2-.19-.3-.57-.91-1.44-.91-.79,0-.96,.63-.96,.93,0,.58,.42,.8,1.34,1.12,1.42,.49,1.61,1.06,1.61,1.6,0,.95-.75,1.52-1.53,1.52-.25,0-.5-.05-.76-.14-.19-.06-.24-.07-.28-.07-.11,0-.2,.03-.27,.09-.12,.11-.13,.12-.2,.12-.09,0-.11-.04-.24-.39Zm5.06-3.2c.9,0,1.56,.78,1.56,1.8s-.65,1.8-1.56,1.8-1.56-.79-1.56-1.8,.64-1.8,1.56-1.8Zm0,3.4c.59,0,.96-.76,.96-1.61s-.37-1.61-.96-1.61c-.54,0-.96,.66-.96,1.61,0,.83,.36,1.61,.96,1.61Zm3.45,.19c-.65,0-1.46-.42-1.46-1.72,0-1.08,.61-1.87,1.63-1.87,.56,0,1.09,.28,1.09,.67,0,.24-.18,.37-.38,.37-.29,0-.32-.25-.33-.42-.04-.42-.44-.42-.48-.42-.51,0-.94,.65-.94,1.57s.48,1.53,1.07,1.53c.34,0,.71-.19,.94-.48,.06-.08,.09-.12,.15-.12,.03,0,.07,.02,.07,.08,0,.11-.49,.82-1.36,.82Zm1.87-.13c-.06,0-.16,0-.16-.11,0-.11,.08-.11,.22-.12,.09,0,.22-.04,.28-.2,.06-.12,.06-1.15,.06-1.4,0-.2,0-1.01-.04-1.11-.03-.08-.11-.12-.2-.12-.04,0-.21,.02-.22,.02-.03,0-.06-.01-.06-.06s.03-.06,.35-.16c.09-.03,.53-.19,.58-.19,.07,0,.07,.06,.07,.13,0,.32,0,1.9,0,2.26,0,.51,0,.81,.32,.83,.14,0,.23,.01,.23,.12,0,.11-.12,.11-.17,.11h-1.25Zm.23-4.86c0-.23,.18-.41,.41-.4,.23,0,.41,.18,.41,.4s-.18,.41-.41,.41-.41-.18-.41-.41Zm4.06,2.36c0,.24,0,1.39,0,1.65,0,.33,0,.63,.28,.63,.07,0,.18-.04,.23-.08,0,0,.05-.04,.06-.04,.01,0,.04,0,.04,.04,0,.13-.29,.44-.59,.44-.23,0-.41-.17-.46-.32-.01-.05-.04-.11-.1-.11-.04,0-.11,.05-.17,.1-.27,.21-.62,.33-.93,.33-.42,0-.89-.23-.89-.75,0-.84,1.18-1.2,1.59-1.32,.42-.13,.46-.14,.46-.51,0-.61-.34-.83-.66-.83-.46,0-.54,.33-.56,.43-.05,.21-.1,.46-.37,.46-.18,0-.33-.15-.33-.35,0-.42,.68-.74,1.27-.74,.56,0,1.14,.25,1.16,.96Zm-.55,1.89c.03-.08,.05-.11,.05-.94,0-.14,0-.26-.15-.26-.25,0-1.31,.47-1.31,1.13,0,.19,.12,.51,.61,.51,.24,0,.7-.21,.8-.44Zm1.34,.61s-.17,0-.17-.11c0-.12,.11-.12,.2-.12,.1,0,.27-.04,.33-.26,.04-.15,.04-2.65,.04-3.03,0-.2,0-1.1-.04-1.23-.01-.04-.06-.12-.2-.12-.03,0-.19,.02-.23,.02s-.06-.03-.06-.06c0-.06,.23-.13,.35-.17,.05-.01,.64-.2,.65-.2,.04,0,.04,.02,.04,.16,0,.56-.01,3.27-.01,3.88,0,.75,0,.98,.37,1,.15,0,.23,0,.23,.12,0,.11-.09,.11-.18,.11h-1.31Zm3.95,0c-.09,0-.2,0-.2-.11s.06-.11,.33-.11c.2,0,.54,0,.61-.37,.02-.12,.02-1.74,.02-1.94,0-.29,0-1.88-.02-2.01-.07-.36-.32-.36-.79-.36-.04,0-.15,0-.15-.11,0-.12,.11-.12,.2-.12h2.07c.08,0,.19,0,.19,.12,0,.11-.06,.11-.32,.11-.21,0-.51,0-.61,.32-.03,.1-.03,1.68-.03,2.01,0,1.87,0,1.87,.02,1.99,.06,.37,.32,.37,.79,.37,.03,0,.15,0,.15,.11s-.11,.11-.19,.11h-2.08Zm4.53,0c-.13,0-.13-.1-.13-.11,0-.1,.09-.11,.13-.11,.18-.02,.25-.03,.34-.15,.07-.11,.07-.23,.07-1.37,0-.67,0-.93-.15-1.16-.15-.24-.38-.26-.46-.26-.23,0-.52,.12-.72,.32-.21,.22-.21,.32-.21,1.13,0,.18,0,1.04,.02,1.17,.04,.23,.16,.3,.35,.31,.07,0,.19,0,.19,.11,0,.01,0,.11-.14,.11h-1.31c-.14,0-.14-.1-.14-.11,0-.12,.08-.12,.19-.12,.18,0,.28-.11,.32-.21,.06-.16,.06-1.1,.06-1.34,0-1.14,0-1.32-.32-1.32-.03,0-.18,.03-.2,.03s-.07,0-.07-.06,.03-.06,.28-.12c.11-.03,.7-.2,.73-.2,.07,0,.07,.03,.07,.31,0,.1,0,.15,.05,.15s.25-.18,.29-.21c.28-.18,.53-.25,.79-.25,.51,0,.72,.27,.79,.47,.1,.27,.1,.39,.1,1.49,0,.21,0,.94,.05,1.06,.01,.05,.09,.2,.32,.21,.11,0,.2,0,.2,.12,0,.11-.08,.11-.14,.11h-1.32Zm3.34-3.32c.06,.02,.08,.04,.13,.04,.09,0,.15-.04,.2-.1,.05-.05,.07-.07,.1-.07,.04,0,.06,.04,.08,.09,.06,.16,.38,.93,.38,1.01,0,.04-.01,.07-.06,.07-.07,0-.08-.03-.25-.28-.08-.13-.59-.7-1.04-.7-.26,0-.61,.18-.61,.57,0,.29,.19,.45,.9,.7,.82,.29,1.23,.55,1.23,1.11,0,.47-.33,1.02-1.08,1.02-.19,0-.27-.02-.57-.11-.04-.01-.09-.02-.13-.02-.1,0-.17,.03-.21,.04-.13,.06-.22,.09-.25,.09-.06,0-.08-.06-.12-.15-.06-.16-.34-.87-.34-.96,0-.04,.01-.12,.08-.12,.08,0,.13,.08,.25,.28,.31,.54,.97,.75,1.3,.75,.35,0,.61-.3,.61-.64,0-.32-.2-.49-1.02-.77-.74-.26-1.11-.51-1.11-1.05s.4-.94,.93-.94c.24,0,.34,.04,.61,.13Zm4.03,3.32c-.08,0-.13-.06-.13-.14,0-.16,0-.21-.06-.21-.04,0-.18,.14-.22,.16-.09,.06-.44,.32-.86,.32-.2,0-.95-.07-1-1.09,0-.15,0-.87,0-1.03s0-.93-.04-1.02c-.03-.08-.11-.09-.18-.09-.03,0-.18,.01-.21,.01-.05,0-.07-.03-.07-.06,0-.06,.03-.06,.28-.13,.21-.06,.63-.18,.64-.18,.02,0,.06,.01,.06,.06,0,0,0,1.83,0,2.04,0,.42,0,.6,.07,.78,.11,.29,.37,.42,.61,.42,.3,0,.75-.25,.87-.51,.09-.18,.1-1.25,.1-1.5,0-.7,0-.92-.27-.92-.03,0-.2,.02-.24,.02-.07,0-.08-.04-.08-.06,0-.08,.05-.09,.51-.2,.12-.03,.46-.12,.49-.12s.06,.03,.06,.06c.01,.06,0,1.2,0,1.42,0,.18,.01,1.08,.01,1.29,0,.15,0,.46,.35,.46,.08,0,.19,0,.19,.12,0,.05-.04,.11-.12,.11h-.8Zm1.28,0s-.18,0-.18-.11,.07-.11,.27-.11c.08,0,.23,0,.32-.16,.06-.1,.08-.18,.08-1.17,0-.23,0-1.25-.04-1.37-.02-.08-.11-.13-.22-.13-.05,0-.29,.06-.34,.06-.04,0-.07-.04-.07-.07,0-.06,.03-.06,.34-.16,.1-.03,.74-.23,.77-.23,.02,0,.03,0,.04,.02v.31c0,.37,0,.42,.07,.42,.04,0,.05-.01,.15-.14,.06-.08,.48-.61,.99-.61,.26,0,.42,.16,.42,.4s-.18,.37-.35,.37c-.15,0-.22-.08-.27-.15-.04-.04-.11-.12-.2-.12-.18,0-.46,.21-.6,.46-.17,.3-.2,.47-.2,1.51,0,.64,.02,.76,.51,.76,.06,0,.15,.02,.15,.11,0,.11-.13,.11-.18,.11h-1.45Zm5.49-2.5c0,.24,0,1.39,0,1.65,0,.33,0,.63,.28,.63,.07,0,.18-.04,.23-.08,0,0,.05-.04,.06-.04,.01,0,.04,0,.04,.04,0,.13-.29,.44-.59,.44-.23,0-.41-.17-.46-.32-.01-.05-.04-.11-.1-.11-.04,0-.11,.05-.17,.1-.27,.21-.62,.33-.93,.33-.42,0-.89-.23-.89-.75,0-.84,1.18-1.2,1.59-1.32,.42-.13,.46-.14,.46-.51,0-.61-.34-.83-.66-.83-.46,0-.54,.33-.56,.43-.05,.21-.1,.46-.37,.46-.18,0-.33-.15-.33-.35,0-.42,.68-.74,1.27-.74,.56,0,1.14,.25,1.16,.96Zm-.55,1.89c.03-.08,.05-.11,.05-.94,0-.14,0-.26-.15-.26-.25,0-1.31,.47-1.31,1.13,0,.19,.12,.51,.61,.51,.24,0,.7-.21,.8-.44Zm3.41,.61c-.13,0-.13-.1-.13-.11,0-.1,.09-.11,.13-.11,.18-.02,.25-.03,.34-.15,.07-.11,.07-.23,.07-1.37,0-.67,0-.93-.15-1.16-.15-.24-.38-.26-.46-.26-.23,0-.52,.12-.72,.32-.21,.22-.21,.32-.21,1.13,0,.18,0,1.04,.02,1.17,.04,.23,.16,.3,.35,.31,.07,0,.19,0,.19,.11,0,.01,0,.11-.14,.11h-1.31c-.14,0-.14-.1-.14-.11,0-.12,.08-.12,.19-.12,.18,0,.28-.11,.32-.21,.06-.16,.06-1.1,.06-1.34,0-1.14,0-1.32-.32-1.32-.03,0-.18,.03-.2,.03s-.07,0-.07-.06,.03-.06,.28-.12c.11-.03,.7-.2,.73-.2,.07,0,.07,.03,.07,.31,0,.1,0,.15,.05,.15s.25-.18,.29-.21c.28-.18,.53-.25,.79-.25,.51,0,.72,.27,.79,.47,.1,.27,.1,.39,.1,1.49,0,.21,0,.94,.05,1.06,.01,.05,.08,.2,.32,.21,.11,0,.2,0,.2,.12,0,.11-.08,.11-.14,.11h-1.32Zm3.29,.13c-.66,0-1.46-.42-1.46-1.72,0-1.08,.61-1.87,1.63-1.87,.56,0,1.09,.28,1.09,.67,0,.24-.18,.37-.38,.37-.29,0-.32-.25-.33-.42-.04-.42-.44-.42-.48-.42-.51,0-.94,.65-.94,1.57s.48,1.53,1.07,1.53c.34,0,.71-.19,.94-.48,.06-.08,.09-.12,.15-.12,.03,0,.07,.02,.07,.08,0,.11-.49,.82-1.36,.82Zm2.72-1.98c-.09,0-.23,0-.23,.23,0,.86,.58,1.45,1.17,1.45,.32,0,.63-.19,.85-.39,.04-.03,.2-.27,.27-.27,.04,0,.07,.04,.07,.09,0,.15-.49,.88-1.42,.88-.99,0-1.54-.78-1.54-1.8,0-1.17,.73-1.79,1.49-1.79,1.09,0,1.4,1.16,1.4,1.45,0,.13-.07,.16-.21,.16h-1.85Zm1.3-.23c.15,0,.23-.04,.23-.2,0-.27-.25-.99-.85-.99-.66,0-.86,.88-.86,1.04s.12,.15,.18,.15h1.29Zm4.93,1.85c.44,0,1.24-.14,1.77-.96,.13-.2,.15-.22,.2-.22,.04,0,.11,.02,.11,.11,0,.04-.27,.73-.31,.85-.18,.44-.2,.45-.66,.45h-2.95c-.11,0-.2,0-.2-.11s.08-.11,.25-.11,.47-.02,.54-.37c.02-.12,.02-1.74,.02-1.94,0-.28,0-1.88-.02-2.01-.06-.36-.37-.36-.63-.36-.05,0-.15,0-.15-.11,0-.12,.1-.12,.2-.12h1.75c.11,0,.21,0,.21,.12,0,.11-.08,.11-.25,.11-.15,0-.47,.01-.53,.36-.02,.13-.02,1.63-.02,1.96,0,1.87,0,1.88,.02,1.99,.06,.33,.35,.37,.49,.37h.19Zm4.98-2.28c0,.24,0,1.39,0,1.65,0,.33,0,.63,.28,.63,.07,0,.18-.04,.23-.08,0,0,.05-.04,.06-.04,.01,0,.04,0,.04,.04,0,.13-.29,.44-.59,.44-.23,0-.41-.17-.46-.32-.01-.05-.04-.11-.1-.11-.04,0-.11,.05-.17,.1-.27,.21-.62,.33-.93,.33-.42,0-.89-.23-.89-.75,0-.84,1.18-1.2,1.59-1.32,.42-.13,.46-.14,.46-.51,0-.61-.34-.83-.66-.83-.47,0-.54,.33-.56,.43-.05,.21-.1,.46-.37,.46-.18,0-.33-.15-.33-.35,0-.42,.68-.74,1.27-.74,.56,0,1.14,.25,1.16,.96Zm-.55,1.89c.04-.08,.05-.11,.05-.94,0-.14,0-.26-.15-.26-.25,0-1.31,.47-1.31,1.13,0,.19,.12,.51,.61,.51,.24,0,.7-.21,.8-.44Zm2.05,.58c-.13,.15-.14,.16-.17,.16-.05,0-.05-.08-.05-.11,0-.12,0-.69,0-.82,0-.41,0-3.72-.01-3.8-.04-.25-.23-.3-.36-.3-.02,0-.13,.01-.15,.01-.06,0-.08-.03-.08-.06,0-.05,.03-.06,.28-.13,.25-.07,.73-.2,.76-.2,.03,0,.05,.02,.06,.04,.01,.02,.01,.07,.01,1.2v.75s.02,.13,.09,.13c.04,0,.29-.12,.3-.13,.27-.13,.51-.17,.66-.17,.67,0,1.35,.64,1.35,1.73,0,.99-.59,1.86-1.38,1.86-.32,0-.65-.15-.82-.29-.06-.05-.13-.1-.21-.1s-.13,.06-.27,.23Zm.52-2.87c-.22,.23-.23,.39-.23,1.39,0,.41,0,.71,.13,.95,.16,.3,.49,.39,.7,.39,.61,0,.97-.66,.97-1.48s-.37-1.51-.97-1.51c-.21,0-.45,.1-.61,.25Zm4.08-.56c.9,0,1.56,.78,1.56,1.8s-.66,1.8-1.56,1.8-1.56-.79-1.56-1.8,.64-1.8,1.56-1.8Zm0,3.4c.59,0,.96-.76,.96-1.61s-.37-1.61-.96-1.61c-.53,0-.96,.66-.96,1.61,0,.83,.36,1.61,.96,1.61Zm2.01,.06s-.18,0-.18-.11,.07-.11,.27-.11c.08,0,.23,0,.32-.16,.06-.1,.08-.18,.08-1.17,0-.23,0-1.25-.04-1.37-.02-.08-.11-.13-.22-.13-.05,0-.29,.06-.34,.06-.04,0-.07-.04-.07-.07,0-.06,.03-.06,.34-.16,.1-.03,.74-.23,.77-.23,.02,0,.03,0,.04,.02v.31c0,.37,0,.42,.07,.42,.04,0,.05-.01,.15-.14,.06-.08,.48-.61,.99-.61,.26,0,.42,.16,.42,.4s-.18,.37-.35,.37c-.15,0-.22-.08-.27-.15-.04-.04-.11-.12-.2-.12-.18,0-.46,.21-.6,.46-.17,.3-.2,.47-.2,1.51,0,.64,.02,.76,.51,.76,.06,0,.15,.02,.15,.11,0,.11-.13,.11-.18,.11h-1.45Zm8.87-5.18s.46,1.11,.46,1.19-.07,.13-.13,.13-.08-.02-.23-.23c-.6-.84-1.23-.94-1.52-.94-1.11,0-1.68,1.35-1.68,2.57,0,1.63,.96,2.27,1.8,2.27,.49,0,1.06-.21,1.52-1,.16-.27,.16-.28,.22-.28s.11,.05,.11,.11-.18,.43-.4,.71c-.59,.73-1.34,.78-1.66,.78-1.49,0-2.21-1.2-2.21-2.58,0-1.65,1.02-2.82,2.21-2.82,.18,0,.38,.03,.6,.08,.05,.02,.38,.11,.42,.11,.06,0,.14-.02,.19-.07,.11-.11,.13-.13,.18-.13,.04,0,.1,.04,.12,.08Zm2.32,1.73c.9,0,1.56,.78,1.56,1.8s-.66,1.8-1.56,1.8-1.56-.79-1.56-1.8,.64-1.8,1.56-1.8Zm0,3.4c.59,0,.96-.76,.96-1.61s-.37-1.61-.96-1.61c-.53,0-.96,.66-.96,1.61,0,.83,.36,1.61,.96,1.61Zm2.01,.06s-.18,0-.18-.11,.07-.11,.27-.11c.08,0,.23,0,.32-.16,.06-.1,.08-.18,.08-1.17,0-.23,0-1.25-.04-1.37-.02-.08-.11-.13-.22-.13-.05,0-.29,.06-.34,.06-.04,0-.07-.04-.07-.07,0-.06,.03-.06,.34-.16,.1-.03,.74-.23,.77-.23,.02,0,.03,0,.04,.02v.31c0,.37,0,.42,.07,.42,.04,0,.05-.01,.15-.14,.06-.08,.48-.61,.99-.61,.26,0,.42,.16,.42,.4s-.18,.37-.35,.37c-.15,0-.22-.08-.27-.15-.04-.04-.11-.12-.2-.12-.18,0-.46,.21-.6,.46-.17,.3-.2,.47-.2,1.51,0,.64,.02,.76,.51,.76,.06,0,.15,.02,.15,.11,0,.11-.13,.11-.18,.11h-1.45Zm3.06,1.16c-.06,0-.19-.01-.19-.11,0-.11,.13-.11,.25-.12,.17,0,.3-.08,.34-.3,.02-.13,.02-2.44,.02-2.87,0-.62,0-.82-.25-.82-.04,0-.25,.05-.3,.05-.04,0-.06-.03-.06-.06,0-.05,.03-.06,.16-.11,.08-.02,.87-.28,.89-.28,.05,0,.05,.06,.05,.2,0,.11,0,.15,.06,.15,0,0,.23-.13,.25-.14,.13-.08,.42-.21,.74-.21,.73,0,1.4,.64,1.4,1.73,0,.93-.53,1.86-1.41,1.86-.31,0-.58-.09-.68-.13-.04-.02-.21-.11-.26-.11-.09,0-.09,.02-.09,.58,0,.13,0,.44,.35,.46,.2,0,.29,.01,.29,.12s-.13,.11-.2,.11h-1.36Zm1.1-4.04c-.18,.17-.18,.29-.18,1.31s.03,1.06,.18,1.2c.22,.2,.56,.21,.67,.21,.79,0,1.01-.87,1.01-1.49,0-.83-.35-1.5-1-1.5-.23,0-.5,.11-.68,.27Zm2.6,2.56c0-.25,.2-.46,.46-.46s.47,.2,.47,.46-.23,.46-.47,.46-.46-.2-.46-.46Z"/>
      <path class="cls-1" d="M39.47,25.58c0-3.46-2.66-6.3-6.04-6.61-.3-3.38-3.15-6.04-6.61-6.04s-6.31,2.66-6.61,6.04c-3.38,.3-6.04,3.15-6.04,6.61s2.66,6.31,6.04,6.61c.3,3.38,3.15,6.04,6.61,6.04s6.31-2.66,6.61-6.04c3.38-.3,6.04-3.15,6.04-6.61Zm-13.22-.82c-1.82-.61-3.13-2.34-3.13-4.33,0-2.51,2.05-4.56,4.56-4.56,1.99,0,3.72,1.31,4.33,3.13-3,.37-5.39,2.76-5.76,5.76Zm-6.01-4.36c.37,3,2.76,5.39,5.76,5.76-.61,1.82-2.34,3.13-4.33,3.13-2.51,0-4.56-2.05-4.56-4.56,0-1.99,1.31-3.72,3.13-4.33Zm7.16,6.01c1.82,.61,3.13,2.34,3.13,4.33,0,2.51-2.05,4.56-4.56,4.56-1.99,0-3.72-1.31-4.33-3.13,3-.37,5.39-2.76,5.76-5.76Zm6.01,4.36c-.37-3-2.76-5.39-5.76-5.76,.61-1.82,2.34-3.13,4.33-3.13,2.51,0,4.56,2.05,4.56,4.56,0,1.99-1.31,3.72-3.13,4.33Z"/>
    </g>
    <text class="cls-2" transform="translate(221.06 29.45)"><tspan class="cls-3" x="0" y="0">リ</tspan><tspan class="cls-4" x="8.4" y="0">ク</tspan><tspan x="17.5" y="0">ル</tspan><tspan class="cls-10" x="27.5" y="0">ー</tspan><tspan class="cls-6" x="36" y="0">ト</tspan><tspan class="cls-8" x="45.3" y="0">ペ</tspan><tspan class="cls-5" x="55.2" y="0">ー</tspan><tspan class="cls-9" x="64.7" y="0">ジ</tspan></text>
  </g>
</svg>