<?xml version="1.0" encoding="UTF-8"?>
<svg id="_レイヤー_2" data-name="レイヤー 2" xmlns="http://www.w3.org/2000/svg" viewBox="0 0 309.84 51.16">
  <defs>
    <style>
      .cls-1, .cls-2 {
        fill: #fff;
      }

      .cls-2 {
        font-family: GothicMB101Pro-DeBold, 'GothicMB101Pro DeBold';
        font-size: 10px;
        font-weight: 700;
      }

      .cls-3 {
        letter-spacing: -.16em;
      }

      .cls-4 {
        letter-spacing: -.09em;
      }

      .cls-5 {
        fill: #00a159;
      }

      .cls-6 {
        letter-spacing: -.05em;
      }

      .cls-7 {
        letter-spacing: -.07em;
      }

      .cls-8 {
        letter-spacing: -.01em;
      }

      .cls-9 {
        letter-spacing: 0em;
      }

      .cls-10 {
        letter-spacing: -.15em;
      }
    </style>
  </defs>
  <g id="_レイヤー_1-2" data-name="レイヤー 1">
    <rect class="cls-5" width="309.84" height="51.16"/>
    <g>
      <path class="cls-1" d="M55.05,27.44c0,.34-.27,.62-.58,.62s-.4-.12-.84-.91c-.88-1.54-1.97-2.47-2.22-2.47-.1,0-.12,.02-.4,.33l-.07,.08c-.48,.51-1.76,1.86-3.34,2.65-.31,.15-.69,.3-.81,.3-.14,0-.15-.11-.15-.14,0-.11,.61-.52,.61-.52,3.22-2.33,4.77-5.57,4.76-5.83,0-.02-.02-.05-.09-.05-.11,.01-2.66,.6-2.8,.64-.03,.01-.12,.05-.2,.09-.2,.1-.33,.15-.39,.15-.21,0-.82-.39-.91-.47-.1-.1-.32-.68-.32-.78,0-.11,.05-.16,.14-.16,.03,0,.35,.09,.35,.09,.39,.11,.54,.12,.65,.12,.45,0,2.82-.21,3.45-.47,.03-.02,.12-.07,.22-.13,.25-.16,.42-.27,.51-.27,.33,0,1.14,.67,1.14,1.03,0,.09-.12,.21-.4,.45-.07,.06-.14,.11-.16,.14-.2,.23-.84,1.17-1.22,1.73-.11,.16-.19,.28-.24,.35-.04,.05-.09,.13-.09,.22,0,.07,0,.09,.53,.38l.05,.03c.7,.4,2.83,1.63,2.83,2.8Zm3.63-4.78c-.36-.09-.37-.11-.37-.35,0-.32,.05-1.44,.11-1.74v-.02c.11-.31,.16-.47,.16-.54,0-.46-.97-.87-1.43-.87-.15,0-.4,.02-.42,.17,0,.01,0,.02,0,.03l.03,.05s0,.01,.01,.02c.2,.19,.32,.31,.42,.56,.15,.4,.15,.85,.15,4.42,0,1.53-.02,1.87-.11,2.95,0,.02-.01,.11-.02,.17-.02,.1-.03,.16-.03,.19,0,.35,.34,1.26,.77,1.26s.43-.85,.43-1.22c0-.19-.01-.51-.03-.65-.05-1.12-.06-1.79-.06-3.16,0-.88,.05-.88,.12-.88,.35,0,.92,.54,1.3,1.04h.01c.85,1.11,.9,1.18,1.24,1.18,.19,0,.52-.11,.52-.51,0-.97-1.96-1.92-2.79-2.12Zm10.75-.57c-.05,0-.15,.04-.32,.11-.03,.01-.05,.02-.06,.03-.02,0-.1,0-.32,.03-.22,.02-.52,.05-.55,.05-.08,0-.23,.03-.42,.05-.89,.11-2.76,.33-3.61,.33-.51,0-.98-.11-1.24-.21-.01,0-.04-.02-.07-.03-.1-.05-.14-.07-.18-.07-.08,0-.14,.06-.14,.13,0,.41,.94,1.51,1.51,1.51,.06,0,.21-.06,.42-.14,.08-.03,.16-.06,.18-.07,.57-.17,3.76-.72,4.16-.72,.18,0,.2,.1,.2,.18,0,.02-.76,2.82-4.97,5.09-.02,.01-.06,.03-.11,.05-.29,.14-.34,.17-.36,.19-.03,.03-.04,.08-.04,.12,0,.08,.06,.16,.18,.16,.13,0,1.14-.26,2.27-.83,1.74-.89,2.55-1.81,3.6-3.41,.35-.54,.46-.72,.67-.89,.3-.24,.37-.31,.37-.53,0-.33-.95-1.1-1.18-1.1Zm-4.53-1.04c.09,0,2.81-.24,3.03-.27,.75-.06,1.24-.11,1.24-.56,0-.41-.57-.54-.84-.54-.13,0-.53,.09-.97,.19-.13,.03-.23,.05-.28,.06-.63,.12-1.54,.14-2.02,.14-.17,0-.46,0-.66-.05,0,0,0,0,0,0-.03,0-.11-.03-.17-.06-.15-.05-.24-.08-.29-.08-.04,0-.14,.01-.14,.15s.42,1.01,1.12,1.01Zm16.01,2.29s-.08,0-.13,0c-.05,0-.12,0-.15,0-1.85,.1-6.28,.27-6.7,.27-.72,0-1.29-.04-1.54-.11-.02,0-.1-.03-.16-.06-.15-.06-.24-.09-.29-.09-.09,0-.16,.09-.16,.21,0,.46,.6,1.28,1.19,1.28,.1,0,.35-.06,.66-.15,.15-.04,.28-.07,.34-.08,.3-.06,3.24-.23,4.95-.23,.12,0,.48,0,.85,.01,.4,0,.81,.01,.96,.01,.54,0,1.12-.04,1.12-.46,0-.16-.17-.62-.95-.62Zm9.26-2.47c.51,.55,.58,.63,.58,.77,0,.24-.14,.31-.35,.41-.18,.08-.22,.13-.61,.76v.02c-.07,.09-.2,.28-.36,.51-.29,.4-.82,1.15-.82,1.28,0,.09,0,.1,.23,.39l.03,.04c.29,.37,.52,.66,.52,1.12,0,.53-.38,.67-.61,.67-.3,0-.36-.1-.84-.91v-.02c-.07-.11-.18-.26-.25-.26-.08,0-.13,.06-.35,.28l-.05,.06c-2.13,2.3-4.58,3.08-4.73,3.08-.07,0-.12-.02-.15-.06-.02-.02-.04-.07-.02-.13,.02-.07,.05-.08,.17-.15,.04-.02,.08-.05,.14-.08h0c2.57-1.45,4.31-3.52,4.31-3.88,0-.15-.3-.45-.77-.78-.46-.32-.88-.52-1-.52-.11,0-.55,.39-.91,.7-.66,.58-1.11,.96-1.34,.96-.09,0-.13-.06-.13-.13,0-.1,.47-.58,.47-.59,1.56-1.7,2.53-3.45,2.53-4.11,0-.04-.06-.19-.1-.29-.06-.15-.1-.25-.1-.31,0-.14,.2-.14,.3-.14,.71,0,1.2,.53,1.2,.81,0,.05-.03,.13-.07,.27-.03,.08-.07,.2-.07,.23,0,.13,.23,.15,.37,.15,.26,0,1.5-.11,1.76-.33,.22-.18,.28-.2,.4-.2,.27,0,.49,.25,.62,.39Zm-1.21,.66c-.09,0-.4,.04-.7,.08-.35,.04-.71,.09-.84,.09-.18,0-.29-.03-.39-.05-.15-.05-.18-.05-.29-.05-.03,0-.08,0-.11,.03-.12,.13-1.04,1.24-1.06,1.38,0,.12,.06,.15,.36,.27h.04c.39,.16,.5,.22,1.34,.63l.06,.03c.11,.05,.22,.09,.25,.08,.22-.04,1.5-1.94,1.5-2.38,0-.1-.11-.12-.15-.12Zm2.23-3.17c-.22,0-.53,.07-.53,.23,0,.07,.07,.13,.21,.18,.41,.15,.9,.49,1.08,.71,.24,.29,.41,.49,.71,.49,.26,0,.38-.26,.38-.43,0-.57-.7-1.18-1.84-1.18Zm-1,1.07c-.1,0-.29,.03-.29,.15,0,.1,.19,.25,.19,.25,.5,.45,.59,.54,.79,.85,.31,.49,.45,.65,.69,.65,.28,0,.46-.35,.46-.53,0-.74-1.12-1.37-1.83-1.37Zm9.39,7.04c-.17,0-.75,.12-.89,.15-.86,.19-1.36,.23-1.84,.23-1.58,0-1.84-.27-1.84-1.94,0-.49,0-.52,.12-.59,.04-.02,.47-.18,.89-.33,.57-.21,1.21-.44,1.4-.53,.07-.03,.22-.1,.4-.19,.42-.2,1.06-.5,1.27-.55,.36-.08,.6-.12,.6-.47s-.47-1.13-1.37-1.13c-.1,0-.24,0-.24,.11,0,.02,0,.06,.03,.18,.02,.1,.05,.25,.05,.29,0,.65-2.77,1.97-2.96,1.97-.12,0-.18-.05-.18-.17,0-.52,.03-1.66,.08-2.1,0-.05,.05-.18,.09-.3,.07-.21,.12-.36,.12-.43,0-.14-.14-.31-.24-.38-.56-.45-.75-.55-1.13-.55-.1,0-.35,.03-.35,.18,0,.03,0,.05,.1,.22l.12,.23c.14,.26,.32,.73,.32,1.75,0,.2,0,.78-.02,1.38,0,.62-.02,1.26-.02,1.49,0,1.91,.13,2.99,2.75,2.99,.81,0,3.29,0,3.29-1.01,0-.27-.27-.51-.57-.51Zm.06-6.66c-.14,0-.29,.05-.29,.16,0,.02,0,.09,.2,.24,.57,.46,.68,.61,.81,.79l.02,.02c.35,.49,.47,.62,.7,.62,.27,0,.44-.35,.44-.54,0-.58-.87-1.29-1.88-1.29Zm2.94,.01c0-.31-.34-1.12-1.88-1.12-.09,0-.53,.04-.53,.23,0,.07,.06,.15,.21,.2,.34,.11,.89,.42,1.1,.65,.24,.28,.42,.48,.72,.48,.24,0,.38-.23,.38-.44Zm8.25,2.46s-.06,0-.86,.81l-.09,.09c-2.25,2.07-5.67,3.93-6.33,3.93-.07,0-.35-.09-.52-.14-.17-.05-.19-.06-.21-.06-.1,0-.16,.06-.16,.16,0,.05,.02,.16,.07,.25,.02,.04,.07,.11,.15,.23,.05,.07,.11,.15,.12,.18,.26,.56,.42,.87,.73,.87,.16,0,.22-.05,.7-.42,.1-.08,.15-.11,.92-.59,5.04-3.18,5.64-5.16,5.64-5.18,0-.09-.08-.14-.14-.14Zm-7.28,1.81c.19,.32,.27,.42,.5,.42,.35,0,.54-.41,.54-.7,0-.68-.83-1.18-1.38-1.18-.63,0-.95,.08-.95,.25,0,.08,.09,.14,.14,.17,0,0,.01,0,.01,0,.39,.22,.89,.61,1.13,1.02Zm.3-3.44l.04,.02c.51,.18,.77,.31,1.08,.67l.03,.03c.43,.51,.49,.57,.65,.57,.25,0,.48-.31,.48-.66,0-.48-.42-.83-.77-.98-.28-.12-.56-.13-.67-.13-.29,0-1.03,.1-1.03,.33,0,.09,.05,.11,.19,.16Zm4.59-.91h.01c.47,.43,.58,.53,.79,.84,.32,.49,.45,.66,.67,.66,.27,0,.47-.35,.47-.54,0-.7-1.04-1.36-1.84-1.36-.19,0-.29,.05-.29,.15,0,.1,.19,.25,.19,.25Zm1.19-.83c.4,.21,.85,.57,1,.8,.2,.32,.38,.59,.67,.59,.26,0,.4-.24,.4-.47,0-.9-1.31-1.31-1.71-1.31-.27,0-.54,0-.54,.18,0,.03,.01,.12,.17,.21Zm4.83-.09c.75,.5,.97,.71,1.14,.97l.04,.06c.32,.5,.49,.76,.8,.76,.25,0,.54-.25,.54-.57,0-.84-1.28-1.51-2.33-1.51-.1,0-.3,0-.3,.13,0,.06,.05,.11,.09,.14l.02,.02Zm3.75,5.31c-.14,0-.16,.06-.16,.1,0,.06,.06,.15,.23,.37l.02,.03c.72,.83,.79,.92,.97,1.25,.23,.43,.38,.63,.68,.63,.36,0,.54-.39,.54-.6,0-.76-1.13-1.78-2.28-1.78Zm-1.5-2.88c-.13,0-.17,.03-.53,.25l-.03,.02c-.29,.19-2.05,.55-2.73,.55-.23,0-.53-.03-.71-.05h-.07c-.17-.05-.35-.09-.41-.09-.1,0-.18,.07-.18,.16,0,.06,.11,.4,.22,.54,.23,.27,.75,.55,1.01,.55,.08,0,.56-.15,1.33-.41,.44-.15,.95-.31,1-.32,.04,0,.04,.03,.04,.04,0,.06-.16,.35-.37,.68-.81,1.27-1.65,2.1-2.67,2.97-.08,.07-.29,.23-.52,.42-1.12,.89-1.12,.91-1.12,.96,0,.06,.05,.1,.11,.1,.1,0,.4-.13,.48-.17,1.76-.81,2.76-1.82,3.81-2.9l.04-.05c.06-.06,.1-.08,.15-.08,0,0,.14,0,.19,.11,.1,.19,.13,.74,.13,1.2,0,.61-.05,.93-.2,1.91,0,.02-.02,.08-.03,.14-.05,.21-.09,.39-.09,.47,0,.28,.34,1.2,.8,1.2,.27,0,.39-.25,.39-.77,0-.06,0-.24-.02-.43,0-.2-.02-.4-.02-.47-.03-.52-.04-1.55-.04-1.88,0-.47,0-.53,.06-.92,0-.03,.02-.11,.04-.2,.04-.2,.07-.34,.07-.4,0-.36-.48-.56-.61-.59h-.02c-.11-.03-.11-.04-.11-.07,.01-.05,.18-.28,.25-.38l.21-.28c.45-.62,.51-.69,.69-.81,.24-.15,.3-.19,.3-.31,0-.2-.52-.68-.86-.68Zm9.61,3.41l-.05-.03c-.53-.29-.53-.3-.53-.38,0-.09,.05-.17,.09-.22,.04-.06,.12-.18,.22-.33,.36-.53,1.03-1.51,1.23-1.75,.02-.02,.09-.08,.16-.14,.28-.24,.41-.36,.41-.45,0-.35-.81-1.03-1.14-1.03-.09,0-.26,.11-.51,.27-.09,.06-.18,.12-.22,.13-.63,.26-3,.47-3.45,.47-.12,0-.26,0-.65-.12,0,0-.32-.09-.35-.09-.09,0-.14,.05-.14,.16,0,.1,.22,.68,.32,.78,.08,.08,.69,.47,.91,.47,.06,0,.19-.06,.39-.15,.08-.04,.17-.08,.2-.09,.14-.05,2.69-.63,2.8-.64,.07,0,.08,.03,.09,.05,0,.26-1.54,3.5-4.76,5.83,0,0-.61,.42-.61,.52,0,.03,.01,.14,.15,.14,.13,0,.51-.15,.81-.3,1.58-.79,2.86-2.15,3.34-2.66l.07-.07c.28-.31,.3-.33,.4-.33,.25,0,1.34,.93,2.22,2.47,.45,.8,.51,.91,.84,.91s.58-.28,.58-.62c0-1.16-2.13-2.39-2.83-2.8Zm11.78-2.71c-.19,0-.23,.01-.65,.17-.3,.1-.78,.14-.84,.14-.23,0-.24-.05-.24-.47,0-.33,0-1.12,.12-1.4,0-.02,.03-.06,.06-.11,.09-.17,.16-.3,.16-.37,0-.18-.2-.29-.33-.35h-.02c-.38-.2-.77-.4-1.04-.4-.16,0-.35,.08-.35,.19,0,.03,0,.03,.14,.24,.09,.15,.24,.37,.26,.42,.06,.21,.09,.9,.09,2.05,0,.16-.02,.29-.22,.31-.32,.03-1.12,.08-1.44,.08-.24,0-.24-.15-.24-.2v-.06c0-.12,0-.27,.05-.37,0,0,0-.01,0-.02,0-.02,.05-.12,.09-.2,.09-.17,.14-.29,.14-.35,0-.3-.88-.91-1.2-.91,0,0-.51,.01-.51,.19,0,.05,.05,.12,.2,.29,.03,.03,.05,.06,.06,.06,.2,.31,.27,1.01,.27,1.38,0,.25-.09,.28-.32,.29-.11,0-.43,.02-.76,.04-.34,.02-.7,.04-.83,.04-.16,0-.9-.09-1.08-.11-.04,0-.32-.08-.39-.08s-.15,.07-.15,.18c0,.53,1.13,1.12,1.32,1.12,.06,0,.21-.05,.38-.11,.04-.01,.06-.02,.08-.03,.75-.2,1.48-.3,1.61-.3,.15,0,.23,0,.23,.62,0,.06-.03,.4-.06,.73-.03,.35-.06,.68-.06,.74,0,.23,.37,1.08,.73,1.08,.25,0,.3-.33,.3-.9,0-.12-.02-.46-.04-.82-.02-.39-.04-.78-.04-.93,0-.54,0-.56,.13-.63,.1-.05,.96-.12,1.48-.12,.18,0,.32,0,.32,.34,0,1.4-.15,2.92-1.22,4.51-.06,.1-.32,.44-.52,.7q-.23,.3-.23,.33c0,.08,.06,.14,.14,.14,.14,0,.82-.49,1.37-1.16,1.15-1.42,1.31-2.87,1.36-4.12v-.03c.04-.73,.05-.74,.36-.74,.01,0,1.28,.02,1.71,.09,.04,0,.11,.02,.2,.04,.34,.07,.68,.14,.79,.14,.23,0,.47-.13,.47-.43,0-.66-1.11-.9-1.81-.9Zm9.32,2.32c-.14,0-.15,.09-.15,.13,0,.07,.1,.18,.49,.55l.04,.03c.45,.39,.82,1.07,1.01,1.54h0s.01,.04,.01,.04c.22,.53,.36,.86,.76,.84,.15,0,.28-.05,.39-.15,.17-.16,.23-.42,.23-.61,0-1.11-2.1-2.36-2.78-2.36Zm3.16-4.11c0,.71-.58,1.31-1.27,1.31-.62,0-1.29-.49-1.29-1.29,0-.63,.48-1.28,1.29-1.28,.93,0,1.27,.76,1.27,1.27Zm-2.03,.04c0,.52,.47,.71,.76,.71,.49,0,.73-.43,.73-.71,0-.46-.44-.75-.75-.75-.25,0-.74,.23-.74,.75Zm-5.74,4.55c-.08,0-.22,.13-.29,.21l-.03,.03c-.5,.44-.9,.76-1.2,.94-.35,.22-.51,.37-.51,.65s.21,.47,.41,.53c.07,.03,.15,.05,.26,.05,.86,0,1.5-1.54,1.5-2.19,0-.08-.03-.21-.13-.21Zm5.84-1.76c.32,.05,.85,.13,1,.13,.18,0,.39-.08,.39-.32s-.19-.36-.33-.45h-.02c-.52-.31-.92-.45-1.26-.45-.09,0-.32,.05-.65,.12-.14,.03-.28,.06-.34,.07-.05,0-.12,.02-.2,.03-.28,.04-.72,.1-1.03,.1s-.43-.06-.43-.4c0-.47,.04-.81,.11-.95,0-.02,.04-.07,.07-.12,.1-.15,.16-.26,.16-.32,0-.13-.33-.72-1.25-.72-.28,0-.49,.08-.49,.19,0,.05,.05,.11,.15,.24,.03,.04,.09,.1,.1,.12,.18,.34,.26,1.15,.26,1.6,0,.37-.09,.45-.55,.47-.15,0-.44,.02-.76,.04-.52,.03-1.1,.05-1.28,.05-.55,0-.92-.04-1.11-.12l-.06-.02c-.12-.05-.15-.06-.2-.06-.07,0-.15,.03-.15,.18,0,.28,.65,1.18,.98,1.18,.1,0,.52-.14,.52-.14,.73-.18,2.25-.4,2.33-.4,.26,0,.31,.12,.31,.78s0,1.95-.06,2.54c-.03,.25-.11,.29-.19,.29-.03,0-.18-.05-.28-.08-.16-.05-.27-.09-.32-.09-.07,0-.11,.05-.11,.11,0,.04,.02,.08,.05,.12,.01,.02,.02,.04,.04,.06,.25,.38,.31,.48,.46,.89v.02c.27,.73,.31,.84,.63,.84,.27,0,.73-.14,.73-1.09,0-.27-.02-1.03-.03-1.84-.02-.84-.03-1.71-.03-2.02,0-.66,.04-.66,1.14-.66,.11,0,1.03,.01,1.5,.06,.04,0,.11,.02,.2,.03Zm11.65,.37s-.08,0-.13,0c-.05,0-.11,0-.15,0h0c-1.85,.1-6.28,.27-6.7,.27-.72,0-1.29-.04-1.54-.11-.02,0-.1-.03-.16-.06-.16-.06-.24-.09-.28-.09-.09,0-.16,.09-.16,.21,0,.46,.6,1.28,1.19,1.28,.09,0,.34-.06,.66-.15,.15-.04,.28-.07,.34-.08,.3-.06,3.24-.23,4.95-.23,.12,0,.48,0,.85,.01,.4,0,.81,.01,.96,.01,.54,0,1.12-.04,1.12-.46,0-.16-.17-.62-.95-.62Zm3.67-.67c-.36-.09-.37-.11-.37-.35,0-.32,.05-1.44,.11-1.74v-.03c.11-.3,.15-.46,.15-.52,0-.46-.97-.87-1.43-.87-.15,0-.4,.02-.42,.17,0,.01,0,.02,0,.03l.03,.05s0,.01,.01,.02c.2,.19,.32,.31,.42,.56,.15,.4,.15,.85,.15,4.42,0,1.58-.03,1.9-.11,2.95,0,.02-.01,.11-.03,.17-.02,.1-.03,.16-.03,.19,0,.35,.34,1.26,.77,1.26s.43-.85,.43-1.22c0-.19-.01-.51-.03-.65-.05-1.12-.06-1.8-.06-3.16,0-.88,.05-.88,.12-.88,.35,0,.92,.54,1.3,1.05,.85,1.1,.9,1.17,1.25,1.17,.19,0,.52-.11,.52-.51,0-.97-1.96-1.92-2.79-2.12Zm14.25,4.79l-.07-.04c-1.99-1.18-2.8-3.05-2.8-3.28,0-.08,.05-.11,.24-.11h2.04c.41,0,.7,0,.7-.23,0-.22-1.04-.83-1.12-.83-.09,0-.2,.12-.43,.39-.06,.07-.12,.14-.15,.17-.06,.06-.11,.07-.59,.07h-.53c-.33,0-.33-.08-.33-.53,0-1.33,.03-1.52,.04-1.54,.05-.09,.12-.12,.29-.12h1.69c.42,0,.7,0,.7-.23,0-.16-.92-.85-1.06-.85-.1,0-.23,.13-.49,.43-.06,.07-.11,.13-.14,.15-.07,.06-.14,.07-.4,.07h-.29c-.25,0-.33-.04-.33-.31,0-.29,.03-1.26,.07-1.4,0-.02,.05-.06,.07-.1,.09-.11,.13-.17,.13-.22,0-.21-1.17-.43-1.18-.43-.06,0-.11,.05-.11,.11s.03,.28,.06,.61c.03,.22,.05,.44,.06,.53,.01,.09,.02,.8,.02,.95,0,.24-.14,.26-.29,.26h-.92c-.09,0-.09-.03-.1-.03,0-.02,.05-.13,.09-.23,.04-.1,.09-.21,.12-.29l.04-.09c.13-.31,.14-.32,.22-.35h.03c.21-.08,.32-.11,.32-.24,0-.24-1.2-.55-1.21-.55-.15,0-.16,.1-.18,.33-.03,.27-.2,1.23-.68,2.42-.02,.05-.07,.17-.13,.31-.27,.61-.27,.62-.27,.64,0,.05,.03,.1,.1,.1,.16,0,.8-.78,1.11-1.32,.15-.26,.16-.27,.38-.27h1.08c.25,0,.27,.07,.29,.2,.01,.07,.04,.38,.04,1.66,0,.29-.05,.33-.36,.33h-.37c-.4,0-.94-.02-1.27-.04-.13,0-.23-.01-.26-.01-.03,0-.14,0-.24-.02-.12-.01-.24-.02-.29-.02-.1,0-.11,.05-.11,.09,0,.04,.02,.06,.04,.08,0,0,.02,.02,.04,.04l.23,.27c.04,.05,.08,.1,.16,.1,.02,0,.08,0,.13-.01,.05,0,.1-.01,.12-.01,.28-.03,.93-.04,1.19-.04,.3,0,.39,.01,.39,.19-.01,.12-.78,2.02-2.55,3.68,0,0-.43,.38-.43,.48,0,.07,.07,.11,.13,.11,.07,0,.2-.07,.36-.16,.04-.02,.07-.04,.1-.05,1.36-.84,2.1-1.92,2.86-3.15,.08-.13,.1-.15,.11-.16,0,.01,.01,.07,.01,.17,0,.03-.04,1.9-.05,2.51,0,.18-.02,.42-.04,.66-.03,.31-.05,.62-.05,.86,0,.21,.11,.31,.31,.31,.11,0,.36-.04,.53-.17,.12-.09,.14-.23,.14-.42,0-.29,0-1.12-.01-1.97,0-.89-.01-1.8-.01-2.14,.02,.06,.05,.14,.08,.22,.04,.13,.09,.25,.11,.3,.62,1.62,1.76,3.08,1.94,3.08,.08,0,.2-.08,.45-.25,.05-.04,.1-.07,.12-.08,.19-.08,.4-.13,.59-.13,.15,0,.18-.07,.18-.12,0-.08-.1-.15-.42-.34Zm-7.11-2.58c.3,0,.37-.35,.37-.55,0-.66-.67-.93-.99-1.06h-.02c-.5-.19-.54-.24-.54-.43,0-.7,0-.71,.36-.71h.79c.3,0,.59,0,.59-.21,0-.16-.86-.75-.96-.75-.13,0-.18,.09-.31,.33-.04,.06-.1,.17-.26,.17-.17,0-.19-.08-.19-.17,0-.06,.02-.42,.04-.79,.02-.47,.05-.95,.05-1.07,0-.21,.02-.24,.12-.32l.02-.02c.11-.09,.16-.13,.16-.24,0-.18-.14-.22-.37-.28-.02,0-.09-.03-.17-.06-.28-.09-.52-.17-.61-.17-.06,0-.1,.05-.1,.11,0,.02,0,.12,.03,.31,.02,.28,.06,.65,.06,.77q0,1.92-.26,1.92c-.13,0-.52-.02-.86-.05-.31-.02-.6-.04-.69-.04-.06,0-.1,.04-.1,.1,0,.03,.02,.05,.04,.08l.21,.3s.06,.12,.14,.12c.04,0,.18-.02,.23-.04,.24-.01,.72-.02,.82-.02,.19,0,.31,.04,.31,.22,0,.11-.34,1.73-1.12,3.58l-.03,.07c-.42,.9-.42,.92-.42,.94,0,.05,.04,.09,.09,.09,.26,0,.76-.82,1.48-2.14,.05-.08,.09-.16,.12-.22,0,.35-.04,3.08-.05,3.37-.01,.13-.04,.98-.04,1.1,0,.2,.12,.31,.33,.31,.06,0,.61-.02,.61-.63,0-.14,0-.48-.01-.88-.01-.67-.03-1.5-.02-1.76,0-.18,0-.68,0-1.2,0-.54,0-1.1,0-1.31,0-.18,.05-.21,.06-.21,.05,0,.23,.16,.55,.76l.03,.05c.24,.47,.31,.61,.54,.61Zm15.64-6.01c.2,.12,.7,.75,.91,1.05h0c.25,.37,.29,.42,.45,.42,.36,0,.55-.2,.55-.55,0-.75-1.71-1.17-1.89-1.17-.05,0-.12,.02-.13,.08-.02,.08,.09,.15,.1,.16Zm2.16,1.48c-.15,0-.19,.05-.58,.58-.14,.18-.17,.18-.72,.18h-1.39c-.26,0-.33,0-.35-1.21,0-.56,0-.59,.12-.71,.1-.12,.13-.14,.13-.24,0-.23-.25-.27-.52-.32-.37-.08-.72-.13-.85-.13-.1,0-.15,.03-.15,.1,0,.09,.06,.38,.13,.68,.02,.09,.04,.17,.04,.2,.04,.2,.23,1.46,.23,1.55,0,.05,0,.08-.19,.08h-3.17c-.56,0-1.08-.01-1.63-.04-.07-.01-.45-.05-.54-.05-.08,0-.11,.05-.11,.1,0,.04,.02,.07,.06,.11l.25,.29s.07,.1,.14,.1c.05,0,.23-.02,.27-.04,.42-.02,1.24-.02,1.51-.02h3.24c.25,0,.26,.02,.33,.46,.78,4.66,3.31,7.2,4.39,7.2,.24,0,.37-.13,.37-.36,0-.11-.03-.18-.13-.37-.09-.17-.12-.27-.12-.46,0-.18,.08-.91,.13-1.31,.02-.21,.03-.26,.03-.27,0-.13-.06-.15-.1-.15-.07,0-.11,.06-.32,.51-.03,.07-.06,.13-.08,.16-.08,.15-.33,.6-.47,.6-.33,0-1.62-1.51-2.35-3.78-.24-.77-.48-1.98-.48-2.11,0-.11,0-.13,.21-.13h3.18c.44,0,.7,0,.7-.24s-1.02-.96-1.21-.96Zm-3,6.47s-.01,0-.51,.11c-.74,.16-2.28,.5-2.4,.5-.13,0-.14-.05-.14-.79s.05-1.99,.07-2.1c.03-.1,.12-.16,.28-.16h1.26c.44,0,.71,0,.71-.22,0-.2-.73-.89-.94-.89-.09,0-.18,.11-.38,.36-.09,.12-.21,.26-.25,.28-.07,.03-.23,.03-.55,.03h-.95c-.55,0-1.09-.01-1.63-.04-.07-.01-.45-.05-.54-.05-.05,0-.11,.03-.11,.09,0,.05,.02,.07,.07,.12l.23,.28s.08,.1,.15,.1c.01,0,.05,0,.09-.01,.03,0,.06-.01,.08-.01,.24-.04,.67-.04,1.08-.04,.15,0,.28,.02,.29,.23,0,.02,0,.21,0,.43,0,.31,0,.68,0,.74,0,.17-.01,1.62-.02,1.7,0,.04-.02,.09-.08,.13-.05,.03-.35,.09-1.51,.22h-.12c-.37,.05-.46,.06-.46,.17,0,.01,.32,1.36,.53,1.36,.06,0,.13-.06,.28-.21,.05-.05,.12-.12,.15-.13,.14-.09,.46-.2,2.18-.74,.9-.29,3.26-1.14,3.26-1.37,0-.05-.03-.1-.12-.1Zm15.88-3.67c-2.86-.81-4.92-3.49-4.92-3.78,0-.03,0-.04,.06-.07l.02-.02c.1-.07,.15-.1,.15-.19,0-.27-1.18-.79-1.19-.79-.18,0-.2,.08-.28,.38l-.02,.08c-.05,.2-.72,1.6-2.85,3.41-.67,.57-1.5,1.17-1.83,1.4h-.02c-.15,.11-.21,.15-.21,.23,0,.04,.02,.07,.04,.09,.05,.04,.12,.02,.14,.01,.58-.11,3.25-1.31,5.3-3.88,.06-.08,.25-.31,.28-.33,.02,.01,.09,.15,.15,.26,1.34,2.45,3.93,4.27,4.23,4.27,.11,0,.16-.07,.21-.15,.12-.19,.37-.35,.73-.46,.31-.1,.38-.12,.38-.24,0-.11-.02-.11-.38-.22Zm-8.24,.51s.08,0,.13-.01c.05,0,.1-.01,.12-.01,.44-.04,.78-.04,1.52-.04h2.76c.61,0,.7,0,.7-.19,0-.15-.82-.96-.97-.96-.08,0-.17,.11-.39,.36l-.06,.07c-.23,.28-.24,.29-.8,.29h-1.19c-.39,0-.99,0-1.64-.05-.03,0-.14,0-.24-.02-.12-.01-.24-.02-.29-.02-.06,0-.1,.04-.1,.09,0,.05,.01,.08,.06,.12l.23,.28c.05,.05,.09,.09,.15,.09Zm5.89,3.79s-.01,0-.01,0l-.08-.04c-.9-.49-1.35-.71-1.47-.71-.09,0-.15,.05-.15,.13s.1,.21,.34,.46c.14,.15,.37,.4,.37,.47,0,.06-.19,.08-.9,.15-1.35,.13-2.47,.2-2.61,.2-.05,0-.15-.01-.15-.06,0-.07,.08-.16,.12-.21,.01-.01,.02-.03,.02-.03,.08-.08,.57-.67,.82-1l.04-.05c.26-.34,.28-.37,.35-.39,.37-.1,.41-.11,.41-.26,0-.12-.3-.41-.5-.59h3.71c.58,0,.69,0,.69-.22,0-.14-.01-.16-.63-.67-.28-.23-.33-.27-.45-.27-.14,0-.2,.08-.37,.33l-.02,.02c-.27,.37-.37,.37-.87,.37h-3.96c-.42,0-1.07-.02-1.64-.05-.03,0-.14,0-.24-.02-.12,0-.24-.02-.29-.02-.1,0-.11,.05-.11,.09,0,.03,.02,.05,.04,.08,0,.01,.02,.03,.03,.04l.23,.28,.02,.02s.06,.07,.13,.07c.02,0,.08,0,.13-.01,.05,0,.1-.01,.12-.01,.33-.02,.64-.04,1.51-.04h.76c.24,0,.3,.01,.3,.14,0,.12-.31,.94-.62,1.56-.47,.95-.53,.95-1.19,.95-.21,0-.54-.03-.7-.05l-.08-.02c-.2-.04-.39-.07-.46-.07-.13,0-.16,.08-.16,.15s.08,.27,.66,1.3c.03,.08,.12,.12,.18,.12,.05,0,.12-.04,.26-.13,.04-.03,.09-.06,.11-.07,.42-.18,5.03-1.1,5.54-1.1,.13,0,.22,0,.45,.41,.21,.39,.48,.87,.87,.87,.26,0,.53-.29,.53-.71,0-.78-.76-1.23-1.08-1.43Zm7.36-1.43c.23,0,.48-.19,.48-.61,0-.89-.99-1.25-1.59-1.39-.3-.06-.35-.08-.35-.28s.02-.21,.37-.57c.06-.06,.18-.2,.32-.37,.25-.29,.67-.78,.77-.82,.02,0,.07-.02,.11-.03,.05-.01,.11-.03,.13-.03,.11-.04,.17-.12,.17-.21,0-.1-.03-.13-.31-.4-.02-.01-.09-.1-.16-.18-.09-.1-.19-.21-.25-.28-.04-.06-.13-.11-.22-.11s-.22,.12-.42,.29c-.06,.06-.13,.11-.16,.13-.08,.06-.15,.07-.25,.07s-.13,0-.13-.13v-1.01c0-.5,0-.55,.05-.64,0-.01,.05-.06,.09-.09,.12-.11,.16-.16,.16-.21,0-.12-.11-.19-.17-.22-.1-.05-.99-.33-1.11-.33-.1,0-.11,.07-.11,.09,0,.04,.01,.12,.03,.23,.01,.07,.03,.15,.03,.18,.04,.45,.05,1.15,.05,1.34,0,.83-.01,.83-.27,.83-.13,0-.48-.02-.82-.04-.33-.02-.65-.03-.76-.03-.11,0-.11,.07-.11,.09,0,.03,.01,.05,.05,.09l.03,.03s0,0,0,0l.23,.27c.04,.05,.08,.1,.16,.1,.02,0,.08,0,.13-.01,.05,0,.1-.01,.12-.01,.41-.02,.9-.04,1.39-.04h.84c.13,0,.13,.02,.13,.06,0,.31-1.64,2.37-2.15,2.9-.05,.05-.16,.16-.3,.29-.61,.58-.76,.75-.76,.82,0,.03,.01,.1,.12,.1,.2,0,.73-.4,1.41-.92,.25-.2,.54-.42,.58-.43,.06,0,.06,.2,.06,.27,0,1.14-.03,2.17-.06,3l-.02,.55c0,.07-.01,.24-.02,.41-.01,.17-.02,.33-.02,.39,0,.24,.14,.35,.42,.35,.41,0,.7-.25,.7-.61,0-.09-.02-.32-.03-.55-.01-.22-.03-.44-.03-.51,0-.25,0-.95,0-1.64,0-.66,0-1.31,0-1.53,0-.09,0-.25,.05-.25,.16,0,.52,.5,.64,.71,.32,.65,.46,.91,.79,.91Zm5.46,1.77c-.17,0-.22,.06-.55,.49-.26,.34-.45,.34-.66,.34h-.44c-.24,0-.25-.12-.25-.6,0-.41,0-1.55-.02-2.64,0-1.04-.02-2.05-.02-2.4,0-.21,.02-.33,.29-.33h1.67c.42,0,.7,0,.7-.22,0-.26-.87-1.07-1.07-1.07-.14,0-.18,.05-.54,.54-.23,.31-.27,.31-.83,.31-.21,0-.23-.13-.23-.31,0-.43,.04-2.31,.1-2.46,0-.02,.07-.08,.1-.12,.12-.12,.17-.18,.17-.23,0-.23-.25-.31-.37-.35h-.03s-.08-.04-.17-.06c-.58-.18-.69-.2-.72-.2-.1,0-.16,.05-.16,.15,0,.05,.02,.18,.04,.31,.02,.12,.04,.25,.04,.3,.06,.89,.08,1.44,.08,2.54,0,.37-.04,.43-.25,.43-.26,0-.76-.02-1.12-.03-.19,0-.34-.01-.38-.01-.04,0-.27-.02-.39-.03-.06,0-.11,0-.12,0-.09,0-.1,.08-.1,.09,0,.05,.01,.06,.06,.12l.23,.28c.05,.05,.09,.09,.15,.09,.03,0,.09,0,.15-.01,.05,0,.09-.01,.11-.01,.42-.04,1.11-.04,1.41-.04,.21,0,.23,.15,.23,.31,0,.68-.02,5.24-.05,5.45-.02,.19-.15,.21-.29,.21h-.47c-.62,0-1.2-.02-1.55-.03h-.09s-.17-.02-.28-.03c-.12-.01-.21-.02-.25-.02-.05,0-.1,.04-.1,.1,0,.03,0,.04,.06,.11h0s.23,.28,.23,.28c.04,.06,.09,.11,.16,.11,.02,0,.07,0,.14-.02,.05,0,.1-.02,.12-.02,.35-.03,.96-.03,1.32-.02h4.45c.43,0,.71,0,.71-.23,0-.24-1.09-1.05-1.23-1.05Z"/>
      <path class="cls-1" d="M46.99,39.15c-.05-.13-.35-.92-.35-.96,0-.11,.09-.15,.15-.15,.08,0,.09,.04,.26,.3,.31,.49,.94,.96,1.66,.96,.47,0,1.04-.32,1.04-1.06,0-.64-.42-.87-1.32-1.18-.98-.34-1.63-.71-1.63-1.55,0-.73,.51-1.37,1.41-1.37,.14,0,.32,.02,.5,.06,.08,.01,.37,.08,.42,.08,.06,0,.11-.01,.15-.04,.1-.08,.11-.09,.16-.09,.08,0,.11,.06,.18,.25,.05,.11,.38,.94,.38,.99,0,.09-.08,.11-.12,.11-.06,0-.07-.02-.18-.2-.19-.3-.57-.91-1.44-.91-.79,0-.96,.63-.96,.93,0,.58,.42,.8,1.35,1.12,1.42,.49,1.61,1.06,1.61,1.6,0,.95-.75,1.52-1.53,1.52-.25,0-.5-.05-.76-.14-.19-.06-.24-.07-.28-.07-.11,0-.2,.03-.27,.09-.12,.11-.13,.12-.2,.12-.09,0-.11-.04-.24-.39Zm3.66-2.84c-.08,0-.19,0-.19-.11,0-.09,.04-.1,.24-.13,.11-.01,.7-.15,.7-1.06,0-.06,0-.16,.09-.16,.11,0,.11,.11,.11,.15v.91c0,.06,.02,.18,.18,.18h.75c.07,0,.2,.01,.2,.11,0,.04-.04,.11-.19,.11h-.75s-.13,0-.16,.09c-.03,.08-.03,.87-.03,1.01,0,.21,0,1.34,.02,1.44,.09,.39,.42,.39,.49,.39,.15,0,.32-.06,.47-.18,.04-.03,.2-.19,.25-.19,.03,0,.04,.03,.04,.06,0,.13-.44,.61-1.03,.61-.74,0-.74-.56-.74-1.27,0-.02,.01-1.55,0-1.79,0-.04,0-.18-.18-.18h-.27Zm2.65,3.1s-.18,0-.18-.11,.07-.11,.27-.11c.08,0,.23,0,.32-.16,.06-.1,.08-.18,.08-1.17,0-.23,0-1.25-.04-1.37-.02-.08-.11-.13-.22-.13-.05,0-.29,.06-.34,.06-.04,0-.07-.04-.07-.07,0-.06,.04-.06,.35-.16,.1-.03,.74-.23,.77-.23,.02,0,.03,0,.04,.02v.31c0,.37,0,.42,.07,.42,.03,0,.05-.01,.15-.14,.06-.08,.48-.61,.99-.61,.26,0,.42,.16,.42,.4s-.18,.37-.35,.37c-.15,0-.22-.08-.27-.15-.04-.04-.11-.12-.2-.12-.18,0-.46,.21-.6,.46-.17,.3-.2,.47-.2,1.51,0,.64,.02,.76,.51,.76,.06,0,.15,.02,.15,.11,0,.11-.13,.11-.18,.11h-1.45Zm5.53-2.5c0,.24,0,1.39,0,1.65,0,.33,0,.63,.28,.63,.07,0,.18-.04,.23-.08,0,0,.05-.04,.06-.04,.01,0,.04,0,.04,.04,0,.13-.29,.44-.59,.44-.23,0-.41-.17-.46-.32-.01-.05-.04-.11-.1-.11-.04,0-.11,.05-.17,.1-.27,.21-.62,.33-.93,.33-.42,0-.89-.23-.89-.75,0-.84,1.18-1.2,1.59-1.32,.42-.13,.46-.14,.46-.51,0-.61-.34-.83-.66-.83-.47,0-.54,.33-.56,.43-.05,.21-.1,.46-.37,.46-.18,0-.33-.15-.33-.35,0-.42,.68-.74,1.27-.74,.56,0,1.14,.25,1.16,.96Zm-.55,1.89c.04-.08,.05-.11,.05-.94,0-.14,0-.26-.15-.26-.25,0-1.31,.47-1.31,1.13,0,.19,.12,.51,.61,.51,.24,0,.7-.21,.8-.44Zm3.89,.61c-.06,0-.13-.02-.13-.1-.01-.09-.02-.13-.06-.13s-.2,.15-.24,.18c-.27,.17-.53,.19-.68,.19-1.01,0-1.38-.95-1.38-1.8,0-1.34,.87-1.79,1.47-1.79,.08,0,.2,0,.37,.06,.06,.02,.35,.2,.43,.2,.08,0,.09-.11,.09-.17,0-.08,0-.53,0-.63,0-.31,0-.82-.44-.82-.04,0-.19,.02-.2,.02-.03,0-.07-.02-.07-.06,0-.06,.04-.07,.32-.16,.09-.03,.78-.25,.82-.25,.01,0,.03,0,.06,.04,.02,.03,.02,.47,.02,.55,0,.52-.01,3.07-.01,3.65,0,.37,0,.8,.4,.81,.12,0,.25,0,.25,.13,0,.02-.02,.1-.11,.1h-.89Zm-.17-.78c.03-.15,.03-.89,.03-1.34,0-.39,0-.56-.16-.76-.11-.15-.29-.27-.56-.27-.55,0-1.05,.57-1.05,1.56,0,.73,.3,1.43,.94,1.43,.24,0,.71-.13,.8-.61Zm4.08-1.72c0,.24,0,1.39,0,1.65,0,.33,0,.63,.28,.63,.07,0,.18-.04,.23-.08,0,0,.05-.04,.06-.04,.01,0,.04,0,.04,.04,0,.13-.29,.44-.59,.44-.23,0-.41-.17-.46-.32-.01-.05-.04-.11-.1-.11-.04,0-.11,.05-.17,.1-.27,.21-.62,.33-.93,.33-.42,0-.89-.23-.89-.75,0-.84,1.18-1.2,1.59-1.32,.42-.13,.46-.14,.46-.51,0-.61-.34-.83-.66-.83-.47,0-.54,.33-.56,.43-.05,.21-.1,.46-.37,.46-.18,0-.33-.15-.33-.35,0-.42,.68-.74,1.28-.74,.56,0,1.14,.25,1.15,.96Zm-.55,1.89c.04-.08,.05-.11,.05-.94,0-.14,0-.26-.15-.26-.25,0-1.31,.47-1.31,1.13,0,.19,.12,.51,.61,.51,.24,0,.7-.21,.8-.44Zm5.43-4.52c.79,0,1.79,.26,1.79,1.13,0,.55-.41,.97-.85,1.14-.04,.01-.17,.06-.17,.1s.3,.1,.35,.12c.61,.24,.97,.73,.97,1.23,0,.67-.6,1.42-1.92,1.42h-2.36c-.11,0-.21,0-.21-.11s.11-.11,.22-.11c.23,0,.54,0,.61-.37,.03-.14,.04-2.13,.04-2.4,0-.31,0-1.46-.06-1.65-.09-.26-.42-.26-.49-.26-.23,0-.31,0-.31-.12,0-.11,.07-.11,.27-.11h2.13Zm-.82,2.53s-.13,.03-.16,.09c-.03,.06-.03,1.06-.03,1.23,0,.77,0,1.06,.51,1.06h.61c.76,0,1.3-.43,1.3-1.17,0-.62-.42-1.21-1.28-1.21h-.96Zm.76-.23c.66,0,1.2-.35,1.2-1.07s-.47-1-1.13-1h-.5c-.51,0-.51,.32-.51,.93,0,.35,0,.99,.02,1.05,.03,.06,.12,.09,.16,.09h.76Zm5.15,2.83c-.08,0-.13-.06-.13-.14,0-.16,0-.21-.06-.21-.04,0-.18,.14-.22,.16-.09,.06-.44,.32-.86,.32-.2,0-.95-.07-1-1.09,0-.15,0-.87,0-1.03s0-.93-.03-1.02c-.03-.08-.11-.09-.18-.09-.03,0-.18,.01-.21,.01-.05,0-.07-.03-.07-.06,0-.06,.03-.06,.28-.13,.21-.06,.63-.18,.64-.18,.02,0,.06,.01,.06,.06,0,0,0,1.83,0,2.04,0,.42,0,.6,.07,.78,.11,.29,.37,.42,.61,.42,.3,0,.75-.25,.87-.51,.09-.18,.1-1.25,.1-1.5,0-.7,0-.92-.27-.92-.04,0-.2,.02-.24,.02-.07,0-.08-.04-.08-.06,0-.08,.05-.09,.51-.2,.12-.03,.46-.12,.49-.12s.06,.03,.06,.06c.01,.06,0,1.2,0,1.42,0,.18,.01,1.08,.01,1.29,0,.15,0,.46,.35,.46,.08,0,.19,0,.19,.12,0,.05-.03,.11-.12,.11h-.8Zm2.77-3.32c.06,.02,.08,.04,.13,.04,.09,0,.15-.04,.2-.1,.05-.05,.07-.07,.1-.07,.04,0,.06,.04,.08,.09,.06,.16,.38,.93,.38,1.01,0,.04-.01,.07-.06,.07-.07,0-.08-.03-.25-.28-.08-.13-.59-.7-1.04-.7-.26,0-.61,.18-.61,.57,0,.29,.19,.45,.9,.7,.82,.29,1.23,.55,1.23,1.11,0,.47-.33,1.02-1.08,1.02-.19,0-.27-.02-.57-.11-.04-.01-.09-.02-.13-.02-.1,0-.17,.03-.21,.04-.13,.06-.22,.09-.25,.09-.06,0-.08-.06-.12-.15-.06-.16-.34-.87-.34-.96,0-.04,.01-.12,.08-.12,.08,0,.13,.08,.25,.28,.31,.54,.97,.75,1.3,.75,.34,0,.61-.3,.61-.64,0-.32-.2-.49-1.02-.77-.74-.26-1.11-.51-1.11-1.05s.39-.94,.93-.94c.24,0,.34,.04,.61,.13Zm1.42,3.32c-.06,0-.16,0-.16-.11,0-.11,.08-.11,.22-.12,.09,0,.22-.04,.28-.2,.06-.12,.06-1.15,.06-1.4,0-.2,0-1.01-.04-1.11-.03-.08-.11-.12-.2-.12-.04,0-.21,.02-.22,.02-.03,0-.06-.01-.06-.06s.04-.06,.35-.16c.09-.03,.53-.19,.58-.19,.07,0,.07,.06,.07,.13,0,.32,0,1.9,0,2.26,0,.51,0,.81,.32,.83,.14,0,.23,.01,.23,.12,0,.11-.12,.11-.17,.11h-1.25Zm.23-4.86c0-.23,.18-.41,.41-.4,.23,0,.41,.18,.41,.4s-.18,.41-.41,.41-.41-.18-.41-.41Zm3.51,4.86c-.13,0-.13-.1-.13-.11,0-.1,.09-.11,.13-.11,.18-.02,.25-.03,.34-.15,.07-.11,.07-.23,.07-1.37,0-.67,0-.93-.15-1.16-.15-.24-.38-.26-.46-.26-.23,0-.52,.12-.72,.32-.21,.22-.21,.32-.21,1.13,0,.18,0,1.04,.02,1.17,.04,.23,.16,.3,.35,.31,.07,0,.19,0,.19,.11,0,.01,0,.11-.14,.11h-1.31c-.14,0-.14-.1-.14-.11,0-.12,.08-.12,.19-.12,.18,0,.28-.11,.32-.21,.06-.16,.06-1.1,.06-1.34,0-1.14,0-1.32-.32-1.32-.03,0-.18,.03-.2,.03s-.07,0-.07-.06,.03-.06,.28-.12c.11-.03,.7-.2,.73-.2,.07,0,.07,.03,.07,.31,0,.1,0,.15,.05,.15s.25-.18,.29-.21c.28-.18,.53-.25,.79-.25,.51,0,.72,.27,.79,.47,.1,.27,.1,.39,.1,1.49,0,.21,0,.94,.05,1.06,.01,.05,.09,.2,.32,.21,.11,0,.2,0,.2,.12,0,.11-.08,.11-.14,.11h-1.32Zm2.6-1.85c-.09,0-.23,0-.23,.23,0,.86,.58,1.45,1.17,1.45,.32,0,.63-.19,.85-.39,.04-.03,.2-.27,.27-.27,.04,0,.07,.04,.07,.09,0,.15-.49,.88-1.42,.88-.99,0-1.54-.78-1.54-1.8,0-1.17,.73-1.79,1.49-1.79,1.09,0,1.4,1.16,1.4,1.45,0,.13-.07,.16-.21,.16h-1.85Zm1.3-.23c.15,0,.23-.04,.23-.2,0-.27-.25-.99-.84-.99-.66,0-.86,.88-.86,1.04s.12,.15,.18,.15h1.29Zm2.84-1.25c.06,.02,.08,.04,.13,.04,.09,0,.15-.04,.2-.1,.05-.05,.07-.07,.1-.07,.04,0,.06,.04,.08,.09,.06,.16,.38,.93,.38,1.01,0,.04-.01,.07-.06,.07-.07,0-.08-.03-.25-.28-.08-.13-.59-.7-1.04-.7-.26,0-.61,.18-.61,.57,0,.29,.19,.45,.9,.7,.82,.29,1.23,.55,1.23,1.11,0,.47-.33,1.02-1.08,1.02-.19,0-.27-.02-.57-.11-.04-.01-.09-.02-.13-.02-.1,0-.17,.03-.21,.04-.13,.06-.22,.09-.25,.09-.06,0-.08-.06-.12-.15-.06-.16-.34-.87-.34-.96,0-.04,.01-.12,.08-.12,.08,0,.13,.08,.25,.28,.31,.54,.97,.75,1.3,.75,.34,0,.61-.3,.61-.64,0-.32-.2-.49-1.02-.77-.74-.26-1.11-.51-1.11-1.05s.39-.94,.93-.94c.24,0,.34,.04,.61,.13Zm3.01,0c.06,.02,.08,.04,.13,.04,.09,0,.15-.04,.2-.1,.05-.05,.07-.07,.1-.07,.04,0,.06,.04,.08,.09,.06,.16,.38,.93,.38,1.01,0,.04-.01,.07-.06,.07-.07,0-.08-.03-.25-.28-.08-.13-.59-.7-1.04-.7-.26,0-.61,.18-.61,.57,0,.29,.19,.45,.9,.7,.82,.29,1.23,.55,1.23,1.11,0,.47-.33,1.02-1.08,1.02-.19,0-.27-.02-.57-.11-.04-.01-.09-.02-.13-.02-.1,0-.17,.03-.21,.04-.13,.06-.22,.09-.25,.09-.06,0-.08-.06-.12-.15-.06-.16-.34-.87-.34-.96,0-.04,.01-.12,.08-.12,.08,0,.13,.08,.25,.28,.31,.54,.97,.75,1.3,.75,.35,0,.61-.3,.61-.64,0-.32-.2-.49-1.02-.77-.74-.26-1.11-.51-1.11-1.05s.4-.94,.93-.94c.24,0,.34,.04,.61,.13Zm3.86,3.06c-.05-.13-.35-.92-.35-.96,0-.11,.09-.15,.15-.15,.08,0,.09,.04,.26,.3,.31,.49,.94,.96,1.66,.96,.47,0,1.04-.32,1.04-1.06,0-.64-.42-.87-1.32-1.18-.98-.34-1.63-.71-1.63-1.55,0-.73,.51-1.37,1.41-1.37,.14,0,.32,.02,.5,.06,.08,.01,.37,.08,.42,.08,.06,0,.11-.01,.15-.04,.1-.08,.11-.09,.16-.09,.09,0,.11,.06,.18,.25,.05,.11,.38,.94,.38,.99,0,.09-.08,.11-.12,.11-.06,0-.07-.02-.18-.2-.19-.3-.57-.91-1.44-.91-.79,0-.96,.63-.96,.93,0,.58,.42,.8,1.35,1.12,1.42,.49,1.61,1.06,1.61,1.6,0,.95-.75,1.52-1.53,1.52-.25,0-.5-.05-.76-.14-.19-.06-.24-.07-.28-.07-.11,0-.2,.03-.27,.09-.12,.11-.13,.12-.2,.12-.09,0-.11-.04-.24-.39Zm6.18,.26c-.08,0-.13-.06-.13-.14,0-.16,0-.21-.06-.21-.04,0-.18,.14-.22,.16-.09,.06-.44,.32-.86,.32-.2,0-.95-.07-1-1.09,0-.15,0-.87,0-1.03s0-.93-.03-1.02c-.03-.08-.11-.09-.18-.09-.03,0-.18,.01-.21,.01-.05,0-.07-.03-.07-.06,0-.06,.03-.06,.28-.13,.21-.06,.63-.18,.64-.18,.02,0,.06,.01,.06,.06,0,0,0,1.83,0,2.04,0,.42,0,.6,.07,.78,.11,.29,.37,.42,.61,.42,.3,0,.75-.25,.87-.51,.09-.18,.1-1.25,.1-1.5,0-.7,0-.92-.27-.92-.03,0-.2,.02-.24,.02-.07,0-.08-.04-.08-.06,0-.08,.05-.09,.51-.2,.12-.03,.46-.12,.49-.12s.06,.03,.06,.06c.01,.06,0,1.2,0,1.42,0,.18,.01,1.08,.01,1.29,0,.15,0,.46,.35,.46,.08,0,.19,0,.19,.12,0,.05-.04,.11-.12,.11h-.8Zm1.19,1.16c-.06,0-.19-.01-.19-.11,0-.11,.13-.11,.25-.12,.17,0,.3-.08,.35-.3,.02-.13,.02-2.44,.02-2.87,0-.62,0-.82-.25-.82-.04,0-.25,.05-.3,.05-.03,0-.06-.03-.06-.06,0-.05,.03-.06,.16-.11,.08-.02,.87-.28,.89-.28,.05,0,.05,.06,.05,.2,0,.11,0,.15,.06,.15,0,0,.23-.13,.25-.14,.13-.08,.42-.21,.74-.21,.73,0,1.4,.64,1.4,1.73,0,.93-.53,1.86-1.41,1.86-.31,0-.58-.09-.68-.13-.04-.02-.21-.11-.26-.11-.09,0-.09,.02-.09,.58,0,.13,0,.44,.35,.46,.2,0,.29,.01,.29,.12s-.13,.11-.2,.11h-1.36Zm1.1-4.04c-.18,.17-.18,.29-.18,1.31s.03,1.06,.18,1.2c.22,.2,.56,.21,.67,.21,.79,0,1.01-.87,1.01-1.49,0-.83-.35-1.5-1-1.5-.23,0-.5,.11-.68,.27Zm2.7,4.04c-.06,0-.19-.01-.19-.11,0-.11,.13-.11,.25-.12,.17,0,.3-.08,.34-.3,.02-.13,.02-2.44,.02-2.87,0-.62,0-.82-.25-.82-.04,0-.25,.05-.3,.05-.04,0-.06-.03-.06-.06,0-.05,.03-.06,.16-.11,.08-.02,.87-.28,.89-.28,.05,0,.05,.06,.05,.2,0,.11,0,.15,.06,.15,0,0,.23-.13,.25-.14,.13-.08,.42-.21,.74-.21,.73,0,1.4,.64,1.4,1.73,0,.93-.53,1.86-1.41,1.86-.31,0-.58-.09-.68-.13-.04-.02-.21-.11-.26-.11-.09,0-.09,.02-.09,.58,0,.13,0,.44,.35,.46,.2,0,.29,.01,.29,.12s-.13,.11-.2,.11h-1.36Zm1.1-4.04c-.18,.17-.18,.29-.18,1.31s.03,1.06,.18,1.2c.22,.2,.56,.21,.67,.21,.79,0,1.01-.87,1.01-1.49,0-.83-.35-1.5-1-1.5-.23,0-.5,.11-.68,.27Zm4.17-.57c.9,0,1.56,.78,1.56,1.8s-.66,1.8-1.56,1.8-1.56-.79-1.56-1.8,.64-1.8,1.56-1.8Zm0,3.4c.59,0,.96-.76,.96-1.61s-.37-1.61-.96-1.61c-.53,0-.96,.66-.96,1.61,0,.83,.36,1.61,.96,1.61Zm2.01,.06s-.18,0-.18-.11,.07-.11,.27-.11c.08,0,.23,0,.32-.16,.06-.1,.08-.18,.08-1.17,0-.23,0-1.25-.04-1.37-.02-.08-.11-.13-.22-.13-.05,0-.29,.06-.34,.06-.04,0-.07-.04-.07-.07,0-.06,.04-.06,.35-.16,.1-.03,.74-.23,.77-.23,.02,0,.03,0,.04,.02v.31c0,.37,0,.42,.07,.42,.03,0,.05-.01,.15-.14,.06-.08,.48-.61,.99-.61,.26,0,.42,.16,.42,.4s-.18,.37-.35,.37c-.15,0-.22-.08-.27-.15-.04-.04-.11-.12-.2-.12-.18,0-.46,.21-.6,.46-.17,.3-.2,.47-.2,1.51,0,.64,.02,.76,.51,.76,.06,0,.15,.02,.15,.11,0,.11-.13,.11-.18,.11h-1.45Zm3-3.1c-.08,0-.19,0-.19-.11,0-.09,.03-.1,.24-.13,.11-.01,.7-.15,.7-1.06,0-.06,0-.16,.09-.16,.11,0,.11,.11,.11,.15v.91c0,.06,.02,.18,.18,.18h.75c.07,0,.2,.01,.2,.11,0,.04-.04,.11-.19,.11h-.75s-.13,0-.16,.09c-.03,.08-.03,.87-.03,1.01,0,.21,0,1.34,.02,1.44,.09,.39,.42,.39,.49,.39,.15,0,.32-.06,.47-.18,.04-.03,.2-.19,.25-.19,.03,0,.04,.03,.04,.06,0,.13-.44,.61-1.03,.61-.74,0-.74-.56-.74-1.27,0-.02,.01-1.55,0-1.79,0-.04,0-.18-.18-.18h-.27Zm4.3,3.1c-.09,0-.2,0-.2-.11s.06-.11,.33-.11c.2,0,.54,0,.61-.37,.02-.12,.02-1.74,.02-1.94,0-.29,0-1.88-.02-2.01-.07-.36-.32-.36-.79-.36-.04,0-.15,0-.15-.11,0-.12,.11-.12,.2-.12h2.07c.08,0,.19,0,.19,.12,0,.11-.06,.11-.32,.11-.21,0-.51,0-.61,.32-.03,.1-.03,1.68-.03,2.01,0,1.87,0,1.87,.02,1.99,.06,.37,.32,.37,.79,.37,.03,0,.15,0,.15,.11s-.11,.11-.19,.11h-2.08Zm4.53,0c-.13,0-.13-.1-.13-.11,0-.1,.09-.11,.13-.11,.18-.02,.25-.03,.34-.15,.07-.11,.07-.23,.07-1.37,0-.67,0-.93-.15-1.16-.15-.24-.38-.26-.46-.26-.23,0-.52,.12-.72,.32-.21,.22-.21,.32-.21,1.13,0,.18,0,1.04,.02,1.17,.04,.23,.16,.3,.35,.31,.07,0,.19,0,.19,.11,0,.01,0,.11-.14,.11h-1.31c-.14,0-.14-.1-.14-.11,0-.12,.08-.12,.19-.12,.18,0,.28-.11,.32-.21,.06-.16,.06-1.1,.06-1.34,0-1.14,0-1.32-.32-1.32-.03,0-.18,.03-.2,.03s-.07,0-.07-.06,.03-.06,.28-.12c.11-.03,.7-.2,.73-.2,.07,0,.07,.03,.07,.31,0,.1,0,.15,.05,.15s.25-.18,.29-.21c.28-.18,.53-.25,.79-.25,.51,0,.72,.27,.79,.47,.1,.27,.1,.39,.1,1.49,0,.21,0,.94,.05,1.06,.01,.05,.08,.2,.32,.21,.11,0,.2,0,.2,.12,0,.11-.08,.11-.14,.11h-1.32Zm3.29,.13c-.66,0-1.46-.42-1.46-1.72,0-1.08,.61-1.87,1.63-1.87,.56,0,1.09,.28,1.09,.67,0,.24-.18,.37-.38,.37-.29,0-.32-.25-.33-.42-.04-.42-.44-.42-.48-.42-.51,0-.94,.65-.94,1.57s.48,1.53,1.07,1.53c.34,0,.71-.19,.94-.48,.06-.08,.09-.12,.15-.12,.03,0,.07,.02,.07,.08,0,.11-.49,.82-1.36,.82Zm1.78-.46c0-.25,.2-.46,.46-.46s.47,.2,.47,.46-.23,.46-.47,.46-.46-.2-.46-.46Z"/>
      <path class="cls-1" d="M39.47,25.58c0-3.46-2.66-6.3-6.04-6.61-.3-3.38-3.15-6.04-6.61-6.04s-6.31,2.66-6.61,6.04c-3.38,.3-6.04,3.15-6.04,6.61s2.66,6.31,6.04,6.61c.3,3.38,3.15,6.04,6.61,6.04s6.31-2.66,6.61-6.04c3.38-.3,6.04-3.15,6.04-6.61Zm-13.22-.82c-1.82-.61-3.13-2.34-3.13-4.33,0-2.51,2.05-4.56,4.56-4.56,1.99,0,3.72,1.31,4.33,3.13-3,.37-5.39,2.76-5.76,5.76Zm-6.01-4.36c.37,3,2.76,5.39,5.76,5.76-.61,1.82-2.34,3.13-4.33,3.13-2.51,0-4.56-2.05-4.56-4.56,0-1.99,1.31-3.72,3.13-4.33Zm7.16,6.01c1.82,.61,3.13,2.34,3.13,4.33,0,2.51-2.05,4.56-4.56,4.56-1.99,0-3.72-1.31-4.33-3.13,3-.37,5.39-2.76,5.76-5.76Zm6.01,4.36c-.37-3-2.76-5.39-5.76-5.76,.61-1.82,2.34-3.13,4.33-3.13,2.51,0,4.56,2.05,4.56,4.56,0,1.99-1.31,3.72-3.13,4.33Z"/>
    </g>
    <text class="cls-2" transform="translate(221.06 29.45)"><tspan class="cls-3" x="0" y="0">リ</tspan><tspan class="cls-4" x="8.4" y="0">ク</tspan><tspan x="17.5" y="0">ル</tspan><tspan class="cls-10" x="27.5" y="0">ー</tspan><tspan class="cls-7" x="36" y="0">ト</tspan><tspan class="cls-8" x="45.3" y="0">ペ</tspan><tspan class="cls-6" x="55.2" y="0">ー</tspan><tspan class="cls-9" x="64.7" y="0">ジ</tspan></text>
  </g>
</svg>